<?xml version="1.0" encoding="utf-8" standalone="no"?>
<!DOCTYPE svg PUBLIC "-//W3C//DTD SVG 1.1//EN"
  "http://www.w3.org/Graphics/SVG/1.1/DTD/svg11.dtd">
<!-- Created with matplotlib (https://matplotlib.org/) -->
<svg height="335.323594pt" version="1.1" viewBox="0 0 899.767865 335.323594" width="899.767865pt" xmlns="http://www.w3.org/2000/svg" xmlns:xlink="http://www.w3.org/1999/xlink">
 <defs>
  <style type="text/css">
*{stroke-linecap:butt;stroke-linejoin:round;}
  </style>
 </defs>
 <g id="figure_1">
  <g id="patch_1">
   <path d="M 0 335.323594 
L 899.767865 335.323594 
L 899.767865 0 
L 0 0 
z
" style="fill:#ffffff;"/>
  </g>
  <g id="axes_1">
   <g id="patch_2">
    <path d="M 50.341094 293.589375 
L 430.795639 293.589375 
L 430.795639 21.789375 
L 50.341094 21.789375 
z
" style="fill:#ffffff;"/>
   </g>
   <g id="matplotlib.axis_1">
    <g id="xtick_1">
     <g id="line2d_1">
      <path clip-path="url(#pa7e7f5f5dd)" d="M 72.201915 293.589375 
L 72.201915 21.789375 
" style="fill:none;stroke:#cccccc;stroke-linecap:round;"/>
     </g>
     <g id="text_1">
      <!-- 0 -->
      <defs>
       <path d="M 4.15625 35.296875 
Q 4.15625 48 6.765625 55.734375 
Q 9.375 63.484375 14.515625 67.671875 
Q 19.671875 71.875 27.484375 71.875 
Q 33.25 71.875 37.59375 69.546875 
Q 41.9375 67.234375 44.765625 62.859375 
Q 47.609375 58.5 49.21875 52.21875 
Q 50.828125 45.953125 50.828125 35.296875 
Q 50.828125 22.703125 48.234375 14.96875 
Q 45.65625 7.234375 40.5 3 
Q 35.359375 -1.21875 27.484375 -1.21875 
Q 17.140625 -1.21875 11.234375 6.203125 
Q 4.15625 15.140625 4.15625 35.296875 
z
M 13.1875 35.296875 
Q 13.1875 17.671875 17.3125 11.828125 
Q 21.4375 6 27.484375 6 
Q 33.546875 6 37.671875 11.859375 
Q 41.796875 17.71875 41.796875 35.296875 
Q 41.796875 52.984375 37.671875 58.78125 
Q 33.546875 64.59375 27.390625 64.59375 
Q 21.34375 64.59375 17.71875 59.46875 
Q 13.1875 52.9375 13.1875 35.296875 
z
" id="ArialMT-48"/>
      </defs>
      <g style="fill:#262626;" transform="translate(69.1434 310.962969)scale(0.11 -0.11)">
       <use xlink:href="#ArialMT-48"/>
      </g>
     </g>
    </g>
    <g id="xtick_2">
     <g id="line2d_2">
      <path clip-path="url(#pa7e7f5f5dd)" d="M 131.017835 293.589375 
L 131.017835 21.789375 
" style="fill:none;stroke:#cccccc;stroke-linecap:round;"/>
     </g>
     <g id="text_2">
      <!-- 500 -->
      <defs>
       <path d="M 4.15625 18.75 
L 13.375 19.53125 
Q 14.40625 12.796875 18.140625 9.390625 
Q 21.875 6 27.15625 6 
Q 33.5 6 37.890625 10.78125 
Q 42.28125 15.578125 42.28125 23.484375 
Q 42.28125 31 38.0625 35.34375 
Q 33.84375 39.703125 27 39.703125 
Q 22.75 39.703125 19.328125 37.765625 
Q 15.921875 35.84375 13.96875 32.765625 
L 5.71875 33.84375 
L 12.640625 70.609375 
L 48.25 70.609375 
L 48.25 62.203125 
L 19.671875 62.203125 
L 15.828125 42.96875 
Q 22.265625 47.46875 29.34375 47.46875 
Q 38.71875 47.46875 45.15625 40.96875 
Q 51.609375 34.46875 51.609375 24.265625 
Q 51.609375 14.546875 45.953125 7.46875 
Q 39.0625 -1.21875 27.15625 -1.21875 
Q 17.390625 -1.21875 11.203125 4.25 
Q 5.03125 9.71875 4.15625 18.75 
z
" id="ArialMT-53"/>
      </defs>
      <g style="fill:#262626;" transform="translate(121.842288 310.962969)scale(0.11 -0.11)">
       <use xlink:href="#ArialMT-53"/>
       <use x="55.615234" xlink:href="#ArialMT-48"/>
       <use x="111.230469" xlink:href="#ArialMT-48"/>
      </g>
     </g>
    </g>
    <g id="xtick_3">
     <g id="line2d_3">
      <path clip-path="url(#pa7e7f5f5dd)" d="M 189.833754 293.589375 
L 189.833754 21.789375 
" style="fill:none;stroke:#cccccc;stroke-linecap:round;"/>
     </g>
     <g id="text_3">
      <!-- 1000 -->
      <defs>
       <path d="M 37.25 0 
L 28.46875 0 
L 28.46875 56 
Q 25.296875 52.984375 20.140625 49.953125 
Q 14.984375 46.921875 10.890625 45.40625 
L 10.890625 53.90625 
Q 18.265625 57.375 23.78125 62.296875 
Q 29.296875 67.234375 31.59375 71.875 
L 37.25 71.875 
z
" id="ArialMT-49"/>
      </defs>
      <g style="fill:#262626;" transform="translate(177.599692 310.962969)scale(0.11 -0.11)">
       <use xlink:href="#ArialMT-49"/>
       <use x="55.615234" xlink:href="#ArialMT-48"/>
       <use x="111.230469" xlink:href="#ArialMT-48"/>
       <use x="166.845703" xlink:href="#ArialMT-48"/>
      </g>
     </g>
    </g>
    <g id="xtick_4">
     <g id="line2d_4">
      <path clip-path="url(#pa7e7f5f5dd)" d="M 248.649674 293.589375 
L 248.649674 21.789375 
" style="fill:none;stroke:#cccccc;stroke-linecap:round;"/>
     </g>
     <g id="text_4">
      <!-- 1500 -->
      <g style="fill:#262626;" transform="translate(236.415611 310.962969)scale(0.11 -0.11)">
       <use xlink:href="#ArialMT-49"/>
       <use x="55.615234" xlink:href="#ArialMT-53"/>
       <use x="111.230469" xlink:href="#ArialMT-48"/>
       <use x="166.845703" xlink:href="#ArialMT-48"/>
      </g>
     </g>
    </g>
    <g id="xtick_5">
     <g id="line2d_5">
      <path clip-path="url(#pa7e7f5f5dd)" d="M 307.465593 293.589375 
L 307.465593 21.789375 
" style="fill:none;stroke:#cccccc;stroke-linecap:round;"/>
     </g>
     <g id="text_5">
      <!-- 2000 -->
      <defs>
       <path d="M 50.34375 8.453125 
L 50.34375 0 
L 3.03125 0 
Q 2.9375 3.171875 4.046875 6.109375 
Q 5.859375 10.9375 9.828125 15.625 
Q 13.8125 20.3125 21.34375 26.46875 
Q 33.015625 36.03125 37.109375 41.625 
Q 41.21875 47.21875 41.21875 52.203125 
Q 41.21875 57.421875 37.46875 61 
Q 33.734375 64.59375 27.734375 64.59375 
Q 21.390625 64.59375 17.578125 60.78125 
Q 13.765625 56.984375 13.71875 50.25 
L 4.6875 51.171875 
Q 5.609375 61.28125 11.65625 66.578125 
Q 17.71875 71.875 27.9375 71.875 
Q 38.234375 71.875 44.234375 66.15625 
Q 50.25 60.453125 50.25 52 
Q 50.25 47.703125 48.484375 43.546875 
Q 46.734375 39.40625 42.65625 34.8125 
Q 38.578125 30.21875 29.109375 22.21875 
Q 21.1875 15.578125 18.9375 13.203125 
Q 16.703125 10.84375 15.234375 8.453125 
z
" id="ArialMT-50"/>
      </defs>
      <g style="fill:#262626;" transform="translate(295.231531 310.962969)scale(0.11 -0.11)">
       <use xlink:href="#ArialMT-50"/>
       <use x="55.615234" xlink:href="#ArialMT-48"/>
       <use x="111.230469" xlink:href="#ArialMT-48"/>
       <use x="166.845703" xlink:href="#ArialMT-48"/>
      </g>
     </g>
    </g>
    <g id="xtick_6">
     <g id="line2d_6">
      <path clip-path="url(#pa7e7f5f5dd)" d="M 366.281513 293.589375 
L 366.281513 21.789375 
" style="fill:none;stroke:#cccccc;stroke-linecap:round;"/>
     </g>
     <g id="text_6">
      <!-- 2500 -->
      <g style="fill:#262626;" transform="translate(354.04745 310.962969)scale(0.11 -0.11)">
       <use xlink:href="#ArialMT-50"/>
       <use x="55.615234" xlink:href="#ArialMT-53"/>
       <use x="111.230469" xlink:href="#ArialMT-48"/>
       <use x="166.845703" xlink:href="#ArialMT-48"/>
      </g>
     </g>
    </g>
    <g id="xtick_7">
     <g id="line2d_7">
      <path clip-path="url(#pa7e7f5f5dd)" d="M 425.097432 293.589375 
L 425.097432 21.789375 
" style="fill:none;stroke:#cccccc;stroke-linecap:round;"/>
     </g>
     <g id="text_7">
      <!-- 3000 -->
      <defs>
       <path d="M 4.203125 18.890625 
L 12.984375 20.0625 
Q 14.5 12.59375 18.140625 9.296875 
Q 21.78125 6 27 6 
Q 33.203125 6 37.46875 10.296875 
Q 41.75 14.59375 41.75 20.953125 
Q 41.75 27 37.796875 30.921875 
Q 33.84375 34.859375 27.734375 34.859375 
Q 25.25 34.859375 21.53125 33.890625 
L 22.515625 41.609375 
Q 23.390625 41.5 23.921875 41.5 
Q 29.546875 41.5 34.03125 44.421875 
Q 38.53125 47.359375 38.53125 53.46875 
Q 38.53125 58.296875 35.25 61.46875 
Q 31.984375 64.65625 26.8125 64.65625 
Q 21.6875 64.65625 18.265625 61.421875 
Q 14.84375 58.203125 13.875 51.765625 
L 5.078125 53.328125 
Q 6.6875 62.15625 12.390625 67.015625 
Q 18.109375 71.875 26.609375 71.875 
Q 32.46875 71.875 37.390625 69.359375 
Q 42.328125 66.84375 44.9375 62.5 
Q 47.5625 58.15625 47.5625 53.265625 
Q 47.5625 48.640625 45.0625 44.828125 
Q 42.578125 41.015625 37.703125 38.765625 
Q 44.046875 37.3125 47.5625 32.6875 
Q 51.078125 28.078125 51.078125 21.140625 
Q 51.078125 11.765625 44.234375 5.25 
Q 37.40625 -1.265625 26.953125 -1.265625 
Q 17.53125 -1.265625 11.296875 4.34375 
Q 5.078125 9.96875 4.203125 18.890625 
z
" id="ArialMT-51"/>
      </defs>
      <g style="fill:#262626;" transform="translate(412.86337 310.962969)scale(0.11 -0.11)">
       <use xlink:href="#ArialMT-51"/>
       <use x="55.615234" xlink:href="#ArialMT-48"/>
       <use x="111.230469" xlink:href="#ArialMT-48"/>
       <use x="166.845703" xlink:href="#ArialMT-48"/>
      </g>
     </g>
    </g>
    <g id="text_8">
     <!-- mean area -->
     <defs>
      <path d="M 6.59375 0 
L 6.59375 51.859375 
L 14.453125 51.859375 
L 14.453125 44.578125 
Q 16.890625 48.390625 20.9375 50.703125 
Q 25 53.03125 30.171875 53.03125 
Q 35.9375 53.03125 39.625 50.640625 
Q 43.3125 48.25 44.828125 43.953125 
Q 50.984375 53.03125 60.84375 53.03125 
Q 68.5625 53.03125 72.703125 48.75 
Q 76.859375 44.484375 76.859375 35.59375 
L 76.859375 0 
L 68.109375 0 
L 68.109375 32.671875 
Q 68.109375 37.9375 67.25 40.25 
Q 66.40625 42.578125 64.15625 43.984375 
Q 61.921875 45.40625 58.890625 45.40625 
Q 53.421875 45.40625 49.796875 41.765625 
Q 46.1875 38.140625 46.1875 30.125 
L 46.1875 0 
L 37.40625 0 
L 37.40625 33.6875 
Q 37.40625 39.546875 35.25 42.46875 
Q 33.109375 45.40625 28.21875 45.40625 
Q 24.515625 45.40625 21.359375 43.453125 
Q 18.21875 41.5 16.796875 37.734375 
Q 15.375 33.984375 15.375 26.90625 
L 15.375 0 
z
" id="ArialMT-109"/>
      <path d="M 42.09375 16.703125 
L 51.171875 15.578125 
Q 49.03125 7.625 43.21875 3.21875 
Q 37.40625 -1.171875 28.375 -1.171875 
Q 17 -1.171875 10.328125 5.828125 
Q 3.65625 12.84375 3.65625 25.484375 
Q 3.65625 38.578125 10.390625 45.796875 
Q 17.140625 53.03125 27.875 53.03125 
Q 38.28125 53.03125 44.875 45.953125 
Q 51.46875 38.875 51.46875 26.03125 
Q 51.46875 25.25 51.421875 23.6875 
L 12.75 23.6875 
Q 13.234375 15.140625 17.578125 10.59375 
Q 21.921875 6.0625 28.421875 6.0625 
Q 33.25 6.0625 36.671875 8.59375 
Q 40.09375 11.140625 42.09375 16.703125 
z
M 13.234375 30.90625 
L 42.1875 30.90625 
Q 41.609375 37.453125 38.875 40.71875 
Q 34.671875 45.796875 27.984375 45.796875 
Q 21.921875 45.796875 17.796875 41.75 
Q 13.671875 37.703125 13.234375 30.90625 
z
" id="ArialMT-101"/>
      <path d="M 40.4375 6.390625 
Q 35.546875 2.25 31.03125 0.53125 
Q 26.515625 -1.171875 21.34375 -1.171875 
Q 12.796875 -1.171875 8.203125 3 
Q 3.609375 7.171875 3.609375 13.671875 
Q 3.609375 17.484375 5.34375 20.625 
Q 7.078125 23.78125 9.890625 25.6875 
Q 12.703125 27.59375 16.21875 28.5625 
Q 18.796875 29.25 24.03125 29.890625 
Q 34.671875 31.15625 39.703125 32.90625 
Q 39.75 34.71875 39.75 35.203125 
Q 39.75 40.578125 37.25 42.78125 
Q 33.890625 45.75 27.25 45.75 
Q 21.046875 45.75 18.09375 43.578125 
Q 15.140625 41.40625 13.71875 35.890625 
L 5.125 37.0625 
Q 6.296875 42.578125 8.984375 45.96875 
Q 11.671875 49.359375 16.75 51.1875 
Q 21.828125 53.03125 28.515625 53.03125 
Q 35.15625 53.03125 39.296875 51.46875 
Q 43.453125 49.90625 45.40625 47.53125 
Q 47.359375 45.171875 48.140625 41.546875 
Q 48.578125 39.3125 48.578125 33.453125 
L 48.578125 21.734375 
Q 48.578125 9.46875 49.140625 6.21875 
Q 49.703125 2.984375 51.375 0 
L 42.1875 0 
Q 40.828125 2.734375 40.4375 6.390625 
z
M 39.703125 26.03125 
Q 34.90625 24.078125 25.34375 22.703125 
Q 19.921875 21.921875 17.671875 20.9375 
Q 15.4375 19.96875 14.203125 18.09375 
Q 12.984375 16.21875 12.984375 13.921875 
Q 12.984375 10.40625 15.640625 8.0625 
Q 18.3125 5.71875 23.4375 5.71875 
Q 28.515625 5.71875 32.46875 7.9375 
Q 36.421875 10.15625 38.28125 14.015625 
Q 39.703125 17 39.703125 22.796875 
z
" id="ArialMT-97"/>
      <path d="M 6.59375 0 
L 6.59375 51.859375 
L 14.5 51.859375 
L 14.5 44.484375 
Q 20.21875 53.03125 31 53.03125 
Q 35.6875 53.03125 39.625 51.34375 
Q 43.5625 49.65625 45.515625 46.921875 
Q 47.46875 44.1875 48.25 40.4375 
Q 48.734375 37.984375 48.734375 31.890625 
L 48.734375 0 
L 39.9375 0 
L 39.9375 31.546875 
Q 39.9375 36.921875 38.90625 39.578125 
Q 37.890625 42.234375 35.28125 43.8125 
Q 32.671875 45.40625 29.15625 45.40625 
Q 23.53125 45.40625 19.453125 41.84375 
Q 15.375 38.28125 15.375 28.328125 
L 15.375 0 
z
" id="ArialMT-110"/>
      <path id="ArialMT-32"/>
      <path d="M 6.5 0 
L 6.5 51.859375 
L 14.40625 51.859375 
L 14.40625 44 
Q 17.4375 49.515625 20 51.265625 
Q 22.5625 53.03125 25.640625 53.03125 
Q 30.078125 53.03125 34.671875 50.203125 
L 31.640625 42.046875 
Q 28.421875 43.953125 25.203125 43.953125 
Q 22.3125 43.953125 20.015625 42.21875 
Q 17.71875 40.484375 16.75 37.40625 
Q 15.28125 32.71875 15.28125 27.15625 
L 15.28125 0 
z
" id="ArialMT-114"/>
     </defs>
     <g style="fill:#262626;" transform="translate(211.886491 325.738594)scale(0.12 -0.12)">
      <use xlink:href="#ArialMT-109"/>
      <use x="83.300781" xlink:href="#ArialMT-101"/>
      <use x="138.916016" xlink:href="#ArialMT-97"/>
      <use x="194.53125" xlink:href="#ArialMT-110"/>
      <use x="250.146484" xlink:href="#ArialMT-32"/>
      <use x="277.929688" xlink:href="#ArialMT-97"/>
      <use x="333.544922" xlink:href="#ArialMT-114"/>
      <use x="366.845703" xlink:href="#ArialMT-101"/>
      <use x="422.460938" xlink:href="#ArialMT-97"/>
     </g>
    </g>
   </g>
   <g id="matplotlib.axis_2">
    <g id="ytick_1">
     <g id="line2d_8">
      <path clip-path="url(#pa7e7f5f5dd)" d="M 50.341094 293.589375 
L 430.795639 293.589375 
" style="fill:none;stroke:#cccccc;stroke-linecap:round;"/>
     </g>
     <g id="text_9">
      <!-- 0.0000 -->
      <defs>
       <path d="M 9.078125 0 
L 9.078125 10.015625 
L 19.09375 10.015625 
L 19.09375 0 
z
" id="ArialMT-46"/>
      </defs>
      <g style="fill:#262626;" transform="translate(7.2 297.526172)scale(0.11 -0.11)">
       <use xlink:href="#ArialMT-48"/>
       <use x="55.615234" xlink:href="#ArialMT-46"/>
       <use x="83.398438" xlink:href="#ArialMT-48"/>
       <use x="139.013672" xlink:href="#ArialMT-48"/>
       <use x="194.628906" xlink:href="#ArialMT-48"/>
       <use x="250.244141" xlink:href="#ArialMT-48"/>
      </g>
     </g>
    </g>
    <g id="ytick_2">
     <g id="line2d_9">
      <path clip-path="url(#pa7e7f5f5dd)" d="M 50.341094 249.497611 
L 430.795639 249.497611 
" style="fill:none;stroke:#cccccc;stroke-linecap:round;"/>
     </g>
     <g id="text_10">
      <!-- 0.0005 -->
      <g style="fill:#262626;" transform="translate(7.2 253.434408)scale(0.11 -0.11)">
       <use xlink:href="#ArialMT-48"/>
       <use x="55.615234" xlink:href="#ArialMT-46"/>
       <use x="83.398438" xlink:href="#ArialMT-48"/>
       <use x="139.013672" xlink:href="#ArialMT-48"/>
       <use x="194.628906" xlink:href="#ArialMT-48"/>
       <use x="250.244141" xlink:href="#ArialMT-53"/>
      </g>
     </g>
    </g>
    <g id="ytick_3">
     <g id="line2d_10">
      <path clip-path="url(#pa7e7f5f5dd)" d="M 50.341094 205.405846 
L 430.795639 205.405846 
" style="fill:none;stroke:#cccccc;stroke-linecap:round;"/>
     </g>
     <g id="text_11">
      <!-- 0.0010 -->
      <g style="fill:#262626;" transform="translate(7.2 209.342643)scale(0.11 -0.11)">
       <use xlink:href="#ArialMT-48"/>
       <use x="55.615234" xlink:href="#ArialMT-46"/>
       <use x="83.398438" xlink:href="#ArialMT-48"/>
       <use x="139.013672" xlink:href="#ArialMT-48"/>
       <use x="194.628906" xlink:href="#ArialMT-49"/>
       <use x="250.244141" xlink:href="#ArialMT-48"/>
      </g>
     </g>
    </g>
    <g id="ytick_4">
     <g id="line2d_11">
      <path clip-path="url(#pa7e7f5f5dd)" d="M 50.341094 161.314082 
L 430.795639 161.314082 
" style="fill:none;stroke:#cccccc;stroke-linecap:round;"/>
     </g>
     <g id="text_12">
      <!-- 0.0015 -->
      <g style="fill:#262626;" transform="translate(7.2 165.250879)scale(0.11 -0.11)">
       <use xlink:href="#ArialMT-48"/>
       <use x="55.615234" xlink:href="#ArialMT-46"/>
       <use x="83.398438" xlink:href="#ArialMT-48"/>
       <use x="139.013672" xlink:href="#ArialMT-48"/>
       <use x="194.628906" xlink:href="#ArialMT-49"/>
       <use x="250.244141" xlink:href="#ArialMT-53"/>
      </g>
     </g>
    </g>
    <g id="ytick_5">
     <g id="line2d_12">
      <path clip-path="url(#pa7e7f5f5dd)" d="M 50.341094 117.222318 
L 430.795639 117.222318 
" style="fill:none;stroke:#cccccc;stroke-linecap:round;"/>
     </g>
     <g id="text_13">
      <!-- 0.0020 -->
      <g style="fill:#262626;" transform="translate(7.2 121.159115)scale(0.11 -0.11)">
       <use xlink:href="#ArialMT-48"/>
       <use x="55.615234" xlink:href="#ArialMT-46"/>
       <use x="83.398438" xlink:href="#ArialMT-48"/>
       <use x="139.013672" xlink:href="#ArialMT-48"/>
       <use x="194.628906" xlink:href="#ArialMT-50"/>
       <use x="250.244141" xlink:href="#ArialMT-48"/>
      </g>
     </g>
    </g>
    <g id="ytick_6">
     <g id="line2d_13">
      <path clip-path="url(#pa7e7f5f5dd)" d="M 50.341094 73.130554 
L 430.795639 73.130554 
" style="fill:none;stroke:#cccccc;stroke-linecap:round;"/>
     </g>
     <g id="text_14">
      <!-- 0.0025 -->
      <g style="fill:#262626;" transform="translate(7.2 77.06735)scale(0.11 -0.11)">
       <use xlink:href="#ArialMT-48"/>
       <use x="55.615234" xlink:href="#ArialMT-46"/>
       <use x="83.398438" xlink:href="#ArialMT-48"/>
       <use x="139.013672" xlink:href="#ArialMT-48"/>
       <use x="194.628906" xlink:href="#ArialMT-50"/>
       <use x="250.244141" xlink:href="#ArialMT-53"/>
      </g>
     </g>
    </g>
    <g id="ytick_7">
     <g id="line2d_14">
      <path clip-path="url(#pa7e7f5f5dd)" d="M 50.341094 29.038789 
L 430.795639 29.038789 
" style="fill:none;stroke:#cccccc;stroke-linecap:round;"/>
     </g>
     <g id="text_15">
      <!-- 0.0030 -->
      <g style="fill:#262626;" transform="translate(7.2 32.975586)scale(0.11 -0.11)">
       <use xlink:href="#ArialMT-48"/>
       <use x="55.615234" xlink:href="#ArialMT-46"/>
       <use x="83.398438" xlink:href="#ArialMT-48"/>
       <use x="139.013672" xlink:href="#ArialMT-48"/>
       <use x="194.628906" xlink:href="#ArialMT-51"/>
       <use x="250.244141" xlink:href="#ArialMT-48"/>
      </g>
     </g>
    </g>
   </g>
   <g id="patch_3">
    <path clip-path="url(#pa7e7f5f5dd)" d="M 89.082084 293.589375 
L 109.04656 293.589375 
L 109.04656 217.907902 
L 89.082084 217.907902 
z
" style="fill:#023eff;opacity:0.4;stroke:#ffffff;stroke-linejoin:miter;"/>
   </g>
   <g id="patch_4">
    <path clip-path="url(#pa7e7f5f5dd)" d="M 109.04656 293.589375 
L 129.011036 293.589375 
L 129.011036 66.544956 
L 109.04656 66.544956 
z
" style="fill:#023eff;opacity:0.4;stroke:#ffffff;stroke-linejoin:miter;"/>
   </g>
   <g id="patch_5">
    <path clip-path="url(#pa7e7f5f5dd)" d="M 129.011036 293.589375 
L 148.975511 293.589375 
L 148.975511 124.761473 
L 129.011036 124.761473 
z
" style="fill:#023eff;opacity:0.4;stroke:#ffffff;stroke-linejoin:miter;"/>
   </g>
   <g id="patch_6">
    <path clip-path="url(#pa7e7f5f5dd)" d="M 148.975511 293.589375 
L 168.939987 293.589375 
L 168.939987 249.926987 
L 148.975511 249.926987 
z
" style="fill:#023eff;opacity:0.4;stroke:#ffffff;stroke-linejoin:miter;"/>
   </g>
   <g id="patch_7">
    <path clip-path="url(#pa7e7f5f5dd)" d="M 168.939987 293.589375 
L 188.904463 293.589375 
L 188.904463 289.223136 
L 168.939987 289.223136 
z
" style="fill:#023eff;opacity:0.4;stroke:#ffffff;stroke-linejoin:miter;"/>
   </g>
   <g id="patch_8">
    <path clip-path="url(#pa7e7f5f5dd)" d="M 114.737588 293.589375 
L 127.320666 293.589375 
L 127.320666 270.257971 
L 114.737588 270.257971 
z
" style="fill:#ff7c00;opacity:0.4;stroke:#ffffff;stroke-linejoin:miter;"/>
   </g>
   <g id="patch_9">
    <path clip-path="url(#pa7e7f5f5dd)" d="M 127.320666 293.589375 
L 139.903744 293.589375 
L 139.903744 231.372299 
L 127.320666 231.372299 
z
" style="fill:#ff7c00;opacity:0.4;stroke:#ffffff;stroke-linejoin:miter;"/>
   </g>
   <g id="patch_10">
    <path clip-path="url(#pa7e7f5f5dd)" d="M 139.903744 293.589375 
L 152.486822 293.589375 
L 152.486822 192.486626 
L 139.903744 192.486626 
z
" style="fill:#ff7c00;opacity:0.4;stroke:#ffffff;stroke-linejoin:miter;"/>
   </g>
   <g id="patch_11">
    <path clip-path="url(#pa7e7f5f5dd)" d="M 152.486822 293.589375 
L 165.0699 293.589375 
L 165.0699 184.709492 
L 152.486822 184.709492 
z
" style="fill:#ff7c00;opacity:0.4;stroke:#ffffff;stroke-linejoin:miter;"/>
   </g>
   <g id="patch_12">
    <path clip-path="url(#pa7e7f5f5dd)" d="M 165.0699 293.589375 
L 177.652977 293.589375 
L 177.652977 219.706597 
L 165.0699 219.706597 
z
" style="fill:#ff7c00;opacity:0.4;stroke:#ffffff;stroke-linejoin:miter;"/>
   </g>
   <g id="patch_13">
    <path clip-path="url(#pa7e7f5f5dd)" d="M 177.652977 293.589375 
L 190.236055 293.589375 
L 190.236055 192.486626 
L 177.652977 192.486626 
z
" style="fill:#ff7c00;opacity:0.4;stroke:#ffffff;stroke-linejoin:miter;"/>
   </g>
   <g id="patch_14">
    <path clip-path="url(#pa7e7f5f5dd)" d="M 190.236055 293.589375 
L 202.819133 293.589375 
L 202.819133 215.81803 
L 190.236055 215.81803 
z
" style="fill:#ff7c00;opacity:0.4;stroke:#ffffff;stroke-linejoin:miter;"/>
   </g>
   <g id="patch_15">
    <path clip-path="url(#pa7e7f5f5dd)" d="M 202.819133 293.589375 
L 215.402211 293.589375 
L 215.402211 204.152328 
L 202.819133 204.152328 
z
" style="fill:#ff7c00;opacity:0.4;stroke:#ffffff;stroke-linejoin:miter;"/>
   </g>
   <g id="patch_16">
    <path clip-path="url(#pa7e7f5f5dd)" d="M 215.402211 293.589375 
L 227.985289 293.589375 
L 227.985289 208.040895 
L 215.402211 208.040895 
z
" style="fill:#ff7c00;opacity:0.4;stroke:#ffffff;stroke-linejoin:miter;"/>
   </g>
   <g id="patch_17">
    <path clip-path="url(#pa7e7f5f5dd)" d="M 227.985289 293.589375 
L 240.568366 293.589375 
L 240.568366 258.59227 
L 227.985289 258.59227 
z
" style="fill:#ff7c00;opacity:0.4;stroke:#ffffff;stroke-linejoin:miter;"/>
   </g>
   <g id="patch_18">
    <path clip-path="url(#pa7e7f5f5dd)" d="M 240.568366 293.589375 
L 253.151444 293.589375 
L 253.151444 278.035106 
L 240.568366 278.035106 
z
" style="fill:#ff7c00;opacity:0.4;stroke:#ffffff;stroke-linejoin:miter;"/>
   </g>
   <g id="patch_19">
    <path clip-path="url(#pa7e7f5f5dd)" d="M 253.151444 293.589375 
L 265.734522 293.589375 
L 265.734522 289.700808 
L 253.151444 289.700808 
z
" style="fill:#ff7c00;opacity:0.4;stroke:#ffffff;stroke-linejoin:miter;"/>
   </g>
   <g id="patch_20">
    <path clip-path="url(#pa7e7f5f5dd)" d="M 265.734522 293.589375 
L 278.3176 293.589375 
L 278.3176 274.146539 
L 265.734522 274.146539 
z
" style="fill:#ff7c00;opacity:0.4;stroke:#ffffff;stroke-linejoin:miter;"/>
   </g>
   <g id="patch_21">
    <path clip-path="url(#pa7e7f5f5dd)" d="M 278.3176 293.589375 
L 290.900678 293.589375 
L 290.900678 285.81224 
L 278.3176 285.81224 
z
" style="fill:#ff7c00;opacity:0.4;stroke:#ffffff;stroke-linejoin:miter;"/>
   </g>
   <g id="patch_22">
    <path clip-path="url(#pa7e7f5f5dd)" d="M 290.900678 293.589375 
L 303.483756 293.589375 
L 303.483756 289.700808 
L 290.900678 289.700808 
z
" style="fill:#ff7c00;opacity:0.4;stroke:#ffffff;stroke-linejoin:miter;"/>
   </g>
   <g id="patch_23">
    <path clip-path="url(#pa7e7f5f5dd)" d="M 303.483756 293.589375 
L 316.066833 293.589375 
L 316.066833 289.700808 
L 303.483756 289.700808 
z
" style="fill:#ff7c00;opacity:0.4;stroke:#ffffff;stroke-linejoin:miter;"/>
   </g>
   <g id="patch_24">
    <path clip-path="url(#pa7e7f5f5dd)" d="M 316.066833 293.589375 
L 328.649911 293.589375 
L 328.649911 293.589375 
L 316.066833 293.589375 
z
" style="fill:#ff7c00;opacity:0.4;stroke:#ffffff;stroke-linejoin:miter;"/>
   </g>
   <g id="patch_25">
    <path clip-path="url(#pa7e7f5f5dd)" d="M 328.649911 293.589375 
L 341.232989 293.589375 
L 341.232989 289.700808 
L 328.649911 289.700808 
z
" style="fill:#ff7c00;opacity:0.4;stroke:#ffffff;stroke-linejoin:miter;"/>
   </g>
   <g id="patch_26">
    <path clip-path="url(#pa7e7f5f5dd)" d="M 341.232989 293.589375 
L 353.816067 293.589375 
L 353.816067 293.589375 
L 341.232989 293.589375 
z
" style="fill:#ff7c00;opacity:0.4;stroke:#ffffff;stroke-linejoin:miter;"/>
   </g>
   <g id="patch_27">
    <path clip-path="url(#pa7e7f5f5dd)" d="M 353.816067 293.589375 
L 366.399145 293.589375 
L 366.399145 285.81224 
L 353.816067 285.81224 
z
" style="fill:#ff7c00;opacity:0.4;stroke:#ffffff;stroke-linejoin:miter;"/>
   </g>
   <g id="line2d_15">
    <path clip-path="url(#pa7e7f5f5dd)" d="M 74.2981 293.539253 
L 77.354564 293.384392 
L 79.392208 293.039581 
L 80.411029 292.729616 
L 81.429851 292.286116 
L 82.448673 291.672047 
L 83.467494 290.847377 
L 84.486316 289.77048 
L 85.505138 288.399164 
L 86.523959 286.690938 
L 87.542781 284.602393 
L 88.561602 282.087917 
L 89.580424 279.098495 
L 90.599246 275.581571 
L 91.618067 271.483054 
L 92.636889 266.752082 
L 93.655711 261.348463 
L 94.674532 255.251847 
L 96.712176 241.051269 
L 98.749819 224.680061 
L 102.825105 190.318623 
L 104.862749 175.071058 
L 106.900392 161.803717 
L 109.956857 142.590904 
L 110.975678 135.168662 
L 111.9945 126.787936 
L 114.032143 106.918917 
L 118.10743 62.601037 
L 119.126252 53.426518 
L 120.145073 45.925737 
L 121.163895 40.324238 
L 122.182716 36.675408 
L 123.201538 34.880766 
L 124.22036 34.732232 
L 125.239181 35.964453 
L 126.258003 38.305418 
L 127.276825 41.5165 
L 128.295646 45.417129 
L 129.314468 49.893308 
L 131.352111 60.407626 
L 133.389754 73.076943 
L 135.427398 88.062615 
L 137.465041 105.217692 
L 142.559149 151.107682 
L 144.596792 166.420032 
L 146.634436 178.716633 
L 149.690901 195.013048 
L 150.709722 201.111513 
L 152.747366 215.401019 
L 157.841474 255.191036 
L 158.860295 261.440146 
L 159.879117 266.646378 
L 160.897939 270.807071 
L 161.91676 274.008381 
L 162.935582 276.396936 
L 163.954404 278.149202 
L 164.973225 279.444297 
L 165.992047 280.443641 
L 168.02969 282.044911 
L 171.086155 284.40782 
L 176.180263 288.592146 
L 178.217906 289.960168 
L 180.25555 290.930219 
L 181.274371 291.233822 
L 183.312015 291.481596 
L 185.349658 291.381275 
L 188.406123 291.174684 
L 190.443766 291.337818 
L 192.481409 291.781871 
L 196.556696 292.87497 
L 198.594339 293.239213 
L 201.650804 293.497497 
L 203.688447 293.543024 
L 203.688447 293.543024 
" style="fill:none;stroke:#023eff;stroke-linecap:round;stroke-width:1.5;"/>
   </g>
   <g id="line2d_16">
    <path clip-path="url(#pa7e7f5f5dd)" d="M 67.634482 293.524575 
L 75.804587 293.362576 
L 81.251323 293.035051 
L 83.974692 292.749227 
L 86.69806 292.344275 
L 89.421428 291.784613 
L 92.144796 291.029275 
L 94.868165 290.032852 
L 97.591533 288.746983 
L 100.314901 287.122375 
L 103.03827 285.11131 
L 105.761638 282.67056 
L 108.485006 279.764612 
L 111.208374 276.36908 
L 113.931743 272.47414 
L 116.655111 268.087772 
L 119.378479 263.238508 
L 122.101847 257.977353 
L 127.548584 246.538427 
L 135.718689 228.804762 
L 138.442057 223.284923 
L 141.165425 218.192435 
L 143.888793 213.649346 
L 146.612162 209.755034 
L 149.33553 206.579266 
L 152.058898 204.157008 
L 154.782266 202.485623 
L 157.505635 201.524979 
L 160.229003 201.200755 
L 162.952371 201.410912 
L 165.675739 202.034783 
L 168.399108 202.943825 
L 179.292581 207.166189 
L 182.015949 207.981832 
L 184.739317 208.636093 
L 187.462685 209.138402 
L 192.909422 209.816793 
L 198.356158 210.41783 
L 201.079527 210.864634 
L 203.802895 211.518148 
L 206.526263 212.464204 
L 209.249632 213.785433 
L 211.973 215.554271 
L 214.696368 217.825266 
L 217.419736 220.627783 
L 220.143105 223.960337 
L 222.866473 227.787688 
L 225.589841 232.041398 
L 231.036578 241.416406 
L 236.483314 251.103831 
L 239.206682 255.741274 
L 241.930051 260.091766 
L 244.653419 264.070292 
L 247.376787 267.618253 
L 250.100155 270.7045 
L 252.823524 273.324255 
L 255.546892 275.496368 
L 258.27026 277.259386 
L 260.993628 278.666792 
L 263.716997 279.781737 
L 266.440365 280.671568 
L 271.887101 282.034755 
L 285.503943 285.044448 
L 299.120784 288.334206 
L 304.567521 289.438169 
L 310.014257 290.320005 
L 315.460994 290.962756 
L 320.90773 291.376691 
L 326.354467 291.593886 
L 334.524571 291.648814 
L 342.694676 291.4866 
L 364.481622 290.86889 
L 369.928359 291.049219 
L 375.375095 291.434925 
L 394.438673 293.079942 
L 402.608778 293.409476 
L 413.502251 293.533371 
L 413.502251 293.533371 
" style="fill:none;stroke:#ff7c00;stroke-linecap:round;stroke-width:1.5;"/>
   </g>
   <g id="patch_28">
    <path d="M 50.341094 293.589375 
L 50.341094 21.789375 
" style="fill:none;stroke:#cccccc;stroke-linecap:square;stroke-linejoin:miter;stroke-width:1.25;"/>
   </g>
   <g id="patch_29">
    <path d="M 430.795639 293.589375 
L 430.795639 21.789375 
" style="fill:none;stroke:#cccccc;stroke-linecap:square;stroke-linejoin:miter;stroke-width:1.25;"/>
   </g>
   <g id="patch_30">
    <path d="M 50.341094 293.589375 
L 430.795639 293.589375 
" style="fill:none;stroke:#cccccc;stroke-linecap:square;stroke-linejoin:miter;stroke-width:1.25;"/>
   </g>
   <g id="patch_31">
    <path d="M 50.341094 21.789375 
L 430.795639 21.789375 
" style="fill:none;stroke:#cccccc;stroke-linecap:square;stroke-linejoin:miter;stroke-width:1.25;"/>
   </g>
   <g id="text_16">
    <!-- Mean Cell Area Distribution -->
    <defs>
     <path d="M 7.421875 0 
L 7.421875 71.578125 
L 21.6875 71.578125 
L 38.625 20.90625 
Q 40.96875 13.8125 42.046875 10.296875 
Q 43.265625 14.203125 45.84375 21.78125 
L 62.984375 71.578125 
L 75.734375 71.578125 
L 75.734375 0 
L 66.609375 0 
L 66.609375 59.90625 
L 45.796875 0 
L 37.25 0 
L 16.546875 60.9375 
L 16.546875 0 
z
" id="ArialMT-77"/>
     <path d="M 58.796875 25.09375 
L 68.265625 22.703125 
Q 65.28125 11.03125 57.546875 4.90625 
Q 49.8125 -1.21875 38.625 -1.21875 
Q 27.046875 -1.21875 19.796875 3.484375 
Q 12.546875 8.203125 8.765625 17.140625 
Q 4.984375 26.078125 4.984375 36.328125 
Q 4.984375 47.515625 9.25 55.828125 
Q 13.53125 64.15625 21.40625 68.46875 
Q 29.296875 72.796875 38.765625 72.796875 
Q 49.515625 72.796875 56.828125 67.328125 
Q 64.15625 61.859375 67.046875 51.953125 
L 57.71875 49.75 
Q 55.21875 57.5625 50.484375 61.125 
Q 45.75 64.703125 38.578125 64.703125 
Q 30.328125 64.703125 24.78125 60.734375 
Q 19.234375 56.78125 16.984375 50.109375 
Q 14.75 43.453125 14.75 36.375 
Q 14.75 27.25 17.40625 20.4375 
Q 20.0625 13.625 25.671875 10.25 
Q 31.296875 6.890625 37.84375 6.890625 
Q 45.796875 6.890625 51.3125 11.46875 
Q 56.84375 16.0625 58.796875 25.09375 
z
" id="ArialMT-67"/>
     <path d="M 6.390625 0 
L 6.390625 71.578125 
L 15.1875 71.578125 
L 15.1875 0 
z
" id="ArialMT-108"/>
     <path d="M -0.140625 0 
L 27.34375 71.578125 
L 37.546875 71.578125 
L 66.84375 0 
L 56.0625 0 
L 47.703125 21.6875 
L 17.78125 21.6875 
L 9.90625 0 
z
M 20.515625 29.390625 
L 44.78125 29.390625 
L 37.3125 49.21875 
Q 33.890625 58.25 32.234375 64.0625 
Q 30.859375 57.171875 28.375 50.390625 
z
" id="ArialMT-65"/>
     <path d="M 7.71875 0 
L 7.71875 71.578125 
L 32.375 71.578125 
Q 40.71875 71.578125 45.125 70.5625 
Q 51.265625 69.140625 55.609375 65.4375 
Q 61.28125 60.640625 64.078125 53.1875 
Q 66.890625 45.75 66.890625 36.1875 
Q 66.890625 28.03125 64.984375 21.734375 
Q 63.09375 15.4375 60.109375 11.296875 
Q 57.125 7.171875 53.578125 4.796875 
Q 50.046875 2.4375 45.046875 1.21875 
Q 40.046875 0 33.546875 0 
z
M 17.1875 8.453125 
L 32.46875 8.453125 
Q 39.546875 8.453125 43.578125 9.765625 
Q 47.609375 11.078125 50 13.484375 
Q 53.375 16.84375 55.25 22.53125 
Q 57.125 28.21875 57.125 36.328125 
Q 57.125 47.5625 53.4375 53.59375 
Q 49.75 59.625 44.484375 61.671875 
Q 40.671875 63.140625 32.234375 63.140625 
L 17.1875 63.140625 
z
" id="ArialMT-68"/>
     <path d="M 6.640625 61.46875 
L 6.640625 71.578125 
L 15.4375 71.578125 
L 15.4375 61.46875 
z
M 6.640625 0 
L 6.640625 51.859375 
L 15.4375 51.859375 
L 15.4375 0 
z
" id="ArialMT-105"/>
     <path d="M 3.078125 15.484375 
L 11.765625 16.84375 
Q 12.5 11.625 15.84375 8.84375 
Q 19.1875 6.0625 25.203125 6.0625 
Q 31.25 6.0625 34.171875 8.515625 
Q 37.109375 10.984375 37.109375 14.3125 
Q 37.109375 17.28125 34.515625 19 
Q 32.71875 20.171875 25.53125 21.96875 
Q 15.875 24.421875 12.140625 26.203125 
Q 8.40625 27.984375 6.46875 31.125 
Q 4.546875 34.28125 4.546875 38.09375 
Q 4.546875 41.546875 6.125 44.5 
Q 7.71875 47.46875 10.453125 49.421875 
Q 12.5 50.921875 16.03125 51.96875 
Q 19.578125 53.03125 23.640625 53.03125 
Q 29.734375 53.03125 34.34375 51.265625 
Q 38.96875 49.515625 41.15625 46.5 
Q 43.359375 43.5 44.1875 38.484375 
L 35.59375 37.3125 
Q 35.015625 41.3125 32.203125 43.546875 
Q 29.390625 45.796875 24.265625 45.796875 
Q 18.21875 45.796875 15.625 43.796875 
Q 13.03125 41.796875 13.03125 39.109375 
Q 13.03125 37.40625 14.109375 36.03125 
Q 15.1875 34.625 17.484375 33.6875 
Q 18.796875 33.203125 25.25 31.453125 
Q 34.578125 28.953125 38.25 27.359375 
Q 41.9375 25.78125 44.03125 22.75 
Q 46.140625 19.734375 46.140625 15.234375 
Q 46.140625 10.84375 43.578125 6.953125 
Q 41.015625 3.078125 36.171875 0.953125 
Q 31.34375 -1.171875 25.25 -1.171875 
Q 15.140625 -1.171875 9.84375 3.03125 
Q 4.546875 7.234375 3.078125 15.484375 
z
" id="ArialMT-115"/>
     <path d="M 25.78125 7.859375 
L 27.046875 0.09375 
Q 23.34375 -0.6875 20.40625 -0.6875 
Q 15.625 -0.6875 12.984375 0.828125 
Q 10.359375 2.34375 9.28125 4.8125 
Q 8.203125 7.28125 8.203125 15.1875 
L 8.203125 45.015625 
L 1.765625 45.015625 
L 1.765625 51.859375 
L 8.203125 51.859375 
L 8.203125 64.703125 
L 16.9375 69.96875 
L 16.9375 51.859375 
L 25.78125 51.859375 
L 25.78125 45.015625 
L 16.9375 45.015625 
L 16.9375 14.703125 
Q 16.9375 10.9375 17.40625 9.859375 
Q 17.875 8.796875 18.921875 8.15625 
Q 19.96875 7.515625 21.921875 7.515625 
Q 23.390625 7.515625 25.78125 7.859375 
z
" id="ArialMT-116"/>
     <path d="M 14.703125 0 
L 6.546875 0 
L 6.546875 71.578125 
L 15.328125 71.578125 
L 15.328125 46.046875 
Q 20.90625 53.03125 29.546875 53.03125 
Q 34.328125 53.03125 38.59375 51.09375 
Q 42.875 49.171875 45.625 45.671875 
Q 48.390625 42.1875 49.953125 37.25 
Q 51.515625 32.328125 51.515625 26.703125 
Q 51.515625 13.375 44.921875 6.09375 
Q 38.328125 -1.171875 29.109375 -1.171875 
Q 19.921875 -1.171875 14.703125 6.5 
z
M 14.59375 26.3125 
Q 14.59375 17 17.140625 12.84375 
Q 21.296875 6.0625 28.375 6.0625 
Q 34.125 6.0625 38.328125 11.0625 
Q 42.53125 16.0625 42.53125 25.984375 
Q 42.53125 36.140625 38.5 40.96875 
Q 34.46875 45.796875 28.765625 45.796875 
Q 23 45.796875 18.796875 40.796875 
Q 14.59375 35.796875 14.59375 26.3125 
z
" id="ArialMT-98"/>
     <path d="M 40.578125 0 
L 40.578125 7.625 
Q 34.515625 -1.171875 24.125 -1.171875 
Q 19.53125 -1.171875 15.546875 0.578125 
Q 11.578125 2.34375 9.640625 5 
Q 7.71875 7.671875 6.9375 11.53125 
Q 6.390625 14.109375 6.390625 19.734375 
L 6.390625 51.859375 
L 15.1875 51.859375 
L 15.1875 23.09375 
Q 15.1875 16.21875 15.71875 13.8125 
Q 16.546875 10.359375 19.234375 8.375 
Q 21.921875 6.390625 25.875 6.390625 
Q 29.828125 6.390625 33.296875 8.421875 
Q 36.765625 10.453125 38.203125 13.9375 
Q 39.65625 17.4375 39.65625 24.078125 
L 39.65625 51.859375 
L 48.4375 51.859375 
L 48.4375 0 
z
" id="ArialMT-117"/>
     <path d="M 3.328125 25.921875 
Q 3.328125 40.328125 11.328125 47.265625 
Q 18.015625 53.03125 27.640625 53.03125 
Q 38.328125 53.03125 45.109375 46.015625 
Q 51.90625 39.015625 51.90625 26.65625 
Q 51.90625 16.65625 48.90625 10.90625 
Q 45.90625 5.171875 40.15625 2 
Q 34.421875 -1.171875 27.640625 -1.171875 
Q 16.75 -1.171875 10.03125 5.8125 
Q 3.328125 12.796875 3.328125 25.921875 
z
M 12.359375 25.921875 
Q 12.359375 15.96875 16.703125 11.015625 
Q 21.046875 6.0625 27.640625 6.0625 
Q 34.1875 6.0625 38.53125 11.03125 
Q 42.875 16.015625 42.875 26.21875 
Q 42.875 35.84375 38.5 40.796875 
Q 34.125 45.75 27.640625 45.75 
Q 21.046875 45.75 16.703125 40.8125 
Q 12.359375 35.890625 12.359375 25.921875 
z
" id="ArialMT-111"/>
    </defs>
    <g style="fill:#262626;" transform="translate(167.545554 15.789375)scale(0.12 -0.12)">
     <use xlink:href="#ArialMT-77"/>
     <use x="83.300781" xlink:href="#ArialMT-101"/>
     <use x="138.916016" xlink:href="#ArialMT-97"/>
     <use x="194.53125" xlink:href="#ArialMT-110"/>
     <use x="250.146484" xlink:href="#ArialMT-32"/>
     <use x="277.929688" xlink:href="#ArialMT-67"/>
     <use x="350.146484" xlink:href="#ArialMT-101"/>
     <use x="405.761719" xlink:href="#ArialMT-108"/>
     <use x="427.978516" xlink:href="#ArialMT-108"/>
     <use x="450.195312" xlink:href="#ArialMT-32"/>
     <use x="477.900391" xlink:href="#ArialMT-65"/>
     <use x="544.599609" xlink:href="#ArialMT-114"/>
     <use x="577.900391" xlink:href="#ArialMT-101"/>
     <use x="633.515625" xlink:href="#ArialMT-97"/>
     <use x="689.130859" xlink:href="#ArialMT-32"/>
     <use x="716.914062" xlink:href="#ArialMT-68"/>
     <use x="789.130859" xlink:href="#ArialMT-105"/>
     <use x="811.347656" xlink:href="#ArialMT-115"/>
     <use x="861.347656" xlink:href="#ArialMT-116"/>
     <use x="889.130859" xlink:href="#ArialMT-114"/>
     <use x="922.431641" xlink:href="#ArialMT-105"/>
     <use x="944.648438" xlink:href="#ArialMT-98"/>
     <use x="1000.263672" xlink:href="#ArialMT-117"/>
     <use x="1055.878906" xlink:href="#ArialMT-116"/>
     <use x="1083.662109" xlink:href="#ArialMT-105"/>
     <use x="1105.878906" xlink:href="#ArialMT-111"/>
     <use x="1161.494141" xlink:href="#ArialMT-110"/>
    </g>
   </g>
   <g id="legend_1">
    <g id="patch_32">
     <path d="M 340.203764 61.966875 
L 423.095639 61.966875 
Q 425.295639 61.966875 425.295639 59.766875 
L 425.295639 29.489375 
Q 425.295639 27.289375 423.095639 27.289375 
L 340.203764 27.289375 
Q 338.003764 27.289375 338.003764 29.489375 
L 338.003764 59.766875 
Q 338.003764 61.966875 340.203764 61.966875 
z
" style="fill:#ffffff;opacity:0.8;stroke:#cccccc;stroke-linejoin:miter;"/>
    </g>
    <g id="patch_33">
     <path d="M 342.403764 39.562969 
L 364.403764 39.562969 
L 364.403764 31.862969 
L 342.403764 31.862969 
z
" style="fill:#023eff;opacity:0.4;stroke:#ffffff;stroke-linejoin:miter;"/>
    </g>
    <g id="text_17">
     <!-- Benign -->
     <defs>
      <path d="M 7.328125 0 
L 7.328125 71.578125 
L 34.1875 71.578125 
Q 42.390625 71.578125 47.34375 69.40625 
Q 52.296875 67.234375 55.09375 62.71875 
Q 57.90625 58.203125 57.90625 53.265625 
Q 57.90625 48.6875 55.421875 44.625 
Q 52.9375 40.578125 47.90625 38.09375 
Q 54.390625 36.1875 57.875 31.59375 
Q 61.375 27 61.375 20.75 
Q 61.375 15.71875 59.25 11.390625 
Q 57.125 7.078125 54 4.734375 
Q 50.875 2.390625 46.15625 1.1875 
Q 41.453125 0 34.625 0 
z
M 16.796875 41.5 
L 32.28125 41.5 
Q 38.578125 41.5 41.3125 42.328125 
Q 44.921875 43.40625 46.75 45.890625 
Q 48.578125 48.390625 48.578125 52.15625 
Q 48.578125 55.71875 46.875 58.421875 
Q 45.171875 61.140625 41.984375 62.140625 
Q 38.8125 63.140625 31.109375 63.140625 
L 16.796875 63.140625 
z
M 16.796875 8.453125 
L 34.625 8.453125 
Q 39.203125 8.453125 41.0625 8.796875 
Q 44.34375 9.375 46.53125 10.734375 
Q 48.734375 12.109375 50.140625 14.71875 
Q 51.5625 17.328125 51.5625 20.75 
Q 51.5625 24.75 49.515625 27.703125 
Q 47.46875 30.671875 43.828125 31.859375 
Q 40.1875 33.0625 33.34375 33.0625 
L 16.796875 33.0625 
z
" id="ArialMT-66"/>
      <path d="M 4.984375 -4.296875 
L 13.53125 -5.5625 
Q 14.0625 -9.515625 16.5 -11.328125 
Q 19.78125 -13.765625 25.4375 -13.765625 
Q 31.546875 -13.765625 34.859375 -11.328125 
Q 38.1875 -8.890625 39.359375 -4.5 
Q 40.046875 -1.8125 39.984375 6.78125 
Q 34.234375 0 25.640625 0 
Q 14.9375 0 9.078125 7.71875 
Q 3.21875 15.4375 3.21875 26.21875 
Q 3.21875 33.640625 5.90625 39.90625 
Q 8.59375 46.1875 13.6875 49.609375 
Q 18.796875 53.03125 25.6875 53.03125 
Q 34.859375 53.03125 40.828125 45.609375 
L 40.828125 51.859375 
L 48.921875 51.859375 
L 48.921875 7.03125 
Q 48.921875 -5.078125 46.453125 -10.125 
Q 44 -15.1875 38.640625 -18.109375 
Q 33.296875 -21.046875 25.484375 -21.046875 
Q 16.21875 -21.046875 10.5 -16.875 
Q 4.78125 -12.703125 4.984375 -4.296875 
z
M 12.25 26.859375 
Q 12.25 16.65625 16.296875 11.96875 
Q 20.359375 7.28125 26.46875 7.28125 
Q 32.515625 7.28125 36.609375 11.9375 
Q 40.71875 16.609375 40.71875 26.5625 
Q 40.71875 36.078125 36.5 40.90625 
Q 32.28125 45.75 26.3125 45.75 
Q 20.453125 45.75 16.34375 40.984375 
Q 12.25 36.234375 12.25 26.859375 
z
" id="ArialMT-103"/>
     </defs>
     <g style="fill:#262626;" transform="translate(373.203764 39.562969)scale(0.11 -0.11)">
      <use xlink:href="#ArialMT-66"/>
      <use x="66.699219" xlink:href="#ArialMT-101"/>
      <use x="122.314453" xlink:href="#ArialMT-110"/>
      <use x="177.929688" xlink:href="#ArialMT-105"/>
      <use x="200.146484" xlink:href="#ArialMT-103"/>
      <use x="255.761719" xlink:href="#ArialMT-110"/>
     </g>
    </g>
    <g id="patch_34">
     <path d="M 342.403764 55.251719 
L 364.403764 55.251719 
L 364.403764 47.551719 
L 342.403764 47.551719 
z
" style="fill:#ff7c00;opacity:0.4;stroke:#ffffff;stroke-linejoin:miter;"/>
    </g>
    <g id="text_18">
     <!-- Malignant -->
     <g style="fill:#262626;" transform="translate(373.203764 55.251719)scale(0.11 -0.11)">
      <use xlink:href="#ArialMT-77"/>
      <use x="83.300781" xlink:href="#ArialMT-97"/>
      <use x="138.916016" xlink:href="#ArialMT-108"/>
      <use x="161.132812" xlink:href="#ArialMT-105"/>
      <use x="183.349609" xlink:href="#ArialMT-103"/>
      <use x="238.964844" xlink:href="#ArialMT-110"/>
      <use x="294.580078" xlink:href="#ArialMT-97"/>
      <use x="350.195312" xlink:href="#ArialMT-110"/>
      <use x="405.810547" xlink:href="#ArialMT-116"/>
     </g>
    </g>
   </g>
  </g>
  <g id="axes_2">
   <g id="patch_35">
    <path d="M 506.886548 293.589375 
L 887.341094 293.589375 
L 887.341094 21.789375 
L 506.886548 21.789375 
z
" style="fill:#ffffff;"/>
   </g>
   <g id="matplotlib.axis_3">
    <g id="xtick_8">
     <g id="line2d_17">
      <path clip-path="url(#p0b6f2c6292)" d="M 530.537163 293.589375 
L 530.537163 21.789375 
" style="fill:none;stroke:#cccccc;stroke-linecap:round;"/>
     </g>
     <g id="text_19">
      <!-- 0 -->
      <g style="fill:#262626;" transform="translate(527.478648 310.962969)scale(0.11 -0.11)">
       <use xlink:href="#ArialMT-48"/>
      </g>
     </g>
    </g>
    <g id="xtick_9">
     <g id="line2d_18">
      <path clip-path="url(#p0b6f2c6292)" d="M 600.496491 293.589375 
L 600.496491 21.789375 
" style="fill:none;stroke:#cccccc;stroke-linecap:round;"/>
     </g>
     <g id="text_20">
      <!-- 1000 -->
      <g style="fill:#262626;" transform="translate(588.262429 310.962969)scale(0.11 -0.11)">
       <use xlink:href="#ArialMT-49"/>
       <use x="55.615234" xlink:href="#ArialMT-48"/>
       <use x="111.230469" xlink:href="#ArialMT-48"/>
       <use x="166.845703" xlink:href="#ArialMT-48"/>
      </g>
     </g>
    </g>
    <g id="xtick_10">
     <g id="line2d_19">
      <path clip-path="url(#p0b6f2c6292)" d="M 670.455819 293.589375 
L 670.455819 21.789375 
" style="fill:none;stroke:#cccccc;stroke-linecap:round;"/>
     </g>
     <g id="text_21">
      <!-- 2000 -->
      <g style="fill:#262626;" transform="translate(658.221757 310.962969)scale(0.11 -0.11)">
       <use xlink:href="#ArialMT-50"/>
       <use x="55.615234" xlink:href="#ArialMT-48"/>
       <use x="111.230469" xlink:href="#ArialMT-48"/>
       <use x="166.845703" xlink:href="#ArialMT-48"/>
      </g>
     </g>
    </g>
    <g id="xtick_11">
     <g id="line2d_20">
      <path clip-path="url(#p0b6f2c6292)" d="M 740.415147 293.589375 
L 740.415147 21.789375 
" style="fill:none;stroke:#cccccc;stroke-linecap:round;"/>
     </g>
     <g id="text_22">
      <!-- 3000 -->
      <g style="fill:#262626;" transform="translate(728.181085 310.962969)scale(0.11 -0.11)">
       <use xlink:href="#ArialMT-51"/>
       <use x="55.615234" xlink:href="#ArialMT-48"/>
       <use x="111.230469" xlink:href="#ArialMT-48"/>
       <use x="166.845703" xlink:href="#ArialMT-48"/>
      </g>
     </g>
    </g>
    <g id="xtick_12">
     <g id="line2d_21">
      <path clip-path="url(#p0b6f2c6292)" d="M 810.374475 293.589375 
L 810.374475 21.789375 
" style="fill:none;stroke:#cccccc;stroke-linecap:round;"/>
     </g>
     <g id="text_23">
      <!-- 4000 -->
      <defs>
       <path d="M 32.328125 0 
L 32.328125 17.140625 
L 1.265625 17.140625 
L 1.265625 25.203125 
L 33.9375 71.578125 
L 41.109375 71.578125 
L 41.109375 25.203125 
L 50.78125 25.203125 
L 50.78125 17.140625 
L 41.109375 17.140625 
L 41.109375 0 
z
M 32.328125 25.203125 
L 32.328125 57.46875 
L 9.90625 25.203125 
z
" id="ArialMT-52"/>
      </defs>
      <g style="fill:#262626;" transform="translate(798.140412 310.962969)scale(0.11 -0.11)">
       <use xlink:href="#ArialMT-52"/>
       <use x="55.615234" xlink:href="#ArialMT-48"/>
       <use x="111.230469" xlink:href="#ArialMT-48"/>
       <use x="166.845703" xlink:href="#ArialMT-48"/>
      </g>
     </g>
    </g>
    <g id="xtick_13">
     <g id="line2d_22">
      <path clip-path="url(#p0b6f2c6292)" d="M 880.333803 293.589375 
L 880.333803 21.789375 
" style="fill:none;stroke:#cccccc;stroke-linecap:round;"/>
     </g>
     <g id="text_24">
      <!-- 5000 -->
      <g style="fill:#262626;" transform="translate(868.09974 310.962969)scale(0.11 -0.11)">
       <use xlink:href="#ArialMT-53"/>
       <use x="55.615234" xlink:href="#ArialMT-48"/>
       <use x="111.230469" xlink:href="#ArialMT-48"/>
       <use x="166.845703" xlink:href="#ArialMT-48"/>
      </g>
     </g>
    </g>
    <g id="text_25">
     <!-- worst area -->
     <defs>
      <path d="M 16.15625 0 
L 0.296875 51.859375 
L 9.375 51.859375 
L 17.625 21.921875 
L 20.703125 10.796875 
Q 20.90625 11.625 23.390625 21.484375 
L 31.640625 51.859375 
L 40.671875 51.859375 
L 48.4375 21.78125 
L 51.03125 11.859375 
L 54 21.875 
L 62.890625 51.859375 
L 71.4375 51.859375 
L 55.21875 0 
L 46.09375 0 
L 37.84375 31.0625 
L 35.84375 39.890625 
L 25.34375 0 
z
" id="ArialMT-119"/>
     </defs>
     <g style="fill:#262626;" transform="translate(669.105071 325.738594)scale(0.12 -0.12)">
      <use xlink:href="#ArialMT-119"/>
      <use x="72.216797" xlink:href="#ArialMT-111"/>
      <use x="127.832031" xlink:href="#ArialMT-114"/>
      <use x="161.132812" xlink:href="#ArialMT-115"/>
      <use x="211.132812" xlink:href="#ArialMT-116"/>
      <use x="238.916016" xlink:href="#ArialMT-32"/>
      <use x="266.699219" xlink:href="#ArialMT-97"/>
      <use x="322.314453" xlink:href="#ArialMT-114"/>
      <use x="355.615234" xlink:href="#ArialMT-101"/>
      <use x="411.230469" xlink:href="#ArialMT-97"/>
     </g>
    </g>
   </g>
   <g id="matplotlib.axis_4">
    <g id="ytick_8">
     <g id="line2d_23">
      <path clip-path="url(#p0b6f2c6292)" d="M 506.886548 293.589375 
L 887.341094 293.589375 
" style="fill:none;stroke:#cccccc;stroke-linecap:round;"/>
     </g>
     <g id="text_26">
      <!-- 0.0000 -->
      <g style="fill:#262626;" transform="translate(463.745455 297.526172)scale(0.11 -0.11)">
       <use xlink:href="#ArialMT-48"/>
       <use x="55.615234" xlink:href="#ArialMT-46"/>
       <use x="83.398438" xlink:href="#ArialMT-48"/>
       <use x="139.013672" xlink:href="#ArialMT-48"/>
       <use x="194.628906" xlink:href="#ArialMT-48"/>
       <use x="250.244141" xlink:href="#ArialMT-48"/>
      </g>
     </g>
    </g>
    <g id="ytick_9">
     <g id="line2d_24">
      <path clip-path="url(#p0b6f2c6292)" d="M 506.886548 240.486474 
L 887.341094 240.486474 
" style="fill:none;stroke:#cccccc;stroke-linecap:round;"/>
     </g>
     <g id="text_27">
      <!-- 0.0005 -->
      <g style="fill:#262626;" transform="translate(463.745455 244.423271)scale(0.11 -0.11)">
       <use xlink:href="#ArialMT-48"/>
       <use x="55.615234" xlink:href="#ArialMT-46"/>
       <use x="83.398438" xlink:href="#ArialMT-48"/>
       <use x="139.013672" xlink:href="#ArialMT-48"/>
       <use x="194.628906" xlink:href="#ArialMT-48"/>
       <use x="250.244141" xlink:href="#ArialMT-53"/>
      </g>
     </g>
    </g>
    <g id="ytick_10">
     <g id="line2d_25">
      <path clip-path="url(#p0b6f2c6292)" d="M 506.886548 187.383574 
L 887.341094 187.383574 
" style="fill:none;stroke:#cccccc;stroke-linecap:round;"/>
     </g>
     <g id="text_28">
      <!-- 0.0010 -->
      <g style="fill:#262626;" transform="translate(463.745455 191.320371)scale(0.11 -0.11)">
       <use xlink:href="#ArialMT-48"/>
       <use x="55.615234" xlink:href="#ArialMT-46"/>
       <use x="83.398438" xlink:href="#ArialMT-48"/>
       <use x="139.013672" xlink:href="#ArialMT-48"/>
       <use x="194.628906" xlink:href="#ArialMT-49"/>
       <use x="250.244141" xlink:href="#ArialMT-48"/>
      </g>
     </g>
    </g>
    <g id="ytick_11">
     <g id="line2d_26">
      <path clip-path="url(#p0b6f2c6292)" d="M 506.886548 134.280673 
L 887.341094 134.280673 
" style="fill:none;stroke:#cccccc;stroke-linecap:round;"/>
     </g>
     <g id="text_29">
      <!-- 0.0015 -->
      <g style="fill:#262626;" transform="translate(463.745455 138.21747)scale(0.11 -0.11)">
       <use xlink:href="#ArialMT-48"/>
       <use x="55.615234" xlink:href="#ArialMT-46"/>
       <use x="83.398438" xlink:href="#ArialMT-48"/>
       <use x="139.013672" xlink:href="#ArialMT-48"/>
       <use x="194.628906" xlink:href="#ArialMT-49"/>
       <use x="250.244141" xlink:href="#ArialMT-53"/>
      </g>
     </g>
    </g>
    <g id="ytick_12">
     <g id="line2d_27">
      <path clip-path="url(#p0b6f2c6292)" d="M 506.886548 81.177773 
L 887.341094 81.177773 
" style="fill:none;stroke:#cccccc;stroke-linecap:round;"/>
     </g>
     <g id="text_30">
      <!-- 0.0020 -->
      <g style="fill:#262626;" transform="translate(463.745455 85.11457)scale(0.11 -0.11)">
       <use xlink:href="#ArialMT-48"/>
       <use x="55.615234" xlink:href="#ArialMT-46"/>
       <use x="83.398438" xlink:href="#ArialMT-48"/>
       <use x="139.013672" xlink:href="#ArialMT-48"/>
       <use x="194.628906" xlink:href="#ArialMT-50"/>
       <use x="250.244141" xlink:href="#ArialMT-48"/>
      </g>
     </g>
    </g>
    <g id="ytick_13">
     <g id="line2d_28">
      <path clip-path="url(#p0b6f2c6292)" d="M 506.886548 28.074872 
L 887.341094 28.074872 
" style="fill:none;stroke:#cccccc;stroke-linecap:round;"/>
     </g>
     <g id="text_31">
      <!-- 0.0025 -->
      <g style="fill:#262626;" transform="translate(463.745455 32.011669)scale(0.11 -0.11)">
       <use xlink:href="#ArialMT-48"/>
       <use x="55.615234" xlink:href="#ArialMT-46"/>
       <use x="83.398438" xlink:href="#ArialMT-48"/>
       <use x="139.013672" xlink:href="#ArialMT-48"/>
       <use x="194.628906" xlink:href="#ArialMT-50"/>
       <use x="250.244141" xlink:href="#ArialMT-53"/>
      </g>
     </g>
    </g>
   </g>
   <g id="patch_36">
    <path clip-path="url(#p0b6f2c6292)" d="M 543.493631 293.589375 
L 557.832495 293.589375 
L 557.832495 207.952084 
L 543.493631 207.952084 
z
" style="fill:#023eff;opacity:0.4;stroke:#ffffff;stroke-linejoin:miter;"/>
   </g>
   <g id="patch_37">
    <path clip-path="url(#p0b6f2c6292)" d="M 557.832495 293.589375 
L 572.171359 293.589375 
L 572.171359 61.352653 
L 557.832495 61.352653 
z
" style="fill:#023eff;opacity:0.4;stroke:#ffffff;stroke-linejoin:miter;"/>
   </g>
   <g id="patch_38">
    <path clip-path="url(#p0b6f2c6292)" d="M 572.171359 293.589375 
L 586.510222 293.589375 
L 586.510222 141.184026 
L 572.171359 141.184026 
z
" style="fill:#023eff;opacity:0.4;stroke:#ffffff;stroke-linejoin:miter;"/>
   </g>
   <g id="patch_39">
    <path clip-path="url(#p0b6f2c6292)" d="M 586.510222 293.589375 
L 600.849086 293.589375 
L 600.849086 250.04499 
L 586.510222 250.04499 
z
" style="fill:#023eff;opacity:0.4;stroke:#ffffff;stroke-linejoin:miter;"/>
   </g>
   <g id="patch_40">
    <path clip-path="url(#p0b6f2c6292)" d="M 600.849086 293.589375 
L 615.18795 293.589375 
L 615.18795 289.234936 
L 600.849086 289.234936 
z
" style="fill:#023eff;opacity:0.4;stroke:#ffffff;stroke-linejoin:miter;"/>
   </g>
   <g id="patch_41">
    <path clip-path="url(#p0b6f2c6292)" d="M 566.083498 293.589375 
L 579.18653 293.589375 
L 579.18653 277.540764 
L 566.083498 277.540764 
z
" style="fill:#ff7c00;opacity:0.4;stroke:#ffffff;stroke-linejoin:miter;"/>
   </g>
   <g id="patch_42">
    <path clip-path="url(#p0b6f2c6292)" d="M 579.18653 293.589375 
L 592.289563 293.589375 
L 592.289563 210.671553 
L 579.18653 210.671553 
z
" style="fill:#ff7c00;opacity:0.4;stroke:#ffffff;stroke-linejoin:miter;"/>
   </g>
   <g id="patch_43">
    <path clip-path="url(#p0b6f2c6292)" d="M 592.289563 293.589375 
L 605.392595 293.589375 
L 605.392595 207.996784 
L 592.289563 207.996784 
z
" style="fill:#ff7c00;opacity:0.4;stroke:#ffffff;stroke-linejoin:miter;"/>
   </g>
   <g id="patch_44">
    <path clip-path="url(#p0b6f2c6292)" d="M 605.392595 293.589375 
L 618.495627 293.589375 
L 618.495627 226.720163 
L 605.392595 226.720163 
z
" style="fill:#ff7c00;opacity:0.4;stroke:#ffffff;stroke-linejoin:miter;"/>
   </g>
   <g id="patch_45">
    <path clip-path="url(#p0b6f2c6292)" d="M 618.495627 293.589375 
L 631.598659 293.589375 
L 631.598659 210.671553 
L 618.495627 210.671553 
z
" style="fill:#ff7c00;opacity:0.4;stroke:#ffffff;stroke-linejoin:miter;"/>
   </g>
   <g id="patch_46">
    <path clip-path="url(#p0b6f2c6292)" d="M 631.598659 293.589375 
L 644.701692 293.589375 
L 644.701692 237.419237 
L 631.598659 237.419237 
z
" style="fill:#ff7c00;opacity:0.4;stroke:#ffffff;stroke-linejoin:miter;"/>
   </g>
   <g id="patch_47">
    <path clip-path="url(#p0b6f2c6292)" d="M 644.701692 293.589375 
L 657.804724 293.589375 
L 657.804724 229.394932 
L 644.701692 229.394932 
z
" style="fill:#ff7c00;opacity:0.4;stroke:#ffffff;stroke-linejoin:miter;"/>
   </g>
   <g id="patch_48">
    <path clip-path="url(#p0b6f2c6292)" d="M 657.804724 293.589375 
L 670.907756 293.589375 
L 670.907756 261.492153 
L 657.804724 261.492153 
z
" style="fill:#ff7c00;opacity:0.4;stroke:#ffffff;stroke-linejoin:miter;"/>
   </g>
   <g id="patch_49">
    <path clip-path="url(#p0b6f2c6292)" d="M 670.907756 293.589375 
L 684.010789 293.589375 
L 684.010789 266.84169 
L 670.907756 266.84169 
z
" style="fill:#ff7c00;opacity:0.4;stroke:#ffffff;stroke-linejoin:miter;"/>
   </g>
   <g id="patch_50">
    <path clip-path="url(#p0b6f2c6292)" d="M 684.010789 293.589375 
L 697.113821 293.589375 
L 697.113821 282.890301 
L 684.010789 282.890301 
z
" style="fill:#ff7c00;opacity:0.4;stroke:#ffffff;stroke-linejoin:miter;"/>
   </g>
   <g id="patch_51">
    <path clip-path="url(#p0b6f2c6292)" d="M 697.113821 293.589375 
L 710.216853 293.589375 
L 710.216853 277.540764 
L 697.113821 277.540764 
z
" style="fill:#ff7c00;opacity:0.4;stroke:#ffffff;stroke-linejoin:miter;"/>
   </g>
   <g id="patch_52">
    <path clip-path="url(#p0b6f2c6292)" d="M 710.216853 293.589375 
L 723.319886 293.589375 
L 723.319886 288.239838 
L 710.216853 288.239838 
z
" style="fill:#ff7c00;opacity:0.4;stroke:#ffffff;stroke-linejoin:miter;"/>
   </g>
   <g id="patch_53">
    <path clip-path="url(#p0b6f2c6292)" d="M 723.319886 293.589375 
L 736.422918 293.589375 
L 736.422918 288.239838 
L 723.319886 288.239838 
z
" style="fill:#ff7c00;opacity:0.4;stroke:#ffffff;stroke-linejoin:miter;"/>
   </g>
   <g id="patch_54">
    <path clip-path="url(#p0b6f2c6292)" d="M 736.422918 293.589375 
L 749.52595 293.589375 
L 749.52595 290.914607 
L 736.422918 290.914607 
z
" style="fill:#ff7c00;opacity:0.4;stroke:#ffffff;stroke-linejoin:miter;"/>
   </g>
   <g id="patch_55">
    <path clip-path="url(#p0b6f2c6292)" d="M 749.52595 293.589375 
L 762.628983 293.589375 
L 762.628983 285.56507 
L 749.52595 285.56507 
z
" style="fill:#ff7c00;opacity:0.4;stroke:#ffffff;stroke-linejoin:miter;"/>
   </g>
   <g id="patch_56">
    <path clip-path="url(#p0b6f2c6292)" d="M 762.628983 293.589375 
L 775.732015 293.589375 
L 775.732015 290.914607 
L 762.628983 290.914607 
z
" style="fill:#ff7c00;opacity:0.4;stroke:#ffffff;stroke-linejoin:miter;"/>
   </g>
   <g id="patch_57">
    <path clip-path="url(#p0b6f2c6292)" d="M 775.732015 293.589375 
L 788.835047 293.589375 
L 788.835047 293.589375 
L 775.732015 293.589375 
z
" style="fill:#ff7c00;opacity:0.4;stroke:#ffffff;stroke-linejoin:miter;"/>
   </g>
   <g id="patch_58">
    <path clip-path="url(#p0b6f2c6292)" d="M 788.835047 293.589375 
L 801.93808 293.589375 
L 801.93808 293.589375 
L 788.835047 293.589375 
z
" style="fill:#ff7c00;opacity:0.4;stroke:#ffffff;stroke-linejoin:miter;"/>
   </g>
   <g id="patch_59">
    <path clip-path="url(#p0b6f2c6292)" d="M 801.93808 293.589375 
L 815.041112 293.589375 
L 815.041112 293.589375 
L 801.93808 293.589375 
z
" style="fill:#ff7c00;opacity:0.4;stroke:#ffffff;stroke-linejoin:miter;"/>
   </g>
   <g id="patch_60">
    <path clip-path="url(#p0b6f2c6292)" d="M 815.041112 293.589375 
L 828.144144 293.589375 
L 828.144144 290.914607 
L 815.041112 290.914607 
z
" style="fill:#ff7c00;opacity:0.4;stroke:#ffffff;stroke-linejoin:miter;"/>
   </g>
   <g id="line2d_29">
    <path clip-path="url(#p0b6f2c6292)" d="M 532.270442 293.54398 
L 534.494238 293.415303 
L 535.976769 293.126575 
L 536.718034 292.86221 
L 537.459299 292.475184 
L 538.200565 291.922608 
L 538.94183 291.151907 
L 539.683095 290.100609 
L 540.424361 288.697099 
L 541.165626 286.862812 
L 541.906891 284.516285 
L 542.648157 281.579205 
L 543.389422 277.984109 
L 544.130687 273.682743 
L 545.613218 262.906398 
L 547.095749 249.453668 
L 548.578279 233.940779 
L 551.543341 199.748727 
L 554.508402 165.962045 
L 556.732198 143.677858 
L 559.697259 115.327574 
L 561.17979 99.033072 
L 564.886117 54.655901 
L 565.627382 47.407478 
L 566.368647 41.536828 
L 567.109913 37.343955 
L 567.851178 35.041669 
L 568.592443 34.732232 
L 569.333709 36.39612 
L 570.074974 39.895803 
L 570.816239 44.994569 
L 572.29877 58.737004 
L 575.263831 91.77767 
L 578.970158 131.66312 
L 582.676485 170.584454 
L 584.159015 184.337189 
L 585.641546 196.231308 
L 590.830403 234.399702 
L 593.054199 251.725452 
L 594.53673 261.8235 
L 596.019261 270.017673 
L 597.501791 276.239156 
L 598.984322 280.747972 
L 600.466853 283.955708 
L 601.949383 286.312777 
L 603.431914 288.190452 
L 604.914445 289.771128 
L 606.396975 291.038081 
L 607.879506 291.881912 
L 608.620771 292.119999 
L 610.103302 292.241793 
L 611.585833 292.007222 
L 613.809629 291.491485 
L 615.292159 291.375796 
L 616.77469 291.569638 
L 618.998486 292.267443 
L 621.222282 292.978243 
L 623.446078 293.389138 
L 625.669874 293.535032 
L 626.411139 293.546821 
L 626.411139 293.546821 
" style="fill:none;stroke:#023eff;stroke-linecap:round;stroke-width:1.5;"/>
   </g>
   <g id="line2d_30">
    <path clip-path="url(#p0b6f2c6292)" d="M 524.179937 293.540923 
L 532.350041 293.355369 
L 537.796778 292.96046 
L 540.520146 292.600218 
L 543.243515 292.07524 
L 545.966883 291.331475 
L 548.690251 290.305971 
L 551.413619 288.928742 
L 554.136988 287.126209 
L 556.860356 284.826518 
L 559.583724 281.96689 
L 562.307092 278.502857 
L 565.030461 274.418672 
L 567.753829 269.73755 
L 570.477197 264.529751 
L 575.923934 253.065468 
L 581.37067 241.493179 
L 584.094038 236.214905 
L 586.817407 231.537163 
L 589.540775 227.596459 
L 592.264143 224.462403 
L 594.987511 222.134054 
L 597.71088 220.548016 
L 600.434248 219.596468 
L 603.157616 219.150924 
L 605.880984 219.086156 
L 608.604353 219.298822 
L 611.327721 219.716982 
L 614.051089 220.299457 
L 616.774457 221.027009 
L 619.497826 221.889647 
L 624.944562 223.963651 
L 630.391299 226.34392 
L 635.838035 228.894691 
L 641.284772 231.762427 
L 644.00814 233.43751 
L 646.731508 235.342106 
L 649.454877 237.507255 
L 652.178245 239.937559 
L 654.901613 242.610448 
L 660.34835 248.494199 
L 671.241823 260.828409 
L 676.688559 266.521326 
L 679.411927 269.111828 
L 682.135296 271.4852 
L 684.858664 273.614881 
L 687.582032 275.48653 
L 690.3054 277.101486 
L 693.028769 278.477617 
L 695.752137 279.64702 
L 698.475505 280.651025 
L 703.922242 282.335198 
L 712.092346 284.505961 
L 717.539083 285.81354 
L 722.985819 286.927058 
L 728.432556 287.766562 
L 733.879292 288.316956 
L 739.326029 288.632146 
L 755.666239 289.292252 
L 761.112975 289.775785 
L 769.28308 290.797494 
L 780.176553 292.215308 
L 785.623289 292.745928 
L 791.070026 293.103095 
L 796.516762 293.287764 
L 804.686867 293.281415 
L 815.58034 292.916247 
L 823.750445 292.643737 
L 831.92055 292.632329 
L 840.090654 292.896655 
L 853.707496 293.39757 
L 864.600969 293.548796 
L 870.047705 293.555292 
L 870.047705 293.555292 
" style="fill:none;stroke:#ff7c00;stroke-linecap:round;stroke-width:1.5;"/>
   </g>
   <g id="patch_61">
    <path d="M 506.886548 293.589375 
L 506.886548 21.789375 
" style="fill:none;stroke:#cccccc;stroke-linecap:square;stroke-linejoin:miter;stroke-width:1.25;"/>
   </g>
   <g id="patch_62">
    <path d="M 887.341094 293.589375 
L 887.341094 21.789375 
" style="fill:none;stroke:#cccccc;stroke-linecap:square;stroke-linejoin:miter;stroke-width:1.25;"/>
   </g>
   <g id="patch_63">
    <path d="M 506.886548 293.589375 
L 887.341094 293.589375 
" style="fill:none;stroke:#cccccc;stroke-linecap:square;stroke-linejoin:miter;stroke-width:1.25;"/>
   </g>
   <g id="patch_64">
    <path d="M 506.886548 21.789375 
L 887.341094 21.789375 
" style="fill:none;stroke:#cccccc;stroke-linecap:square;stroke-linejoin:miter;stroke-width:1.25;"/>
   </g>
   <g id="text_32">
    <!-- Worst Cell Area Distribution -->
    <defs>
     <path d="M 20.21875 0 
L 1.21875 71.578125 
L 10.9375 71.578125 
L 21.828125 24.65625 
Q 23.578125 17.28125 24.859375 10.015625 
Q 27.59375 21.484375 28.078125 23.25 
L 41.703125 71.578125 
L 53.125 71.578125 
L 63.375 35.359375 
Q 67.234375 21.875 68.953125 10.015625 
Q 70.3125 16.796875 72.515625 25.59375 
L 83.734375 71.578125 
L 93.265625 71.578125 
L 73.640625 0 
L 64.5 0 
L 49.421875 54.546875 
Q 47.515625 61.375 47.171875 62.9375 
Q 46.046875 58.015625 45.0625 54.546875 
L 29.890625 0 
z
" id="ArialMT-87"/>
    </defs>
    <g style="fill:#262626;" transform="translate(623.434759 15.789375)scale(0.12 -0.12)">
     <use xlink:href="#ArialMT-87"/>
     <use x="94.369141" xlink:href="#ArialMT-111"/>
     <use x="149.984375" xlink:href="#ArialMT-114"/>
     <use x="183.285156" xlink:href="#ArialMT-115"/>
     <use x="233.285156" xlink:href="#ArialMT-116"/>
     <use x="261.068359" xlink:href="#ArialMT-32"/>
     <use x="288.851562" xlink:href="#ArialMT-67"/>
     <use x="361.068359" xlink:href="#ArialMT-101"/>
     <use x="416.683594" xlink:href="#ArialMT-108"/>
     <use x="438.900391" xlink:href="#ArialMT-108"/>
     <use x="461.117188" xlink:href="#ArialMT-32"/>
     <use x="488.822266" xlink:href="#ArialMT-65"/>
     <use x="555.521484" xlink:href="#ArialMT-114"/>
     <use x="588.822266" xlink:href="#ArialMT-101"/>
     <use x="644.4375" xlink:href="#ArialMT-97"/>
     <use x="700.052734" xlink:href="#ArialMT-32"/>
     <use x="727.835938" xlink:href="#ArialMT-68"/>
     <use x="800.052734" xlink:href="#ArialMT-105"/>
     <use x="822.269531" xlink:href="#ArialMT-115"/>
     <use x="872.269531" xlink:href="#ArialMT-116"/>
     <use x="900.052734" xlink:href="#ArialMT-114"/>
     <use x="933.353516" xlink:href="#ArialMT-105"/>
     <use x="955.570312" xlink:href="#ArialMT-98"/>
     <use x="1011.185547" xlink:href="#ArialMT-117"/>
     <use x="1066.800781" xlink:href="#ArialMT-116"/>
     <use x="1094.583984" xlink:href="#ArialMT-105"/>
     <use x="1116.800781" xlink:href="#ArialMT-111"/>
     <use x="1172.416016" xlink:href="#ArialMT-110"/>
    </g>
   </g>
   <g id="legend_2">
    <g id="patch_65">
     <path d="M 796.749219 61.966875 
L 879.641094 61.966875 
Q 881.841094 61.966875 881.841094 59.766875 
L 881.841094 29.489375 
Q 881.841094 27.289375 879.641094 27.289375 
L 796.749219 27.289375 
Q 794.549219 27.289375 794.549219 29.489375 
L 794.549219 59.766875 
Q 794.549219 61.966875 796.749219 61.966875 
z
" style="fill:#ffffff;opacity:0.8;stroke:#cccccc;stroke-linejoin:miter;"/>
    </g>
    <g id="patch_66">
     <path d="M 798.949219 39.562969 
L 820.949219 39.562969 
L 820.949219 31.862969 
L 798.949219 31.862969 
z
" style="fill:#023eff;opacity:0.4;stroke:#ffffff;stroke-linejoin:miter;"/>
    </g>
    <g id="text_33">
     <!-- Benign -->
     <g style="fill:#262626;" transform="translate(829.749219 39.562969)scale(0.11 -0.11)">
      <use xlink:href="#ArialMT-66"/>
      <use x="66.699219" xlink:href="#ArialMT-101"/>
      <use x="122.314453" xlink:href="#ArialMT-110"/>
      <use x="177.929688" xlink:href="#ArialMT-105"/>
      <use x="200.146484" xlink:href="#ArialMT-103"/>
      <use x="255.761719" xlink:href="#ArialMT-110"/>
     </g>
    </g>
    <g id="patch_67">
     <path d="M 798.949219 55.251719 
L 820.949219 55.251719 
L 820.949219 47.551719 
L 798.949219 47.551719 
z
" style="fill:#ff7c00;opacity:0.4;stroke:#ffffff;stroke-linejoin:miter;"/>
    </g>
    <g id="text_34">
     <!-- Malignant -->
     <g style="fill:#262626;" transform="translate(829.749219 55.251719)scale(0.11 -0.11)">
      <use xlink:href="#ArialMT-77"/>
      <use x="83.300781" xlink:href="#ArialMT-97"/>
      <use x="138.916016" xlink:href="#ArialMT-108"/>
      <use x="161.132812" xlink:href="#ArialMT-105"/>
      <use x="183.349609" xlink:href="#ArialMT-103"/>
      <use x="238.964844" xlink:href="#ArialMT-110"/>
      <use x="294.580078" xlink:href="#ArialMT-97"/>
      <use x="350.195312" xlink:href="#ArialMT-110"/>
      <use x="405.810547" xlink:href="#ArialMT-116"/>
     </g>
    </g>
   </g>
  </g>
 </g>
 <defs>
  <clipPath id="pa7e7f5f5dd">
   <rect height="271.8" width="380.454545" x="50.341094" y="21.789375"/>
  </clipPath>
  <clipPath id="p0b6f2c6292">
   <rect height="271.8" width="380.454545" x="506.886548" y="21.789375"/>
  </clipPath>
 </defs>
</svg>
