<?xml version="1.0" encoding="utf-8" standalone="no"?>
<!DOCTYPE svg PUBLIC "-//W3C//DTD SVG 1.1//EN"
  "http://www.w3.org/Graphics/SVG/1.1/DTD/svg11.dtd">
<!-- Created with matplotlib (https://matplotlib.org/) -->
<svg height="335.323594pt" version="1.1" viewBox="0 0 888.424062 335.323594" width="888.424062pt" xmlns="http://www.w3.org/2000/svg" xmlns:xlink="http://www.w3.org/1999/xlink">
 <defs>
  <style type="text/css">
*{stroke-linecap:butt;stroke-linejoin:round;}
  </style>
 </defs>
 <g id="figure_1">
  <g id="patch_1">
   <path d="M 0 335.323594 
L 888.424062 335.323594 
L 888.424062 0 
L 0 0 
z
" style="fill:#ffffff;"/>
  </g>
  <g id="axes_1">
   <g id="patch_2">
    <path d="M 44.224063 293.589375 
L 424.678608 293.589375 
L 424.678608 21.789375 
L 44.224063 21.789375 
z
" style="fill:#ffffff;"/>
   </g>
   <g id="matplotlib.axis_1">
    <g id="xtick_1">
     <g id="line2d_1">
      <path clip-path="url(#pf1da579db8)" d="M 46.648814 293.589375 
L 46.648814 21.789375 
" style="fill:none;stroke:#cccccc;stroke-linecap:round;"/>
     </g>
     <g id="text_1">
      <!-- 25 -->
      <defs>
       <path d="M 50.34375 8.453125 
L 50.34375 0 
L 3.03125 0 
Q 2.9375 3.171875 4.046875 6.109375 
Q 5.859375 10.9375 9.828125 15.625 
Q 13.8125 20.3125 21.34375 26.46875 
Q 33.015625 36.03125 37.109375 41.625 
Q 41.21875 47.21875 41.21875 52.203125 
Q 41.21875 57.421875 37.46875 61 
Q 33.734375 64.59375 27.734375 64.59375 
Q 21.390625 64.59375 17.578125 60.78125 
Q 13.765625 56.984375 13.71875 50.25 
L 4.6875 51.171875 
Q 5.609375 61.28125 11.65625 66.578125 
Q 17.71875 71.875 27.9375 71.875 
Q 38.234375 71.875 44.234375 66.15625 
Q 50.25 60.453125 50.25 52 
Q 50.25 47.703125 48.484375 43.546875 
Q 46.734375 39.40625 42.65625 34.8125 
Q 38.578125 30.21875 29.109375 22.21875 
Q 21.1875 15.578125 18.9375 13.203125 
Q 16.703125 10.84375 15.234375 8.453125 
z
" id="ArialMT-50"/>
       <path d="M 4.15625 18.75 
L 13.375 19.53125 
Q 14.40625 12.796875 18.140625 9.390625 
Q 21.875 6 27.15625 6 
Q 33.5 6 37.890625 10.78125 
Q 42.28125 15.578125 42.28125 23.484375 
Q 42.28125 31 38.0625 35.34375 
Q 33.84375 39.703125 27 39.703125 
Q 22.75 39.703125 19.328125 37.765625 
Q 15.921875 35.84375 13.96875 32.765625 
L 5.71875 33.84375 
L 12.640625 70.609375 
L 48.25 70.609375 
L 48.25 62.203125 
L 19.671875 62.203125 
L 15.828125 42.96875 
Q 22.265625 47.46875 29.34375 47.46875 
Q 38.71875 47.46875 45.15625 40.96875 
Q 51.609375 34.46875 51.609375 24.265625 
Q 51.609375 14.546875 45.953125 7.46875 
Q 39.0625 -1.21875 27.15625 -1.21875 
Q 17.390625 -1.21875 11.203125 4.25 
Q 5.03125 9.71875 4.15625 18.75 
z
" id="ArialMT-53"/>
      </defs>
      <g style="fill:#262626;" transform="translate(40.531782 310.962969)scale(0.11 -0.11)">
       <use xlink:href="#ArialMT-50"/>
       <use x="55.615234" xlink:href="#ArialMT-53"/>
      </g>
     </g>
    </g>
    <g id="xtick_2">
     <g id="line2d_2">
      <path clip-path="url(#pf1da579db8)" d="M 94.802346 293.589375 
L 94.802346 21.789375 
" style="fill:none;stroke:#cccccc;stroke-linecap:round;"/>
     </g>
     <g id="text_2">
      <!-- 50 -->
      <defs>
       <path d="M 4.15625 35.296875 
Q 4.15625 48 6.765625 55.734375 
Q 9.375 63.484375 14.515625 67.671875 
Q 19.671875 71.875 27.484375 71.875 
Q 33.25 71.875 37.59375 69.546875 
Q 41.9375 67.234375 44.765625 62.859375 
Q 47.609375 58.5 49.21875 52.21875 
Q 50.828125 45.953125 50.828125 35.296875 
Q 50.828125 22.703125 48.234375 14.96875 
Q 45.65625 7.234375 40.5 3 
Q 35.359375 -1.21875 27.484375 -1.21875 
Q 17.140625 -1.21875 11.234375 6.203125 
Q 4.15625 15.140625 4.15625 35.296875 
z
M 13.1875 35.296875 
Q 13.1875 17.671875 17.3125 11.828125 
Q 21.4375 6 27.484375 6 
Q 33.546875 6 37.671875 11.859375 
Q 41.796875 17.71875 41.796875 35.296875 
Q 41.796875 52.984375 37.671875 58.78125 
Q 33.546875 64.59375 27.390625 64.59375 
Q 21.34375 64.59375 17.71875 59.46875 
Q 13.1875 52.9375 13.1875 35.296875 
z
" id="ArialMT-48"/>
      </defs>
      <g style="fill:#262626;" transform="translate(88.685315 310.962969)scale(0.11 -0.11)">
       <use xlink:href="#ArialMT-53"/>
       <use x="55.615234" xlink:href="#ArialMT-48"/>
      </g>
     </g>
    </g>
    <g id="xtick_3">
     <g id="line2d_3">
      <path clip-path="url(#pf1da579db8)" d="M 142.955879 293.589375 
L 142.955879 21.789375 
" style="fill:none;stroke:#cccccc;stroke-linecap:round;"/>
     </g>
     <g id="text_3">
      <!-- 75 -->
      <defs>
       <path d="M 4.734375 62.203125 
L 4.734375 70.65625 
L 51.078125 70.65625 
L 51.078125 63.8125 
Q 44.234375 56.546875 37.515625 44.484375 
Q 30.8125 32.421875 27.15625 19.671875 
Q 24.515625 10.6875 23.78125 0 
L 14.75 0 
Q 14.890625 8.453125 18.0625 20.40625 
Q 21.234375 32.375 27.171875 43.484375 
Q 33.109375 54.59375 39.796875 62.203125 
z
" id="ArialMT-55"/>
      </defs>
      <g style="fill:#262626;" transform="translate(136.838848 310.962969)scale(0.11 -0.11)">
       <use xlink:href="#ArialMT-55"/>
       <use x="55.615234" xlink:href="#ArialMT-53"/>
      </g>
     </g>
    </g>
    <g id="xtick_4">
     <g id="line2d_4">
      <path clip-path="url(#pf1da579db8)" d="M 191.109412 293.589375 
L 191.109412 21.789375 
" style="fill:none;stroke:#cccccc;stroke-linecap:round;"/>
     </g>
     <g id="text_4">
      <!-- 100 -->
      <defs>
       <path d="M 37.25 0 
L 28.46875 0 
L 28.46875 56 
Q 25.296875 52.984375 20.140625 49.953125 
Q 14.984375 46.921875 10.890625 45.40625 
L 10.890625 53.90625 
Q 18.265625 57.375 23.78125 62.296875 
Q 29.296875 67.234375 31.59375 71.875 
L 37.25 71.875 
z
" id="ArialMT-49"/>
      </defs>
      <g style="fill:#262626;" transform="translate(181.933865 310.962969)scale(0.11 -0.11)">
       <use xlink:href="#ArialMT-49"/>
       <use x="55.615234" xlink:href="#ArialMT-48"/>
       <use x="111.230469" xlink:href="#ArialMT-48"/>
      </g>
     </g>
    </g>
    <g id="xtick_5">
     <g id="line2d_5">
      <path clip-path="url(#pf1da579db8)" d="M 239.262945 293.589375 
L 239.262945 21.789375 
" style="fill:none;stroke:#cccccc;stroke-linecap:round;"/>
     </g>
     <g id="text_5">
      <!-- 125 -->
      <g style="fill:#262626;" transform="translate(230.087398 310.962969)scale(0.11 -0.11)">
       <use xlink:href="#ArialMT-49"/>
       <use x="55.615234" xlink:href="#ArialMT-50"/>
       <use x="111.230469" xlink:href="#ArialMT-53"/>
      </g>
     </g>
    </g>
    <g id="xtick_6">
     <g id="line2d_6">
      <path clip-path="url(#pf1da579db8)" d="M 287.416478 293.589375 
L 287.416478 21.789375 
" style="fill:none;stroke:#cccccc;stroke-linecap:round;"/>
     </g>
     <g id="text_6">
      <!-- 150 -->
      <g style="fill:#262626;" transform="translate(278.240931 310.962969)scale(0.11 -0.11)">
       <use xlink:href="#ArialMT-49"/>
       <use x="55.615234" xlink:href="#ArialMT-53"/>
       <use x="111.230469" xlink:href="#ArialMT-48"/>
      </g>
     </g>
    </g>
    <g id="xtick_7">
     <g id="line2d_7">
      <path clip-path="url(#pf1da579db8)" d="M 335.57001 293.589375 
L 335.57001 21.789375 
" style="fill:none;stroke:#cccccc;stroke-linecap:round;"/>
     </g>
     <g id="text_7">
      <!-- 175 -->
      <g style="fill:#262626;" transform="translate(326.394463 310.962969)scale(0.11 -0.11)">
       <use xlink:href="#ArialMT-49"/>
       <use x="55.615234" xlink:href="#ArialMT-55"/>
       <use x="111.230469" xlink:href="#ArialMT-53"/>
      </g>
     </g>
    </g>
    <g id="xtick_8">
     <g id="line2d_8">
      <path clip-path="url(#pf1da579db8)" d="M 383.723543 293.589375 
L 383.723543 21.789375 
" style="fill:none;stroke:#cccccc;stroke-linecap:round;"/>
     </g>
     <g id="text_8">
      <!-- 200 -->
      <g style="fill:#262626;" transform="translate(374.547996 310.962969)scale(0.11 -0.11)">
       <use xlink:href="#ArialMT-50"/>
       <use x="55.615234" xlink:href="#ArialMT-48"/>
       <use x="111.230469" xlink:href="#ArialMT-48"/>
      </g>
     </g>
    </g>
    <g id="text_9">
     <!-- mean perimeter -->
     <defs>
      <path d="M 6.59375 0 
L 6.59375 51.859375 
L 14.453125 51.859375 
L 14.453125 44.578125 
Q 16.890625 48.390625 20.9375 50.703125 
Q 25 53.03125 30.171875 53.03125 
Q 35.9375 53.03125 39.625 50.640625 
Q 43.3125 48.25 44.828125 43.953125 
Q 50.984375 53.03125 60.84375 53.03125 
Q 68.5625 53.03125 72.703125 48.75 
Q 76.859375 44.484375 76.859375 35.59375 
L 76.859375 0 
L 68.109375 0 
L 68.109375 32.671875 
Q 68.109375 37.9375 67.25 40.25 
Q 66.40625 42.578125 64.15625 43.984375 
Q 61.921875 45.40625 58.890625 45.40625 
Q 53.421875 45.40625 49.796875 41.765625 
Q 46.1875 38.140625 46.1875 30.125 
L 46.1875 0 
L 37.40625 0 
L 37.40625 33.6875 
Q 37.40625 39.546875 35.25 42.46875 
Q 33.109375 45.40625 28.21875 45.40625 
Q 24.515625 45.40625 21.359375 43.453125 
Q 18.21875 41.5 16.796875 37.734375 
Q 15.375 33.984375 15.375 26.90625 
L 15.375 0 
z
" id="ArialMT-109"/>
      <path d="M 42.09375 16.703125 
L 51.171875 15.578125 
Q 49.03125 7.625 43.21875 3.21875 
Q 37.40625 -1.171875 28.375 -1.171875 
Q 17 -1.171875 10.328125 5.828125 
Q 3.65625 12.84375 3.65625 25.484375 
Q 3.65625 38.578125 10.390625 45.796875 
Q 17.140625 53.03125 27.875 53.03125 
Q 38.28125 53.03125 44.875 45.953125 
Q 51.46875 38.875 51.46875 26.03125 
Q 51.46875 25.25 51.421875 23.6875 
L 12.75 23.6875 
Q 13.234375 15.140625 17.578125 10.59375 
Q 21.921875 6.0625 28.421875 6.0625 
Q 33.25 6.0625 36.671875 8.59375 
Q 40.09375 11.140625 42.09375 16.703125 
z
M 13.234375 30.90625 
L 42.1875 30.90625 
Q 41.609375 37.453125 38.875 40.71875 
Q 34.671875 45.796875 27.984375 45.796875 
Q 21.921875 45.796875 17.796875 41.75 
Q 13.671875 37.703125 13.234375 30.90625 
z
" id="ArialMT-101"/>
      <path d="M 40.4375 6.390625 
Q 35.546875 2.25 31.03125 0.53125 
Q 26.515625 -1.171875 21.34375 -1.171875 
Q 12.796875 -1.171875 8.203125 3 
Q 3.609375 7.171875 3.609375 13.671875 
Q 3.609375 17.484375 5.34375 20.625 
Q 7.078125 23.78125 9.890625 25.6875 
Q 12.703125 27.59375 16.21875 28.5625 
Q 18.796875 29.25 24.03125 29.890625 
Q 34.671875 31.15625 39.703125 32.90625 
Q 39.75 34.71875 39.75 35.203125 
Q 39.75 40.578125 37.25 42.78125 
Q 33.890625 45.75 27.25 45.75 
Q 21.046875 45.75 18.09375 43.578125 
Q 15.140625 41.40625 13.71875 35.890625 
L 5.125 37.0625 
Q 6.296875 42.578125 8.984375 45.96875 
Q 11.671875 49.359375 16.75 51.1875 
Q 21.828125 53.03125 28.515625 53.03125 
Q 35.15625 53.03125 39.296875 51.46875 
Q 43.453125 49.90625 45.40625 47.53125 
Q 47.359375 45.171875 48.140625 41.546875 
Q 48.578125 39.3125 48.578125 33.453125 
L 48.578125 21.734375 
Q 48.578125 9.46875 49.140625 6.21875 
Q 49.703125 2.984375 51.375 0 
L 42.1875 0 
Q 40.828125 2.734375 40.4375 6.390625 
z
M 39.703125 26.03125 
Q 34.90625 24.078125 25.34375 22.703125 
Q 19.921875 21.921875 17.671875 20.9375 
Q 15.4375 19.96875 14.203125 18.09375 
Q 12.984375 16.21875 12.984375 13.921875 
Q 12.984375 10.40625 15.640625 8.0625 
Q 18.3125 5.71875 23.4375 5.71875 
Q 28.515625 5.71875 32.46875 7.9375 
Q 36.421875 10.15625 38.28125 14.015625 
Q 39.703125 17 39.703125 22.796875 
z
" id="ArialMT-97"/>
      <path d="M 6.59375 0 
L 6.59375 51.859375 
L 14.5 51.859375 
L 14.5 44.484375 
Q 20.21875 53.03125 31 53.03125 
Q 35.6875 53.03125 39.625 51.34375 
Q 43.5625 49.65625 45.515625 46.921875 
Q 47.46875 44.1875 48.25 40.4375 
Q 48.734375 37.984375 48.734375 31.890625 
L 48.734375 0 
L 39.9375 0 
L 39.9375 31.546875 
Q 39.9375 36.921875 38.90625 39.578125 
Q 37.890625 42.234375 35.28125 43.8125 
Q 32.671875 45.40625 29.15625 45.40625 
Q 23.53125 45.40625 19.453125 41.84375 
Q 15.375 38.28125 15.375 28.328125 
L 15.375 0 
z
" id="ArialMT-110"/>
      <path id="ArialMT-32"/>
      <path d="M 6.59375 -19.875 
L 6.59375 51.859375 
L 14.59375 51.859375 
L 14.59375 45.125 
Q 17.4375 49.078125 21 51.046875 
Q 24.5625 53.03125 29.640625 53.03125 
Q 36.28125 53.03125 41.359375 49.609375 
Q 46.4375 46.1875 49.015625 39.953125 
Q 51.609375 33.734375 51.609375 26.3125 
Q 51.609375 18.359375 48.75 11.984375 
Q 45.90625 5.609375 40.453125 2.21875 
Q 35.015625 -1.171875 29 -1.171875 
Q 24.609375 -1.171875 21.109375 0.6875 
Q 17.625 2.546875 15.375 5.375 
L 15.375 -19.875 
z
M 14.546875 25.640625 
Q 14.546875 15.625 18.59375 10.84375 
Q 22.65625 6.0625 28.421875 6.0625 
Q 34.28125 6.0625 38.453125 11.015625 
Q 42.625 15.96875 42.625 26.375 
Q 42.625 36.28125 38.546875 41.203125 
Q 34.46875 46.140625 28.8125 46.140625 
Q 23.1875 46.140625 18.859375 40.890625 
Q 14.546875 35.640625 14.546875 25.640625 
z
" id="ArialMT-112"/>
      <path d="M 6.5 0 
L 6.5 51.859375 
L 14.40625 51.859375 
L 14.40625 44 
Q 17.4375 49.515625 20 51.265625 
Q 22.5625 53.03125 25.640625 53.03125 
Q 30.078125 53.03125 34.671875 50.203125 
L 31.640625 42.046875 
Q 28.421875 43.953125 25.203125 43.953125 
Q 22.3125 43.953125 20.015625 42.21875 
Q 17.71875 40.484375 16.75 37.40625 
Q 15.28125 32.71875 15.28125 27.15625 
L 15.28125 0 
z
" id="ArialMT-114"/>
      <path d="M 6.640625 61.46875 
L 6.640625 71.578125 
L 15.4375 71.578125 
L 15.4375 61.46875 
z
M 6.640625 0 
L 6.640625 51.859375 
L 15.4375 51.859375 
L 15.4375 0 
z
" id="ArialMT-105"/>
      <path d="M 25.78125 7.859375 
L 27.046875 0.09375 
Q 23.34375 -0.6875 20.40625 -0.6875 
Q 15.625 -0.6875 12.984375 0.828125 
Q 10.359375 2.34375 9.28125 4.8125 
Q 8.203125 7.28125 8.203125 15.1875 
L 8.203125 45.015625 
L 1.765625 45.015625 
L 1.765625 51.859375 
L 8.203125 51.859375 
L 8.203125 64.703125 
L 16.9375 69.96875 
L 16.9375 51.859375 
L 25.78125 51.859375 
L 25.78125 45.015625 
L 16.9375 45.015625 
L 16.9375 14.703125 
Q 16.9375 10.9375 17.40625 9.859375 
Q 17.875 8.796875 18.921875 8.15625 
Q 19.96875 7.515625 21.921875 7.515625 
Q 23.390625 7.515625 25.78125 7.859375 
z
" id="ArialMT-116"/>
     </defs>
     <g style="fill:#262626;" transform="translate(192.437273 325.738594)scale(0.12 -0.12)">
      <use xlink:href="#ArialMT-109"/>
      <use x="83.300781" xlink:href="#ArialMT-101"/>
      <use x="138.916016" xlink:href="#ArialMT-97"/>
      <use x="194.53125" xlink:href="#ArialMT-110"/>
      <use x="250.146484" xlink:href="#ArialMT-32"/>
      <use x="277.929688" xlink:href="#ArialMT-112"/>
      <use x="333.544922" xlink:href="#ArialMT-101"/>
      <use x="389.160156" xlink:href="#ArialMT-114"/>
      <use x="422.460938" xlink:href="#ArialMT-105"/>
      <use x="444.677734" xlink:href="#ArialMT-109"/>
      <use x="527.978516" xlink:href="#ArialMT-101"/>
      <use x="583.59375" xlink:href="#ArialMT-116"/>
      <use x="611.376953" xlink:href="#ArialMT-101"/>
      <use x="666.992188" xlink:href="#ArialMT-114"/>
     </g>
    </g>
   </g>
   <g id="matplotlib.axis_2">
    <g id="ytick_1">
     <g id="line2d_9">
      <path clip-path="url(#pf1da579db8)" d="M 44.224063 293.589375 
L 424.678608 293.589375 
" style="fill:none;stroke:#cccccc;stroke-linecap:round;"/>
     </g>
     <g id="text_10">
      <!-- 0.000 -->
      <defs>
       <path d="M 9.078125 0 
L 9.078125 10.015625 
L 19.09375 10.015625 
L 19.09375 0 
z
" id="ArialMT-46"/>
      </defs>
      <g style="fill:#262626;" transform="translate(7.2 297.526172)scale(0.11 -0.11)">
       <use xlink:href="#ArialMT-48"/>
       <use x="55.615234" xlink:href="#ArialMT-46"/>
       <use x="83.398438" xlink:href="#ArialMT-48"/>
       <use x="139.013672" xlink:href="#ArialMT-48"/>
       <use x="194.628906" xlink:href="#ArialMT-48"/>
      </g>
     </g>
    </g>
    <g id="ytick_2">
     <g id="line2d_10">
      <path clip-path="url(#pf1da579db8)" d="M 44.224063 254.889608 
L 424.678608 254.889608 
" style="fill:none;stroke:#cccccc;stroke-linecap:round;"/>
     </g>
     <g id="text_11">
      <!-- 0.005 -->
      <g style="fill:#262626;" transform="translate(7.2 258.826405)scale(0.11 -0.11)">
       <use xlink:href="#ArialMT-48"/>
       <use x="55.615234" xlink:href="#ArialMT-46"/>
       <use x="83.398438" xlink:href="#ArialMT-48"/>
       <use x="139.013672" xlink:href="#ArialMT-48"/>
       <use x="194.628906" xlink:href="#ArialMT-53"/>
      </g>
     </g>
    </g>
    <g id="ytick_3">
     <g id="line2d_11">
      <path clip-path="url(#pf1da579db8)" d="M 44.224063 216.189842 
L 424.678608 216.189842 
" style="fill:none;stroke:#cccccc;stroke-linecap:round;"/>
     </g>
     <g id="text_12">
      <!-- 0.010 -->
      <g style="fill:#262626;" transform="translate(7.2 220.126639)scale(0.11 -0.11)">
       <use xlink:href="#ArialMT-48"/>
       <use x="55.615234" xlink:href="#ArialMT-46"/>
       <use x="83.398438" xlink:href="#ArialMT-48"/>
       <use x="139.013672" xlink:href="#ArialMT-49"/>
       <use x="194.628906" xlink:href="#ArialMT-48"/>
      </g>
     </g>
    </g>
    <g id="ytick_4">
     <g id="line2d_12">
      <path clip-path="url(#pf1da579db8)" d="M 44.224063 177.490075 
L 424.678608 177.490075 
" style="fill:none;stroke:#cccccc;stroke-linecap:round;"/>
     </g>
     <g id="text_13">
      <!-- 0.015 -->
      <g style="fill:#262626;" transform="translate(7.2 181.426872)scale(0.11 -0.11)">
       <use xlink:href="#ArialMT-48"/>
       <use x="55.615234" xlink:href="#ArialMT-46"/>
       <use x="83.398438" xlink:href="#ArialMT-48"/>
       <use x="139.013672" xlink:href="#ArialMT-49"/>
       <use x="194.628906" xlink:href="#ArialMT-53"/>
      </g>
     </g>
    </g>
    <g id="ytick_5">
     <g id="line2d_13">
      <path clip-path="url(#pf1da579db8)" d="M 44.224063 138.790309 
L 424.678608 138.790309 
" style="fill:none;stroke:#cccccc;stroke-linecap:round;"/>
     </g>
     <g id="text_14">
      <!-- 0.020 -->
      <g style="fill:#262626;" transform="translate(7.2 142.727106)scale(0.11 -0.11)">
       <use xlink:href="#ArialMT-48"/>
       <use x="55.615234" xlink:href="#ArialMT-46"/>
       <use x="83.398438" xlink:href="#ArialMT-48"/>
       <use x="139.013672" xlink:href="#ArialMT-50"/>
       <use x="194.628906" xlink:href="#ArialMT-48"/>
      </g>
     </g>
    </g>
    <g id="ytick_6">
     <g id="line2d_14">
      <path clip-path="url(#pf1da579db8)" d="M 44.224063 100.090542 
L 424.678608 100.090542 
" style="fill:none;stroke:#cccccc;stroke-linecap:round;"/>
     </g>
     <g id="text_15">
      <!-- 0.025 -->
      <g style="fill:#262626;" transform="translate(7.2 104.027339)scale(0.11 -0.11)">
       <use xlink:href="#ArialMT-48"/>
       <use x="55.615234" xlink:href="#ArialMT-46"/>
       <use x="83.398438" xlink:href="#ArialMT-48"/>
       <use x="139.013672" xlink:href="#ArialMT-50"/>
       <use x="194.628906" xlink:href="#ArialMT-53"/>
      </g>
     </g>
    </g>
    <g id="ytick_7">
     <g id="line2d_15">
      <path clip-path="url(#pf1da579db8)" d="M 44.224063 61.390776 
L 424.678608 61.390776 
" style="fill:none;stroke:#cccccc;stroke-linecap:round;"/>
     </g>
     <g id="text_16">
      <!-- 0.030 -->
      <defs>
       <path d="M 4.203125 18.890625 
L 12.984375 20.0625 
Q 14.5 12.59375 18.140625 9.296875 
Q 21.78125 6 27 6 
Q 33.203125 6 37.46875 10.296875 
Q 41.75 14.59375 41.75 20.953125 
Q 41.75 27 37.796875 30.921875 
Q 33.84375 34.859375 27.734375 34.859375 
Q 25.25 34.859375 21.53125 33.890625 
L 22.515625 41.609375 
Q 23.390625 41.5 23.921875 41.5 
Q 29.546875 41.5 34.03125 44.421875 
Q 38.53125 47.359375 38.53125 53.46875 
Q 38.53125 58.296875 35.25 61.46875 
Q 31.984375 64.65625 26.8125 64.65625 
Q 21.6875 64.65625 18.265625 61.421875 
Q 14.84375 58.203125 13.875 51.765625 
L 5.078125 53.328125 
Q 6.6875 62.15625 12.390625 67.015625 
Q 18.109375 71.875 26.609375 71.875 
Q 32.46875 71.875 37.390625 69.359375 
Q 42.328125 66.84375 44.9375 62.5 
Q 47.5625 58.15625 47.5625 53.265625 
Q 47.5625 48.640625 45.0625 44.828125 
Q 42.578125 41.015625 37.703125 38.765625 
Q 44.046875 37.3125 47.5625 32.6875 
Q 51.078125 28.078125 51.078125 21.140625 
Q 51.078125 11.765625 44.234375 5.25 
Q 37.40625 -1.265625 26.953125 -1.265625 
Q 17.53125 -1.265625 11.296875 4.34375 
Q 5.078125 9.96875 4.203125 18.890625 
z
" id="ArialMT-51"/>
      </defs>
      <g style="fill:#262626;" transform="translate(7.2 65.327573)scale(0.11 -0.11)">
       <use xlink:href="#ArialMT-48"/>
       <use x="55.615234" xlink:href="#ArialMT-46"/>
       <use x="83.398438" xlink:href="#ArialMT-48"/>
       <use x="139.013672" xlink:href="#ArialMT-51"/>
       <use x="194.628906" xlink:href="#ArialMT-48"/>
      </g>
     </g>
    </g>
    <g id="ytick_8">
     <g id="line2d_16">
      <path clip-path="url(#pf1da579db8)" d="M 44.224063 22.691009 
L 424.678608 22.691009 
" style="fill:none;stroke:#cccccc;stroke-linecap:round;"/>
     </g>
     <g id="text_17">
      <!-- 0.035 -->
      <g style="fill:#262626;" transform="translate(7.2 26.627806)scale(0.11 -0.11)">
       <use xlink:href="#ArialMT-48"/>
       <use x="55.615234" xlink:href="#ArialMT-46"/>
       <use x="83.398438" xlink:href="#ArialMT-48"/>
       <use x="139.013672" xlink:href="#ArialMT-51"/>
       <use x="194.628906" xlink:href="#ArialMT-53"/>
      </g>
     </g>
    </g>
   </g>
   <g id="patch_3">
    <path clip-path="url(#pf1da579db8)" d="M 82.841009 293.589375 
L 110.119022 293.589375 
L 110.119022 270.625943 
L 82.841009 270.625943 
z
" style="fill:#023eff;opacity:0.4;stroke:#ffffff;stroke-linejoin:miter;"/>
   </g>
   <g id="patch_4">
    <path clip-path="url(#pf1da579db8)" d="M 110.119022 293.589375 
L 137.397035 293.589375 
L 137.397035 158.870575 
L 110.119022 158.870575 
z
" style="fill:#023eff;opacity:0.4;stroke:#ffffff;stroke-linejoin:miter;"/>
   </g>
   <g id="patch_5">
    <path clip-path="url(#pf1da579db8)" d="M 137.397035 293.589375 
L 164.675049 293.589375 
L 164.675049 39.460729 
L 137.397035 39.460729 
z
" style="fill:#023eff;opacity:0.4;stroke:#ffffff;stroke-linejoin:miter;"/>
   </g>
   <g id="patch_6">
    <path clip-path="url(#pf1da579db8)" d="M 164.675049 293.589375 
L 191.953062 293.589375 
L 191.953062 171.117738 
L 164.675049 171.117738 
z
" style="fill:#023eff;opacity:0.4;stroke:#ffffff;stroke-linejoin:miter;"/>
   </g>
   <g id="patch_7">
    <path clip-path="url(#pf1da579db8)" d="M 191.953062 293.589375 
L 219.231075 293.589375 
L 219.231075 281.342211 
L 191.953062 281.342211 
z
" style="fill:#023eff;opacity:0.4;stroke:#ffffff;stroke-linejoin:miter;"/>
   </g>
   <g id="patch_8">
    <path clip-path="url(#pf1da579db8)" d="M 136.984841 293.589375 
L 148.214245 293.589375 
L 148.214245 268.540172 
L 136.984841 268.540172 
z
" style="fill:#ff7c00;opacity:0.4;stroke:#ffffff;stroke-linejoin:miter;"/>
   </g>
   <g id="patch_9">
    <path clip-path="url(#pf1da579db8)" d="M 148.214245 293.589375 
L 159.443649 293.589375 
L 159.443649 256.01557 
L 148.214245 256.01557 
z
" style="fill:#ff7c00;opacity:0.4;stroke:#ffffff;stroke-linejoin:miter;"/>
   </g>
   <g id="patch_10">
    <path clip-path="url(#pf1da579db8)" d="M 159.443649 293.589375 
L 170.673053 293.589375 
L 170.673053 212.179465 
L 159.443649 212.179465 
z
" style="fill:#ff7c00;opacity:0.4;stroke:#ffffff;stroke-linejoin:miter;"/>
   </g>
   <g id="patch_11">
    <path clip-path="url(#pf1da579db8)" d="M 170.673053 293.589375 
L 181.902457 293.589375 
L 181.902457 180.86796 
L 170.673053 180.86796 
z
" style="fill:#ff7c00;opacity:0.4;stroke:#ffffff;stroke-linejoin:miter;"/>
   </g>
   <g id="patch_12">
    <path clip-path="url(#pf1da579db8)" d="M 181.902457 293.589375 
L 193.13186 293.589375 
L 193.13186 180.86796 
L 181.902457 180.86796 
z
" style="fill:#ff7c00;opacity:0.4;stroke:#ffffff;stroke-linejoin:miter;"/>
   </g>
   <g id="patch_13">
    <path clip-path="url(#pf1da579db8)" d="M 193.13186 293.589375 
L 204.361264 293.589375 
L 204.361264 162.081058 
L 193.13186 162.081058 
z
" style="fill:#ff7c00;opacity:0.4;stroke:#ffffff;stroke-linejoin:miter;"/>
   </g>
   <g id="patch_14">
    <path clip-path="url(#pf1da579db8)" d="M 204.361264 293.589375 
L 215.590668 293.589375 
L 215.590668 162.081058 
L 204.361264 162.081058 
z
" style="fill:#ff7c00;opacity:0.4;stroke:#ffffff;stroke-linejoin:miter;"/>
   </g>
   <g id="patch_15">
    <path clip-path="url(#pf1da579db8)" d="M 215.590668 293.589375 
L 226.820072 293.589375 
L 226.820072 174.60566 
L 215.590668 174.60566 
z
" style="fill:#ff7c00;opacity:0.4;stroke:#ffffff;stroke-linejoin:miter;"/>
   </g>
   <g id="patch_16">
    <path clip-path="url(#pf1da579db8)" d="M 226.820072 293.589375 
L 238.049476 293.589375 
L 238.049476 168.343359 
L 226.820072 168.343359 
z
" style="fill:#ff7c00;opacity:0.4;stroke:#ffffff;stroke-linejoin:miter;"/>
   </g>
   <g id="patch_17">
    <path clip-path="url(#pf1da579db8)" d="M 238.049476 293.589375 
L 249.27888 293.589375 
L 249.27888 162.081058 
L 238.049476 162.081058 
z
" style="fill:#ff7c00;opacity:0.4;stroke:#ffffff;stroke-linejoin:miter;"/>
   </g>
   <g id="patch_18">
    <path clip-path="url(#pf1da579db8)" d="M 249.27888 293.589375 
L 260.508283 293.589375 
L 260.508283 149.556456 
L 249.27888 149.556456 
z
" style="fill:#ff7c00;opacity:0.4;stroke:#ffffff;stroke-linejoin:miter;"/>
   </g>
   <g id="patch_19">
    <path clip-path="url(#pf1da579db8)" d="M 260.508283 293.589375 
L 271.737687 293.589375 
L 271.737687 243.490969 
L 260.508283 243.490969 
z
" style="fill:#ff7c00;opacity:0.4;stroke:#ffffff;stroke-linejoin:miter;"/>
   </g>
   <g id="patch_20">
    <path clip-path="url(#pf1da579db8)" d="M 271.737687 293.589375 
L 282.967091 293.589375 
L 282.967091 249.753269 
L 271.737687 249.753269 
z
" style="fill:#ff7c00;opacity:0.4;stroke:#ffffff;stroke-linejoin:miter;"/>
   </g>
   <g id="patch_21">
    <path clip-path="url(#pf1da579db8)" d="M 282.967091 293.589375 
L 294.196495 293.589375 
L 294.196495 268.540172 
L 282.967091 268.540172 
z
" style="fill:#ff7c00;opacity:0.4;stroke:#ffffff;stroke-linejoin:miter;"/>
   </g>
   <g id="patch_22">
    <path clip-path="url(#pf1da579db8)" d="M 294.196495 293.589375 
L 305.425899 293.589375 
L 305.425899 281.064773 
L 294.196495 281.064773 
z
" style="fill:#ff7c00;opacity:0.4;stroke:#ffffff;stroke-linejoin:miter;"/>
   </g>
   <g id="patch_23">
    <path clip-path="url(#pf1da579db8)" d="M 305.425899 293.589375 
L 316.655303 293.589375 
L 316.655303 293.589375 
L 305.425899 293.589375 
z
" style="fill:#ff7c00;opacity:0.4;stroke:#ffffff;stroke-linejoin:miter;"/>
   </g>
   <g id="patch_24">
    <path clip-path="url(#pf1da579db8)" d="M 316.655303 293.589375 
L 327.884707 293.589375 
L 327.884707 281.064773 
L 316.655303 281.064773 
z
" style="fill:#ff7c00;opacity:0.4;stroke:#ffffff;stroke-linejoin:miter;"/>
   </g>
   <g id="patch_25">
    <path clip-path="url(#pf1da579db8)" d="M 327.884707 293.589375 
L 339.11411 293.589375 
L 339.11411 281.064773 
L 327.884707 281.064773 
z
" style="fill:#ff7c00;opacity:0.4;stroke:#ffffff;stroke-linejoin:miter;"/>
   </g>
   <g id="patch_26">
    <path clip-path="url(#pf1da579db8)" d="M 339.11411 293.589375 
L 350.343514 293.589375 
L 350.343514 287.327074 
L 339.11411 287.327074 
z
" style="fill:#ff7c00;opacity:0.4;stroke:#ffffff;stroke-linejoin:miter;"/>
   </g>
   <g id="patch_27">
    <path clip-path="url(#pf1da579db8)" d="M 350.343514 293.589375 
L 361.572918 293.589375 
L 361.572918 281.064773 
L 350.343514 281.064773 
z
" style="fill:#ff7c00;opacity:0.4;stroke:#ffffff;stroke-linejoin:miter;"/>
   </g>
   <g id="line2d_17">
    <path clip-path="url(#pf1da579db8)" d="M 61.517451 293.545557 
L 65.746676 293.439699 
L 68.566159 293.21993 
L 71.385642 292.780125 
L 74.205125 292.016213 
L 77.024608 290.845382 
L 79.844092 289.238949 
L 82.663575 287.232003 
L 85.483058 284.888257 
L 88.302541 282.207745 
L 89.712283 280.69432 
L 91.122024 279.011473 
L 92.531766 277.102677 
L 93.941508 274.904546 
L 95.351249 272.353832 
L 96.760991 269.394058 
L 98.170732 265.980036 
L 99.580474 262.079523 
L 100.990216 257.672859 
L 102.399957 252.752719 
L 103.809699 247.32644 
L 106.629182 235.098423 
L 113.67789 201.816973 
L 115.087631 196.005509 
L 116.497373 190.744193 
L 119.316856 181.635775 
L 122.136339 173.129957 
L 123.546081 168.406088 
L 124.955823 162.97627 
L 126.365564 156.597867 
L 127.775306 149.107511 
L 129.185047 140.444088 
L 130.594789 130.661752 
L 133.414272 108.530462 
L 137.643497 74.135738 
L 139.053239 63.990461 
L 140.46298 55.11602 
L 141.872722 47.761257 
L 143.282463 42.067117 
L 144.692205 38.061994 
L 146.101946 35.670181 
L 147.511688 34.732232 
L 148.92143 35.034462 
L 150.331171 36.343447 
L 151.740913 38.440415 
L 153.150654 41.150301 
L 154.560396 44.361288 
L 155.970138 48.032633 
L 157.379879 52.190942 
L 158.789621 56.916875 
L 160.199362 62.324995 
L 161.609104 68.539138 
L 163.018846 75.665007 
L 164.428587 83.761665 
L 165.838329 92.814797 
L 168.657812 113.258852 
L 172.887037 145.536421 
L 174.296778 155.388958 
L 175.70652 164.393092 
L 177.116261 172.507709 
L 179.935745 186.620783 
L 184.164969 206.469882 
L 186.984453 221.051402 
L 191.213677 243.44865 
L 192.623419 250.112374 
L 194.033161 256.034122 
L 195.442902 261.123181 
L 196.852644 265.379527 
L 198.262385 268.880316 
L 199.672127 271.75452 
L 201.081869 274.152836 
L 202.49161 276.219605 
L 205.311093 279.787677 
L 208.130577 282.929483 
L 210.95006 285.621095 
L 212.359801 286.742283 
L 213.769543 287.697627 
L 215.179284 288.493628 
L 217.998768 289.699528 
L 220.818251 290.597049 
L 226.457217 292.092388 
L 229.2767 292.690523 
L 232.096184 293.118967 
L 236.325408 293.452487 
L 240.554633 293.546323 
L 240.554633 293.546323 
" style="fill:none;stroke:#023eff;stroke-linecap:round;stroke-width:1.5;"/>
   </g>
   <g id="line2d_18">
    <path clip-path="url(#pf1da579db8)" d="M 91.17254 293.521194 
L 98.642131 293.386702 
L 103.621858 293.12494 
L 108.601585 292.59955 
L 111.091449 292.187976 
L 113.581312 291.644696 
L 116.071176 290.942783 
L 118.56104 290.054258 
L 121.050903 288.951043 
L 123.540767 287.605874 
L 126.03063 285.99305 
L 128.520494 284.088962 
L 131.010358 281.872383 
L 133.500221 279.324613 
L 135.990085 276.429612 
L 138.479949 273.174318 
L 140.969812 269.549325 
L 143.459676 265.550014 
L 145.949539 261.17813 
L 148.439403 256.443653 
L 150.929267 251.366689 
L 153.41913 245.97904 
L 158.398857 234.461856 
L 170.848176 204.657937 
L 173.338039 199.184952 
L 175.827903 194.058172 
L 178.317766 189.339771 
L 180.80763 185.07955 
L 183.297494 181.313786 
L 185.787357 178.064693 
L 188.277221 175.340368 
L 190.767085 173.135122 
L 193.256948 171.430112 
L 195.746812 170.19426 
L 198.236675 169.385475 
L 200.726539 168.952209 
L 203.216403 168.835386 
L 205.706266 168.970691 
L 208.19613 169.291198 
L 220.645448 171.518138 
L 225.625175 171.924909 
L 235.58463 172.253088 
L 238.074493 172.65068 
L 240.564357 173.390766 
L 243.054221 174.594405 
L 245.544084 176.374182 
L 248.033948 178.82255 
L 250.523811 182.000899 
L 253.013675 185.930944 
L 255.503539 190.589776 
L 257.993402 195.909472 
L 260.483266 201.781466 
L 265.462993 214.599693 
L 270.44272 227.755799 
L 272.932584 234.071534 
L 275.422448 240.046559 
L 277.912311 245.594537 
L 280.402175 250.662085 
L 282.892038 255.226928 
L 285.381902 259.293398 
L 287.871766 262.886192 
L 290.361629 266.043383 
L 292.851493 268.809668 
L 295.341357 271.230625 
L 297.83122 273.348552 
L 300.321084 275.200106 
L 302.810947 276.815691 
L 305.300811 278.220216 
L 307.790675 279.434712 
L 310.280538 280.478183 
L 312.770402 281.369173 
L 317.750129 282.770167 
L 322.729856 283.791503 
L 327.709584 284.566787 
L 335.179175 285.440923 
L 342.648765 286.067748 
L 352.60822 286.836061 
L 357.587947 287.41271 
L 362.567674 288.210333 
L 370.037265 289.733989 
L 377.506856 291.285813 
L 382.486583 292.12815 
L 387.466311 292.74551 
L 392.446038 293.146332 
L 399.915629 293.444818 
L 407.38522 293.526417 
L 407.38522 293.526417 
" style="fill:none;stroke:#ff7c00;stroke-linecap:round;stroke-width:1.5;"/>
   </g>
   <g id="patch_28">
    <path d="M 44.224063 293.589375 
L 44.224063 21.789375 
" style="fill:none;stroke:#cccccc;stroke-linecap:square;stroke-linejoin:miter;stroke-width:1.25;"/>
   </g>
   <g id="patch_29">
    <path d="M 424.678608 293.589375 
L 424.678608 21.789375 
" style="fill:none;stroke:#cccccc;stroke-linecap:square;stroke-linejoin:miter;stroke-width:1.25;"/>
   </g>
   <g id="patch_30">
    <path d="M 44.224063 293.589375 
L 424.678608 293.589375 
" style="fill:none;stroke:#cccccc;stroke-linecap:square;stroke-linejoin:miter;stroke-width:1.25;"/>
   </g>
   <g id="patch_31">
    <path d="M 44.224063 21.789375 
L 424.678608 21.789375 
" style="fill:none;stroke:#cccccc;stroke-linecap:square;stroke-linejoin:miter;stroke-width:1.25;"/>
   </g>
   <g id="text_18">
    <!-- Mean Cell Perimeter Distribution -->
    <defs>
     <path d="M 7.421875 0 
L 7.421875 71.578125 
L 21.6875 71.578125 
L 38.625 20.90625 
Q 40.96875 13.8125 42.046875 10.296875 
Q 43.265625 14.203125 45.84375 21.78125 
L 62.984375 71.578125 
L 75.734375 71.578125 
L 75.734375 0 
L 66.609375 0 
L 66.609375 59.90625 
L 45.796875 0 
L 37.25 0 
L 16.546875 60.9375 
L 16.546875 0 
z
" id="ArialMT-77"/>
     <path d="M 58.796875 25.09375 
L 68.265625 22.703125 
Q 65.28125 11.03125 57.546875 4.90625 
Q 49.8125 -1.21875 38.625 -1.21875 
Q 27.046875 -1.21875 19.796875 3.484375 
Q 12.546875 8.203125 8.765625 17.140625 
Q 4.984375 26.078125 4.984375 36.328125 
Q 4.984375 47.515625 9.25 55.828125 
Q 13.53125 64.15625 21.40625 68.46875 
Q 29.296875 72.796875 38.765625 72.796875 
Q 49.515625 72.796875 56.828125 67.328125 
Q 64.15625 61.859375 67.046875 51.953125 
L 57.71875 49.75 
Q 55.21875 57.5625 50.484375 61.125 
Q 45.75 64.703125 38.578125 64.703125 
Q 30.328125 64.703125 24.78125 60.734375 
Q 19.234375 56.78125 16.984375 50.109375 
Q 14.75 43.453125 14.75 36.375 
Q 14.75 27.25 17.40625 20.4375 
Q 20.0625 13.625 25.671875 10.25 
Q 31.296875 6.890625 37.84375 6.890625 
Q 45.796875 6.890625 51.3125 11.46875 
Q 56.84375 16.0625 58.796875 25.09375 
z
" id="ArialMT-67"/>
     <path d="M 6.390625 0 
L 6.390625 71.578125 
L 15.1875 71.578125 
L 15.1875 0 
z
" id="ArialMT-108"/>
     <path d="M 7.71875 0 
L 7.71875 71.578125 
L 34.71875 71.578125 
Q 41.84375 71.578125 45.609375 70.90625 
Q 50.875 70.015625 54.4375 67.546875 
Q 58.015625 65.09375 60.1875 60.640625 
Q 62.359375 56.203125 62.359375 50.875 
Q 62.359375 41.75 56.546875 35.421875 
Q 50.734375 29.109375 35.546875 29.109375 
L 17.1875 29.109375 
L 17.1875 0 
z
M 17.1875 37.546875 
L 35.6875 37.546875 
Q 44.875 37.546875 48.734375 40.96875 
Q 52.59375 44.390625 52.59375 50.59375 
Q 52.59375 55.078125 50.3125 58.265625 
Q 48.046875 61.46875 44.34375 62.5 
Q 41.9375 63.140625 35.5 63.140625 
L 17.1875 63.140625 
z
" id="ArialMT-80"/>
     <path d="M 7.71875 0 
L 7.71875 71.578125 
L 32.375 71.578125 
Q 40.71875 71.578125 45.125 70.5625 
Q 51.265625 69.140625 55.609375 65.4375 
Q 61.28125 60.640625 64.078125 53.1875 
Q 66.890625 45.75 66.890625 36.1875 
Q 66.890625 28.03125 64.984375 21.734375 
Q 63.09375 15.4375 60.109375 11.296875 
Q 57.125 7.171875 53.578125 4.796875 
Q 50.046875 2.4375 45.046875 1.21875 
Q 40.046875 0 33.546875 0 
z
M 17.1875 8.453125 
L 32.46875 8.453125 
Q 39.546875 8.453125 43.578125 9.765625 
Q 47.609375 11.078125 50 13.484375 
Q 53.375 16.84375 55.25 22.53125 
Q 57.125 28.21875 57.125 36.328125 
Q 57.125 47.5625 53.4375 53.59375 
Q 49.75 59.625 44.484375 61.671875 
Q 40.671875 63.140625 32.234375 63.140625 
L 17.1875 63.140625 
z
" id="ArialMT-68"/>
     <path d="M 3.078125 15.484375 
L 11.765625 16.84375 
Q 12.5 11.625 15.84375 8.84375 
Q 19.1875 6.0625 25.203125 6.0625 
Q 31.25 6.0625 34.171875 8.515625 
Q 37.109375 10.984375 37.109375 14.3125 
Q 37.109375 17.28125 34.515625 19 
Q 32.71875 20.171875 25.53125 21.96875 
Q 15.875 24.421875 12.140625 26.203125 
Q 8.40625 27.984375 6.46875 31.125 
Q 4.546875 34.28125 4.546875 38.09375 
Q 4.546875 41.546875 6.125 44.5 
Q 7.71875 47.46875 10.453125 49.421875 
Q 12.5 50.921875 16.03125 51.96875 
Q 19.578125 53.03125 23.640625 53.03125 
Q 29.734375 53.03125 34.34375 51.265625 
Q 38.96875 49.515625 41.15625 46.5 
Q 43.359375 43.5 44.1875 38.484375 
L 35.59375 37.3125 
Q 35.015625 41.3125 32.203125 43.546875 
Q 29.390625 45.796875 24.265625 45.796875 
Q 18.21875 45.796875 15.625 43.796875 
Q 13.03125 41.796875 13.03125 39.109375 
Q 13.03125 37.40625 14.109375 36.03125 
Q 15.1875 34.625 17.484375 33.6875 
Q 18.796875 33.203125 25.25 31.453125 
Q 34.578125 28.953125 38.25 27.359375 
Q 41.9375 25.78125 44.03125 22.75 
Q 46.140625 19.734375 46.140625 15.234375 
Q 46.140625 10.84375 43.578125 6.953125 
Q 41.015625 3.078125 36.171875 0.953125 
Q 31.34375 -1.171875 25.25 -1.171875 
Q 15.140625 -1.171875 9.84375 3.03125 
Q 4.546875 7.234375 3.078125 15.484375 
z
" id="ArialMT-115"/>
     <path d="M 14.703125 0 
L 6.546875 0 
L 6.546875 71.578125 
L 15.328125 71.578125 
L 15.328125 46.046875 
Q 20.90625 53.03125 29.546875 53.03125 
Q 34.328125 53.03125 38.59375 51.09375 
Q 42.875 49.171875 45.625 45.671875 
Q 48.390625 42.1875 49.953125 37.25 
Q 51.515625 32.328125 51.515625 26.703125 
Q 51.515625 13.375 44.921875 6.09375 
Q 38.328125 -1.171875 29.109375 -1.171875 
Q 19.921875 -1.171875 14.703125 6.5 
z
M 14.59375 26.3125 
Q 14.59375 17 17.140625 12.84375 
Q 21.296875 6.0625 28.375 6.0625 
Q 34.125 6.0625 38.328125 11.0625 
Q 42.53125 16.0625 42.53125 25.984375 
Q 42.53125 36.140625 38.5 40.96875 
Q 34.46875 45.796875 28.765625 45.796875 
Q 23 45.796875 18.796875 40.796875 
Q 14.59375 35.796875 14.59375 26.3125 
z
" id="ArialMT-98"/>
     <path d="M 40.578125 0 
L 40.578125 7.625 
Q 34.515625 -1.171875 24.125 -1.171875 
Q 19.53125 -1.171875 15.546875 0.578125 
Q 11.578125 2.34375 9.640625 5 
Q 7.71875 7.671875 6.9375 11.53125 
Q 6.390625 14.109375 6.390625 19.734375 
L 6.390625 51.859375 
L 15.1875 51.859375 
L 15.1875 23.09375 
Q 15.1875 16.21875 15.71875 13.8125 
Q 16.546875 10.359375 19.234375 8.375 
Q 21.921875 6.390625 25.875 6.390625 
Q 29.828125 6.390625 33.296875 8.421875 
Q 36.765625 10.453125 38.203125 13.9375 
Q 39.65625 17.4375 39.65625 24.078125 
L 39.65625 51.859375 
L 48.4375 51.859375 
L 48.4375 0 
z
" id="ArialMT-117"/>
     <path d="M 3.328125 25.921875 
Q 3.328125 40.328125 11.328125 47.265625 
Q 18.015625 53.03125 27.640625 53.03125 
Q 38.328125 53.03125 45.109375 46.015625 
Q 51.90625 39.015625 51.90625 26.65625 
Q 51.90625 16.65625 48.90625 10.90625 
Q 45.90625 5.171875 40.15625 2 
Q 34.421875 -1.171875 27.640625 -1.171875 
Q 16.75 -1.171875 10.03125 5.8125 
Q 3.328125 12.796875 3.328125 25.921875 
z
M 12.359375 25.921875 
Q 12.359375 15.96875 16.703125 11.015625 
Q 21.046875 6.0625 27.640625 6.0625 
Q 34.1875 6.0625 38.53125 11.03125 
Q 42.875 16.015625 42.875 26.21875 
Q 42.875 35.84375 38.5 40.796875 
Q 34.125 45.75 27.640625 45.75 
Q 21.046875 45.75 16.703125 40.8125 
Q 12.359375 35.890625 12.359375 25.921875 
z
" id="ArialMT-111"/>
    </defs>
    <g style="fill:#262626;" transform="translate(148.091648 15.789375)scale(0.12 -0.12)">
     <use xlink:href="#ArialMT-77"/>
     <use x="83.300781" xlink:href="#ArialMT-101"/>
     <use x="138.916016" xlink:href="#ArialMT-97"/>
     <use x="194.53125" xlink:href="#ArialMT-110"/>
     <use x="250.146484" xlink:href="#ArialMT-32"/>
     <use x="277.929688" xlink:href="#ArialMT-67"/>
     <use x="350.146484" xlink:href="#ArialMT-101"/>
     <use x="405.761719" xlink:href="#ArialMT-108"/>
     <use x="427.978516" xlink:href="#ArialMT-108"/>
     <use x="450.195312" xlink:href="#ArialMT-32"/>
     <use x="477.978516" xlink:href="#ArialMT-80"/>
     <use x="544.677734" xlink:href="#ArialMT-101"/>
     <use x="600.292969" xlink:href="#ArialMT-114"/>
     <use x="633.59375" xlink:href="#ArialMT-105"/>
     <use x="655.810547" xlink:href="#ArialMT-109"/>
     <use x="739.111328" xlink:href="#ArialMT-101"/>
     <use x="794.726562" xlink:href="#ArialMT-116"/>
     <use x="822.509766" xlink:href="#ArialMT-101"/>
     <use x="878.125" xlink:href="#ArialMT-114"/>
     <use x="911.425781" xlink:href="#ArialMT-32"/>
     <use x="939.208984" xlink:href="#ArialMT-68"/>
     <use x="1011.425781" xlink:href="#ArialMT-105"/>
     <use x="1033.642578" xlink:href="#ArialMT-115"/>
     <use x="1083.642578" xlink:href="#ArialMT-116"/>
     <use x="1111.425781" xlink:href="#ArialMT-114"/>
     <use x="1144.726562" xlink:href="#ArialMT-105"/>
     <use x="1166.943359" xlink:href="#ArialMT-98"/>
     <use x="1222.558594" xlink:href="#ArialMT-117"/>
     <use x="1278.173828" xlink:href="#ArialMT-116"/>
     <use x="1305.957031" xlink:href="#ArialMT-105"/>
     <use x="1328.173828" xlink:href="#ArialMT-111"/>
     <use x="1383.789062" xlink:href="#ArialMT-110"/>
    </g>
   </g>
   <g id="legend_1">
    <g id="patch_32">
     <path d="M 334.086733 61.966875 
L 416.978608 61.966875 
Q 419.178608 61.966875 419.178608 59.766875 
L 419.178608 29.489375 
Q 419.178608 27.289375 416.978608 27.289375 
L 334.086733 27.289375 
Q 331.886733 27.289375 331.886733 29.489375 
L 331.886733 59.766875 
Q 331.886733 61.966875 334.086733 61.966875 
z
" style="fill:#ffffff;opacity:0.8;stroke:#cccccc;stroke-linejoin:miter;"/>
    </g>
    <g id="patch_33">
     <path d="M 336.286733 39.562969 
L 358.286733 39.562969 
L 358.286733 31.862969 
L 336.286733 31.862969 
z
" style="fill:#023eff;opacity:0.4;stroke:#ffffff;stroke-linejoin:miter;"/>
    </g>
    <g id="text_19">
     <!-- Benign -->
     <defs>
      <path d="M 7.328125 0 
L 7.328125 71.578125 
L 34.1875 71.578125 
Q 42.390625 71.578125 47.34375 69.40625 
Q 52.296875 67.234375 55.09375 62.71875 
Q 57.90625 58.203125 57.90625 53.265625 
Q 57.90625 48.6875 55.421875 44.625 
Q 52.9375 40.578125 47.90625 38.09375 
Q 54.390625 36.1875 57.875 31.59375 
Q 61.375 27 61.375 20.75 
Q 61.375 15.71875 59.25 11.390625 
Q 57.125 7.078125 54 4.734375 
Q 50.875 2.390625 46.15625 1.1875 
Q 41.453125 0 34.625 0 
z
M 16.796875 41.5 
L 32.28125 41.5 
Q 38.578125 41.5 41.3125 42.328125 
Q 44.921875 43.40625 46.75 45.890625 
Q 48.578125 48.390625 48.578125 52.15625 
Q 48.578125 55.71875 46.875 58.421875 
Q 45.171875 61.140625 41.984375 62.140625 
Q 38.8125 63.140625 31.109375 63.140625 
L 16.796875 63.140625 
z
M 16.796875 8.453125 
L 34.625 8.453125 
Q 39.203125 8.453125 41.0625 8.796875 
Q 44.34375 9.375 46.53125 10.734375 
Q 48.734375 12.109375 50.140625 14.71875 
Q 51.5625 17.328125 51.5625 20.75 
Q 51.5625 24.75 49.515625 27.703125 
Q 47.46875 30.671875 43.828125 31.859375 
Q 40.1875 33.0625 33.34375 33.0625 
L 16.796875 33.0625 
z
" id="ArialMT-66"/>
      <path d="M 4.984375 -4.296875 
L 13.53125 -5.5625 
Q 14.0625 -9.515625 16.5 -11.328125 
Q 19.78125 -13.765625 25.4375 -13.765625 
Q 31.546875 -13.765625 34.859375 -11.328125 
Q 38.1875 -8.890625 39.359375 -4.5 
Q 40.046875 -1.8125 39.984375 6.78125 
Q 34.234375 0 25.640625 0 
Q 14.9375 0 9.078125 7.71875 
Q 3.21875 15.4375 3.21875 26.21875 
Q 3.21875 33.640625 5.90625 39.90625 
Q 8.59375 46.1875 13.6875 49.609375 
Q 18.796875 53.03125 25.6875 53.03125 
Q 34.859375 53.03125 40.828125 45.609375 
L 40.828125 51.859375 
L 48.921875 51.859375 
L 48.921875 7.03125 
Q 48.921875 -5.078125 46.453125 -10.125 
Q 44 -15.1875 38.640625 -18.109375 
Q 33.296875 -21.046875 25.484375 -21.046875 
Q 16.21875 -21.046875 10.5 -16.875 
Q 4.78125 -12.703125 4.984375 -4.296875 
z
M 12.25 26.859375 
Q 12.25 16.65625 16.296875 11.96875 
Q 20.359375 7.28125 26.46875 7.28125 
Q 32.515625 7.28125 36.609375 11.9375 
Q 40.71875 16.609375 40.71875 26.5625 
Q 40.71875 36.078125 36.5 40.90625 
Q 32.28125 45.75 26.3125 45.75 
Q 20.453125 45.75 16.34375 40.984375 
Q 12.25 36.234375 12.25 26.859375 
z
" id="ArialMT-103"/>
     </defs>
     <g style="fill:#262626;" transform="translate(367.086733 39.562969)scale(0.11 -0.11)">
      <use xlink:href="#ArialMT-66"/>
      <use x="66.699219" xlink:href="#ArialMT-101"/>
      <use x="122.314453" xlink:href="#ArialMT-110"/>
      <use x="177.929688" xlink:href="#ArialMT-105"/>
      <use x="200.146484" xlink:href="#ArialMT-103"/>
      <use x="255.761719" xlink:href="#ArialMT-110"/>
     </g>
    </g>
    <g id="patch_34">
     <path d="M 336.286733 55.251719 
L 358.286733 55.251719 
L 358.286733 47.551719 
L 336.286733 47.551719 
z
" style="fill:#ff7c00;opacity:0.4;stroke:#ffffff;stroke-linejoin:miter;"/>
    </g>
    <g id="text_20">
     <!-- Malignant -->
     <g style="fill:#262626;" transform="translate(367.086733 55.251719)scale(0.11 -0.11)">
      <use xlink:href="#ArialMT-77"/>
      <use x="83.300781" xlink:href="#ArialMT-97"/>
      <use x="138.916016" xlink:href="#ArialMT-108"/>
      <use x="161.132812" xlink:href="#ArialMT-105"/>
      <use x="183.349609" xlink:href="#ArialMT-103"/>
      <use x="238.964844" xlink:href="#ArialMT-110"/>
      <use x="294.580078" xlink:href="#ArialMT-97"/>
      <use x="350.195312" xlink:href="#ArialMT-110"/>
      <use x="405.810547" xlink:href="#ArialMT-116"/>
     </g>
    </g>
   </g>
  </g>
  <g id="axes_2">
   <g id="patch_35">
    <path d="M 500.769517 293.589375 
L 881.224062 293.589375 
L 881.224062 21.789375 
L 500.769517 21.789375 
z
" style="fill:#ffffff;"/>
   </g>
   <g id="matplotlib.axis_3">
    <g id="xtick_9">
     <g id="line2d_19">
      <path clip-path="url(#pd69ddf1772)" d="M 536.127507 293.589375 
L 536.127507 21.789375 
" style="fill:none;stroke:#cccccc;stroke-linecap:round;"/>
     </g>
     <g id="text_21">
      <!-- 50 -->
      <g style="fill:#262626;" transform="translate(530.010476 310.962969)scale(0.11 -0.11)">
       <use xlink:href="#ArialMT-53"/>
       <use x="55.615234" xlink:href="#ArialMT-48"/>
      </g>
     </g>
    </g>
    <g id="xtick_10">
     <g id="line2d_20">
      <path clip-path="url(#pd69ddf1772)" d="M 606.393663 293.589375 
L 606.393663 21.789375 
" style="fill:none;stroke:#cccccc;stroke-linecap:round;"/>
     </g>
     <g id="text_22">
      <!-- 100 -->
      <g style="fill:#262626;" transform="translate(597.218116 310.962969)scale(0.11 -0.11)">
       <use xlink:href="#ArialMT-49"/>
       <use x="55.615234" xlink:href="#ArialMT-48"/>
       <use x="111.230469" xlink:href="#ArialMT-48"/>
      </g>
     </g>
    </g>
    <g id="xtick_11">
     <g id="line2d_21">
      <path clip-path="url(#pd69ddf1772)" d="M 676.659819 293.589375 
L 676.659819 21.789375 
" style="fill:none;stroke:#cccccc;stroke-linecap:round;"/>
     </g>
     <g id="text_23">
      <!-- 150 -->
      <g style="fill:#262626;" transform="translate(667.484273 310.962969)scale(0.11 -0.11)">
       <use xlink:href="#ArialMT-49"/>
       <use x="55.615234" xlink:href="#ArialMT-53"/>
       <use x="111.230469" xlink:href="#ArialMT-48"/>
      </g>
     </g>
    </g>
    <g id="xtick_12">
     <g id="line2d_22">
      <path clip-path="url(#pd69ddf1772)" d="M 746.925976 293.589375 
L 746.925976 21.789375 
" style="fill:none;stroke:#cccccc;stroke-linecap:round;"/>
     </g>
     <g id="text_24">
      <!-- 200 -->
      <g style="fill:#262626;" transform="translate(737.750429 310.962969)scale(0.11 -0.11)">
       <use xlink:href="#ArialMT-50"/>
       <use x="55.615234" xlink:href="#ArialMT-48"/>
       <use x="111.230469" xlink:href="#ArialMT-48"/>
      </g>
     </g>
    </g>
    <g id="xtick_13">
     <g id="line2d_23">
      <path clip-path="url(#pd69ddf1772)" d="M 817.192132 293.589375 
L 817.192132 21.789375 
" style="fill:none;stroke:#cccccc;stroke-linecap:round;"/>
     </g>
     <g id="text_25">
      <!-- 250 -->
      <g style="fill:#262626;" transform="translate(808.016585 310.962969)scale(0.11 -0.11)">
       <use xlink:href="#ArialMT-50"/>
       <use x="55.615234" xlink:href="#ArialMT-53"/>
       <use x="111.230469" xlink:href="#ArialMT-48"/>
      </g>
     </g>
    </g>
    <g id="text_26">
     <!-- worst perimeter -->
     <defs>
      <path d="M 16.15625 0 
L 0.296875 51.859375 
L 9.375 51.859375 
L 17.625 21.921875 
L 20.703125 10.796875 
Q 20.90625 11.625 23.390625 21.484375 
L 31.640625 51.859375 
L 40.671875 51.859375 
L 48.4375 21.78125 
L 51.03125 11.859375 
L 54 21.875 
L 62.890625 51.859375 
L 71.4375 51.859375 
L 55.21875 0 
L 46.09375 0 
L 37.84375 31.0625 
L 35.84375 39.890625 
L 25.34375 0 
z
" id="ArialMT-119"/>
     </defs>
     <g style="fill:#262626;" transform="translate(649.655852 325.738594)scale(0.12 -0.12)">
      <use xlink:href="#ArialMT-119"/>
      <use x="72.216797" xlink:href="#ArialMT-111"/>
      <use x="127.832031" xlink:href="#ArialMT-114"/>
      <use x="161.132812" xlink:href="#ArialMT-115"/>
      <use x="211.132812" xlink:href="#ArialMT-116"/>
      <use x="238.916016" xlink:href="#ArialMT-32"/>
      <use x="266.699219" xlink:href="#ArialMT-112"/>
      <use x="322.314453" xlink:href="#ArialMT-101"/>
      <use x="377.929688" xlink:href="#ArialMT-114"/>
      <use x="411.230469" xlink:href="#ArialMT-105"/>
      <use x="433.447266" xlink:href="#ArialMT-109"/>
      <use x="516.748047" xlink:href="#ArialMT-101"/>
      <use x="572.363281" xlink:href="#ArialMT-116"/>
      <use x="600.146484" xlink:href="#ArialMT-101"/>
      <use x="655.761719" xlink:href="#ArialMT-114"/>
     </g>
    </g>
   </g>
   <g id="matplotlib.axis_4">
    <g id="ytick_9">
     <g id="line2d_24">
      <path clip-path="url(#pd69ddf1772)" d="M 500.769517 293.589375 
L 881.224062 293.589375 
" style="fill:none;stroke:#cccccc;stroke-linecap:round;"/>
     </g>
     <g id="text_27">
      <!-- 0.000 -->
      <g style="fill:#262626;" transform="translate(463.745455 297.526172)scale(0.11 -0.11)">
       <use xlink:href="#ArialMT-48"/>
       <use x="55.615234" xlink:href="#ArialMT-46"/>
       <use x="83.398438" xlink:href="#ArialMT-48"/>
       <use x="139.013672" xlink:href="#ArialMT-48"/>
       <use x="194.628906" xlink:href="#ArialMT-48"/>
      </g>
     </g>
    </g>
    <g id="ytick_10">
     <g id="line2d_25">
      <path clip-path="url(#pd69ddf1772)" d="M 500.769517 250.253388 
L 881.224062 250.253388 
" style="fill:none;stroke:#cccccc;stroke-linecap:round;"/>
     </g>
     <g id="text_28">
      <!-- 0.005 -->
      <g style="fill:#262626;" transform="translate(463.745455 254.190185)scale(0.11 -0.11)">
       <use xlink:href="#ArialMT-48"/>
       <use x="55.615234" xlink:href="#ArialMT-46"/>
       <use x="83.398438" xlink:href="#ArialMT-48"/>
       <use x="139.013672" xlink:href="#ArialMT-48"/>
       <use x="194.628906" xlink:href="#ArialMT-53"/>
      </g>
     </g>
    </g>
    <g id="ytick_11">
     <g id="line2d_26">
      <path clip-path="url(#pd69ddf1772)" d="M 500.769517 206.917401 
L 881.224062 206.917401 
" style="fill:none;stroke:#cccccc;stroke-linecap:round;"/>
     </g>
     <g id="text_29">
      <!-- 0.010 -->
      <g style="fill:#262626;" transform="translate(463.745455 210.854197)scale(0.11 -0.11)">
       <use xlink:href="#ArialMT-48"/>
       <use x="55.615234" xlink:href="#ArialMT-46"/>
       <use x="83.398438" xlink:href="#ArialMT-48"/>
       <use x="139.013672" xlink:href="#ArialMT-49"/>
       <use x="194.628906" xlink:href="#ArialMT-48"/>
      </g>
     </g>
    </g>
    <g id="ytick_12">
     <g id="line2d_27">
      <path clip-path="url(#pd69ddf1772)" d="M 500.769517 163.581413 
L 881.224062 163.581413 
" style="fill:none;stroke:#cccccc;stroke-linecap:round;"/>
     </g>
     <g id="text_30">
      <!-- 0.015 -->
      <g style="fill:#262626;" transform="translate(463.745455 167.51821)scale(0.11 -0.11)">
       <use xlink:href="#ArialMT-48"/>
       <use x="55.615234" xlink:href="#ArialMT-46"/>
       <use x="83.398438" xlink:href="#ArialMT-48"/>
       <use x="139.013672" xlink:href="#ArialMT-49"/>
       <use x="194.628906" xlink:href="#ArialMT-53"/>
      </g>
     </g>
    </g>
    <g id="ytick_13">
     <g id="line2d_28">
      <path clip-path="url(#pd69ddf1772)" d="M 500.769517 120.245426 
L 881.224062 120.245426 
" style="fill:none;stroke:#cccccc;stroke-linecap:round;"/>
     </g>
     <g id="text_31">
      <!-- 0.020 -->
      <g style="fill:#262626;" transform="translate(463.745455 124.182223)scale(0.11 -0.11)">
       <use xlink:href="#ArialMT-48"/>
       <use x="55.615234" xlink:href="#ArialMT-46"/>
       <use x="83.398438" xlink:href="#ArialMT-48"/>
       <use x="139.013672" xlink:href="#ArialMT-50"/>
       <use x="194.628906" xlink:href="#ArialMT-48"/>
      </g>
     </g>
    </g>
    <g id="ytick_14">
     <g id="line2d_29">
      <path clip-path="url(#pd69ddf1772)" d="M 500.769517 76.909439 
L 881.224062 76.909439 
" style="fill:none;stroke:#cccccc;stroke-linecap:round;"/>
     </g>
     <g id="text_32">
      <!-- 0.025 -->
      <g style="fill:#262626;" transform="translate(463.745455 80.846236)scale(0.11 -0.11)">
       <use xlink:href="#ArialMT-48"/>
       <use x="55.615234" xlink:href="#ArialMT-46"/>
       <use x="83.398438" xlink:href="#ArialMT-48"/>
       <use x="139.013672" xlink:href="#ArialMT-50"/>
       <use x="194.628906" xlink:href="#ArialMT-53"/>
      </g>
     </g>
    </g>
    <g id="ytick_15">
     <g id="line2d_30">
      <path clip-path="url(#pd69ddf1772)" d="M 500.769517 33.573452 
L 881.224062 33.573452 
" style="fill:none;stroke:#cccccc;stroke-linecap:round;"/>
     </g>
     <g id="text_33">
      <!-- 0.030 -->
      <g style="fill:#262626;" transform="translate(463.745455 37.510248)scale(0.11 -0.11)">
       <use xlink:href="#ArialMT-48"/>
       <use x="55.615234" xlink:href="#ArialMT-46"/>
       <use x="83.398438" xlink:href="#ArialMT-48"/>
       <use x="139.013672" xlink:href="#ArialMT-51"/>
       <use x="194.628906" xlink:href="#ArialMT-48"/>
      </g>
     </g>
    </g>
   </g>
   <g id="patch_36">
    <path clip-path="url(#pd69ddf1772)" d="M 536.703689 293.589375 
L 558.258536 293.589375 
L 558.258536 257.183659 
L 536.703689 257.183659 
z
" style="fill:#023eff;opacity:0.4;stroke:#ffffff;stroke-linejoin:miter;"/>
   </g>
   <g id="patch_37">
    <path clip-path="url(#pd69ddf1772)" d="M 558.258536 293.589375 
L 579.813382 293.589375 
L 579.813382 154.29794 
L 558.258536 154.29794 
z
" style="fill:#023eff;opacity:0.4;stroke:#ffffff;stroke-linejoin:miter;"/>
   </g>
   <g id="patch_38">
    <path clip-path="url(#pd69ddf1772)" d="M 579.813382 293.589375 
L 601.368228 293.589375 
L 601.368228 48.246506 
L 579.813382 48.246506 
z
" style="fill:#023eff;opacity:0.4;stroke:#ffffff;stroke-linejoin:miter;"/>
   </g>
   <g id="patch_39">
    <path clip-path="url(#pd69ddf1772)" d="M 601.368228 293.589375 
L 622.923074 293.589375 
L 622.923074 173.292226 
L 601.368228 173.292226 
z
" style="fill:#023eff;opacity:0.4;stroke:#ffffff;stroke-linejoin:miter;"/>
   </g>
   <g id="patch_40">
    <path clip-path="url(#pd69ddf1772)" d="M 622.923074 293.589375 
L 644.47792 293.589375 
L 644.47792 269.846517 
L 622.923074 269.846517 
z
" style="fill:#023eff;opacity:0.4;stroke:#ffffff;stroke-linejoin:miter;"/>
   </g>
   <g id="patch_41">
    <path clip-path="url(#pd69ddf1772)" d="M 585.454349 293.589375 
L 597.125557 293.589375 
L 597.125557 268.975885 
L 585.454349 268.975885 
z
" style="fill:#ff7c00;opacity:0.4;stroke:#ffffff;stroke-linejoin:miter;"/>
   </g>
   <g id="patch_42">
    <path clip-path="url(#pd69ddf1772)" d="M 597.125557 293.589375 
L 608.796766 293.589375 
L 608.796766 273.898583 
L 597.125557 273.898583 
z
" style="fill:#ff7c00;opacity:0.4;stroke:#ffffff;stroke-linejoin:miter;"/>
   </g>
   <g id="patch_43">
    <path clip-path="url(#pd69ddf1772)" d="M 608.796766 293.589375 
L 620.467974 293.589375 
L 620.467974 200.058113 
L 608.796766 200.058113 
z
" style="fill:#ff7c00;opacity:0.4;stroke:#ffffff;stroke-linejoin:miter;"/>
   </g>
   <g id="patch_44">
    <path clip-path="url(#pd69ddf1772)" d="M 620.467974 293.589375 
L 632.139183 293.589375 
L 632.139183 180.367321 
L 620.467974 180.367321 
z
" style="fill:#ff7c00;opacity:0.4;stroke:#ffffff;stroke-linejoin:miter;"/>
   </g>
   <g id="patch_45">
    <path clip-path="url(#pd69ddf1772)" d="M 632.139183 293.589375 
L 643.810391 293.589375 
L 643.810391 185.290019 
L 632.139183 185.290019 
z
" style="fill:#ff7c00;opacity:0.4;stroke:#ffffff;stroke-linejoin:miter;"/>
   </g>
   <g id="patch_46">
    <path clip-path="url(#pd69ddf1772)" d="M 643.810391 293.589375 
L 655.4816 293.589375 
L 655.4816 160.676529 
L 643.810391 160.676529 
z
" style="fill:#ff7c00;opacity:0.4;stroke:#ffffff;stroke-linejoin:miter;"/>
   </g>
   <g id="patch_47">
    <path clip-path="url(#pd69ddf1772)" d="M 655.4816 293.589375 
L 667.152809 293.589375 
L 667.152809 200.058113 
L 655.4816 200.058113 
z
" style="fill:#ff7c00;opacity:0.4;stroke:#ffffff;stroke-linejoin:miter;"/>
   </g>
   <g id="patch_48">
    <path clip-path="url(#pd69ddf1772)" d="M 667.152809 293.589375 
L 678.824017 293.589375 
L 678.824017 204.980811 
L 667.152809 204.980811 
z
" style="fill:#ff7c00;opacity:0.4;stroke:#ffffff;stroke-linejoin:miter;"/>
   </g>
   <g id="patch_49">
    <path clip-path="url(#pd69ddf1772)" d="M 678.824017 293.589375 
L 690.495226 293.589375 
L 690.495226 180.367321 
L 678.824017 180.367321 
z
" style="fill:#ff7c00;opacity:0.4;stroke:#ffffff;stroke-linejoin:miter;"/>
   </g>
   <g id="patch_50">
    <path clip-path="url(#pd69ddf1772)" d="M 690.495226 293.589375 
L 702.166434 293.589375 
L 702.166434 209.903509 
L 690.495226 209.903509 
z
" style="fill:#ff7c00;opacity:0.4;stroke:#ffffff;stroke-linejoin:miter;"/>
   </g>
   <g id="patch_51">
    <path clip-path="url(#pd69ddf1772)" d="M 702.166434 293.589375 
L 713.837643 293.589375 
L 713.837643 254.207791 
L 702.166434 254.207791 
z
" style="fill:#ff7c00;opacity:0.4;stroke:#ffffff;stroke-linejoin:miter;"/>
   </g>
   <g id="patch_52">
    <path clip-path="url(#pd69ddf1772)" d="M 713.837643 293.589375 
L 725.508851 293.589375 
L 725.508851 239.439697 
L 713.837643 239.439697 
z
" style="fill:#ff7c00;opacity:0.4;stroke:#ffffff;stroke-linejoin:miter;"/>
   </g>
   <g id="patch_53">
    <path clip-path="url(#pd69ddf1772)" d="M 725.508851 293.589375 
L 737.18006 293.589375 
L 737.18006 278.821281 
L 725.508851 278.821281 
z
" style="fill:#ff7c00;opacity:0.4;stroke:#ffffff;stroke-linejoin:miter;"/>
   </g>
   <g id="patch_54">
    <path clip-path="url(#pd69ddf1772)" d="M 737.18006 293.589375 
L 748.851268 293.589375 
L 748.851268 278.821281 
L 737.18006 278.821281 
z
" style="fill:#ff7c00;opacity:0.4;stroke:#ffffff;stroke-linejoin:miter;"/>
   </g>
   <g id="patch_55">
    <path clip-path="url(#pd69ddf1772)" d="M 748.851268 293.589375 
L 760.522477 293.589375 
L 760.522477 273.898583 
L 748.851268 273.898583 
z
" style="fill:#ff7c00;opacity:0.4;stroke:#ffffff;stroke-linejoin:miter;"/>
   </g>
   <g id="patch_56">
    <path clip-path="url(#pd69ddf1772)" d="M 760.522477 293.589375 
L 772.193685 293.589375 
L 772.193685 278.821281 
L 760.522477 278.821281 
z
" style="fill:#ff7c00;opacity:0.4;stroke:#ffffff;stroke-linejoin:miter;"/>
   </g>
   <g id="patch_57">
    <path clip-path="url(#pd69ddf1772)" d="M 772.193685 293.589375 
L 783.864894 293.589375 
L 783.864894 288.666677 
L 772.193685 288.666677 
z
" style="fill:#ff7c00;opacity:0.4;stroke:#ffffff;stroke-linejoin:miter;"/>
   </g>
   <g id="patch_58">
    <path clip-path="url(#pd69ddf1772)" d="M 783.864894 293.589375 
L 795.536103 293.589375 
L 795.536103 288.666677 
L 783.864894 288.666677 
z
" style="fill:#ff7c00;opacity:0.4;stroke:#ffffff;stroke-linejoin:miter;"/>
   </g>
   <g id="patch_59">
    <path clip-path="url(#pd69ddf1772)" d="M 795.536103 293.589375 
L 807.207311 293.589375 
L 807.207311 293.589375 
L 795.536103 293.589375 
z
" style="fill:#ff7c00;opacity:0.4;stroke:#ffffff;stroke-linejoin:miter;"/>
   </g>
   <g id="patch_60">
    <path clip-path="url(#pd69ddf1772)" d="M 807.207311 293.589375 
L 818.87852 293.589375 
L 818.87852 288.666677 
L 807.207311 288.666677 
z
" style="fill:#ff7c00;opacity:0.4;stroke:#ffffff;stroke-linejoin:miter;"/>
   </g>
   <g id="line2d_31">
    <path clip-path="url(#pd69ddf1772)" d="M 518.062905 293.546889 
L 522.631592 293.390596 
L 524.915935 293.14376 
L 527.200279 292.684112 
L 529.484622 291.908303 
L 530.626794 291.364233 
L 531.768965 290.692997 
L 532.911137 289.87488 
L 534.053308 288.888121 
L 535.19548 287.70941 
L 536.337652 286.315105 
L 537.479823 284.683146 
L 538.621995 282.795331 
L 539.764167 280.639371 
L 540.906338 278.210017 
L 543.190682 272.540968 
L 545.475025 265.828114 
L 547.759368 258.051583 
L 550.043711 249.045405 
L 552.328055 238.560294 
L 554.612398 226.483704 
L 556.896741 213.09226 
L 561.465428 185.767294 
L 563.749771 173.86282 
L 566.034114 163.665226 
L 569.460629 149.517728 
L 570.602801 144.251438 
L 571.744973 138.331111 
L 572.887144 131.586922 
L 574.029316 123.922498 
L 576.313659 105.904906 
L 582.024517 55.682911 
L 583.166689 47.728589 
L 584.308861 41.416709 
L 585.451032 37.046608 
L 586.593204 34.802791 
L 587.735376 34.732232 
L 588.877547 36.736079 
L 590.019719 40.578587 
L 591.16189 45.913503 
L 592.304062 52.325089 
L 598.01492 87.299924 
L 604.86795 124.756164 
L 607.152293 140.309255 
L 614.005323 191.117444 
L 616.289667 204.945961 
L 618.57401 216.32962 
L 620.858353 225.899277 
L 627.711383 252.62844 
L 631.137898 266.274803 
L 633.422241 274.192788 
L 634.564413 277.543267 
L 635.706584 280.429955 
L 636.848756 282.847005 
L 637.990928 284.816244 
L 639.133099 286.381579 
L 640.275271 287.601796 
L 641.417443 288.542953 
L 642.559614 289.271302 
L 644.843958 290.322076 
L 648.270473 291.45977 
L 651.696987 292.395119 
L 655.123502 293.062118 
L 658.550017 293.411651 
L 663.118704 293.547644 
L 663.118704 293.547644 
" style="fill:none;stroke:#023eff;stroke-linecap:round;stroke-width:1.5;"/>
   </g>
   <g id="line2d_32">
    <path clip-path="url(#pd69ddf1772)" d="M 540.402194 293.542271 
L 548.044599 293.42513 
L 553.139536 293.198808 
L 558.234473 292.735587 
L 560.781941 292.367951 
L 563.329409 291.878647 
L 565.876878 291.241501 
L 568.424346 290.428629 
L 570.971814 289.410911 
L 573.519283 288.158293 
L 576.066751 286.639856 
L 578.614219 284.823722 
L 581.161688 282.676967 
L 583.709156 280.165893 
L 586.256624 277.257024 
L 588.804093 273.919183 
L 591.351561 270.126817 
L 593.89903 265.864442 
L 596.446498 261.13171 
L 598.993966 255.948278 
L 601.541435 250.357452 
L 606.636371 238.250753 
L 614.278776 219.398888 
L 616.826245 213.419039 
L 619.373713 207.779369 
L 621.921181 202.56852 
L 624.46865 197.854742 
L 627.016118 193.686637 
L 629.563586 190.095791 
L 632.111055 187.099994 
L 634.658523 184.705761 
L 637.205991 182.90923 
L 639.75346 181.695245 
L 642.300928 181.035142 
L 644.848396 180.884409 
L 647.395865 181.181601 
L 649.943333 181.849727 
L 652.490801 182.80073 
L 657.585738 185.190033 
L 667.775612 190.193467 
L 672.870548 192.74885 
L 675.418017 194.22165 
L 677.965485 195.924946 
L 680.512953 197.92704 
L 683.060422 200.279973 
L 685.60789 203.013181 
L 688.155358 206.130001 
L 690.702827 209.607264 
L 693.250295 213.397843 
L 698.345232 221.642681 
L 705.987637 234.473967 
L 711.082573 242.546704 
L 713.630042 246.313957 
L 716.17751 249.877982 
L 718.724978 253.231849 
L 721.272447 256.372311 
L 723.819915 259.296212 
L 726.367383 261.998319 
L 728.914852 264.470949 
L 731.46232 266.70536 
L 734.009788 268.694468 
L 736.557257 270.436172 
L 739.104725 271.936458 
L 741.652194 273.21152 
L 744.199662 274.288341 
L 746.74713 275.203529 
L 751.842067 276.725558 
L 759.484472 278.881054 
L 764.579409 280.557242 
L 772.221814 283.445193 
L 779.864219 286.329207 
L 784.959155 287.987669 
L 790.054092 289.330205 
L 795.149029 290.330555 
L 800.243965 291.003475 
L 805.338902 291.401191 
L 812.981307 291.683684 
L 823.171181 292.017079 
L 833.361054 292.612685 
L 843.550927 293.185815 
L 853.740801 293.480397 
L 863.930674 293.550303 
L 863.930674 293.550303 
" style="fill:none;stroke:#ff7c00;stroke-linecap:round;stroke-width:1.5;"/>
   </g>
   <g id="patch_61">
    <path d="M 500.769517 293.589375 
L 500.769517 21.789375 
" style="fill:none;stroke:#cccccc;stroke-linecap:square;stroke-linejoin:miter;stroke-width:1.25;"/>
   </g>
   <g id="patch_62">
    <path d="M 881.224062 293.589375 
L 881.224062 21.789375 
" style="fill:none;stroke:#cccccc;stroke-linecap:square;stroke-linejoin:miter;stroke-width:1.25;"/>
   </g>
   <g id="patch_63">
    <path d="M 500.769517 293.589375 
L 881.224062 293.589375 
" style="fill:none;stroke:#cccccc;stroke-linecap:square;stroke-linejoin:miter;stroke-width:1.25;"/>
   </g>
   <g id="patch_64">
    <path d="M 500.769517 21.789375 
L 881.224062 21.789375 
" style="fill:none;stroke:#cccccc;stroke-linecap:square;stroke-linejoin:miter;stroke-width:1.25;"/>
   </g>
   <g id="text_34">
    <!-- Worst Cell Perimeter Distribution -->
    <defs>
     <path d="M 20.21875 0 
L 1.21875 71.578125 
L 10.9375 71.578125 
L 21.828125 24.65625 
Q 23.578125 17.28125 24.859375 10.015625 
Q 27.59375 21.484375 28.078125 23.25 
L 41.703125 71.578125 
L 53.125 71.578125 
L 63.375 35.359375 
Q 67.234375 21.875 68.953125 10.015625 
Q 70.3125 16.796875 72.515625 25.59375 
L 83.734375 71.578125 
L 93.265625 71.578125 
L 73.640625 0 
L 64.5 0 
L 49.421875 54.546875 
Q 47.515625 61.375 47.171875 62.9375 
Q 46.046875 58.015625 45.0625 54.546875 
L 29.890625 0 
z
" id="ArialMT-87"/>
    </defs>
    <g style="fill:#262626;" transform="translate(603.980852 15.789375)scale(0.12 -0.12)">
     <use xlink:href="#ArialMT-87"/>
     <use x="94.369141" xlink:href="#ArialMT-111"/>
     <use x="149.984375" xlink:href="#ArialMT-114"/>
     <use x="183.285156" xlink:href="#ArialMT-115"/>
     <use x="233.285156" xlink:href="#ArialMT-116"/>
     <use x="261.068359" xlink:href="#ArialMT-32"/>
     <use x="288.851562" xlink:href="#ArialMT-67"/>
     <use x="361.068359" xlink:href="#ArialMT-101"/>
     <use x="416.683594" xlink:href="#ArialMT-108"/>
     <use x="438.900391" xlink:href="#ArialMT-108"/>
     <use x="461.117188" xlink:href="#ArialMT-32"/>
     <use x="488.900391" xlink:href="#ArialMT-80"/>
     <use x="555.599609" xlink:href="#ArialMT-101"/>
     <use x="611.214844" xlink:href="#ArialMT-114"/>
     <use x="644.515625" xlink:href="#ArialMT-105"/>
     <use x="666.732422" xlink:href="#ArialMT-109"/>
     <use x="750.033203" xlink:href="#ArialMT-101"/>
     <use x="805.648438" xlink:href="#ArialMT-116"/>
     <use x="833.431641" xlink:href="#ArialMT-101"/>
     <use x="889.046875" xlink:href="#ArialMT-114"/>
     <use x="922.347656" xlink:href="#ArialMT-32"/>
     <use x="950.130859" xlink:href="#ArialMT-68"/>
     <use x="1022.347656" xlink:href="#ArialMT-105"/>
     <use x="1044.564453" xlink:href="#ArialMT-115"/>
     <use x="1094.564453" xlink:href="#ArialMT-116"/>
     <use x="1122.347656" xlink:href="#ArialMT-114"/>
     <use x="1155.648438" xlink:href="#ArialMT-105"/>
     <use x="1177.865234" xlink:href="#ArialMT-98"/>
     <use x="1233.480469" xlink:href="#ArialMT-117"/>
     <use x="1289.095703" xlink:href="#ArialMT-116"/>
     <use x="1316.878906" xlink:href="#ArialMT-105"/>
     <use x="1339.095703" xlink:href="#ArialMT-111"/>
     <use x="1394.710938" xlink:href="#ArialMT-110"/>
    </g>
   </g>
   <g id="legend_2">
    <g id="patch_65">
     <path d="M 790.632187 61.966875 
L 873.524062 61.966875 
Q 875.724062 61.966875 875.724062 59.766875 
L 875.724062 29.489375 
Q 875.724062 27.289375 873.524062 27.289375 
L 790.632187 27.289375 
Q 788.432187 27.289375 788.432187 29.489375 
L 788.432187 59.766875 
Q 788.432187 61.966875 790.632187 61.966875 
z
" style="fill:#ffffff;opacity:0.8;stroke:#cccccc;stroke-linejoin:miter;"/>
    </g>
    <g id="patch_66">
     <path d="M 792.832187 39.562969 
L 814.832187 39.562969 
L 814.832187 31.862969 
L 792.832187 31.862969 
z
" style="fill:#023eff;opacity:0.4;stroke:#ffffff;stroke-linejoin:miter;"/>
    </g>
    <g id="text_35">
     <!-- Benign -->
     <g style="fill:#262626;" transform="translate(823.632187 39.562969)scale(0.11 -0.11)">
      <use xlink:href="#ArialMT-66"/>
      <use x="66.699219" xlink:href="#ArialMT-101"/>
      <use x="122.314453" xlink:href="#ArialMT-110"/>
      <use x="177.929688" xlink:href="#ArialMT-105"/>
      <use x="200.146484" xlink:href="#ArialMT-103"/>
      <use x="255.761719" xlink:href="#ArialMT-110"/>
     </g>
    </g>
    <g id="patch_67">
     <path d="M 792.832187 55.251719 
L 814.832187 55.251719 
L 814.832187 47.551719 
L 792.832187 47.551719 
z
" style="fill:#ff7c00;opacity:0.4;stroke:#ffffff;stroke-linejoin:miter;"/>
    </g>
    <g id="text_36">
     <!-- Malignant -->
     <g style="fill:#262626;" transform="translate(823.632187 55.251719)scale(0.11 -0.11)">
      <use xlink:href="#ArialMT-77"/>
      <use x="83.300781" xlink:href="#ArialMT-97"/>
      <use x="138.916016" xlink:href="#ArialMT-108"/>
      <use x="161.132812" xlink:href="#ArialMT-105"/>
      <use x="183.349609" xlink:href="#ArialMT-103"/>
      <use x="238.964844" xlink:href="#ArialMT-110"/>
      <use x="294.580078" xlink:href="#ArialMT-97"/>
      <use x="350.195312" xlink:href="#ArialMT-110"/>
      <use x="405.810547" xlink:href="#ArialMT-116"/>
     </g>
    </g>
   </g>
  </g>
 </g>
 <defs>
  <clipPath id="pf1da579db8">
   <rect height="271.8" width="380.454545" x="44.224063" y="21.789375"/>
  </clipPath>
  <clipPath id="pd69ddf1772">
   <rect height="271.8" width="380.454545" x="500.769517" y="21.789375"/>
  </clipPath>
 </defs>
</svg>
