<?xml version="1.0" encoding="utf-8" standalone="no"?>
<!DOCTYPE svg PUBLIC "-//W3C//DTD SVG 1.1//EN"
  "http://www.w3.org/Graphics/SVG/1.1/DTD/svg11.dtd">
<!-- Created with matplotlib (https://matplotlib.org/) -->
<svg height="251.399844pt" version="1.1" viewBox="0 0 597.19 251.399844" width="597.19pt" xmlns="http://www.w3.org/2000/svg" xmlns:xlink="http://www.w3.org/1999/xlink">
 <defs>
  <style type="text/css">
*{stroke-linecap:butt;stroke-linejoin:round;}
  </style>
 </defs>
 <g id="figure_1">
  <g id="patch_1">
   <path d="M 0 251.399844 
L 597.19 251.399844 
L 597.19 0 
L 0 0 
z
" style="fill:#ffffff;"/>
  </g>
  <g id="axes_1">
   <g id="patch_2">
    <path d="M 31.99 224.64 
L 285.626364 224.64 
L 285.626364 7.2 
L 31.99 7.2 
z
" style="fill:#ffffff;"/>
   </g>
   <g id="matplotlib.axis_1">
    <g id="xtick_1">
     <g id="line2d_1">
      <path clip-path="url(#p950e98cd1e)" d="M 43.518926 224.64 
L 43.518926 7.2 
" style="fill:none;stroke:#cccccc;stroke-dasharray:0.74,0.32;stroke-dashoffset:0;stroke-width:0.2;"/>
     </g>
     <g id="text_1">
      <!-- 0.0 -->
      <defs>
       <path d="M 4.15625 35.296875 
Q 4.15625 48 6.765625 55.734375 
Q 9.375 63.484375 14.515625 67.671875 
Q 19.671875 71.875 27.484375 71.875 
Q 33.25 71.875 37.59375 69.546875 
Q 41.9375 67.234375 44.765625 62.859375 
Q 47.609375 58.5 49.21875 52.21875 
Q 50.828125 45.953125 50.828125 35.296875 
Q 50.828125 22.703125 48.234375 14.96875 
Q 45.65625 7.234375 40.5 3 
Q 35.359375 -1.21875 27.484375 -1.21875 
Q 17.140625 -1.21875 11.234375 6.203125 
Q 4.15625 15.140625 4.15625 35.296875 
z
M 13.1875 35.296875 
Q 13.1875 17.671875 17.3125 11.828125 
Q 21.4375 6 27.484375 6 
Q 33.546875 6 37.671875 11.859375 
Q 41.796875 17.71875 41.796875 35.296875 
Q 41.796875 52.984375 37.671875 58.78125 
Q 33.546875 64.59375 27.390625 64.59375 
Q 21.34375 64.59375 17.71875 59.46875 
Q 13.1875 52.9375 13.1875 35.296875 
z
" id="ArialMT-48"/>
       <path d="M 9.078125 0 
L 9.078125 10.015625 
L 19.09375 10.015625 
L 19.09375 0 
z
" id="ArialMT-46"/>
      </defs>
      <g style="fill:#262626;" transform="translate(35.873926 242.013594)scale(0.11 -0.11)">
       <use xlink:href="#ArialMT-48"/>
       <use x="55.615234" xlink:href="#ArialMT-46"/>
       <use x="83.398438" xlink:href="#ArialMT-48"/>
      </g>
     </g>
    </g>
    <g id="xtick_2">
     <g id="line2d_2">
      <path clip-path="url(#p950e98cd1e)" d="M 89.634628 224.64 
L 89.634628 7.2 
" style="fill:none;stroke:#cccccc;stroke-dasharray:0.74,0.32;stroke-dashoffset:0;stroke-width:0.2;"/>
     </g>
     <g id="text_2">
      <!-- 0.2 -->
      <defs>
       <path d="M 50.34375 8.453125 
L 50.34375 0 
L 3.03125 0 
Q 2.9375 3.171875 4.046875 6.109375 
Q 5.859375 10.9375 9.828125 15.625 
Q 13.8125 20.3125 21.34375 26.46875 
Q 33.015625 36.03125 37.109375 41.625 
Q 41.21875 47.21875 41.21875 52.203125 
Q 41.21875 57.421875 37.46875 61 
Q 33.734375 64.59375 27.734375 64.59375 
Q 21.390625 64.59375 17.578125 60.78125 
Q 13.765625 56.984375 13.71875 50.25 
L 4.6875 51.171875 
Q 5.609375 61.28125 11.65625 66.578125 
Q 17.71875 71.875 27.9375 71.875 
Q 38.234375 71.875 44.234375 66.15625 
Q 50.25 60.453125 50.25 52 
Q 50.25 47.703125 48.484375 43.546875 
Q 46.734375 39.40625 42.65625 34.8125 
Q 38.578125 30.21875 29.109375 22.21875 
Q 21.1875 15.578125 18.9375 13.203125 
Q 16.703125 10.84375 15.234375 8.453125 
z
" id="ArialMT-50"/>
      </defs>
      <g style="fill:#262626;" transform="translate(81.989628 242.013594)scale(0.11 -0.11)">
       <use xlink:href="#ArialMT-48"/>
       <use x="55.615234" xlink:href="#ArialMT-46"/>
       <use x="83.398438" xlink:href="#ArialMT-50"/>
      </g>
     </g>
    </g>
    <g id="xtick_3">
     <g id="line2d_3">
      <path clip-path="url(#p950e98cd1e)" d="M 135.750331 224.64 
L 135.750331 7.2 
" style="fill:none;stroke:#cccccc;stroke-dasharray:0.74,0.32;stroke-dashoffset:0;stroke-width:0.2;"/>
     </g>
     <g id="text_3">
      <!-- 0.4 -->
      <defs>
       <path d="M 32.328125 0 
L 32.328125 17.140625 
L 1.265625 17.140625 
L 1.265625 25.203125 
L 33.9375 71.578125 
L 41.109375 71.578125 
L 41.109375 25.203125 
L 50.78125 25.203125 
L 50.78125 17.140625 
L 41.109375 17.140625 
L 41.109375 0 
z
M 32.328125 25.203125 
L 32.328125 57.46875 
L 9.90625 25.203125 
z
" id="ArialMT-52"/>
      </defs>
      <g style="fill:#262626;" transform="translate(128.105331 242.013594)scale(0.11 -0.11)">
       <use xlink:href="#ArialMT-48"/>
       <use x="55.615234" xlink:href="#ArialMT-46"/>
       <use x="83.398438" xlink:href="#ArialMT-52"/>
      </g>
     </g>
    </g>
    <g id="xtick_4">
     <g id="line2d_4">
      <path clip-path="url(#p950e98cd1e)" d="M 181.866033 224.64 
L 181.866033 7.2 
" style="fill:none;stroke:#cccccc;stroke-dasharray:0.74,0.32;stroke-dashoffset:0;stroke-width:0.2;"/>
     </g>
     <g id="text_4">
      <!-- 0.6 -->
      <defs>
       <path d="M 49.75 54.046875 
L 41.015625 53.375 
Q 39.84375 58.546875 37.703125 60.890625 
Q 34.125 64.65625 28.90625 64.65625 
Q 24.703125 64.65625 21.53125 62.3125 
Q 17.390625 59.28125 14.984375 53.46875 
Q 12.59375 47.65625 12.5 36.921875 
Q 15.671875 41.75 20.265625 44.09375 
Q 24.859375 46.4375 29.890625 46.4375 
Q 38.671875 46.4375 44.84375 39.96875 
Q 51.03125 33.5 51.03125 23.25 
Q 51.03125 16.5 48.125 10.71875 
Q 45.21875 4.9375 40.140625 1.859375 
Q 35.0625 -1.21875 28.609375 -1.21875 
Q 17.625 -1.21875 10.6875 6.859375 
Q 3.765625 14.9375 3.765625 33.5 
Q 3.765625 54.25 11.421875 63.671875 
Q 18.109375 71.875 29.4375 71.875 
Q 37.890625 71.875 43.28125 67.140625 
Q 48.6875 62.40625 49.75 54.046875 
z
M 13.875 23.1875 
Q 13.875 18.65625 15.796875 14.5 
Q 17.71875 10.359375 21.1875 8.171875 
Q 24.65625 6 28.46875 6 
Q 34.03125 6 38.03125 10.484375 
Q 42.046875 14.984375 42.046875 22.703125 
Q 42.046875 30.125 38.078125 34.390625 
Q 34.125 38.671875 28.125 38.671875 
Q 22.171875 38.671875 18.015625 34.390625 
Q 13.875 30.125 13.875 23.1875 
z
" id="ArialMT-54"/>
      </defs>
      <g style="fill:#262626;" transform="translate(174.221033 242.013594)scale(0.11 -0.11)">
       <use xlink:href="#ArialMT-48"/>
       <use x="55.615234" xlink:href="#ArialMT-46"/>
       <use x="83.398438" xlink:href="#ArialMT-54"/>
      </g>
     </g>
    </g>
    <g id="xtick_5">
     <g id="line2d_5">
      <path clip-path="url(#p950e98cd1e)" d="M 227.981736 224.64 
L 227.981736 7.2 
" style="fill:none;stroke:#cccccc;stroke-dasharray:0.74,0.32;stroke-dashoffset:0;stroke-width:0.2;"/>
     </g>
     <g id="text_5">
      <!-- 0.8 -->
      <defs>
       <path d="M 17.671875 38.8125 
Q 12.203125 40.828125 9.5625 44.53125 
Q 6.9375 48.25 6.9375 53.421875 
Q 6.9375 61.234375 12.546875 66.546875 
Q 18.171875 71.875 27.484375 71.875 
Q 36.859375 71.875 42.578125 66.421875 
Q 48.296875 60.984375 48.296875 53.171875 
Q 48.296875 48.1875 45.671875 44.5 
Q 43.0625 40.828125 37.75 38.8125 
Q 44.34375 36.671875 47.78125 31.875 
Q 51.21875 27.09375 51.21875 20.453125 
Q 51.21875 11.28125 44.71875 5.03125 
Q 38.234375 -1.21875 27.640625 -1.21875 
Q 17.046875 -1.21875 10.546875 5.046875 
Q 4.046875 11.328125 4.046875 20.703125 
Q 4.046875 27.6875 7.59375 32.390625 
Q 11.140625 37.109375 17.671875 38.8125 
z
M 15.921875 53.71875 
Q 15.921875 48.640625 19.1875 45.40625 
Q 22.46875 42.1875 27.6875 42.1875 
Q 32.765625 42.1875 36.015625 45.375 
Q 39.265625 48.578125 39.265625 53.21875 
Q 39.265625 58.0625 35.90625 61.359375 
Q 32.5625 64.65625 27.59375 64.65625 
Q 22.5625 64.65625 19.234375 61.421875 
Q 15.921875 58.203125 15.921875 53.71875 
z
M 13.09375 20.65625 
Q 13.09375 16.890625 14.875 13.375 
Q 16.65625 9.859375 20.171875 7.921875 
Q 23.6875 6 27.734375 6 
Q 34.03125 6 38.125 10.046875 
Q 42.234375 14.109375 42.234375 20.359375 
Q 42.234375 26.703125 38.015625 30.859375 
Q 33.796875 35.015625 27.4375 35.015625 
Q 21.234375 35.015625 17.15625 30.90625 
Q 13.09375 26.8125 13.09375 20.65625 
z
" id="ArialMT-56"/>
      </defs>
      <g style="fill:#262626;" transform="translate(220.336736 242.013594)scale(0.11 -0.11)">
       <use xlink:href="#ArialMT-48"/>
       <use x="55.615234" xlink:href="#ArialMT-46"/>
       <use x="83.398438" xlink:href="#ArialMT-56"/>
      </g>
     </g>
    </g>
    <g id="xtick_6">
     <g id="line2d_6">
      <path clip-path="url(#p950e98cd1e)" d="M 274.097438 224.64 
L 274.097438 7.2 
" style="fill:none;stroke:#cccccc;stroke-dasharray:0.74,0.32;stroke-dashoffset:0;stroke-width:0.2;"/>
     </g>
     <g id="text_6">
      <!-- 1.0 -->
      <defs>
       <path d="M 37.25 0 
L 28.46875 0 
L 28.46875 56 
Q 25.296875 52.984375 20.140625 49.953125 
Q 14.984375 46.921875 10.890625 45.40625 
L 10.890625 53.90625 
Q 18.265625 57.375 23.78125 62.296875 
Q 29.296875 67.234375 31.59375 71.875 
L 37.25 71.875 
z
" id="ArialMT-49"/>
      </defs>
      <g style="fill:#262626;" transform="translate(266.452438 242.013594)scale(0.11 -0.11)">
       <use xlink:href="#ArialMT-49"/>
       <use x="55.615234" xlink:href="#ArialMT-46"/>
       <use x="83.398438" xlink:href="#ArialMT-48"/>
      </g>
     </g>
    </g>
   </g>
   <g id="matplotlib.axis_2">
    <g id="ytick_1">
     <g id="line2d_7">
      <path clip-path="url(#p950e98cd1e)" d="M 31.99 214.756364 
L 285.626364 214.756364 
" style="fill:none;stroke:#cccccc;stroke-dasharray:0.74,0.32;stroke-dashoffset:0;stroke-width:0.2;"/>
     </g>
     <g id="text_7">
      <!-- 0.0 -->
      <g style="fill:#262626;" transform="translate(7.2 218.693161)scale(0.11 -0.11)">
       <use xlink:href="#ArialMT-48"/>
       <use x="55.615234" xlink:href="#ArialMT-46"/>
       <use x="83.398438" xlink:href="#ArialMT-48"/>
      </g>
     </g>
    </g>
    <g id="ytick_2">
     <g id="line2d_8">
      <path clip-path="url(#p950e98cd1e)" d="M 31.99 175.221818 
L 285.626364 175.221818 
" style="fill:none;stroke:#cccccc;stroke-dasharray:0.74,0.32;stroke-dashoffset:0;stroke-width:0.2;"/>
     </g>
     <g id="text_8">
      <!-- 0.2 -->
      <g style="fill:#262626;" transform="translate(7.2 179.158615)scale(0.11 -0.11)">
       <use xlink:href="#ArialMT-48"/>
       <use x="55.615234" xlink:href="#ArialMT-46"/>
       <use x="83.398438" xlink:href="#ArialMT-50"/>
      </g>
     </g>
    </g>
    <g id="ytick_3">
     <g id="line2d_9">
      <path clip-path="url(#p950e98cd1e)" d="M 31.99 135.687273 
L 285.626364 135.687273 
" style="fill:none;stroke:#cccccc;stroke-dasharray:0.74,0.32;stroke-dashoffset:0;stroke-width:0.2;"/>
     </g>
     <g id="text_9">
      <!-- 0.4 -->
      <g style="fill:#262626;" transform="translate(7.2 139.62407)scale(0.11 -0.11)">
       <use xlink:href="#ArialMT-48"/>
       <use x="55.615234" xlink:href="#ArialMT-46"/>
       <use x="83.398438" xlink:href="#ArialMT-52"/>
      </g>
     </g>
    </g>
    <g id="ytick_4">
     <g id="line2d_10">
      <path clip-path="url(#p950e98cd1e)" d="M 31.99 96.152727 
L 285.626364 96.152727 
" style="fill:none;stroke:#cccccc;stroke-dasharray:0.74,0.32;stroke-dashoffset:0;stroke-width:0.2;"/>
     </g>
     <g id="text_10">
      <!-- 0.6 -->
      <g style="fill:#262626;" transform="translate(7.2 100.089524)scale(0.11 -0.11)">
       <use xlink:href="#ArialMT-48"/>
       <use x="55.615234" xlink:href="#ArialMT-46"/>
       <use x="83.398438" xlink:href="#ArialMT-54"/>
      </g>
     </g>
    </g>
    <g id="ytick_5">
     <g id="line2d_11">
      <path clip-path="url(#p950e98cd1e)" d="M 31.99 56.618182 
L 285.626364 56.618182 
" style="fill:none;stroke:#cccccc;stroke-dasharray:0.74,0.32;stroke-dashoffset:0;stroke-width:0.2;"/>
     </g>
     <g id="text_11">
      <!-- 0.8 -->
      <g style="fill:#262626;" transform="translate(7.2 60.554979)scale(0.11 -0.11)">
       <use xlink:href="#ArialMT-48"/>
       <use x="55.615234" xlink:href="#ArialMT-46"/>
       <use x="83.398438" xlink:href="#ArialMT-56"/>
      </g>
     </g>
    </g>
    <g id="ytick_6">
     <g id="line2d_12">
      <path clip-path="url(#p950e98cd1e)" d="M 31.99 17.083636 
L 285.626364 17.083636 
" style="fill:none;stroke:#cccccc;stroke-dasharray:0.74,0.32;stroke-dashoffset:0;stroke-width:0.2;"/>
     </g>
     <g id="text_12">
      <!-- 1.0 -->
      <g style="fill:#262626;" transform="translate(7.2 21.020433)scale(0.11 -0.11)">
       <use xlink:href="#ArialMT-49"/>
       <use x="55.615234" xlink:href="#ArialMT-46"/>
       <use x="83.398438" xlink:href="#ArialMT-48"/>
      </g>
     </g>
    </g>
   </g>
   <g id="line2d_13">
    <path clip-path="url(#p950e98cd1e)" d="M 43.518926 17.083636 
L 45.848002 34.514832 
L 48.177077 50.889925 
L 50.506153 66.241918 
L 52.835229 80.603815 
L 55.164305 94.008619 
L 57.493381 106.489333 
L 59.822457 118.07896 
L 62.151533 128.810504 
L 64.480609 138.716967 
L 66.809684 147.831354 
L 69.13876 156.186667 
L 71.467836 163.815909 
L 73.796912 170.752083 
L 76.125988 177.028194 
L 78.455064 182.677243 
L 80.78414 187.732235 
L 83.113216 192.226172 
L 85.442292 196.192058 
L 87.771367 199.662896 
L 90.100443 202.671688 
L 92.429519 205.251439 
L 94.758595 207.435152 
L 97.087671 209.255829 
L 99.416747 210.746474 
L 101.745823 211.94009 
L 104.074899 212.86968 
L 106.403974 213.568248 
L 108.73305 214.068797 
L 111.062126 214.404329 
L 113.391202 214.607849 
L 115.720278 214.712359 
L 118.049354 214.750863 
L 120.37843 214.756364 
L 122.707506 214.756364 
L 125.036582 214.756364 
L 127.365657 214.756364 
L 129.694733 214.756364 
L 132.023809 214.756364 
L 134.352885 214.756364 
L 136.681961 214.756364 
L 139.011037 214.756364 
L 141.340113 214.756364 
L 143.669189 214.756364 
L 145.998264 214.756364 
L 148.32734 214.756364 
L 150.656416 214.756364 
L 152.985492 214.756364 
L 155.314568 214.756364 
L 157.643644 214.756364 
L 159.97272 214.756364 
L 162.301796 214.756364 
L 164.630872 214.756364 
L 166.959947 214.756364 
L 169.289023 214.756364 
L 171.618099 214.756364 
L 173.947175 214.756364 
L 176.276251 214.756364 
L 178.605327 214.756364 
L 180.934403 214.756364 
L 183.263479 214.756364 
L 185.592554 214.756364 
L 187.92163 214.756364 
L 190.250706 214.756364 
L 192.579782 214.756364 
L 194.908858 214.756364 
L 197.237934 214.756364 
L 199.56701 214.756364 
L 201.896086 214.756364 
L 204.225162 214.756364 
L 206.554237 214.756364 
L 208.883313 214.756364 
L 211.212389 214.756364 
L 213.541465 214.756364 
L 215.870541 214.756364 
L 218.199617 214.756364 
L 220.528693 214.756364 
L 222.857769 214.756364 
L 225.186844 214.756364 
L 227.51592 214.756364 
L 229.844996 214.756364 
L 232.174072 214.756364 
L 234.503148 214.756364 
L 236.832224 214.756364 
L 239.1613 214.756364 
L 241.490376 214.756364 
L 243.819452 214.756364 
L 246.148527 214.756364 
L 248.477603 214.756364 
L 250.806679 214.756364 
L 253.135755 214.756364 
L 255.464831 214.756364 
L 257.793907 214.756364 
L 260.122983 214.756364 
L 262.452059 214.756364 
L 264.781134 214.756364 
L 267.11021 214.756364 
L 269.439286 214.756364 
L 271.768362 214.756364 
L 274.097438 214.756364 
" style="fill:none;stroke:#023eff;stroke-linecap:round;stroke-width:1.5;"/>
   </g>
   <g id="line2d_14">
    <path clip-path="url(#p950e98cd1e)" d="M 43.518926 214.756364 
L 45.848002 197.593319 
L 48.177077 182.006178 
L 50.506153 167.937185 
L 52.835229 155.328583 
L 55.164305 144.122618 
L 57.493381 134.261534 
L 59.822457 125.687575 
L 62.151533 118.342986 
L 64.480609 112.17001 
L 66.809684 107.110893 
L 69.13876 103.107879 
L 71.467836 100.103212 
L 73.796912 98.039136 
L 76.125988 96.857896 
L 78.455064 96.501736 
L 80.78414 96.912901 
L 83.113216 98.033635 
L 85.442292 99.806183 
L 87.771367 102.172788 
L 90.100443 105.075695 
L 92.429519 108.457149 
L 94.758595 112.259394 
L 97.087671 116.424674 
L 99.416747 120.895234 
L 101.745823 125.613318 
L 104.074899 130.52117 
L 106.403974 135.561035 
L 108.73305 140.675158 
L 111.062126 145.805782 
L 113.391202 150.895152 
L 115.720278 155.885512 
L 118.049354 160.719108 
L 120.37843 165.338182 
L 122.707506 169.695981 
L 125.036582 173.789754 
L 127.365657 177.627752 
L 129.694733 181.218226 
L 132.023809 184.569427 
L 134.352885 187.689606 
L 136.681961 190.587013 
L 139.011037 193.269899 
L 141.340113 195.746515 
L 143.669189 198.025111 
L 145.998264 200.113939 
L 148.32734 202.02125 
L 150.656416 203.755294 
L 152.985492 205.324321 
L 155.314568 206.736584 
L 157.643644 208.000331 
L 159.97272 209.123816 
L 162.301796 210.115287 
L 164.630872 210.982997 
L 166.959947 211.735195 
L 169.289023 212.380133 
L 171.618099 212.926061 
L 173.947175 213.38123 
L 176.276251 213.753891 
L 178.605327 214.052295 
L 180.934403 214.284693 
L 183.263479 214.459335 
L 185.592554 214.584472 
L 187.92163 214.668355 
L 190.250706 214.719235 
L 192.579782 214.745363 
L 194.908858 214.754989 
L 197.237934 214.756364 
L 199.56701 214.756364 
L 201.896086 214.756364 
L 204.225162 214.756364 
L 206.554237 214.756364 
L 208.883313 214.756364 
L 211.212389 214.756364 
L 213.541465 214.756364 
L 215.870541 214.756364 
L 218.199617 214.756364 
L 220.528693 214.756364 
L 222.857769 214.756364 
L 225.186844 214.756364 
L 227.51592 214.756364 
L 229.844996 214.756364 
L 232.174072 214.756364 
L 234.503148 214.756364 
L 236.832224 214.756364 
L 239.1613 214.756364 
L 241.490376 214.756364 
L 243.819452 214.756364 
L 246.148527 214.756364 
L 248.477603 214.756364 
L 250.806679 214.756364 
L 253.135755 214.756364 
L 255.464831 214.756364 
L 257.793907 214.756364 
L 260.122983 214.756364 
L 262.452059 214.756364 
L 264.781134 214.756364 
L 267.11021 214.756364 
L 269.439286 214.756364 
L 271.768362 214.756364 
L 274.097438 214.756364 
" style="fill:none;stroke:#ff7c00;stroke-linecap:round;stroke-width:1.5;"/>
   </g>
   <g id="line2d_15">
    <path clip-path="url(#p950e98cd1e)" d="M 43.518926 214.756364 
L 45.848002 214.489129 
L 48.177077 213.707595 
L 50.506153 212.442014 
L 52.835229 210.722638 
L 55.164305 208.579721 
L 57.493381 206.043516 
L 59.822457 203.144276 
L 62.151533 199.912253 
L 64.480609 196.377701 
L 66.809684 192.570872 
L 69.13876 188.52202 
L 71.467836 184.261397 
L 73.796912 179.819257 
L 76.125988 175.225852 
L 78.455064 170.511435 
L 80.78414 165.706259 
L 83.113216 160.840578 
L 85.442292 155.944643 
L 87.771367 151.048709 
L 90.100443 146.183027 
L 92.429519 141.377851 
L 94.758595 136.663434 
L 97.087671 132.070029 
L 99.416747 127.627889 
L 101.745823 123.367266 
L 104.074899 119.318414 
L 106.403974 115.511585 
L 108.73305 111.977033 
L 111.062126 108.74501 
L 113.391202 105.84577 
L 115.720278 103.309565 
L 118.049354 101.166648 
L 120.37843 99.447273 
L 122.707506 98.17344 
L 125.036582 97.334151 
L 127.365657 96.910151 
L 129.694733 96.88219 
L 132.023809 97.231015 
L 134.352885 97.937376 
L 136.681961 98.982019 
L 139.011037 100.345693 
L 141.340113 102.009147 
L 143.669189 103.953128 
L 145.998264 106.158384 
L 148.32734 108.605664 
L 150.656416 111.275715 
L 152.985492 114.149286 
L 155.314568 117.207125 
L 157.643644 120.42998 
L 159.97272 123.7986 
L 162.301796 127.293731 
L 164.630872 130.896123 
L 166.959947 134.586524 
L 169.289023 138.345681 
L 171.618099 142.154343 
L 173.947175 145.993259 
L 176.276251 149.843175 
L 178.605327 153.68484 
L 180.934403 157.499003 
L 183.263479 161.266411 
L 185.592554 164.967812 
L 187.92163 168.583956 
L 190.250706 172.095589 
L 192.579782 175.48346 
L 194.908858 178.728318 
L 197.237934 181.810909 
L 199.56701 184.716108 
L 201.896086 187.44529 
L 204.225162 190.003956 
L 206.554237 192.397606 
L 208.883313 194.631739 
L 211.212389 196.711858 
L 213.541465 198.643463 
L 215.870541 200.432054 
L 218.199617 202.083131 
L 220.528693 203.602195 
L 222.857769 204.994747 
L 225.186844 206.266288 
L 227.51592 207.422317 
L 229.844996 208.468335 
L 232.174072 209.409844 
L 234.503148 210.252342 
L 236.832224 211.001332 
L 239.1613 211.662313 
L 241.490376 212.240786 
L 243.819452 212.742251 
L 246.148527 213.17221 
L 248.477603 213.536162 
L 250.806679 213.839608 
L 253.135755 214.088049 
L 255.464831 214.286985 
L 257.793907 214.441916 
L 260.122983 214.558344 
L 262.452059 214.641769 
L 264.781134 214.697691 
L 267.11021 214.731611 
L 269.439286 214.74903 
L 271.768362 214.755447 
L 274.097438 214.756364 
" style="fill:none;stroke:#1ac938;stroke-linecap:round;stroke-width:1.5;"/>
   </g>
   <g id="line2d_16">
    <path clip-path="url(#p950e98cd1e)" d="M 43.518926 214.756364 
L 45.848002 214.755447 
L 48.177077 214.74903 
L 50.506153 214.731611 
L 52.835229 214.697691 
L 55.164305 214.641769 
L 57.493381 214.558344 
L 59.822457 214.441916 
L 62.151533 214.286985 
L 64.480609 214.088049 
L 66.809684 213.839608 
L 69.13876 213.536162 
L 71.467836 213.17221 
L 73.796912 212.742251 
L 76.125988 212.240786 
L 78.455064 211.662313 
L 80.78414 211.001332 
L 83.113216 210.252342 
L 85.442292 209.409844 
L 87.771367 208.468335 
L 90.100443 207.422317 
L 92.429519 206.266288 
L 94.758595 204.994747 
L 97.087671 203.602195 
L 99.416747 202.083131 
L 101.745823 200.432054 
L 104.074899 198.643463 
L 106.403974 196.711858 
L 108.73305 194.631739 
L 111.062126 192.397606 
L 113.391202 190.003956 
L 115.720278 187.44529 
L 118.049354 184.716108 
L 120.37843 181.810909 
L 122.707506 178.728318 
L 125.036582 175.48346 
L 127.365657 172.095589 
L 129.694733 168.583956 
L 132.023809 164.967812 
L 134.352885 161.266411 
L 136.681961 157.499003 
L 139.011037 153.68484 
L 141.340113 149.843175 
L 143.669189 145.993259 
L 145.998264 142.154343 
L 148.32734 138.345681 
L 150.656416 134.586524 
L 152.985492 130.896123 
L 155.314568 127.293731 
L 157.643644 123.7986 
L 159.97272 120.42998 
L 162.301796 117.207125 
L 164.630872 114.149286 
L 166.959947 111.275715 
L 169.289023 108.605664 
L 171.618099 106.158384 
L 173.947175 103.953128 
L 176.276251 102.009147 
L 178.605327 100.345693 
L 180.934403 98.982019 
L 183.263479 97.937376 
L 185.592554 97.231015 
L 187.92163 96.88219 
L 190.250706 96.910151 
L 192.579782 97.334151 
L 194.908858 98.17344 
L 197.237934 99.447273 
L 199.56701 101.166648 
L 201.896086 103.309565 
L 204.225162 105.84577 
L 206.554237 108.74501 
L 208.883313 111.977033 
L 211.212389 115.511585 
L 213.541465 119.318414 
L 215.870541 123.367266 
L 218.199617 127.627889 
L 220.528693 132.070029 
L 222.857769 136.663434 
L 225.186844 141.377851 
L 227.51592 146.183027 
L 229.844996 151.048709 
L 232.174072 155.944643 
L 234.503148 160.840578 
L 236.832224 165.706259 
L 239.1613 170.511435 
L 241.490376 175.225852 
L 243.819452 179.819257 
L 246.148527 184.261397 
L 248.477603 188.52202 
L 250.806679 192.570872 
L 253.135755 196.377701 
L 255.464831 199.912253 
L 257.793907 203.144276 
L 260.122983 206.043516 
L 262.452059 208.579721 
L 264.781134 210.722638 
L 267.11021 212.442014 
L 269.439286 213.707595 
L 271.768362 214.489129 
L 274.097438 214.756364 
" style="fill:none;stroke:#e8000b;stroke-linecap:round;stroke-width:1.5;"/>
   </g>
   <g id="line2d_17">
    <path clip-path="url(#p950e98cd1e)" d="M 43.518926 214.756364 
L 45.848002 214.756364 
L 48.177077 214.756364 
L 50.506153 214.756364 
L 52.835229 214.756364 
L 55.164305 214.756364 
L 57.493381 214.756364 
L 59.822457 214.756364 
L 62.151533 214.756364 
L 64.480609 214.756364 
L 66.809684 214.756364 
L 69.13876 214.756364 
L 71.467836 214.756364 
L 73.796912 214.756364 
L 76.125988 214.756364 
L 78.455064 214.756364 
L 80.78414 214.756364 
L 83.113216 214.756364 
L 85.442292 214.756364 
L 87.771367 214.756364 
L 90.100443 214.756364 
L 92.429519 214.756364 
L 94.758595 214.756364 
L 97.087671 214.756364 
L 99.416747 214.756364 
L 101.745823 214.756364 
L 104.074899 214.756364 
L 106.403974 214.756364 
L 108.73305 214.756364 
L 111.062126 214.756364 
L 113.391202 214.756364 
L 115.720278 214.756364 
L 118.049354 214.756364 
L 120.37843 214.756364 
L 122.707506 214.754989 
L 125.036582 214.745363 
L 127.365657 214.719235 
L 129.694733 214.668355 
L 132.023809 214.584472 
L 134.352885 214.459335 
L 136.681961 214.284693 
L 139.011037 214.052295 
L 141.340113 213.753891 
L 143.669189 213.38123 
L 145.998264 212.926061 
L 148.32734 212.380133 
L 150.656416 211.735195 
L 152.985492 210.982997 
L 155.314568 210.115287 
L 157.643644 209.123816 
L 159.97272 208.000331 
L 162.301796 206.736584 
L 164.630872 205.324321 
L 166.959947 203.755294 
L 169.289023 202.02125 
L 171.618099 200.113939 
L 173.947175 198.025111 
L 176.276251 195.746515 
L 178.605327 193.269899 
L 180.934403 190.587013 
L 183.263479 187.689606 
L 185.592554 184.569427 
L 187.92163 181.218226 
L 190.250706 177.627752 
L 192.579782 173.789754 
L 194.908858 169.695981 
L 197.237934 165.338182 
L 199.56701 160.719108 
L 201.896086 155.885512 
L 204.225162 150.895152 
L 206.554237 145.805782 
L 208.883313 140.675158 
L 211.212389 135.561035 
L 213.541465 130.52117 
L 215.870541 125.613318 
L 218.199617 120.895234 
L 220.528693 116.424674 
L 222.857769 112.259394 
L 225.186844 108.457149 
L 227.51592 105.075695 
L 229.844996 102.172788 
L 232.174072 99.806183 
L 234.503148 98.033635 
L 236.832224 96.912901 
L 239.1613 96.501736 
L 241.490376 96.857896 
L 243.819452 98.039136 
L 246.148527 100.103212 
L 248.477603 103.107879 
L 250.806679 107.110893 
L 253.135755 112.17001 
L 255.464831 118.342986 
L 257.793907 125.687575 
L 260.122983 134.261534 
L 262.452059 144.122618 
L 264.781134 155.328583 
L 267.11021 167.937185 
L 269.439286 182.006178 
L 271.768362 197.593319 
L 274.097438 214.756364 
" style="fill:none;stroke:#8b2be2;stroke-linecap:round;stroke-width:1.5;"/>
   </g>
   <g id="line2d_18">
    <path clip-path="url(#p950e98cd1e)" d="M 43.518926 214.756364 
L 45.848002 214.756364 
L 48.177077 214.756364 
L 50.506153 214.756364 
L 52.835229 214.756364 
L 55.164305 214.756364 
L 57.493381 214.756364 
L 59.822457 214.756364 
L 62.151533 214.756364 
L 64.480609 214.756364 
L 66.809684 214.756364 
L 69.13876 214.756364 
L 71.467836 214.756364 
L 73.796912 214.756364 
L 76.125988 214.756364 
L 78.455064 214.756364 
L 80.78414 214.756364 
L 83.113216 214.756364 
L 85.442292 214.756364 
L 87.771367 214.756364 
L 90.100443 214.756364 
L 92.429519 214.756364 
L 94.758595 214.756364 
L 97.087671 214.756364 
L 99.416747 214.756364 
L 101.745823 214.756364 
L 104.074899 214.756364 
L 106.403974 214.756364 
L 108.73305 214.756364 
L 111.062126 214.756364 
L 113.391202 214.756364 
L 115.720278 214.756364 
L 118.049354 214.756364 
L 120.37843 214.756364 
L 122.707506 214.756364 
L 125.036582 214.756364 
L 127.365657 214.756364 
L 129.694733 214.756364 
L 132.023809 214.756364 
L 134.352885 214.756364 
L 136.681961 214.756364 
L 139.011037 214.756364 
L 141.340113 214.756364 
L 143.669189 214.756364 
L 145.998264 214.756364 
L 148.32734 214.756364 
L 150.656416 214.756364 
L 152.985492 214.756364 
L 155.314568 214.756364 
L 157.643644 214.756364 
L 159.97272 214.756364 
L 162.301796 214.756364 
L 164.630872 214.756364 
L 166.959947 214.756364 
L 169.289023 214.756364 
L 171.618099 214.756364 
L 173.947175 214.756364 
L 176.276251 214.756364 
L 178.605327 214.756364 
L 180.934403 214.756364 
L 183.263479 214.756364 
L 185.592554 214.756364 
L 187.92163 214.756364 
L 190.250706 214.756364 
L 192.579782 214.756364 
L 194.908858 214.756364 
L 197.237934 214.756364 
L 199.56701 214.750863 
L 201.896086 214.712359 
L 204.225162 214.607849 
L 206.554237 214.404329 
L 208.883313 214.068797 
L 211.212389 213.568248 
L 213.541465 212.86968 
L 215.870541 211.94009 
L 218.199617 210.746474 
L 220.528693 209.255829 
L 222.857769 207.435152 
L 225.186844 205.251439 
L 227.51592 202.671688 
L 229.844996 199.662896 
L 232.174072 196.192058 
L 234.503148 192.226172 
L 236.832224 187.732235 
L 239.1613 182.677243 
L 241.490376 177.028194 
L 243.819452 170.752083 
L 246.148527 163.815909 
L 248.477603 156.186667 
L 250.806679 147.831354 
L 253.135755 138.716967 
L 255.464831 128.810504 
L 257.793907 118.07896 
L 260.122983 106.489333 
L 262.452059 94.008619 
L 264.781134 80.603815 
L 267.11021 66.241918 
L 269.439286 50.889925 
L 271.768362 34.514832 
L 274.097438 17.083636 
" style="fill:none;stroke:#9f4800;stroke-linecap:round;stroke-width:1.5;"/>
   </g>
   <g id="line2d_19">
    <path clip-path="url(#p950e98cd1e)" d="M 43.518926 17.083636 
L 45.848002 17.083636 
L 48.177077 17.083636 
L 50.506153 17.083636 
L 52.835229 17.083636 
L 55.164305 17.083636 
L 57.493381 17.083636 
L 59.822457 17.083636 
L 62.151533 17.083636 
L 64.480609 17.083636 
L 66.809684 17.083636 
L 69.13876 17.083636 
L 71.467836 17.083636 
L 73.796912 17.083636 
L 76.125988 17.083636 
L 78.455064 17.083636 
L 80.78414 17.083636 
L 83.113216 17.083636 
L 85.442292 17.083636 
L 87.771367 17.083636 
L 90.100443 17.083636 
L 92.429519 17.083636 
L 94.758595 17.083636 
L 97.087671 17.083636 
L 99.416747 17.083636 
L 101.745823 17.083636 
L 104.074899 17.083636 
L 106.403974 17.083636 
L 108.73305 17.083636 
L 111.062126 17.083636 
L 113.391202 17.083636 
L 115.720278 17.083636 
L 118.049354 17.083636 
L 120.37843 17.083636 
L 122.707506 17.083636 
L 125.036582 17.083636 
L 127.365657 17.083636 
L 129.694733 17.083636 
L 132.023809 17.083636 
L 134.352885 17.083636 
L 136.681961 17.083636 
L 139.011037 17.083636 
L 141.340113 17.083636 
L 143.669189 17.083636 
L 145.998264 17.083636 
L 148.32734 17.083636 
L 150.656416 17.083636 
L 152.985492 17.083636 
L 155.314568 17.083636 
L 157.643644 17.083636 
L 159.97272 17.083636 
L 162.301796 17.083636 
L 164.630872 17.083636 
L 166.959947 17.083636 
L 169.289023 17.083636 
L 171.618099 17.083636 
L 173.947175 17.083636 
L 176.276251 17.083636 
L 178.605327 17.083636 
L 180.934403 17.083636 
L 183.263479 17.083636 
L 185.592554 17.083636 
L 187.92163 17.083636 
L 190.250706 17.083636 
L 192.579782 17.083636 
L 194.908858 17.083636 
L 197.237934 17.083636 
L 199.56701 17.083636 
L 201.896086 17.083636 
L 204.225162 17.083636 
L 206.554237 17.083636 
L 208.883313 17.083636 
L 211.212389 17.083636 
L 213.541465 17.083636 
L 215.870541 17.083636 
L 218.199617 17.083636 
L 220.528693 17.083636 
L 222.857769 17.083636 
L 225.186844 17.083636 
L 227.51592 17.083636 
L 229.844996 17.083636 
L 232.174072 17.083636 
L 234.503148 17.083636 
L 236.832224 17.083636 
L 239.1613 17.083636 
L 241.490376 17.083636 
L 243.819452 17.083636 
L 246.148527 17.083636 
L 248.477603 17.083636 
L 250.806679 17.083636 
L 253.135755 17.083636 
L 255.464831 17.083636 
L 257.793907 17.083636 
L 260.122983 17.083636 
L 262.452059 17.083636 
L 264.781134 17.083636 
L 267.11021 17.083636 
L 269.439286 17.083636 
L 271.768362 17.083636 
L 274.097438 17.083636 
" style="fill:none;stroke:#1a1a1a;stroke-linecap:round;stroke-width:3;"/>
   </g>
   <g id="patch_3">
    <path d="M 31.99 224.64 
L 31.99 7.2 
" style="fill:none;stroke:#cccccc;stroke-linecap:square;stroke-linejoin:miter;stroke-width:1.25;"/>
   </g>
   <g id="patch_4">
    <path d="M 285.626364 224.64 
L 285.626364 7.2 
" style="fill:none;stroke:#cccccc;stroke-linecap:square;stroke-linejoin:miter;stroke-width:1.25;"/>
   </g>
   <g id="patch_5">
    <path d="M 31.99 224.64 
L 285.626364 224.64 
" style="fill:none;stroke:#cccccc;stroke-linecap:square;stroke-linejoin:miter;stroke-width:1.25;"/>
   </g>
   <g id="patch_6">
    <path d="M 31.99 7.2 
L 285.626364 7.2 
" style="fill:none;stroke:#cccccc;stroke-linecap:square;stroke-linejoin:miter;stroke-width:1.25;"/>
   </g>
   <g id="patch_7">
    <path d="M 123.573262 53.16189 
Q 126.793089 41.660532 130.012915 30.159174 
L 126.161011 29.080827 
Q 130.667233 24.112544 135.173455 19.144261 
Q 136.445089 25.730065 137.716723 32.31587 
L 133.864819 31.237522 
Q 130.644993 42.73888 127.425167 54.240238 
L 123.573262 53.16189 
z
" style="stroke:#ffffff;stroke-linecap:round;"/>
   </g>
   <g id="text_13">
    <!-- Equal Weighted Combination -->
    <defs>
     <path d="M 7.90625 0 
L 7.90625 71.578125 
L 59.671875 71.578125 
L 59.671875 63.140625 
L 17.390625 63.140625 
L 17.390625 41.21875 
L 56.984375 41.21875 
L 56.984375 32.8125 
L 17.390625 32.8125 
L 17.390625 8.453125 
L 61.328125 8.453125 
L 61.328125 0 
z
" id="ArialMT-69"/>
     <path d="M 39.65625 -19.875 
L 39.65625 5.515625 
Q 37.59375 2.640625 33.90625 0.734375 
Q 30.21875 -1.171875 26.078125 -1.171875 
Q 16.84375 -1.171875 10.171875 6.203125 
Q 3.515625 13.578125 3.515625 26.421875 
Q 3.515625 34.234375 6.21875 40.421875 
Q 8.9375 46.625 14.078125 49.828125 
Q 19.234375 53.03125 25.390625 53.03125 
Q 35.015625 53.03125 40.53125 44.921875 
L 40.53125 51.859375 
L 48.4375 51.859375 
L 48.4375 -19.875 
z
M 12.546875 26.078125 
Q 12.546875 16.0625 16.75 11.0625 
Q 20.953125 6.0625 26.8125 6.0625 
Q 32.421875 6.0625 36.46875 10.8125 
Q 40.53125 15.578125 40.53125 25.296875 
Q 40.53125 35.640625 36.25 40.859375 
Q 31.984375 46.09375 26.21875 46.09375 
Q 20.515625 46.09375 16.53125 41.234375 
Q 12.546875 36.375 12.546875 26.078125 
z
" id="ArialMT-113"/>
     <path d="M 40.578125 0 
L 40.578125 7.625 
Q 34.515625 -1.171875 24.125 -1.171875 
Q 19.53125 -1.171875 15.546875 0.578125 
Q 11.578125 2.34375 9.640625 5 
Q 7.71875 7.671875 6.9375 11.53125 
Q 6.390625 14.109375 6.390625 19.734375 
L 6.390625 51.859375 
L 15.1875 51.859375 
L 15.1875 23.09375 
Q 15.1875 16.21875 15.71875 13.8125 
Q 16.546875 10.359375 19.234375 8.375 
Q 21.921875 6.390625 25.875 6.390625 
Q 29.828125 6.390625 33.296875 8.421875 
Q 36.765625 10.453125 38.203125 13.9375 
Q 39.65625 17.4375 39.65625 24.078125 
L 39.65625 51.859375 
L 48.4375 51.859375 
L 48.4375 0 
z
" id="ArialMT-117"/>
     <path d="M 40.4375 6.390625 
Q 35.546875 2.25 31.03125 0.53125 
Q 26.515625 -1.171875 21.34375 -1.171875 
Q 12.796875 -1.171875 8.203125 3 
Q 3.609375 7.171875 3.609375 13.671875 
Q 3.609375 17.484375 5.34375 20.625 
Q 7.078125 23.78125 9.890625 25.6875 
Q 12.703125 27.59375 16.21875 28.5625 
Q 18.796875 29.25 24.03125 29.890625 
Q 34.671875 31.15625 39.703125 32.90625 
Q 39.75 34.71875 39.75 35.203125 
Q 39.75 40.578125 37.25 42.78125 
Q 33.890625 45.75 27.25 45.75 
Q 21.046875 45.75 18.09375 43.578125 
Q 15.140625 41.40625 13.71875 35.890625 
L 5.125 37.0625 
Q 6.296875 42.578125 8.984375 45.96875 
Q 11.671875 49.359375 16.75 51.1875 
Q 21.828125 53.03125 28.515625 53.03125 
Q 35.15625 53.03125 39.296875 51.46875 
Q 43.453125 49.90625 45.40625 47.53125 
Q 47.359375 45.171875 48.140625 41.546875 
Q 48.578125 39.3125 48.578125 33.453125 
L 48.578125 21.734375 
Q 48.578125 9.46875 49.140625 6.21875 
Q 49.703125 2.984375 51.375 0 
L 42.1875 0 
Q 40.828125 2.734375 40.4375 6.390625 
z
M 39.703125 26.03125 
Q 34.90625 24.078125 25.34375 22.703125 
Q 19.921875 21.921875 17.671875 20.9375 
Q 15.4375 19.96875 14.203125 18.09375 
Q 12.984375 16.21875 12.984375 13.921875 
Q 12.984375 10.40625 15.640625 8.0625 
Q 18.3125 5.71875 23.4375 5.71875 
Q 28.515625 5.71875 32.46875 7.9375 
Q 36.421875 10.15625 38.28125 14.015625 
Q 39.703125 17 39.703125 22.796875 
z
" id="ArialMT-97"/>
     <path d="M 6.390625 0 
L 6.390625 71.578125 
L 15.1875 71.578125 
L 15.1875 0 
z
" id="ArialMT-108"/>
     <path id="ArialMT-32"/>
     <path d="M 20.21875 0 
L 1.21875 71.578125 
L 10.9375 71.578125 
L 21.828125 24.65625 
Q 23.578125 17.28125 24.859375 10.015625 
Q 27.59375 21.484375 28.078125 23.25 
L 41.703125 71.578125 
L 53.125 71.578125 
L 63.375 35.359375 
Q 67.234375 21.875 68.953125 10.015625 
Q 70.3125 16.796875 72.515625 25.59375 
L 83.734375 71.578125 
L 93.265625 71.578125 
L 73.640625 0 
L 64.5 0 
L 49.421875 54.546875 
Q 47.515625 61.375 47.171875 62.9375 
Q 46.046875 58.015625 45.0625 54.546875 
L 29.890625 0 
z
" id="ArialMT-87"/>
     <path d="M 42.09375 16.703125 
L 51.171875 15.578125 
Q 49.03125 7.625 43.21875 3.21875 
Q 37.40625 -1.171875 28.375 -1.171875 
Q 17 -1.171875 10.328125 5.828125 
Q 3.65625 12.84375 3.65625 25.484375 
Q 3.65625 38.578125 10.390625 45.796875 
Q 17.140625 53.03125 27.875 53.03125 
Q 38.28125 53.03125 44.875 45.953125 
Q 51.46875 38.875 51.46875 26.03125 
Q 51.46875 25.25 51.421875 23.6875 
L 12.75 23.6875 
Q 13.234375 15.140625 17.578125 10.59375 
Q 21.921875 6.0625 28.421875 6.0625 
Q 33.25 6.0625 36.671875 8.59375 
Q 40.09375 11.140625 42.09375 16.703125 
z
M 13.234375 30.90625 
L 42.1875 30.90625 
Q 41.609375 37.453125 38.875 40.71875 
Q 34.671875 45.796875 27.984375 45.796875 
Q 21.921875 45.796875 17.796875 41.75 
Q 13.671875 37.703125 13.234375 30.90625 
z
" id="ArialMT-101"/>
     <path d="M 6.640625 61.46875 
L 6.640625 71.578125 
L 15.4375 71.578125 
L 15.4375 61.46875 
z
M 6.640625 0 
L 6.640625 51.859375 
L 15.4375 51.859375 
L 15.4375 0 
z
" id="ArialMT-105"/>
     <path d="M 4.984375 -4.296875 
L 13.53125 -5.5625 
Q 14.0625 -9.515625 16.5 -11.328125 
Q 19.78125 -13.765625 25.4375 -13.765625 
Q 31.546875 -13.765625 34.859375 -11.328125 
Q 38.1875 -8.890625 39.359375 -4.5 
Q 40.046875 -1.8125 39.984375 6.78125 
Q 34.234375 0 25.640625 0 
Q 14.9375 0 9.078125 7.71875 
Q 3.21875 15.4375 3.21875 26.21875 
Q 3.21875 33.640625 5.90625 39.90625 
Q 8.59375 46.1875 13.6875 49.609375 
Q 18.796875 53.03125 25.6875 53.03125 
Q 34.859375 53.03125 40.828125 45.609375 
L 40.828125 51.859375 
L 48.921875 51.859375 
L 48.921875 7.03125 
Q 48.921875 -5.078125 46.453125 -10.125 
Q 44 -15.1875 38.640625 -18.109375 
Q 33.296875 -21.046875 25.484375 -21.046875 
Q 16.21875 -21.046875 10.5 -16.875 
Q 4.78125 -12.703125 4.984375 -4.296875 
z
M 12.25 26.859375 
Q 12.25 16.65625 16.296875 11.96875 
Q 20.359375 7.28125 26.46875 7.28125 
Q 32.515625 7.28125 36.609375 11.9375 
Q 40.71875 16.609375 40.71875 26.5625 
Q 40.71875 36.078125 36.5 40.90625 
Q 32.28125 45.75 26.3125 45.75 
Q 20.453125 45.75 16.34375 40.984375 
Q 12.25 36.234375 12.25 26.859375 
z
" id="ArialMT-103"/>
     <path d="M 6.59375 0 
L 6.59375 71.578125 
L 15.375 71.578125 
L 15.375 45.90625 
Q 21.53125 53.03125 30.90625 53.03125 
Q 36.671875 53.03125 40.921875 50.75 
Q 45.171875 48.484375 47 44.484375 
Q 48.828125 40.484375 48.828125 32.859375 
L 48.828125 0 
L 40.046875 0 
L 40.046875 32.859375 
Q 40.046875 39.453125 37.1875 42.453125 
Q 34.328125 45.453125 29.109375 45.453125 
Q 25.203125 45.453125 21.75 43.421875 
Q 18.3125 41.40625 16.84375 37.9375 
Q 15.375 34.46875 15.375 28.375 
L 15.375 0 
z
" id="ArialMT-104"/>
     <path d="M 25.78125 7.859375 
L 27.046875 0.09375 
Q 23.34375 -0.6875 20.40625 -0.6875 
Q 15.625 -0.6875 12.984375 0.828125 
Q 10.359375 2.34375 9.28125 4.8125 
Q 8.203125 7.28125 8.203125 15.1875 
L 8.203125 45.015625 
L 1.765625 45.015625 
L 1.765625 51.859375 
L 8.203125 51.859375 
L 8.203125 64.703125 
L 16.9375 69.96875 
L 16.9375 51.859375 
L 25.78125 51.859375 
L 25.78125 45.015625 
L 16.9375 45.015625 
L 16.9375 14.703125 
Q 16.9375 10.9375 17.40625 9.859375 
Q 17.875 8.796875 18.921875 8.15625 
Q 19.96875 7.515625 21.921875 7.515625 
Q 23.390625 7.515625 25.78125 7.859375 
z
" id="ArialMT-116"/>
     <path d="M 40.234375 0 
L 40.234375 6.546875 
Q 35.296875 -1.171875 25.734375 -1.171875 
Q 19.53125 -1.171875 14.328125 2.25 
Q 9.125 5.671875 6.265625 11.796875 
Q 3.421875 17.921875 3.421875 25.875 
Q 3.421875 33.640625 6 39.96875 
Q 8.59375 46.296875 13.765625 49.65625 
Q 18.953125 53.03125 25.34375 53.03125 
Q 30.03125 53.03125 33.6875 51.046875 
Q 37.359375 49.078125 39.65625 45.90625 
L 39.65625 71.578125 
L 48.390625 71.578125 
L 48.390625 0 
z
M 12.453125 25.875 
Q 12.453125 15.921875 16.640625 10.984375 
Q 20.84375 6.0625 26.5625 6.0625 
Q 32.328125 6.0625 36.34375 10.765625 
Q 40.375 15.484375 40.375 25.140625 
Q 40.375 35.796875 36.265625 40.765625 
Q 32.171875 45.75 26.171875 45.75 
Q 20.3125 45.75 16.375 40.96875 
Q 12.453125 36.1875 12.453125 25.875 
z
" id="ArialMT-100"/>
     <path d="M 58.796875 25.09375 
L 68.265625 22.703125 
Q 65.28125 11.03125 57.546875 4.90625 
Q 49.8125 -1.21875 38.625 -1.21875 
Q 27.046875 -1.21875 19.796875 3.484375 
Q 12.546875 8.203125 8.765625 17.140625 
Q 4.984375 26.078125 4.984375 36.328125 
Q 4.984375 47.515625 9.25 55.828125 
Q 13.53125 64.15625 21.40625 68.46875 
Q 29.296875 72.796875 38.765625 72.796875 
Q 49.515625 72.796875 56.828125 67.328125 
Q 64.15625 61.859375 67.046875 51.953125 
L 57.71875 49.75 
Q 55.21875 57.5625 50.484375 61.125 
Q 45.75 64.703125 38.578125 64.703125 
Q 30.328125 64.703125 24.78125 60.734375 
Q 19.234375 56.78125 16.984375 50.109375 
Q 14.75 43.453125 14.75 36.375 
Q 14.75 27.25 17.40625 20.4375 
Q 20.0625 13.625 25.671875 10.25 
Q 31.296875 6.890625 37.84375 6.890625 
Q 45.796875 6.890625 51.3125 11.46875 
Q 56.84375 16.0625 58.796875 25.09375 
z
" id="ArialMT-67"/>
     <path d="M 3.328125 25.921875 
Q 3.328125 40.328125 11.328125 47.265625 
Q 18.015625 53.03125 27.640625 53.03125 
Q 38.328125 53.03125 45.109375 46.015625 
Q 51.90625 39.015625 51.90625 26.65625 
Q 51.90625 16.65625 48.90625 10.90625 
Q 45.90625 5.171875 40.15625 2 
Q 34.421875 -1.171875 27.640625 -1.171875 
Q 16.75 -1.171875 10.03125 5.8125 
Q 3.328125 12.796875 3.328125 25.921875 
z
M 12.359375 25.921875 
Q 12.359375 15.96875 16.703125 11.015625 
Q 21.046875 6.0625 27.640625 6.0625 
Q 34.1875 6.0625 38.53125 11.03125 
Q 42.875 16.015625 42.875 26.21875 
Q 42.875 35.84375 38.5 40.796875 
Q 34.125 45.75 27.640625 45.75 
Q 21.046875 45.75 16.703125 40.8125 
Q 12.359375 35.890625 12.359375 25.921875 
z
" id="ArialMT-111"/>
     <path d="M 6.59375 0 
L 6.59375 51.859375 
L 14.453125 51.859375 
L 14.453125 44.578125 
Q 16.890625 48.390625 20.9375 50.703125 
Q 25 53.03125 30.171875 53.03125 
Q 35.9375 53.03125 39.625 50.640625 
Q 43.3125 48.25 44.828125 43.953125 
Q 50.984375 53.03125 60.84375 53.03125 
Q 68.5625 53.03125 72.703125 48.75 
Q 76.859375 44.484375 76.859375 35.59375 
L 76.859375 0 
L 68.109375 0 
L 68.109375 32.671875 
Q 68.109375 37.9375 67.25 40.25 
Q 66.40625 42.578125 64.15625 43.984375 
Q 61.921875 45.40625 58.890625 45.40625 
Q 53.421875 45.40625 49.796875 41.765625 
Q 46.1875 38.140625 46.1875 30.125 
L 46.1875 0 
L 37.40625 0 
L 37.40625 33.6875 
Q 37.40625 39.546875 35.25 42.46875 
Q 33.109375 45.40625 28.21875 45.40625 
Q 24.515625 45.40625 21.359375 43.453125 
Q 18.21875 41.5 16.796875 37.734375 
Q 15.375 33.984375 15.375 26.90625 
L 15.375 0 
z
" id="ArialMT-109"/>
     <path d="M 14.703125 0 
L 6.546875 0 
L 6.546875 71.578125 
L 15.328125 71.578125 
L 15.328125 46.046875 
Q 20.90625 53.03125 29.546875 53.03125 
Q 34.328125 53.03125 38.59375 51.09375 
Q 42.875 49.171875 45.625 45.671875 
Q 48.390625 42.1875 49.953125 37.25 
Q 51.515625 32.328125 51.515625 26.703125 
Q 51.515625 13.375 44.921875 6.09375 
Q 38.328125 -1.171875 29.109375 -1.171875 
Q 19.921875 -1.171875 14.703125 6.5 
z
M 14.59375 26.3125 
Q 14.59375 17 17.140625 12.84375 
Q 21.296875 6.0625 28.375 6.0625 
Q 34.125 6.0625 38.328125 11.0625 
Q 42.53125 16.0625 42.53125 25.984375 
Q 42.53125 36.140625 38.5 40.96875 
Q 34.46875 45.796875 28.765625 45.796875 
Q 23 45.796875 18.796875 40.796875 
Q 14.59375 35.796875 14.59375 26.3125 
z
" id="ArialMT-98"/>
     <path d="M 6.59375 0 
L 6.59375 51.859375 
L 14.5 51.859375 
L 14.5 44.484375 
Q 20.21875 53.03125 31 53.03125 
Q 35.6875 53.03125 39.625 51.34375 
Q 43.5625 49.65625 45.515625 46.921875 
Q 47.46875 44.1875 48.25 40.4375 
Q 48.734375 37.984375 48.734375 31.890625 
L 48.734375 0 
L 39.9375 0 
L 39.9375 31.546875 
Q 39.9375 36.921875 38.90625 39.578125 
Q 37.890625 42.234375 35.28125 43.8125 
Q 32.671875 45.40625 29.15625 45.40625 
Q 23.53125 45.40625 19.453125 41.84375 
Q 15.375 38.28125 15.375 28.328125 
L 15.375 0 
z
" id="ArialMT-110"/>
    </defs>
    <g style="fill:#262626;" transform="translate(124.221405 65.545142)scale(0.1 -0.1)">
     <use xlink:href="#ArialMT-69"/>
     <use x="66.699219" xlink:href="#ArialMT-113"/>
     <use x="122.314453" xlink:href="#ArialMT-117"/>
     <use x="177.929688" xlink:href="#ArialMT-97"/>
     <use x="233.544922" xlink:href="#ArialMT-108"/>
     <use x="255.761719" xlink:href="#ArialMT-32"/>
     <use x="283.544922" xlink:href="#ArialMT-87"/>
     <use x="377.914062" xlink:href="#ArialMT-101"/>
     <use x="433.529297" xlink:href="#ArialMT-105"/>
     <use x="455.746094" xlink:href="#ArialMT-103"/>
     <use x="511.361328" xlink:href="#ArialMT-104"/>
     <use x="566.976562" xlink:href="#ArialMT-116"/>
     <use x="594.759766" xlink:href="#ArialMT-101"/>
     <use x="650.375" xlink:href="#ArialMT-100"/>
     <use x="705.990234" xlink:href="#ArialMT-32"/>
     <use x="733.773438" xlink:href="#ArialMT-67"/>
     <use x="805.990234" xlink:href="#ArialMT-111"/>
     <use x="861.605469" xlink:href="#ArialMT-109"/>
     <use x="944.90625" xlink:href="#ArialMT-98"/>
     <use x="1000.521484" xlink:href="#ArialMT-105"/>
     <use x="1022.738281" xlink:href="#ArialMT-110"/>
     <use x="1078.353516" xlink:href="#ArialMT-97"/>
     <use x="1133.96875" xlink:href="#ArialMT-116"/>
     <use x="1161.751953" xlink:href="#ArialMT-105"/>
     <use x="1183.96875" xlink:href="#ArialMT-111"/>
     <use x="1239.583984" xlink:href="#ArialMT-110"/>
    </g>
    <!-- of Splines -->
    <defs>
     <path d="M 8.6875 0 
L 8.6875 45.015625 
L 0.921875 45.015625 
L 0.921875 51.859375 
L 8.6875 51.859375 
L 8.6875 57.375 
Q 8.6875 62.59375 9.625 65.140625 
Q 10.890625 68.5625 14.078125 70.671875 
Q 17.28125 72.796875 23.046875 72.796875 
Q 26.765625 72.796875 31.25 71.921875 
L 29.9375 64.265625 
Q 27.203125 64.75 24.75 64.75 
Q 20.75 64.75 19.09375 63.03125 
Q 17.4375 61.328125 17.4375 56.640625 
L 17.4375 51.859375 
L 27.546875 51.859375 
L 27.546875 45.015625 
L 17.4375 45.015625 
L 17.4375 0 
z
" id="ArialMT-102"/>
     <path d="M 4.5 23 
L 13.421875 23.78125 
Q 14.0625 18.40625 16.375 14.96875 
Q 18.703125 11.53125 23.578125 9.40625 
Q 28.46875 7.28125 34.578125 7.28125 
Q 39.984375 7.28125 44.140625 8.890625 
Q 48.296875 10.5 50.3125 13.296875 
Q 52.34375 16.109375 52.34375 19.4375 
Q 52.34375 22.796875 50.390625 25.3125 
Q 48.4375 27.828125 43.953125 29.546875 
Q 41.0625 30.671875 31.203125 33.03125 
Q 21.34375 35.40625 17.390625 37.5 
Q 12.25 40.1875 9.734375 44.15625 
Q 7.234375 48.140625 7.234375 53.078125 
Q 7.234375 58.5 10.296875 63.203125 
Q 13.375 67.921875 19.28125 70.359375 
Q 25.203125 72.796875 32.421875 72.796875 
Q 40.375 72.796875 46.453125 70.234375 
Q 52.546875 67.671875 55.8125 62.6875 
Q 59.078125 57.71875 59.328125 51.421875 
L 50.25 50.734375 
Q 49.515625 57.515625 45.28125 60.984375 
Q 41.0625 64.453125 32.8125 64.453125 
Q 24.21875 64.453125 20.28125 61.296875 
Q 16.359375 58.15625 16.359375 53.71875 
Q 16.359375 49.859375 19.140625 47.359375 
Q 21.875 44.875 33.421875 42.265625 
Q 44.96875 39.65625 49.265625 37.703125 
Q 55.515625 34.8125 58.484375 30.390625 
Q 61.46875 25.984375 61.46875 20.21875 
Q 61.46875 14.5 58.203125 9.4375 
Q 54.9375 4.390625 48.796875 1.578125 
Q 42.671875 -1.21875 35.015625 -1.21875 
Q 25.296875 -1.21875 18.71875 1.609375 
Q 12.15625 4.4375 8.421875 10.125 
Q 4.6875 15.828125 4.5 23 
z
" id="ArialMT-83"/>
     <path d="M 6.59375 -19.875 
L 6.59375 51.859375 
L 14.59375 51.859375 
L 14.59375 45.125 
Q 17.4375 49.078125 21 51.046875 
Q 24.5625 53.03125 29.640625 53.03125 
Q 36.28125 53.03125 41.359375 49.609375 
Q 46.4375 46.1875 49.015625 39.953125 
Q 51.609375 33.734375 51.609375 26.3125 
Q 51.609375 18.359375 48.75 11.984375 
Q 45.90625 5.609375 40.453125 2.21875 
Q 35.015625 -1.171875 29 -1.171875 
Q 24.609375 -1.171875 21.109375 0.6875 
Q 17.625 2.546875 15.375 5.375 
L 15.375 -19.875 
z
M 14.546875 25.640625 
Q 14.546875 15.625 18.59375 10.84375 
Q 22.65625 6.0625 28.421875 6.0625 
Q 34.28125 6.0625 38.453125 11.015625 
Q 42.625 15.96875 42.625 26.375 
Q 42.625 36.28125 38.546875 41.203125 
Q 34.46875 46.140625 28.8125 46.140625 
Q 23.1875 46.140625 18.859375 40.890625 
Q 14.546875 35.640625 14.546875 25.640625 
z
" id="ArialMT-112"/>
     <path d="M 3.078125 15.484375 
L 11.765625 16.84375 
Q 12.5 11.625 15.84375 8.84375 
Q 19.1875 6.0625 25.203125 6.0625 
Q 31.25 6.0625 34.171875 8.515625 
Q 37.109375 10.984375 37.109375 14.3125 
Q 37.109375 17.28125 34.515625 19 
Q 32.71875 20.171875 25.53125 21.96875 
Q 15.875 24.421875 12.140625 26.203125 
Q 8.40625 27.984375 6.46875 31.125 
Q 4.546875 34.28125 4.546875 38.09375 
Q 4.546875 41.546875 6.125 44.5 
Q 7.71875 47.46875 10.453125 49.421875 
Q 12.5 50.921875 16.03125 51.96875 
Q 19.578125 53.03125 23.640625 53.03125 
Q 29.734375 53.03125 34.34375 51.265625 
Q 38.96875 49.515625 41.15625 46.5 
Q 43.359375 43.5 44.1875 38.484375 
L 35.59375 37.3125 
Q 35.015625 41.3125 32.203125 43.546875 
Q 29.390625 45.796875 24.265625 45.796875 
Q 18.21875 45.796875 15.625 43.796875 
Q 13.03125 41.796875 13.03125 39.109375 
Q 13.03125 37.40625 14.109375 36.03125 
Q 15.1875 34.625 17.484375 33.6875 
Q 18.796875 33.203125 25.25 31.453125 
Q 34.578125 28.953125 38.25 27.359375 
Q 41.9375 25.78125 44.03125 22.75 
Q 46.140625 19.734375 46.140625 15.234375 
Q 46.140625 10.84375 43.578125 6.953125 
Q 41.015625 3.078125 36.171875 0.953125 
Q 31.34375 -1.171875 25.25 -1.171875 
Q 15.140625 -1.171875 9.84375 3.03125 
Q 4.546875 7.234375 3.078125 15.484375 
z
" id="ArialMT-115"/>
    </defs>
    <g style="fill:#262626;" transform="translate(124.221405 76.385455)scale(0.1 -0.1)">
     <use xlink:href="#ArialMT-111"/>
     <use x="55.615234" xlink:href="#ArialMT-102"/>
     <use x="83.398438" xlink:href="#ArialMT-32"/>
     <use x="111.181641" xlink:href="#ArialMT-83"/>
     <use x="177.880859" xlink:href="#ArialMT-112"/>
     <use x="233.496094" xlink:href="#ArialMT-108"/>
     <use x="255.712891" xlink:href="#ArialMT-105"/>
     <use x="277.929688" xlink:href="#ArialMT-110"/>
     <use x="333.544922" xlink:href="#ArialMT-101"/>
     <use x="389.160156" xlink:href="#ArialMT-115"/>
    </g>
   </g>
  </g>
  <g id="axes_2">
   <g id="patch_8">
    <path d="M 336.353636 224.64 
L 589.99 224.64 
L 589.99 7.2 
L 336.353636 7.2 
z
" style="fill:#ffffff;"/>
   </g>
   <g id="matplotlib.axis_3">
    <g id="xtick_7">
     <g id="line2d_20">
      <path clip-path="url(#pc5f9a100f4)" d="M 347.882562 224.64 
L 347.882562 7.2 
" style="fill:none;stroke:#cccccc;stroke-dasharray:0.74,0.32;stroke-dashoffset:0;stroke-width:0.2;"/>
     </g>
     <g id="text_14">
      <!-- 0.0 -->
      <g style="fill:#262626;" transform="translate(340.237562 242.013594)scale(0.11 -0.11)">
       <use xlink:href="#ArialMT-48"/>
       <use x="55.615234" xlink:href="#ArialMT-46"/>
       <use x="83.398438" xlink:href="#ArialMT-48"/>
      </g>
     </g>
    </g>
    <g id="xtick_8">
     <g id="line2d_21">
      <path clip-path="url(#pc5f9a100f4)" d="M 393.998264 224.64 
L 393.998264 7.2 
" style="fill:none;stroke:#cccccc;stroke-dasharray:0.74,0.32;stroke-dashoffset:0;stroke-width:0.2;"/>
     </g>
     <g id="text_15">
      <!-- 0.2 -->
      <g style="fill:#262626;" transform="translate(386.353264 242.013594)scale(0.11 -0.11)">
       <use xlink:href="#ArialMT-48"/>
       <use x="55.615234" xlink:href="#ArialMT-46"/>
       <use x="83.398438" xlink:href="#ArialMT-50"/>
      </g>
     </g>
    </g>
    <g id="xtick_9">
     <g id="line2d_22">
      <path clip-path="url(#pc5f9a100f4)" d="M 440.113967 224.64 
L 440.113967 7.2 
" style="fill:none;stroke:#cccccc;stroke-dasharray:0.74,0.32;stroke-dashoffset:0;stroke-width:0.2;"/>
     </g>
     <g id="text_16">
      <!-- 0.4 -->
      <g style="fill:#262626;" transform="translate(432.468967 242.013594)scale(0.11 -0.11)">
       <use xlink:href="#ArialMT-48"/>
       <use x="55.615234" xlink:href="#ArialMT-46"/>
       <use x="83.398438" xlink:href="#ArialMT-52"/>
      </g>
     </g>
    </g>
    <g id="xtick_10">
     <g id="line2d_23">
      <path clip-path="url(#pc5f9a100f4)" d="M 486.229669 224.64 
L 486.229669 7.2 
" style="fill:none;stroke:#cccccc;stroke-dasharray:0.74,0.32;stroke-dashoffset:0;stroke-width:0.2;"/>
     </g>
     <g id="text_17">
      <!-- 0.6 -->
      <g style="fill:#262626;" transform="translate(478.584669 242.013594)scale(0.11 -0.11)">
       <use xlink:href="#ArialMT-48"/>
       <use x="55.615234" xlink:href="#ArialMT-46"/>
       <use x="83.398438" xlink:href="#ArialMT-54"/>
      </g>
     </g>
    </g>
    <g id="xtick_11">
     <g id="line2d_24">
      <path clip-path="url(#pc5f9a100f4)" d="M 532.345372 224.64 
L 532.345372 7.2 
" style="fill:none;stroke:#cccccc;stroke-dasharray:0.74,0.32;stroke-dashoffset:0;stroke-width:0.2;"/>
     </g>
     <g id="text_18">
      <!-- 0.8 -->
      <g style="fill:#262626;" transform="translate(524.700372 242.013594)scale(0.11 -0.11)">
       <use xlink:href="#ArialMT-48"/>
       <use x="55.615234" xlink:href="#ArialMT-46"/>
       <use x="83.398438" xlink:href="#ArialMT-56"/>
      </g>
     </g>
    </g>
    <g id="xtick_12">
     <g id="line2d_25">
      <path clip-path="url(#pc5f9a100f4)" d="M 578.461074 224.64 
L 578.461074 7.2 
" style="fill:none;stroke:#cccccc;stroke-dasharray:0.74,0.32;stroke-dashoffset:0;stroke-width:0.2;"/>
     </g>
     <g id="text_19">
      <!-- 1.0 -->
      <g style="fill:#262626;" transform="translate(570.816074 242.013594)scale(0.11 -0.11)">
       <use xlink:href="#ArialMT-49"/>
       <use x="55.615234" xlink:href="#ArialMT-46"/>
       <use x="83.398438" xlink:href="#ArialMT-48"/>
      </g>
     </g>
    </g>
   </g>
   <g id="matplotlib.axis_4">
    <g id="ytick_7">
     <g id="line2d_26">
      <path clip-path="url(#pc5f9a100f4)" d="M 336.353636 214.756364 
L 589.99 214.756364 
" style="fill:none;stroke:#cccccc;stroke-dasharray:0.74,0.32;stroke-dashoffset:0;stroke-width:0.2;"/>
     </g>
     <g id="text_20">
      <!-- 0.0 -->
      <g style="fill:#262626;" transform="translate(311.563636 218.693161)scale(0.11 -0.11)">
       <use xlink:href="#ArialMT-48"/>
       <use x="55.615234" xlink:href="#ArialMT-46"/>
       <use x="83.398438" xlink:href="#ArialMT-48"/>
      </g>
     </g>
    </g>
    <g id="ytick_8">
     <g id="line2d_27">
      <path clip-path="url(#pc5f9a100f4)" d="M 336.353636 185.914015 
L 589.99 185.914015 
" style="fill:none;stroke:#cccccc;stroke-dasharray:0.74,0.32;stroke-dashoffset:0;stroke-width:0.2;"/>
     </g>
     <g id="text_21">
      <!-- 0.2 -->
      <g style="fill:#262626;" transform="translate(311.563636 189.850812)scale(0.11 -0.11)">
       <use xlink:href="#ArialMT-48"/>
       <use x="55.615234" xlink:href="#ArialMT-46"/>
       <use x="83.398438" xlink:href="#ArialMT-50"/>
      </g>
     </g>
    </g>
    <g id="ytick_9">
     <g id="line2d_28">
      <path clip-path="url(#pc5f9a100f4)" d="M 336.353636 157.071666 
L 589.99 157.071666 
" style="fill:none;stroke:#cccccc;stroke-dasharray:0.74,0.32;stroke-dashoffset:0;stroke-width:0.2;"/>
     </g>
     <g id="text_22">
      <!-- 0.4 -->
      <g style="fill:#262626;" transform="translate(311.563636 161.008463)scale(0.11 -0.11)">
       <use xlink:href="#ArialMT-48"/>
       <use x="55.615234" xlink:href="#ArialMT-46"/>
       <use x="83.398438" xlink:href="#ArialMT-52"/>
      </g>
     </g>
    </g>
    <g id="ytick_10">
     <g id="line2d_29">
      <path clip-path="url(#pc5f9a100f4)" d="M 336.353636 128.229317 
L 589.99 128.229317 
" style="fill:none;stroke:#cccccc;stroke-dasharray:0.74,0.32;stroke-dashoffset:0;stroke-width:0.2;"/>
     </g>
     <g id="text_23">
      <!-- 0.6 -->
      <g style="fill:#262626;" transform="translate(311.563636 132.166114)scale(0.11 -0.11)">
       <use xlink:href="#ArialMT-48"/>
       <use x="55.615234" xlink:href="#ArialMT-46"/>
       <use x="83.398438" xlink:href="#ArialMT-54"/>
      </g>
     </g>
    </g>
    <g id="ytick_11">
     <g id="line2d_30">
      <path clip-path="url(#pc5f9a100f4)" d="M 336.353636 99.386968 
L 589.99 99.386968 
" style="fill:none;stroke:#cccccc;stroke-dasharray:0.74,0.32;stroke-dashoffset:0;stroke-width:0.2;"/>
     </g>
     <g id="text_24">
      <!-- 0.8 -->
      <g style="fill:#262626;" transform="translate(311.563636 103.323765)scale(0.11 -0.11)">
       <use xlink:href="#ArialMT-48"/>
       <use x="55.615234" xlink:href="#ArialMT-46"/>
       <use x="83.398438" xlink:href="#ArialMT-56"/>
      </g>
     </g>
    </g>
    <g id="ytick_12">
     <g id="line2d_31">
      <path clip-path="url(#pc5f9a100f4)" d="M 336.353636 70.544619 
L 589.99 70.544619 
" style="fill:none;stroke:#cccccc;stroke-dasharray:0.74,0.32;stroke-dashoffset:0;stroke-width:0.2;"/>
     </g>
     <g id="text_25">
      <!-- 1.0 -->
      <g style="fill:#262626;" transform="translate(311.563636 74.481416)scale(0.11 -0.11)">
       <use xlink:href="#ArialMT-49"/>
       <use x="55.615234" xlink:href="#ArialMT-46"/>
       <use x="83.398438" xlink:href="#ArialMT-48"/>
      </g>
     </g>
    </g>
    <g id="ytick_13">
     <g id="line2d_32">
      <path clip-path="url(#pc5f9a100f4)" d="M 336.353636 41.70227 
L 589.99 41.70227 
" style="fill:none;stroke:#cccccc;stroke-dasharray:0.74,0.32;stroke-dashoffset:0;stroke-width:0.2;"/>
     </g>
     <g id="text_26">
      <!-- 1.2 -->
      <g style="fill:#262626;" transform="translate(311.563636 45.639067)scale(0.11 -0.11)">
       <use xlink:href="#ArialMT-49"/>
       <use x="55.615234" xlink:href="#ArialMT-46"/>
       <use x="83.398438" xlink:href="#ArialMT-50"/>
      </g>
     </g>
    </g>
    <g id="ytick_14">
     <g id="line2d_33">
      <path clip-path="url(#pc5f9a100f4)" d="M 336.353636 12.859921 
L 589.99 12.859921 
" style="fill:none;stroke:#cccccc;stroke-dasharray:0.74,0.32;stroke-dashoffset:0;stroke-width:0.2;"/>
     </g>
     <g id="text_27">
      <!-- 1.4 -->
      <g style="fill:#262626;" transform="translate(311.563636 16.796718)scale(0.11 -0.11)">
       <use xlink:href="#ArialMT-49"/>
       <use x="55.615234" xlink:href="#ArialMT-46"/>
       <use x="83.398438" xlink:href="#ArialMT-52"/>
      </g>
     </g>
    </g>
   </g>
   <g id="line2d_34">
    <path clip-path="url(#pc5f9a100f4)" d="M 347.882562 56.123444 
L 350.211638 70.112028 
L 352.540714 83.253086 
L 354.86979 95.573103 
L 357.198866 107.098566 
L 359.527941 117.855959 
L 361.857017 127.871767 
L 364.186093 137.172475 
L 366.515169 145.784569 
L 368.844245 153.734534 
L 371.173321 161.048855 
L 373.502397 167.754017 
L 375.831473 173.876505 
L 378.160548 179.442805 
L 380.489624 184.479401 
L 382.8187 189.012779 
L 385.147776 193.069424 
L 387.476852 196.675822 
L 389.805928 199.858456 
L 392.135004 202.643813 
L 394.46408 205.058378 
L 396.793156 207.128635 
L 399.122231 208.88107 
L 401.451307 210.342169 
L 403.780383 211.538416 
L 406.109459 212.496296 
L 408.438535 213.242295 
L 410.767611 213.802898 
L 413.096687 214.204589 
L 415.425763 214.473855 
L 417.754838 214.63718 
L 420.083914 214.72105 
L 422.41299 214.751949 
L 424.742066 214.756364 
L 427.071142 214.756364 
L 429.400218 214.756364 
L 431.729294 214.756364 
L 434.05837 214.756364 
L 436.387446 214.756364 
L 438.716521 214.756364 
L 441.045597 214.756364 
L 443.374673 214.756364 
L 445.703749 214.756364 
L 448.032825 214.756364 
L 450.361901 214.756364 
L 452.690977 214.756364 
L 455.020053 214.756364 
L 457.349128 214.756364 
L 459.678204 214.756364 
L 462.00728 214.756364 
L 464.336356 214.756364 
L 466.665432 214.756364 
L 468.994508 214.756364 
L 471.323584 214.756364 
L 473.65266 214.756364 
L 475.981736 214.756364 
L 478.310811 214.756364 
L 480.639887 214.756364 
L 482.968963 214.756364 
L 485.298039 214.756364 
L 487.627115 214.756364 
L 489.956191 214.756364 
L 492.285267 214.756364 
L 494.614343 214.756364 
L 496.943418 214.756364 
L 499.272494 214.756364 
L 501.60157 214.756364 
L 503.930646 214.756364 
L 506.259722 214.756364 
L 508.588798 214.756364 
L 510.917874 214.756364 
L 513.24695 214.756364 
L 515.576026 214.756364 
L 517.905101 214.756364 
L 520.234177 214.756364 
L 522.563253 214.756364 
L 524.892329 214.756364 
L 527.221405 214.756364 
L 529.550481 214.756364 
L 531.879557 214.756364 
L 534.208633 214.756364 
L 536.537708 214.756364 
L 538.866784 214.756364 
L 541.19586 214.756364 
L 543.524936 214.756364 
L 545.854012 214.756364 
L 548.183088 214.756364 
L 550.512164 214.756364 
L 552.84124 214.756364 
L 555.170316 214.756364 
L 557.499391 214.756364 
L 559.828467 214.756364 
L 562.157543 214.756364 
L 564.486619 214.756364 
L 566.815695 214.756364 
L 569.144771 214.756364 
L 571.473847 214.756364 
L 573.802923 214.756364 
L 576.131998 214.756364 
L 578.461074 214.756364 
" style="fill:none;stroke:#023eff;stroke-linecap:round;stroke-width:1.5;"/>
   </g>
   <g id="line2d_35">
    <path clip-path="url(#pc5f9a100f4)" d="M 347.882562 214.756364 
L 350.211638 209.747858 
L 352.540714 205.199231 
L 354.86979 201.093628 
L 357.198866 197.414196 
L 359.527941 194.14408 
L 361.857017 191.266427 
L 364.186093 188.764381 
L 366.515169 186.621088 
L 368.844245 184.819696 
L 371.173321 183.343348 
L 373.502397 182.175192 
L 375.831473 181.298372 
L 378.160548 180.696035 
L 380.489624 180.351327 
L 382.8187 180.247392 
L 385.147776 180.367378 
L 387.476852 180.69443 
L 389.805928 181.211693 
L 392.135004 181.902314 
L 394.46408 182.749438 
L 396.793156 183.736211 
L 399.122231 184.84578 
L 401.451307 186.061288 
L 403.780383 187.365883 
L 406.109459 188.742711 
L 408.438535 190.174917 
L 410.767611 191.645646 
L 413.096687 193.138045 
L 415.425763 194.63526 
L 417.754838 196.120436 
L 420.083914 197.576719 
L 422.41299 198.987255 
L 424.742066 200.335189 
L 427.071142 201.606879 
L 429.400218 202.80152 
L 431.729294 203.921522 
L 434.05837 204.969291 
L 436.387446 205.947236 
L 438.716521 206.857764 
L 441.045597 207.703283 
L 443.374673 208.486201 
L 445.703749 209.208925 
L 448.032825 209.873863 
L 450.361901 210.483423 
L 452.690977 211.040013 
L 455.020053 211.54604 
L 457.349128 212.003913 
L 459.678204 212.416038 
L 462.00728 212.784824 
L 464.336356 213.112678 
L 466.665432 213.402008 
L 468.994508 213.655223 
L 471.323584 213.874729 
L 473.65266 214.062934 
L 475.981736 214.222246 
L 478.310811 214.355073 
L 480.639887 214.463823 
L 482.968963 214.550903 
L 485.298039 214.618721 
L 487.627115 214.669685 
L 489.956191 214.706202 
L 492.285267 214.730681 
L 494.614343 214.745529 
L 496.943418 214.753153 
L 499.272494 214.755962 
L 501.60157 214.756364 
L 503.930646 214.756364 
L 506.259722 214.756364 
L 508.588798 214.756364 
L 510.917874 214.756364 
L 513.24695 214.756364 
L 515.576026 214.756364 
L 517.905101 214.756364 
L 520.234177 214.756364 
L 522.563253 214.756364 
L 524.892329 214.756364 
L 527.221405 214.756364 
L 529.550481 214.756364 
L 531.879557 214.756364 
L 534.208633 214.756364 
L 536.537708 214.756364 
L 538.866784 214.756364 
L 541.19586 214.756364 
L 543.524936 214.756364 
L 545.854012 214.756364 
L 548.183088 214.756364 
L 550.512164 214.756364 
L 552.84124 214.756364 
L 555.170316 214.756364 
L 557.499391 214.756364 
L 559.828467 214.756364 
L 562.157543 214.756364 
L 564.486619 214.756364 
L 566.815695 214.756364 
L 569.144771 214.756364 
L 571.473847 214.756364 
L 573.802923 214.756364 
L 576.131998 214.756364 
L 578.461074 214.756364 
" style="fill:none;stroke:#ff7c00;stroke-linecap:round;stroke-width:1.5;"/>
   </g>
   <g id="line2d_36">
    <path clip-path="url(#pc5f9a100f4)" d="M 347.882562 214.756364 
L 350.211638 214.580899 
L 352.540714 214.067749 
L 354.86979 213.236777 
L 357.198866 212.107847 
L 359.527941 210.700822 
L 361.857017 209.035567 
L 364.186093 207.131946 
L 366.515169 205.009821 
L 368.844245 202.689059 
L 371.173321 200.189521 
L 373.502397 197.531072 
L 375.831473 194.733576 
L 378.160548 191.816897 
L 380.489624 188.800898 
L 382.8187 185.705444 
L 385.147776 182.550398 
L 387.476852 179.355625 
L 389.805928 176.140987 
L 392.135004 172.92635 
L 394.46408 169.731576 
L 396.793156 166.576531 
L 399.122231 163.481077 
L 401.451307 160.465078 
L 403.780383 157.548399 
L 406.109459 154.750903 
L 408.438535 152.092454 
L 410.767611 149.592916 
L 413.096687 147.272153 
L 415.425763 145.150029 
L 417.754838 143.246407 
L 420.083914 141.581152 
L 422.41299 140.174128 
L 424.742066 139.045198 
L 427.071142 138.208808 
L 429.400218 137.657736 
L 431.729294 137.379341 
L 434.05837 137.360982 
L 436.387446 137.590018 
L 438.716521 138.05381 
L 441.045597 138.739715 
L 443.374673 139.635094 
L 445.703749 140.727307 
L 448.032825 142.003711 
L 450.361901 143.451668 
L 452.690977 145.058535 
L 455.020053 146.811672 
L 457.349128 148.69844 
L 459.678204 150.706196 
L 462.00728 152.822301 
L 464.336356 155.034113 
L 466.665432 157.328993 
L 468.994508 159.694299 
L 471.323584 162.117391 
L 473.65266 164.585628 
L 475.981736 167.08637 
L 478.310811 169.606976 
L 480.639887 172.134805 
L 482.968963 174.657216 
L 485.298039 177.161569 
L 487.627115 179.635224 
L 489.956191 182.065539 
L 492.285267 184.439874 
L 494.614343 186.745589 
L 496.943418 188.970042 
L 499.272494 191.100593 
L 501.60157 193.124602 
L 503.930646 195.032136 
L 506.259722 196.824098 
L 508.588798 198.504101 
L 510.917874 200.075755 
L 513.24695 201.542672 
L 515.576026 202.908464 
L 517.905101 204.176743 
L 520.234177 205.351119 
L 522.563253 206.435205 
L 524.892329 207.432612 
L 527.221405 208.346953 
L 529.550481 209.181838 
L 531.879557 209.940878 
L 534.208633 210.627687 
L 536.537708 211.245875 
L 538.866784 211.799054 
L 541.19586 212.290835 
L 543.524936 212.724831 
L 545.854012 213.104652 
L 548.183088 213.433911 
L 550.512164 213.716219 
L 552.84124 213.955187 
L 555.170316 214.154428 
L 557.499391 214.317553 
L 559.828467 214.448173 
L 562.157543 214.5499 
L 564.486619 214.626346 
L 566.815695 214.681122 
L 569.144771 214.71784 
L 571.473847 214.740111 
L 573.802923 214.751548 
L 576.131998 214.755762 
L 578.461074 214.756364 
" style="fill:none;stroke:#1ac938;stroke-linecap:round;stroke-width:1.5;"/>
   </g>
   <g id="line2d_37">
    <path clip-path="url(#pc5f9a100f4)" d="M 347.882562 214.756364 
L 350.211638 214.755829 
L 352.540714 214.752083 
L 354.86979 214.741917 
L 357.198866 214.72212 
L 359.527941 214.689482 
L 361.857017 214.640792 
L 364.186093 214.57284 
L 366.515169 214.482416 
L 368.844245 214.366309 
L 371.173321 214.22131 
L 373.502397 214.044207 
L 375.831473 213.83179 
L 378.160548 213.58085 
L 380.489624 213.288176 
L 382.8187 212.950557 
L 385.147776 212.564783 
L 387.476852 212.127644 
L 389.805928 211.635929 
L 392.135004 211.086429 
L 394.46408 210.475932 
L 396.793156 209.801229 
L 399.122231 209.05911 
L 401.451307 208.246363 
L 403.780383 207.359778 
L 406.109459 206.396146 
L 408.438535 205.352256 
L 410.767611 204.224897 
L 413.096687 203.01086 
L 415.425763 201.706934 
L 417.754838 200.309908 
L 420.083914 198.816572 
L 422.41299 197.223717 
L 424.742066 195.528131 
L 427.071142 193.729012 
L 429.400218 191.835189 
L 431.729294 189.857897 
L 434.05837 187.808373 
L 436.387446 185.697853 
L 438.716521 183.537573 
L 441.045597 181.338769 
L 443.374673 179.112677 
L 445.703749 176.870533 
L 448.032825 174.623574 
L 450.361901 172.383036 
L 452.690977 170.160155 
L 455.020053 167.966166 
L 457.349128 165.812306 
L 459.678204 163.709812 
L 462.00728 161.669919 
L 464.336356 159.703863 
L 466.665432 157.822881 
L 468.994508 156.038209 
L 471.323584 154.361083 
L 473.65266 152.802738 
L 475.981736 151.374412 
L 478.310811 150.087339 
L 480.639887 148.952758 
L 482.968963 147.981902 
L 485.298039 147.186009 
L 487.627115 146.576316 
L 489.956191 146.164056 
L 492.285267 145.960468 
L 494.614343 145.976788 
L 496.943418 146.22425 
L 499.272494 146.714092 
L 501.60157 147.457549 
L 503.930646 148.461043 
L 506.259722 149.711731 
L 508.588798 151.191958 
L 510.917874 152.884066 
L 513.24695 154.770399 
L 515.576026 156.833299 
L 517.905101 159.055111 
L 520.234177 161.418176 
L 522.563253 163.904839 
L 524.892329 166.497443 
L 527.221405 169.178331 
L 529.550481 171.929845 
L 531.879557 174.734331 
L 534.208633 177.574129 
L 536.537708 180.431585 
L 538.866784 183.28904 
L 541.19586 186.128839 
L 543.524936 188.933324 
L 545.854012 191.684839 
L 548.183088 194.365726 
L 550.512164 196.95833 
L 552.84124 199.444993 
L 555.170316 201.808059 
L 557.499391 204.02987 
L 559.828467 206.092771 
L 562.157543 207.979103 
L 564.486619 209.671211 
L 566.815695 211.151438 
L 569.144771 212.402126 
L 571.473847 213.40562 
L 573.802923 214.144262 
L 576.131998 214.600395 
L 578.461074 214.756364 
" style="fill:none;stroke:#e8000b;stroke-linecap:round;stroke-width:1.5;"/>
   </g>
   <g id="line2d_38">
    <path clip-path="url(#pc5f9a100f4)" d="M 347.882562 214.756364 
L 350.211638 214.756364 
L 352.540714 214.756364 
L 354.86979 214.756364 
L 357.198866 214.756364 
L 359.527941 214.756364 
L 361.857017 214.756364 
L 364.186093 214.756364 
L 366.515169 214.756364 
L 368.844245 214.756364 
L 371.173321 214.756364 
L 373.502397 214.756364 
L 375.831473 214.756364 
L 378.160548 214.756364 
L 380.489624 214.756364 
L 382.8187 214.756364 
L 385.147776 214.756364 
L 387.476852 214.756364 
L 389.805928 214.756364 
L 392.135004 214.756364 
L 394.46408 214.756364 
L 396.793156 214.756364 
L 399.122231 214.756364 
L 401.451307 214.756364 
L 403.780383 214.756364 
L 406.109459 214.756364 
L 408.438535 214.756364 
L 410.767611 214.756364 
L 413.096687 214.756364 
L 415.425763 214.756364 
L 417.754838 214.756364 
L 420.083914 214.756364 
L 422.41299 214.756364 
L 424.742066 214.756364 
L 427.071142 214.754558 
L 429.400218 214.741917 
L 431.729294 214.707607 
L 434.05837 214.640792 
L 436.387446 214.530638 
L 438.716521 214.366309 
L 441.045597 214.136972 
L 443.374673 213.83179 
L 445.703749 213.43993 
L 448.032825 212.950557 
L 450.361901 212.352835 
L 452.690977 211.635929 
L 455.020053 210.789006 
L 457.349128 209.801229 
L 459.678204 208.661765 
L 462.00728 207.359778 
L 464.336356 205.884434 
L 466.665432 204.224897 
L 468.994508 202.370334 
L 471.323584 200.309908 
L 473.65266 198.032785 
L 475.981736 195.528131 
L 478.310811 192.78511 
L 480.639887 189.792888 
L 482.968963 186.54063 
L 485.298039 183.0175 
L 487.627115 179.212665 
L 489.956191 175.115289 
L 492.285267 170.714537 
L 494.614343 165.999575 
L 496.943418 160.959568 
L 499.272494 155.583681 
L 501.60157 149.861078 
L 503.930646 143.795373 
L 506.259722 137.447961 
L 508.588798 130.894688 
L 510.917874 124.211396 
L 513.24695 117.47393 
L 515.576026 110.758134 
L 517.905101 104.139852 
L 520.234177 97.694927 
L 522.563253 91.499203 
L 524.892329 85.628524 
L 527.221405 80.158735 
L 529.550481 75.165679 
L 531.879557 70.725199 
L 534.208633 66.913141 
L 536.537708 63.805347 
L 538.866784 61.477662 
L 541.19586 60.005929 
L 543.524936 59.465993 
L 545.854012 59.933697 
L 548.183088 61.484885 
L 550.512164 64.195401 
L 552.84124 68.14109 
L 555.170316 73.397794 
L 557.499391 80.041358 
L 559.828467 88.147625 
L 562.157543 97.79244 
L 564.486619 109.051647 
L 566.815695 122.001088 
L 569.144771 136.716609 
L 571.473847 153.274054 
L 573.802923 171.749265 
L 576.131998 192.218087 
L 578.461074 214.756364 
" style="fill:none;stroke:#8b2be2;stroke-linecap:round;stroke-width:1.5;"/>
   </g>
   <g id="line2d_39">
    <path clip-path="url(#pc5f9a100f4)" d="M 347.882562 214.756364 
L 350.211638 214.756364 
L 352.540714 214.756364 
L 354.86979 214.756364 
L 357.198866 214.756364 
L 359.527941 214.756364 
L 361.857017 214.756364 
L 364.186093 214.756364 
L 366.515169 214.756364 
L 368.844245 214.756364 
L 371.173321 214.756364 
L 373.502397 214.756364 
L 375.831473 214.756364 
L 378.160548 214.756364 
L 380.489624 214.756364 
L 382.8187 214.756364 
L 385.147776 214.756364 
L 387.476852 214.756364 
L 389.805928 214.756364 
L 392.135004 214.756364 
L 394.46408 214.756364 
L 396.793156 214.756364 
L 399.122231 214.756364 
L 401.451307 214.756364 
L 403.780383 214.756364 
L 406.109459 214.756364 
L 408.438535 214.756364 
L 410.767611 214.756364 
L 413.096687 214.756364 
L 415.425763 214.756364 
L 417.754838 214.756364 
L 420.083914 214.756364 
L 422.41299 214.756364 
L 424.742066 214.756364 
L 427.071142 214.756364 
L 429.400218 214.756364 
L 431.729294 214.756364 
L 434.05837 214.756364 
L 436.387446 214.756364 
L 438.716521 214.756364 
L 441.045597 214.756364 
L 443.374673 214.756364 
L 445.703749 214.756364 
L 448.032825 214.756364 
L 450.361901 214.756364 
L 452.690977 214.756364 
L 455.020053 214.756364 
L 457.349128 214.756364 
L 459.678204 214.756364 
L 462.00728 214.756364 
L 464.336356 214.756364 
L 466.665432 214.756364 
L 468.994508 214.756364 
L 471.323584 214.756364 
L 473.65266 214.756364 
L 475.981736 214.756364 
L 478.310811 214.756364 
L 480.639887 214.756364 
L 482.968963 214.756364 
L 485.298039 214.756364 
L 487.627115 214.756364 
L 489.956191 214.756364 
L 492.285267 214.756364 
L 494.614343 214.756364 
L 496.943418 214.756364 
L 499.272494 214.756364 
L 501.60157 214.756364 
L 503.930646 214.753956 
L 506.259722 214.737102 
L 508.588798 214.691355 
L 510.917874 214.602268 
L 513.24695 214.455396 
L 515.576026 214.236291 
L 517.905101 213.930508 
L 520.234177 213.523599 
L 522.563253 213.001119 
L 524.892329 212.348621 
L 527.221405 211.551658 
L 529.550481 210.595784 
L 531.879557 209.466553 
L 534.208633 208.149518 
L 536.537708 206.630232 
L 538.866784 204.89425 
L 541.19586 202.927124 
L 543.524936 200.714409 
L 545.854012 198.241657 
L 548.183088 195.494423 
L 550.512164 192.458259 
L 552.84124 189.11872 
L 555.170316 185.461359 
L 557.499391 181.471729 
L 559.828467 177.135385 
L 562.157543 172.437879 
L 564.486619 167.364765 
L 566.815695 161.901597 
L 569.144771 156.033929 
L 571.473847 149.747313 
L 573.802923 143.027303 
L 576.131998 135.859453 
L 578.461074 128.229317 
" style="fill:none;stroke:#9f4800;stroke-linecap:round;stroke-width:1.5;"/>
   </g>
   <g id="line2d_40">
    <path clip-path="url(#pc5f9a100f4)" d="M 347.882562 56.123444 
L 350.211638 64.927522 
L 352.540714 73.003058 
L 354.86979 80.376335 
L 357.198866 87.073638 
L 359.527941 93.121252 
L 361.857017 98.545462 
L 364.186093 103.372551 
L 366.515169 107.628804 
L 368.844245 111.340507 
L 371.173321 114.533943 
L 373.502397 117.235397 
L 375.831473 119.471153 
L 378.160548 121.267496 
L 380.489624 122.650711 
L 382.8187 123.647081 
L 385.147776 124.282893 
L 387.476852 124.584429 
L 389.805928 124.577975 
L 392.135004 124.289815 
L 394.46408 123.746234 
L 396.793156 122.973515 
L 399.122231 121.997945 
L 401.451307 120.845807 
L 403.780383 119.543385 
L 406.109459 118.116965 
L 408.438535 116.59283 
L 410.767611 114.997266 
L 413.096687 113.356557 
L 415.425763 111.696987 
L 417.754838 110.04484 
L 420.083914 108.426403 
L 422.41299 106.867958 
L 424.742066 105.39579 
L 427.071142 104.030166 
L 429.400218 102.767271 
L 431.729294 101.597275 
L 434.05837 100.510347 
L 436.387446 99.496654 
L 438.716521 98.546365 
L 441.045597 97.649648 
L 443.374673 96.796671 
L 445.703749 95.977604 
L 448.032825 95.182614 
L 450.361901 94.40187 
L 452.690977 93.625541 
L 455.020053 92.843793 
L 457.349128 92.046797 
L 459.678204 91.22472 
L 462.00728 90.367731 
L 464.336356 89.465998 
L 466.665432 88.509689 
L 468.994508 87.488974 
L 471.323584 86.394019 
L 473.65266 85.214995 
L 475.981736 83.942068 
L 478.310811 82.565408 
L 480.639887 81.075182 
L 482.968963 79.46156 
L 485.298039 77.714709 
L 487.627115 75.824798 
L 489.956191 73.781996 
L 492.285267 71.57647 
L 494.614343 69.19839 
L 496.943418 66.637923 
L 499.272494 63.885237 
L 501.60157 60.930502 
L 503.930646 57.773417 
L 506.259722 54.451802 
L 508.588798 51.01301 
L 510.917874 47.504394 
L 513.24695 43.973306 
L 515.576026 40.467098 
L 517.905101 37.033122 
L 520.234177 33.71873 
L 522.563253 30.571276 
L 524.892329 27.63811 
L 527.221405 24.966586 
L 529.550481 22.604055 
L 531.879557 20.59787 
L 534.208633 18.995384 
L 536.537708 17.843948 
L 538.866784 17.190915 
L 541.19586 17.083636 
L 543.524936 17.569465 
L 545.854012 18.695754 
L 548.183088 20.509854 
L 550.512164 23.059119 
L 552.84124 26.390899 
L 555.170316 30.552549 
L 557.499391 35.591419 
L 559.828467 41.554862 
L 562.157543 48.490231 
L 564.486619 56.444878 
L 566.815695 65.466154 
L 569.144771 75.601413 
L 571.473847 86.898007 
L 573.802923 99.403287 
L 576.131998 113.164606 
L 578.461074 128.229317 
" style="fill:none;stroke:#1a1a1a;stroke-linecap:round;stroke-width:3;"/>
   </g>
   <g id="patch_9">
    <path d="M 336.353636 224.64 
L 336.353636 7.2 
" style="fill:none;stroke:#cccccc;stroke-linecap:square;stroke-linejoin:miter;stroke-width:1.25;"/>
   </g>
   <g id="patch_10">
    <path d="M 589.99 224.64 
L 589.99 7.2 
" style="fill:none;stroke:#cccccc;stroke-linecap:square;stroke-linejoin:miter;stroke-width:1.25;"/>
   </g>
   <g id="patch_11">
    <path d="M 336.353636 224.64 
L 589.99 224.64 
" style="fill:none;stroke:#cccccc;stroke-linecap:square;stroke-linejoin:miter;stroke-width:1.25;"/>
   </g>
   <g id="patch_12">
    <path d="M 336.353636 7.2 
L 589.99 7.2 
" style="fill:none;stroke:#cccccc;stroke-linecap:square;stroke-linejoin:miter;stroke-width:1.25;"/>
   </g>
   <g id="patch_13">
    <path d="M 443.398142 49.02201 
Q 442.944095 66.83861 442.490048 84.65521 
L 446.488749 84.757114 
Q 443.336843 90.679634 440.184937 96.602153 
Q 437.33879 90.526777 434.492644 84.4514 
L 438.491346 84.553305 
Q 438.945393 66.736705 439.39944 48.920105 
L 443.398142 49.02201 
z
" style="stroke:#ffffff;stroke-linecap:round;"/>
   </g>
   <g id="text_28">
    <!-- Unequal Weighted Combination -->
    <defs>
     <path d="M 54.6875 71.578125 
L 64.15625 71.578125 
L 64.15625 30.21875 
Q 64.15625 19.4375 61.71875 13.078125 
Q 59.28125 6.734375 52.90625 2.75 
Q 46.53125 -1.21875 36.1875 -1.21875 
Q 26.125 -1.21875 19.71875 2.25 
Q 13.328125 5.71875 10.59375 12.28125 
Q 7.859375 18.84375 7.859375 30.21875 
L 7.859375 71.578125 
L 17.328125 71.578125 
L 17.328125 30.28125 
Q 17.328125 20.953125 19.0625 16.53125 
Q 20.796875 12.109375 25.015625 9.71875 
Q 29.25 7.328125 35.359375 7.328125 
Q 45.796875 7.328125 50.234375 12.0625 
Q 54.6875 16.796875 54.6875 30.28125 
z
" id="ArialMT-85"/>
    </defs>
    <g style="fill:#262626;" transform="translate(370.940413 30.861957)scale(0.1 -0.1)">
     <use xlink:href="#ArialMT-85"/>
     <use x="72.216797" xlink:href="#ArialMT-110"/>
     <use x="127.832031" xlink:href="#ArialMT-101"/>
     <use x="183.447266" xlink:href="#ArialMT-113"/>
     <use x="239.0625" xlink:href="#ArialMT-117"/>
     <use x="294.677734" xlink:href="#ArialMT-97"/>
     <use x="350.292969" xlink:href="#ArialMT-108"/>
     <use x="372.509766" xlink:href="#ArialMT-32"/>
     <use x="400.292969" xlink:href="#ArialMT-87"/>
     <use x="494.662109" xlink:href="#ArialMT-101"/>
     <use x="550.277344" xlink:href="#ArialMT-105"/>
     <use x="572.494141" xlink:href="#ArialMT-103"/>
     <use x="628.109375" xlink:href="#ArialMT-104"/>
     <use x="683.724609" xlink:href="#ArialMT-116"/>
     <use x="711.507812" xlink:href="#ArialMT-101"/>
     <use x="767.123047" xlink:href="#ArialMT-100"/>
     <use x="822.738281" xlink:href="#ArialMT-32"/>
     <use x="850.521484" xlink:href="#ArialMT-67"/>
     <use x="922.738281" xlink:href="#ArialMT-111"/>
     <use x="978.353516" xlink:href="#ArialMT-109"/>
     <use x="1061.654297" xlink:href="#ArialMT-98"/>
     <use x="1117.269531" xlink:href="#ArialMT-105"/>
     <use x="1139.486328" xlink:href="#ArialMT-110"/>
     <use x="1195.101562" xlink:href="#ArialMT-97"/>
     <use x="1250.716797" xlink:href="#ArialMT-116"/>
     <use x="1278.5" xlink:href="#ArialMT-105"/>
     <use x="1300.716797" xlink:href="#ArialMT-111"/>
     <use x="1356.332031" xlink:href="#ArialMT-110"/>
    </g>
    <!-- of Splines -->
    <g style="fill:#262626;" transform="translate(370.940413 41.70227)scale(0.1 -0.1)">
     <use xlink:href="#ArialMT-111"/>
     <use x="55.615234" xlink:href="#ArialMT-102"/>
     <use x="83.398438" xlink:href="#ArialMT-32"/>
     <use x="111.181641" xlink:href="#ArialMT-83"/>
     <use x="177.880859" xlink:href="#ArialMT-112"/>
     <use x="233.496094" xlink:href="#ArialMT-108"/>
     <use x="255.712891" xlink:href="#ArialMT-105"/>
     <use x="277.929688" xlink:href="#ArialMT-110"/>
     <use x="333.544922" xlink:href="#ArialMT-101"/>
     <use x="389.160156" xlink:href="#ArialMT-115"/>
    </g>
   </g>
  </g>
 </g>
 <defs>
  <clipPath id="p950e98cd1e">
   <rect height="217.44" width="253.636364" x="31.99" y="7.2"/>
  </clipPath>
  <clipPath id="pc5f9a100f4">
   <rect height="217.44" width="253.636364" x="336.353636" y="7.2"/>
  </clipPath>
 </defs>
</svg>
