<?xml version="1.0" encoding="utf-8" standalone="no"?>
<!DOCTYPE svg PUBLIC "-//W3C//DTD SVG 1.1//EN"
  "http://www.w3.org/Graphics/SVG/1.1/DTD/svg11.dtd">
<!-- Created with matplotlib (https://matplotlib.org/) -->
<svg height="335.323594pt" version="1.1" viewBox="0 0 882.307031 335.323594" width="882.307031pt" xmlns="http://www.w3.org/2000/svg" xmlns:xlink="http://www.w3.org/1999/xlink">
 <defs>
  <style type="text/css">
*{stroke-linecap:butt;stroke-linejoin:round;}
  </style>
 </defs>
 <g id="figure_1">
  <g id="patch_1">
   <path d="M 0 335.323594 
L 882.307031 335.323594 
L 882.307031 0 
L 0 0 
z
" style="fill:#ffffff;"/>
  </g>
  <g id="axes_1">
   <g id="patch_2">
    <path d="M 38.107031 293.589375 
L 418.561577 293.589375 
L 418.561577 21.789375 
L 38.107031 21.789375 
z
" style="fill:#ffffff;"/>
   </g>
   <g id="matplotlib.axis_1">
    <g id="xtick_1">
     <g id="line2d_1">
      <path clip-path="url(#pda41b1df49)" d="M 51.236255 293.589375 
L 51.236255 21.789375 
" style="fill:none;stroke:#cccccc;stroke-linecap:round;"/>
     </g>
     <g id="text_1">
      <!-- 5 -->
      <defs>
       <path d="M 4.15625 18.75 
L 13.375 19.53125 
Q 14.40625 12.796875 18.140625 9.390625 
Q 21.875 6 27.15625 6 
Q 33.5 6 37.890625 10.78125 
Q 42.28125 15.578125 42.28125 23.484375 
Q 42.28125 31 38.0625 35.34375 
Q 33.84375 39.703125 27 39.703125 
Q 22.75 39.703125 19.328125 37.765625 
Q 15.921875 35.84375 13.96875 32.765625 
L 5.71875 33.84375 
L 12.640625 70.609375 
L 48.25 70.609375 
L 48.25 62.203125 
L 19.671875 62.203125 
L 15.828125 42.96875 
Q 22.265625 47.46875 29.34375 47.46875 
Q 38.71875 47.46875 45.15625 40.96875 
Q 51.609375 34.46875 51.609375 24.265625 
Q 51.609375 14.546875 45.953125 7.46875 
Q 39.0625 -1.21875 27.15625 -1.21875 
Q 17.390625 -1.21875 11.203125 4.25 
Q 5.03125 9.71875 4.15625 18.75 
z
" id="ArialMT-53"/>
      </defs>
      <g style="fill:#262626;" transform="translate(48.177739 310.962969)scale(0.11 -0.11)">
       <use xlink:href="#ArialMT-53"/>
      </g>
     </g>
    </g>
    <g id="xtick_2">
     <g id="line2d_2">
      <path clip-path="url(#pda41b1df49)" d="M 117.039417 293.589375 
L 117.039417 21.789375 
" style="fill:none;stroke:#cccccc;stroke-linecap:round;"/>
     </g>
     <g id="text_2">
      <!-- 10 -->
      <defs>
       <path d="M 37.25 0 
L 28.46875 0 
L 28.46875 56 
Q 25.296875 52.984375 20.140625 49.953125 
Q 14.984375 46.921875 10.890625 45.40625 
L 10.890625 53.90625 
Q 18.265625 57.375 23.78125 62.296875 
Q 29.296875 67.234375 31.59375 71.875 
L 37.25 71.875 
z
" id="ArialMT-49"/>
       <path d="M 4.15625 35.296875 
Q 4.15625 48 6.765625 55.734375 
Q 9.375 63.484375 14.515625 67.671875 
Q 19.671875 71.875 27.484375 71.875 
Q 33.25 71.875 37.59375 69.546875 
Q 41.9375 67.234375 44.765625 62.859375 
Q 47.609375 58.5 49.21875 52.21875 
Q 50.828125 45.953125 50.828125 35.296875 
Q 50.828125 22.703125 48.234375 14.96875 
Q 45.65625 7.234375 40.5 3 
Q 35.359375 -1.21875 27.484375 -1.21875 
Q 17.140625 -1.21875 11.234375 6.203125 
Q 4.15625 15.140625 4.15625 35.296875 
z
M 13.1875 35.296875 
Q 13.1875 17.671875 17.3125 11.828125 
Q 21.4375 6 27.484375 6 
Q 33.546875 6 37.671875 11.859375 
Q 41.796875 17.71875 41.796875 35.296875 
Q 41.796875 52.984375 37.671875 58.78125 
Q 33.546875 64.59375 27.390625 64.59375 
Q 21.34375 64.59375 17.71875 59.46875 
Q 13.1875 52.9375 13.1875 35.296875 
z
" id="ArialMT-48"/>
      </defs>
      <g style="fill:#262626;" transform="translate(110.922386 310.962969)scale(0.11 -0.11)">
       <use xlink:href="#ArialMT-49"/>
       <use x="55.615234" xlink:href="#ArialMT-48"/>
      </g>
     </g>
    </g>
    <g id="xtick_3">
     <g id="line2d_3">
      <path clip-path="url(#pda41b1df49)" d="M 182.842579 293.589375 
L 182.842579 21.789375 
" style="fill:none;stroke:#cccccc;stroke-linecap:round;"/>
     </g>
     <g id="text_3">
      <!-- 15 -->
      <g style="fill:#262626;" transform="translate(176.725548 310.962969)scale(0.11 -0.11)">
       <use xlink:href="#ArialMT-49"/>
       <use x="55.615234" xlink:href="#ArialMT-53"/>
      </g>
     </g>
    </g>
    <g id="xtick_4">
     <g id="line2d_4">
      <path clip-path="url(#pda41b1df49)" d="M 248.645741 293.589375 
L 248.645741 21.789375 
" style="fill:none;stroke:#cccccc;stroke-linecap:round;"/>
     </g>
     <g id="text_4">
      <!-- 20 -->
      <defs>
       <path d="M 50.34375 8.453125 
L 50.34375 0 
L 3.03125 0 
Q 2.9375 3.171875 4.046875 6.109375 
Q 5.859375 10.9375 9.828125 15.625 
Q 13.8125 20.3125 21.34375 26.46875 
Q 33.015625 36.03125 37.109375 41.625 
Q 41.21875 47.21875 41.21875 52.203125 
Q 41.21875 57.421875 37.46875 61 
Q 33.734375 64.59375 27.734375 64.59375 
Q 21.390625 64.59375 17.578125 60.78125 
Q 13.765625 56.984375 13.71875 50.25 
L 4.6875 51.171875 
Q 5.609375 61.28125 11.65625 66.578125 
Q 17.71875 71.875 27.9375 71.875 
Q 38.234375 71.875 44.234375 66.15625 
Q 50.25 60.453125 50.25 52 
Q 50.25 47.703125 48.484375 43.546875 
Q 46.734375 39.40625 42.65625 34.8125 
Q 38.578125 30.21875 29.109375 22.21875 
Q 21.1875 15.578125 18.9375 13.203125 
Q 16.703125 10.84375 15.234375 8.453125 
z
" id="ArialMT-50"/>
      </defs>
      <g style="fill:#262626;" transform="translate(242.52871 310.962969)scale(0.11 -0.11)">
       <use xlink:href="#ArialMT-50"/>
       <use x="55.615234" xlink:href="#ArialMT-48"/>
      </g>
     </g>
    </g>
    <g id="xtick_5">
     <g id="line2d_5">
      <path clip-path="url(#pda41b1df49)" d="M 314.448903 293.589375 
L 314.448903 21.789375 
" style="fill:none;stroke:#cccccc;stroke-linecap:round;"/>
     </g>
     <g id="text_5">
      <!-- 25 -->
      <g style="fill:#262626;" transform="translate(308.331872 310.962969)scale(0.11 -0.11)">
       <use xlink:href="#ArialMT-50"/>
       <use x="55.615234" xlink:href="#ArialMT-53"/>
      </g>
     </g>
    </g>
    <g id="xtick_6">
     <g id="line2d_6">
      <path clip-path="url(#pda41b1df49)" d="M 380.252065 293.589375 
L 380.252065 21.789375 
" style="fill:none;stroke:#cccccc;stroke-linecap:round;"/>
     </g>
     <g id="text_6">
      <!-- 30 -->
      <defs>
       <path d="M 4.203125 18.890625 
L 12.984375 20.0625 
Q 14.5 12.59375 18.140625 9.296875 
Q 21.78125 6 27 6 
Q 33.203125 6 37.46875 10.296875 
Q 41.75 14.59375 41.75 20.953125 
Q 41.75 27 37.796875 30.921875 
Q 33.84375 34.859375 27.734375 34.859375 
Q 25.25 34.859375 21.53125 33.890625 
L 22.515625 41.609375 
Q 23.390625 41.5 23.921875 41.5 
Q 29.546875 41.5 34.03125 44.421875 
Q 38.53125 47.359375 38.53125 53.46875 
Q 38.53125 58.296875 35.25 61.46875 
Q 31.984375 64.65625 26.8125 64.65625 
Q 21.6875 64.65625 18.265625 61.421875 
Q 14.84375 58.203125 13.875 51.765625 
L 5.078125 53.328125 
Q 6.6875 62.15625 12.390625 67.015625 
Q 18.109375 71.875 26.609375 71.875 
Q 32.46875 71.875 37.390625 69.359375 
Q 42.328125 66.84375 44.9375 62.5 
Q 47.5625 58.15625 47.5625 53.265625 
Q 47.5625 48.640625 45.0625 44.828125 
Q 42.578125 41.015625 37.703125 38.765625 
Q 44.046875 37.3125 47.5625 32.6875 
Q 51.078125 28.078125 51.078125 21.140625 
Q 51.078125 11.765625 44.234375 5.25 
Q 37.40625 -1.265625 26.953125 -1.265625 
Q 17.53125 -1.265625 11.296875 4.34375 
Q 5.078125 9.96875 4.203125 18.890625 
z
" id="ArialMT-51"/>
      </defs>
      <g style="fill:#262626;" transform="translate(374.135034 310.962969)scale(0.11 -0.11)">
       <use xlink:href="#ArialMT-51"/>
       <use x="55.615234" xlink:href="#ArialMT-48"/>
      </g>
     </g>
    </g>
    <g id="text_7">
     <!-- mean radius -->
     <defs>
      <path d="M 6.59375 0 
L 6.59375 51.859375 
L 14.453125 51.859375 
L 14.453125 44.578125 
Q 16.890625 48.390625 20.9375 50.703125 
Q 25 53.03125 30.171875 53.03125 
Q 35.9375 53.03125 39.625 50.640625 
Q 43.3125 48.25 44.828125 43.953125 
Q 50.984375 53.03125 60.84375 53.03125 
Q 68.5625 53.03125 72.703125 48.75 
Q 76.859375 44.484375 76.859375 35.59375 
L 76.859375 0 
L 68.109375 0 
L 68.109375 32.671875 
Q 68.109375 37.9375 67.25 40.25 
Q 66.40625 42.578125 64.15625 43.984375 
Q 61.921875 45.40625 58.890625 45.40625 
Q 53.421875 45.40625 49.796875 41.765625 
Q 46.1875 38.140625 46.1875 30.125 
L 46.1875 0 
L 37.40625 0 
L 37.40625 33.6875 
Q 37.40625 39.546875 35.25 42.46875 
Q 33.109375 45.40625 28.21875 45.40625 
Q 24.515625 45.40625 21.359375 43.453125 
Q 18.21875 41.5 16.796875 37.734375 
Q 15.375 33.984375 15.375 26.90625 
L 15.375 0 
z
" id="ArialMT-109"/>
      <path d="M 42.09375 16.703125 
L 51.171875 15.578125 
Q 49.03125 7.625 43.21875 3.21875 
Q 37.40625 -1.171875 28.375 -1.171875 
Q 17 -1.171875 10.328125 5.828125 
Q 3.65625 12.84375 3.65625 25.484375 
Q 3.65625 38.578125 10.390625 45.796875 
Q 17.140625 53.03125 27.875 53.03125 
Q 38.28125 53.03125 44.875 45.953125 
Q 51.46875 38.875 51.46875 26.03125 
Q 51.46875 25.25 51.421875 23.6875 
L 12.75 23.6875 
Q 13.234375 15.140625 17.578125 10.59375 
Q 21.921875 6.0625 28.421875 6.0625 
Q 33.25 6.0625 36.671875 8.59375 
Q 40.09375 11.140625 42.09375 16.703125 
z
M 13.234375 30.90625 
L 42.1875 30.90625 
Q 41.609375 37.453125 38.875 40.71875 
Q 34.671875 45.796875 27.984375 45.796875 
Q 21.921875 45.796875 17.796875 41.75 
Q 13.671875 37.703125 13.234375 30.90625 
z
" id="ArialMT-101"/>
      <path d="M 40.4375 6.390625 
Q 35.546875 2.25 31.03125 0.53125 
Q 26.515625 -1.171875 21.34375 -1.171875 
Q 12.796875 -1.171875 8.203125 3 
Q 3.609375 7.171875 3.609375 13.671875 
Q 3.609375 17.484375 5.34375 20.625 
Q 7.078125 23.78125 9.890625 25.6875 
Q 12.703125 27.59375 16.21875 28.5625 
Q 18.796875 29.25 24.03125 29.890625 
Q 34.671875 31.15625 39.703125 32.90625 
Q 39.75 34.71875 39.75 35.203125 
Q 39.75 40.578125 37.25 42.78125 
Q 33.890625 45.75 27.25 45.75 
Q 21.046875 45.75 18.09375 43.578125 
Q 15.140625 41.40625 13.71875 35.890625 
L 5.125 37.0625 
Q 6.296875 42.578125 8.984375 45.96875 
Q 11.671875 49.359375 16.75 51.1875 
Q 21.828125 53.03125 28.515625 53.03125 
Q 35.15625 53.03125 39.296875 51.46875 
Q 43.453125 49.90625 45.40625 47.53125 
Q 47.359375 45.171875 48.140625 41.546875 
Q 48.578125 39.3125 48.578125 33.453125 
L 48.578125 21.734375 
Q 48.578125 9.46875 49.140625 6.21875 
Q 49.703125 2.984375 51.375 0 
L 42.1875 0 
Q 40.828125 2.734375 40.4375 6.390625 
z
M 39.703125 26.03125 
Q 34.90625 24.078125 25.34375 22.703125 
Q 19.921875 21.921875 17.671875 20.9375 
Q 15.4375 19.96875 14.203125 18.09375 
Q 12.984375 16.21875 12.984375 13.921875 
Q 12.984375 10.40625 15.640625 8.0625 
Q 18.3125 5.71875 23.4375 5.71875 
Q 28.515625 5.71875 32.46875 7.9375 
Q 36.421875 10.15625 38.28125 14.015625 
Q 39.703125 17 39.703125 22.796875 
z
" id="ArialMT-97"/>
      <path d="M 6.59375 0 
L 6.59375 51.859375 
L 14.5 51.859375 
L 14.5 44.484375 
Q 20.21875 53.03125 31 53.03125 
Q 35.6875 53.03125 39.625 51.34375 
Q 43.5625 49.65625 45.515625 46.921875 
Q 47.46875 44.1875 48.25 40.4375 
Q 48.734375 37.984375 48.734375 31.890625 
L 48.734375 0 
L 39.9375 0 
L 39.9375 31.546875 
Q 39.9375 36.921875 38.90625 39.578125 
Q 37.890625 42.234375 35.28125 43.8125 
Q 32.671875 45.40625 29.15625 45.40625 
Q 23.53125 45.40625 19.453125 41.84375 
Q 15.375 38.28125 15.375 28.328125 
L 15.375 0 
z
" id="ArialMT-110"/>
      <path id="ArialMT-32"/>
      <path d="M 6.5 0 
L 6.5 51.859375 
L 14.40625 51.859375 
L 14.40625 44 
Q 17.4375 49.515625 20 51.265625 
Q 22.5625 53.03125 25.640625 53.03125 
Q 30.078125 53.03125 34.671875 50.203125 
L 31.640625 42.046875 
Q 28.421875 43.953125 25.203125 43.953125 
Q 22.3125 43.953125 20.015625 42.21875 
Q 17.71875 40.484375 16.75 37.40625 
Q 15.28125 32.71875 15.28125 27.15625 
L 15.28125 0 
z
" id="ArialMT-114"/>
      <path d="M 40.234375 0 
L 40.234375 6.546875 
Q 35.296875 -1.171875 25.734375 -1.171875 
Q 19.53125 -1.171875 14.328125 2.25 
Q 9.125 5.671875 6.265625 11.796875 
Q 3.421875 17.921875 3.421875 25.875 
Q 3.421875 33.640625 6 39.96875 
Q 8.59375 46.296875 13.765625 49.65625 
Q 18.953125 53.03125 25.34375 53.03125 
Q 30.03125 53.03125 33.6875 51.046875 
Q 37.359375 49.078125 39.65625 45.90625 
L 39.65625 71.578125 
L 48.390625 71.578125 
L 48.390625 0 
z
M 12.453125 25.875 
Q 12.453125 15.921875 16.640625 10.984375 
Q 20.84375 6.0625 26.5625 6.0625 
Q 32.328125 6.0625 36.34375 10.765625 
Q 40.375 15.484375 40.375 25.140625 
Q 40.375 35.796875 36.265625 40.765625 
Q 32.171875 45.75 26.171875 45.75 
Q 20.3125 45.75 16.375 40.96875 
Q 12.453125 36.1875 12.453125 25.875 
z
" id="ArialMT-100"/>
      <path d="M 6.640625 61.46875 
L 6.640625 71.578125 
L 15.4375 71.578125 
L 15.4375 61.46875 
z
M 6.640625 0 
L 6.640625 51.859375 
L 15.4375 51.859375 
L 15.4375 0 
z
" id="ArialMT-105"/>
      <path d="M 40.578125 0 
L 40.578125 7.625 
Q 34.515625 -1.171875 24.125 -1.171875 
Q 19.53125 -1.171875 15.546875 0.578125 
Q 11.578125 2.34375 9.640625 5 
Q 7.71875 7.671875 6.9375 11.53125 
Q 6.390625 14.109375 6.390625 19.734375 
L 6.390625 51.859375 
L 15.1875 51.859375 
L 15.1875 23.09375 
Q 15.1875 16.21875 15.71875 13.8125 
Q 16.546875 10.359375 19.234375 8.375 
Q 21.921875 6.390625 25.875 6.390625 
Q 29.828125 6.390625 33.296875 8.421875 
Q 36.765625 10.453125 38.203125 13.9375 
Q 39.65625 17.4375 39.65625 24.078125 
L 39.65625 51.859375 
L 48.4375 51.859375 
L 48.4375 0 
z
" id="ArialMT-117"/>
      <path d="M 3.078125 15.484375 
L 11.765625 16.84375 
Q 12.5 11.625 15.84375 8.84375 
Q 19.1875 6.0625 25.203125 6.0625 
Q 31.25 6.0625 34.171875 8.515625 
Q 37.109375 10.984375 37.109375 14.3125 
Q 37.109375 17.28125 34.515625 19 
Q 32.71875 20.171875 25.53125 21.96875 
Q 15.875 24.421875 12.140625 26.203125 
Q 8.40625 27.984375 6.46875 31.125 
Q 4.546875 34.28125 4.546875 38.09375 
Q 4.546875 41.546875 6.125 44.5 
Q 7.71875 47.46875 10.453125 49.421875 
Q 12.5 50.921875 16.03125 51.96875 
Q 19.578125 53.03125 23.640625 53.03125 
Q 29.734375 53.03125 34.34375 51.265625 
Q 38.96875 49.515625 41.15625 46.5 
Q 43.359375 43.5 44.1875 38.484375 
L 35.59375 37.3125 
Q 35.015625 41.3125 32.203125 43.546875 
Q 29.390625 45.796875 24.265625 45.796875 
Q 18.21875 45.796875 15.625 43.796875 
Q 13.03125 41.796875 13.03125 39.109375 
Q 13.03125 37.40625 14.109375 36.03125 
Q 15.1875 34.625 17.484375 33.6875 
Q 18.796875 33.203125 25.25 31.453125 
Q 34.578125 28.953125 38.25 27.359375 
Q 41.9375 25.78125 44.03125 22.75 
Q 46.140625 19.734375 46.140625 15.234375 
Q 46.140625 10.84375 43.578125 6.953125 
Q 41.015625 3.078125 36.171875 0.953125 
Q 31.34375 -1.171875 25.25 -1.171875 
Q 15.140625 -1.171875 9.84375 3.03125 
Q 4.546875 7.234375 3.078125 15.484375 
z
" id="ArialMT-115"/>
     </defs>
     <g style="fill:#262626;" transform="translate(195.319304 325.738594)scale(0.12 -0.12)">
      <use xlink:href="#ArialMT-109"/>
      <use x="83.300781" xlink:href="#ArialMT-101"/>
      <use x="138.916016" xlink:href="#ArialMT-97"/>
      <use x="194.53125" xlink:href="#ArialMT-110"/>
      <use x="250.146484" xlink:href="#ArialMT-32"/>
      <use x="277.929688" xlink:href="#ArialMT-114"/>
      <use x="311.230469" xlink:href="#ArialMT-97"/>
      <use x="366.845703" xlink:href="#ArialMT-100"/>
      <use x="422.460938" xlink:href="#ArialMT-105"/>
      <use x="444.677734" xlink:href="#ArialMT-117"/>
      <use x="500.292969" xlink:href="#ArialMT-115"/>
     </g>
    </g>
   </g>
   <g id="matplotlib.axis_2">
    <g id="ytick_1">
     <g id="line2d_7">
      <path clip-path="url(#pda41b1df49)" d="M 38.107031 293.589375 
L 418.561577 293.589375 
" style="fill:none;stroke:#cccccc;stroke-linecap:round;"/>
     </g>
     <g id="text_8">
      <!-- 0.00 -->
      <defs>
       <path d="M 9.078125 0 
L 9.078125 10.015625 
L 19.09375 10.015625 
L 19.09375 0 
z
" id="ArialMT-46"/>
      </defs>
      <g style="fill:#262626;" transform="translate(7.2 297.526172)scale(0.11 -0.11)">
       <use xlink:href="#ArialMT-48"/>
       <use x="55.615234" xlink:href="#ArialMT-46"/>
       <use x="83.398438" xlink:href="#ArialMT-48"/>
       <use x="139.013672" xlink:href="#ArialMT-48"/>
      </g>
     </g>
    </g>
    <g id="ytick_2">
     <g id="line2d_8">
      <path clip-path="url(#pda41b1df49)" d="M 38.107031 234.872893 
L 418.561577 234.872893 
" style="fill:none;stroke:#cccccc;stroke-linecap:round;"/>
     </g>
     <g id="text_9">
      <!-- 0.05 -->
      <g style="fill:#262626;" transform="translate(7.2 238.80969)scale(0.11 -0.11)">
       <use xlink:href="#ArialMT-48"/>
       <use x="55.615234" xlink:href="#ArialMT-46"/>
       <use x="83.398438" xlink:href="#ArialMT-48"/>
       <use x="139.013672" xlink:href="#ArialMT-53"/>
      </g>
     </g>
    </g>
    <g id="ytick_3">
     <g id="line2d_9">
      <path clip-path="url(#pda41b1df49)" d="M 38.107031 176.156412 
L 418.561577 176.156412 
" style="fill:none;stroke:#cccccc;stroke-linecap:round;"/>
     </g>
     <g id="text_10">
      <!-- 0.10 -->
      <g style="fill:#262626;" transform="translate(7.2 180.093209)scale(0.11 -0.11)">
       <use xlink:href="#ArialMT-48"/>
       <use x="55.615234" xlink:href="#ArialMT-46"/>
       <use x="83.398438" xlink:href="#ArialMT-49"/>
       <use x="139.013672" xlink:href="#ArialMT-48"/>
      </g>
     </g>
    </g>
    <g id="ytick_4">
     <g id="line2d_10">
      <path clip-path="url(#pda41b1df49)" d="M 38.107031 117.43993 
L 418.561577 117.43993 
" style="fill:none;stroke:#cccccc;stroke-linecap:round;"/>
     </g>
     <g id="text_11">
      <!-- 0.15 -->
      <g style="fill:#262626;" transform="translate(7.2 121.376727)scale(0.11 -0.11)">
       <use xlink:href="#ArialMT-48"/>
       <use x="55.615234" xlink:href="#ArialMT-46"/>
       <use x="83.398438" xlink:href="#ArialMT-49"/>
       <use x="139.013672" xlink:href="#ArialMT-53"/>
      </g>
     </g>
    </g>
    <g id="ytick_5">
     <g id="line2d_11">
      <path clip-path="url(#pda41b1df49)" d="M 38.107031 58.723449 
L 418.561577 58.723449 
" style="fill:none;stroke:#cccccc;stroke-linecap:round;"/>
     </g>
     <g id="text_12">
      <!-- 0.20 -->
      <g style="fill:#262626;" transform="translate(7.2 62.660245)scale(0.11 -0.11)">
       <use xlink:href="#ArialMT-48"/>
       <use x="55.615234" xlink:href="#ArialMT-46"/>
       <use x="83.398438" xlink:href="#ArialMT-50"/>
       <use x="139.013672" xlink:href="#ArialMT-48"/>
      </g>
     </g>
    </g>
   </g>
   <g id="patch_3">
    <path clip-path="url(#pda41b1df49)" d="M 77.307468 293.589375 
L 105.916051 293.589375 
L 105.916051 264.838185 
L 77.307468 264.838185 
z
" style="fill:#023eff;opacity:0.4;stroke:#ffffff;stroke-linejoin:miter;"/>
   </g>
   <g id="patch_4">
    <path clip-path="url(#pda41b1df49)" d="M 105.916051 293.589375 
L 134.524633 293.589375 
L 134.524633 158.91275 
L 105.916051 158.91275 
z
" style="fill:#023eff;opacity:0.4;stroke:#ffffff;stroke-linejoin:miter;"/>
   </g>
   <g id="patch_5">
    <path clip-path="url(#pda41b1df49)" d="M 134.524633 293.589375 
L 163.133216 293.589375 
L 163.133216 39.368329 
L 134.524633 39.368329 
z
" style="fill:#023eff;opacity:0.4;stroke:#ffffff;stroke-linejoin:miter;"/>
   </g>
   <g id="patch_6">
    <path clip-path="url(#pda41b1df49)" d="M 163.133216 293.589375 
L 191.741799 293.589375 
L 191.741799 183.124278 
L 163.133216 183.124278 
z
" style="fill:#023eff;opacity:0.4;stroke:#ffffff;stroke-linejoin:miter;"/>
   </g>
   <g id="patch_7">
    <path clip-path="url(#pda41b1df49)" d="M 191.741799 293.589375 
L 220.350381 293.589375 
L 220.350381 281.483611 
L 191.741799 281.483611 
z
" style="fill:#023eff;opacity:0.4;stroke:#ffffff;stroke-linejoin:miter;"/>
   </g>
   <g id="patch_8">
    <path clip-path="url(#pda41b1df49)" d="M 129.542018 293.589375 
L 140.83384 293.589375 
L 140.83384 261.309126 
L 129.542018 261.309126 
z
" style="fill:#ff7c00;opacity:0.4;stroke:#ffffff;stroke-linejoin:miter;"/>
   </g>
   <g id="patch_9">
    <path clip-path="url(#pda41b1df49)" d="M 140.83384 293.589375 
L 152.125663 293.589375 
L 152.125663 267.765176 
L 140.83384 267.765176 
z
" style="fill:#ff7c00;opacity:0.4;stroke:#ffffff;stroke-linejoin:miter;"/>
   </g>
   <g id="patch_10">
    <path clip-path="url(#pda41b1df49)" d="M 152.125663 293.589375 
L 163.417486 293.589375 
L 163.417486 216.116778 
L 152.125663 216.116778 
z
" style="fill:#ff7c00;opacity:0.4;stroke:#ffffff;stroke-linejoin:miter;"/>
   </g>
   <g id="patch_11">
    <path clip-path="url(#pda41b1df49)" d="M 163.417486 293.589375 
L 174.709308 293.589375 
L 174.709308 190.292578 
L 163.417486 190.292578 
z
" style="fill:#ff7c00;opacity:0.4;stroke:#ffffff;stroke-linejoin:miter;"/>
   </g>
   <g id="patch_12">
    <path clip-path="url(#pda41b1df49)" d="M 174.709308 293.589375 
L 186.001131 293.589375 
L 186.001131 158.012329 
L 174.709308 158.012329 
z
" style="fill:#ff7c00;opacity:0.4;stroke:#ffffff;stroke-linejoin:miter;"/>
   </g>
   <g id="patch_13">
    <path clip-path="url(#pda41b1df49)" d="M 186.001131 293.589375 
L 197.292954 293.589375 
L 197.292954 151.55628 
L 186.001131 151.55628 
z
" style="fill:#ff7c00;opacity:0.4;stroke:#ffffff;stroke-linejoin:miter;"/>
   </g>
   <g id="patch_14">
    <path clip-path="url(#pda41b1df49)" d="M 197.292954 293.589375 
L 208.584776 293.589375 
L 208.584776 196.748628 
L 197.292954 196.748628 
z
" style="fill:#ff7c00;opacity:0.4;stroke:#ffffff;stroke-linejoin:miter;"/>
   </g>
   <g id="patch_15">
    <path clip-path="url(#pda41b1df49)" d="M 208.584776 293.589375 
L 219.876599 293.589375 
L 219.876599 164.468379 
L 208.584776 164.468379 
z
" style="fill:#ff7c00;opacity:0.4;stroke:#ffffff;stroke-linejoin:miter;"/>
   </g>
   <g id="patch_16">
    <path clip-path="url(#pda41b1df49)" d="M 219.876599 293.589375 
L 231.168421 293.589375 
L 231.168421 158.012329 
L 219.876599 158.012329 
z
" style="fill:#ff7c00;opacity:0.4;stroke:#ffffff;stroke-linejoin:miter;"/>
   </g>
   <g id="patch_17">
    <path clip-path="url(#pda41b1df49)" d="M 231.168421 293.589375 
L 242.460244 293.589375 
L 242.460244 177.380479 
L 231.168421 177.380479 
z
" style="fill:#ff7c00;opacity:0.4;stroke:#ffffff;stroke-linejoin:miter;"/>
   </g>
   <g id="patch_18">
    <path clip-path="url(#pda41b1df49)" d="M 242.460244 293.589375 
L 253.752067 293.589375 
L 253.752067 145.10023 
L 242.460244 145.10023 
z
" style="fill:#ff7c00;opacity:0.4;stroke:#ffffff;stroke-linejoin:miter;"/>
   </g>
   <g id="patch_19">
    <path clip-path="url(#pda41b1df49)" d="M 253.752067 293.589375 
L 265.043889 293.589375 
L 265.043889 190.292578 
L 253.752067 190.292578 
z
" style="fill:#ff7c00;opacity:0.4;stroke:#ffffff;stroke-linejoin:miter;"/>
   </g>
   <g id="patch_20">
    <path clip-path="url(#pda41b1df49)" d="M 265.043889 293.589375 
L 276.335712 293.589375 
L 276.335712 254.853076 
L 265.043889 254.853076 
z
" style="fill:#ff7c00;opacity:0.4;stroke:#ffffff;stroke-linejoin:miter;"/>
   </g>
   <g id="patch_21">
    <path clip-path="url(#pda41b1df49)" d="M 276.335712 293.589375 
L 287.627534 293.589375 
L 287.627534 287.133325 
L 276.335712 287.133325 
z
" style="fill:#ff7c00;opacity:0.4;stroke:#ffffff;stroke-linejoin:miter;"/>
   </g>
   <g id="patch_22">
    <path clip-path="url(#pda41b1df49)" d="M 287.627534 293.589375 
L 298.919357 293.589375 
L 298.919357 261.309126 
L 287.627534 261.309126 
z
" style="fill:#ff7c00;opacity:0.4;stroke:#ffffff;stroke-linejoin:miter;"/>
   </g>
   <g id="patch_23">
    <path clip-path="url(#pda41b1df49)" d="M 298.919357 293.589375 
L 310.21118 293.589375 
L 310.21118 280.677275 
L 298.919357 280.677275 
z
" style="fill:#ff7c00;opacity:0.4;stroke:#ffffff;stroke-linejoin:miter;"/>
   </g>
   <g id="patch_24">
    <path clip-path="url(#pda41b1df49)" d="M 310.21118 293.589375 
L 321.503002 293.589375 
L 321.503002 287.133325 
L 310.21118 287.133325 
z
" style="fill:#ff7c00;opacity:0.4;stroke:#ffffff;stroke-linejoin:miter;"/>
   </g>
   <g id="patch_25">
    <path clip-path="url(#pda41b1df49)" d="M 321.503002 293.589375 
L 332.794825 293.589375 
L 332.794825 287.133325 
L 321.503002 287.133325 
z
" style="fill:#ff7c00;opacity:0.4;stroke:#ffffff;stroke-linejoin:miter;"/>
   </g>
   <g id="patch_26">
    <path clip-path="url(#pda41b1df49)" d="M 332.794825 293.589375 
L 344.086647 293.589375 
L 344.086647 287.133325 
L 332.794825 287.133325 
z
" style="fill:#ff7c00;opacity:0.4;stroke:#ffffff;stroke-linejoin:miter;"/>
   </g>
   <g id="patch_27">
    <path clip-path="url(#pda41b1df49)" d="M 344.086647 293.589375 
L 355.37847 293.589375 
L 355.37847 280.677275 
L 344.086647 280.677275 
z
" style="fill:#ff7c00;opacity:0.4;stroke:#ffffff;stroke-linejoin:miter;"/>
   </g>
   <g id="line2d_12">
    <path clip-path="url(#pda41b1df49)" d="M 55.40042 293.546001 
L 59.814365 293.441567 
L 62.756995 293.227097 
L 65.699625 292.806681 
L 68.642255 292.093741 
L 71.584885 291.018005 
L 74.527515 289.526187 
L 77.470145 287.560133 
L 78.94146 286.374203 
L 80.412775 285.035056 
L 81.88409 283.525216 
L 83.355405 281.822434 
L 84.82672 279.898135 
L 86.298036 277.716584 
L 87.769351 275.235882 
L 89.240666 272.411505 
L 90.711981 269.202178 
L 92.183296 265.576799 
L 93.654611 261.520353 
L 95.125926 257.036864 
L 98.068556 246.891854 
L 101.011186 235.464816 
L 109.839076 199.134973 
L 111.310391 193.836574 
L 114.253021 184.460736 
L 118.666966 171.494165 
L 120.138281 166.437215 
L 121.609596 160.503552 
L 123.080911 153.445514 
L 124.552227 145.114248 
L 126.023542 135.491979 
L 127.494857 124.709004 
L 130.437487 100.888269 
L 133.380117 77.069894 
L 134.851432 66.381367 
L 136.322747 57.046911 
L 137.794062 49.323255 
L 139.265377 43.323995 
L 140.736692 39.026466 
L 142.208007 36.299028 
L 143.679322 34.94183 
L 145.150637 34.732232 
L 146.621952 35.466103 
L 148.093267 36.988035 
L 149.564582 39.206443 
L 151.035897 42.092844 
L 152.507212 45.667857 
L 153.978527 49.978847 
L 155.449842 55.075219 
L 156.921157 60.986857 
L 158.392472 67.709306 
L 159.863787 75.196714 
L 162.806418 92.078123 
L 173.105623 155.25101 
L 178.990883 188.168437 
L 181.933513 206.031137 
L 186.347458 233.601454 
L 187.818773 242.035402 
L 189.290088 249.656651 
L 190.761403 256.292144 
L 192.232718 261.865771 
L 193.704033 266.400899 
L 195.175348 270.005163 
L 196.646663 272.84305 
L 198.117978 275.103485 
L 199.589294 276.969331 
L 202.531924 280.087543 
L 206.945869 284.215293 
L 209.888499 286.568822 
L 211.359814 287.537928 
L 212.831129 288.345023 
L 214.302444 288.993006 
L 217.245074 289.901037 
L 223.130334 291.109164 
L 231.958224 292.905621 
L 234.900854 293.255848 
L 239.3148 293.501007 
L 242.25743 293.546382 
L 242.25743 293.546382 
" style="fill:none;stroke:#023eff;stroke-linecap:round;stroke-width:1.5;"/>
   </g>
   <g id="line2d_13">
    <path clip-path="url(#pda41b1df49)" d="M 83.6523 293.521154 
L 91.155037 293.368519 
L 96.156862 293.083239 
L 101.158687 292.517811 
L 103.6596 292.079125 
L 106.160512 291.50466 
L 108.661425 290.769157 
L 111.162337 289.847554 
L 113.66325 288.716105 
L 116.164162 287.353291 
L 118.665075 285.740345 
L 121.165987 283.861289 
L 123.6669 281.702442 
L 126.167812 279.251566 
L 128.668725 276.496876 
L 131.169637 273.426265 
L 133.67055 270.02712 
L 136.171462 266.28698 
L 138.672375 262.195169 
L 141.173287 257.745278 
L 143.6742 252.938183 
L 146.175112 247.785084 
L 148.676025 242.310023 
L 153.67785 230.562275 
L 166.182412 199.834844 
L 168.683325 194.167024 
L 171.184237 188.879735 
L 173.68515 184.062339 
L 176.186062 179.795582 
L 178.686975 176.14703 
L 181.187887 173.165726 
L 183.6888 170.876642 
L 186.189712 169.275865 
L 188.690625 168.327604 
L 191.191537 167.964032 
L 193.69245 168.088546 
L 196.193362 168.582459 
L 201.195188 170.151511 
L 203.6961 170.970026 
L 206.197013 171.665224 
L 208.697925 172.158139 
L 211.198838 172.399365 
L 213.69975 172.369737 
L 216.200663 172.078591 
L 218.701575 171.560534 
L 223.7034 170.086414 
L 228.705225 168.596767 
L 231.206138 168.107038 
L 233.70705 167.94432 
L 236.207963 168.230623 
L 238.708875 169.084368 
L 241.209788 170.612738 
L 243.7107 172.903035 
L 246.211613 176.013985 
L 248.712525 179.968115 
L 251.213438 184.746375 
L 253.71435 190.285959 
L 256.215263 196.481928 
L 258.716175 203.192748 
L 271.220738 238.269739 
L 273.72165 244.412685 
L 276.222563 249.985434 
L 278.723475 254.940682 
L 281.224388 259.268885 
L 283.7253 262.993438 
L 286.226213 266.163479 
L 288.727125 268.845379 
L 291.228038 271.114039 
L 293.72895 273.045004 
L 296.229863 274.708179 
L 298.730775 276.163574 
L 303.7326 278.630546 
L 308.734425 280.68867 
L 313.73625 282.432587 
L 318.738075 283.872183 
L 323.7399 284.986545 
L 328.741726 285.767346 
L 333.743551 286.256945 
L 348.749026 287.337107 
L 353.750851 288.051856 
L 358.752676 289.000484 
L 371.257238 291.571034 
L 376.259063 292.342779 
L 381.260888 292.886666 
L 386.262713 293.227929 
L 393.765451 293.472882 
L 401.268188 293.53129 
L 401.268188 293.53129 
" style="fill:none;stroke:#ff7c00;stroke-linecap:round;stroke-width:1.5;"/>
   </g>
   <g id="patch_28">
    <path d="M 38.107031 293.589375 
L 38.107031 21.789375 
" style="fill:none;stroke:#cccccc;stroke-linecap:square;stroke-linejoin:miter;stroke-width:1.25;"/>
   </g>
   <g id="patch_29">
    <path d="M 418.561577 293.589375 
L 418.561577 21.789375 
" style="fill:none;stroke:#cccccc;stroke-linecap:square;stroke-linejoin:miter;stroke-width:1.25;"/>
   </g>
   <g id="patch_30">
    <path d="M 38.107031 293.589375 
L 418.561577 293.589375 
" style="fill:none;stroke:#cccccc;stroke-linecap:square;stroke-linejoin:miter;stroke-width:1.25;"/>
   </g>
   <g id="patch_31">
    <path d="M 38.107031 21.789375 
L 418.561577 21.789375 
" style="fill:none;stroke:#cccccc;stroke-linecap:square;stroke-linejoin:miter;stroke-width:1.25;"/>
   </g>
   <g id="text_13">
    <!-- Mean Cell Radius Distribution -->
    <defs>
     <path d="M 7.421875 0 
L 7.421875 71.578125 
L 21.6875 71.578125 
L 38.625 20.90625 
Q 40.96875 13.8125 42.046875 10.296875 
Q 43.265625 14.203125 45.84375 21.78125 
L 62.984375 71.578125 
L 75.734375 71.578125 
L 75.734375 0 
L 66.609375 0 
L 66.609375 59.90625 
L 45.796875 0 
L 37.25 0 
L 16.546875 60.9375 
L 16.546875 0 
z
" id="ArialMT-77"/>
     <path d="M 58.796875 25.09375 
L 68.265625 22.703125 
Q 65.28125 11.03125 57.546875 4.90625 
Q 49.8125 -1.21875 38.625 -1.21875 
Q 27.046875 -1.21875 19.796875 3.484375 
Q 12.546875 8.203125 8.765625 17.140625 
Q 4.984375 26.078125 4.984375 36.328125 
Q 4.984375 47.515625 9.25 55.828125 
Q 13.53125 64.15625 21.40625 68.46875 
Q 29.296875 72.796875 38.765625 72.796875 
Q 49.515625 72.796875 56.828125 67.328125 
Q 64.15625 61.859375 67.046875 51.953125 
L 57.71875 49.75 
Q 55.21875 57.5625 50.484375 61.125 
Q 45.75 64.703125 38.578125 64.703125 
Q 30.328125 64.703125 24.78125 60.734375 
Q 19.234375 56.78125 16.984375 50.109375 
Q 14.75 43.453125 14.75 36.375 
Q 14.75 27.25 17.40625 20.4375 
Q 20.0625 13.625 25.671875 10.25 
Q 31.296875 6.890625 37.84375 6.890625 
Q 45.796875 6.890625 51.3125 11.46875 
Q 56.84375 16.0625 58.796875 25.09375 
z
" id="ArialMT-67"/>
     <path d="M 6.390625 0 
L 6.390625 71.578125 
L 15.1875 71.578125 
L 15.1875 0 
z
" id="ArialMT-108"/>
     <path d="M 7.859375 0 
L 7.859375 71.578125 
L 39.59375 71.578125 
Q 49.171875 71.578125 54.140625 69.640625 
Q 59.125 67.71875 62.109375 62.828125 
Q 65.09375 57.953125 65.09375 52.046875 
Q 65.09375 44.4375 60.15625 39.203125 
Q 55.21875 33.984375 44.921875 32.5625 
Q 48.6875 30.765625 50.640625 29 
Q 54.78125 25.203125 58.5 19.484375 
L 70.953125 0 
L 59.03125 0 
L 49.5625 14.890625 
Q 45.40625 21.34375 42.71875 24.75 
Q 40.046875 28.171875 37.921875 29.53125 
Q 35.796875 30.90625 33.59375 31.453125 
Q 31.984375 31.78125 28.328125 31.78125 
L 17.328125 31.78125 
L 17.328125 0 
z
M 17.328125 39.984375 
L 37.703125 39.984375 
Q 44.1875 39.984375 47.84375 41.328125 
Q 51.515625 42.671875 53.421875 45.625 
Q 55.328125 48.578125 55.328125 52.046875 
Q 55.328125 57.125 51.640625 60.390625 
Q 47.953125 63.671875 39.984375 63.671875 
L 17.328125 63.671875 
z
" id="ArialMT-82"/>
     <path d="M 7.71875 0 
L 7.71875 71.578125 
L 32.375 71.578125 
Q 40.71875 71.578125 45.125 70.5625 
Q 51.265625 69.140625 55.609375 65.4375 
Q 61.28125 60.640625 64.078125 53.1875 
Q 66.890625 45.75 66.890625 36.1875 
Q 66.890625 28.03125 64.984375 21.734375 
Q 63.09375 15.4375 60.109375 11.296875 
Q 57.125 7.171875 53.578125 4.796875 
Q 50.046875 2.4375 45.046875 1.21875 
Q 40.046875 0 33.546875 0 
z
M 17.1875 8.453125 
L 32.46875 8.453125 
Q 39.546875 8.453125 43.578125 9.765625 
Q 47.609375 11.078125 50 13.484375 
Q 53.375 16.84375 55.25 22.53125 
Q 57.125 28.21875 57.125 36.328125 
Q 57.125 47.5625 53.4375 53.59375 
Q 49.75 59.625 44.484375 61.671875 
Q 40.671875 63.140625 32.234375 63.140625 
L 17.1875 63.140625 
z
" id="ArialMT-68"/>
     <path d="M 25.78125 7.859375 
L 27.046875 0.09375 
Q 23.34375 -0.6875 20.40625 -0.6875 
Q 15.625 -0.6875 12.984375 0.828125 
Q 10.359375 2.34375 9.28125 4.8125 
Q 8.203125 7.28125 8.203125 15.1875 
L 8.203125 45.015625 
L 1.765625 45.015625 
L 1.765625 51.859375 
L 8.203125 51.859375 
L 8.203125 64.703125 
L 16.9375 69.96875 
L 16.9375 51.859375 
L 25.78125 51.859375 
L 25.78125 45.015625 
L 16.9375 45.015625 
L 16.9375 14.703125 
Q 16.9375 10.9375 17.40625 9.859375 
Q 17.875 8.796875 18.921875 8.15625 
Q 19.96875 7.515625 21.921875 7.515625 
Q 23.390625 7.515625 25.78125 7.859375 
z
" id="ArialMT-116"/>
     <path d="M 14.703125 0 
L 6.546875 0 
L 6.546875 71.578125 
L 15.328125 71.578125 
L 15.328125 46.046875 
Q 20.90625 53.03125 29.546875 53.03125 
Q 34.328125 53.03125 38.59375 51.09375 
Q 42.875 49.171875 45.625 45.671875 
Q 48.390625 42.1875 49.953125 37.25 
Q 51.515625 32.328125 51.515625 26.703125 
Q 51.515625 13.375 44.921875 6.09375 
Q 38.328125 -1.171875 29.109375 -1.171875 
Q 19.921875 -1.171875 14.703125 6.5 
z
M 14.59375 26.3125 
Q 14.59375 17 17.140625 12.84375 
Q 21.296875 6.0625 28.375 6.0625 
Q 34.125 6.0625 38.328125 11.0625 
Q 42.53125 16.0625 42.53125 25.984375 
Q 42.53125 36.140625 38.5 40.96875 
Q 34.46875 45.796875 28.765625 45.796875 
Q 23 45.796875 18.796875 40.796875 
Q 14.59375 35.796875 14.59375 26.3125 
z
" id="ArialMT-98"/>
     <path d="M 3.328125 25.921875 
Q 3.328125 40.328125 11.328125 47.265625 
Q 18.015625 53.03125 27.640625 53.03125 
Q 38.328125 53.03125 45.109375 46.015625 
Q 51.90625 39.015625 51.90625 26.65625 
Q 51.90625 16.65625 48.90625 10.90625 
Q 45.90625 5.171875 40.15625 2 
Q 34.421875 -1.171875 27.640625 -1.171875 
Q 16.75 -1.171875 10.03125 5.8125 
Q 3.328125 12.796875 3.328125 25.921875 
z
M 12.359375 25.921875 
Q 12.359375 15.96875 16.703125 11.015625 
Q 21.046875 6.0625 27.640625 6.0625 
Q 34.1875 6.0625 38.53125 11.03125 
Q 42.875 16.015625 42.875 26.21875 
Q 42.875 35.84375 38.5 40.796875 
Q 34.125 45.75 27.640625 45.75 
Q 21.046875 45.75 16.703125 40.8125 
Q 12.359375 35.890625 12.359375 25.921875 
z
" id="ArialMT-111"/>
    </defs>
    <g style="fill:#262626;" transform="translate(149.303991 15.789375)scale(0.12 -0.12)">
     <use xlink:href="#ArialMT-77"/>
     <use x="83.300781" xlink:href="#ArialMT-101"/>
     <use x="138.916016" xlink:href="#ArialMT-97"/>
     <use x="194.53125" xlink:href="#ArialMT-110"/>
     <use x="250.146484" xlink:href="#ArialMT-32"/>
     <use x="277.929688" xlink:href="#ArialMT-67"/>
     <use x="350.146484" xlink:href="#ArialMT-101"/>
     <use x="405.761719" xlink:href="#ArialMT-108"/>
     <use x="427.978516" xlink:href="#ArialMT-108"/>
     <use x="450.195312" xlink:href="#ArialMT-32"/>
     <use x="477.978516" xlink:href="#ArialMT-82"/>
     <use x="550.195312" xlink:href="#ArialMT-97"/>
     <use x="605.810547" xlink:href="#ArialMT-100"/>
     <use x="661.425781" xlink:href="#ArialMT-105"/>
     <use x="683.642578" xlink:href="#ArialMT-117"/>
     <use x="739.257812" xlink:href="#ArialMT-115"/>
     <use x="789.257812" xlink:href="#ArialMT-32"/>
     <use x="817.041016" xlink:href="#ArialMT-68"/>
     <use x="889.257812" xlink:href="#ArialMT-105"/>
     <use x="911.474609" xlink:href="#ArialMT-115"/>
     <use x="961.474609" xlink:href="#ArialMT-116"/>
     <use x="989.257812" xlink:href="#ArialMT-114"/>
     <use x="1022.558594" xlink:href="#ArialMT-105"/>
     <use x="1044.775391" xlink:href="#ArialMT-98"/>
     <use x="1100.390625" xlink:href="#ArialMT-117"/>
     <use x="1156.005859" xlink:href="#ArialMT-116"/>
     <use x="1183.789062" xlink:href="#ArialMT-105"/>
     <use x="1206.005859" xlink:href="#ArialMT-111"/>
     <use x="1261.621094" xlink:href="#ArialMT-110"/>
    </g>
   </g>
   <g id="legend_1">
    <g id="patch_32">
     <path d="M 327.969702 61.966875 
L 410.861577 61.966875 
Q 413.061577 61.966875 413.061577 59.766875 
L 413.061577 29.489375 
Q 413.061577 27.289375 410.861577 27.289375 
L 327.969702 27.289375 
Q 325.769702 27.289375 325.769702 29.489375 
L 325.769702 59.766875 
Q 325.769702 61.966875 327.969702 61.966875 
z
" style="fill:#ffffff;opacity:0.8;stroke:#cccccc;stroke-linejoin:miter;"/>
    </g>
    <g id="patch_33">
     <path d="M 330.169702 39.562969 
L 352.169702 39.562969 
L 352.169702 31.862969 
L 330.169702 31.862969 
z
" style="fill:#023eff;opacity:0.4;stroke:#ffffff;stroke-linejoin:miter;"/>
    </g>
    <g id="text_14">
     <!-- Benign -->
     <defs>
      <path d="M 7.328125 0 
L 7.328125 71.578125 
L 34.1875 71.578125 
Q 42.390625 71.578125 47.34375 69.40625 
Q 52.296875 67.234375 55.09375 62.71875 
Q 57.90625 58.203125 57.90625 53.265625 
Q 57.90625 48.6875 55.421875 44.625 
Q 52.9375 40.578125 47.90625 38.09375 
Q 54.390625 36.1875 57.875 31.59375 
Q 61.375 27 61.375 20.75 
Q 61.375 15.71875 59.25 11.390625 
Q 57.125 7.078125 54 4.734375 
Q 50.875 2.390625 46.15625 1.1875 
Q 41.453125 0 34.625 0 
z
M 16.796875 41.5 
L 32.28125 41.5 
Q 38.578125 41.5 41.3125 42.328125 
Q 44.921875 43.40625 46.75 45.890625 
Q 48.578125 48.390625 48.578125 52.15625 
Q 48.578125 55.71875 46.875 58.421875 
Q 45.171875 61.140625 41.984375 62.140625 
Q 38.8125 63.140625 31.109375 63.140625 
L 16.796875 63.140625 
z
M 16.796875 8.453125 
L 34.625 8.453125 
Q 39.203125 8.453125 41.0625 8.796875 
Q 44.34375 9.375 46.53125 10.734375 
Q 48.734375 12.109375 50.140625 14.71875 
Q 51.5625 17.328125 51.5625 20.75 
Q 51.5625 24.75 49.515625 27.703125 
Q 47.46875 30.671875 43.828125 31.859375 
Q 40.1875 33.0625 33.34375 33.0625 
L 16.796875 33.0625 
z
" id="ArialMT-66"/>
      <path d="M 4.984375 -4.296875 
L 13.53125 -5.5625 
Q 14.0625 -9.515625 16.5 -11.328125 
Q 19.78125 -13.765625 25.4375 -13.765625 
Q 31.546875 -13.765625 34.859375 -11.328125 
Q 38.1875 -8.890625 39.359375 -4.5 
Q 40.046875 -1.8125 39.984375 6.78125 
Q 34.234375 0 25.640625 0 
Q 14.9375 0 9.078125 7.71875 
Q 3.21875 15.4375 3.21875 26.21875 
Q 3.21875 33.640625 5.90625 39.90625 
Q 8.59375 46.1875 13.6875 49.609375 
Q 18.796875 53.03125 25.6875 53.03125 
Q 34.859375 53.03125 40.828125 45.609375 
L 40.828125 51.859375 
L 48.921875 51.859375 
L 48.921875 7.03125 
Q 48.921875 -5.078125 46.453125 -10.125 
Q 44 -15.1875 38.640625 -18.109375 
Q 33.296875 -21.046875 25.484375 -21.046875 
Q 16.21875 -21.046875 10.5 -16.875 
Q 4.78125 -12.703125 4.984375 -4.296875 
z
M 12.25 26.859375 
Q 12.25 16.65625 16.296875 11.96875 
Q 20.359375 7.28125 26.46875 7.28125 
Q 32.515625 7.28125 36.609375 11.9375 
Q 40.71875 16.609375 40.71875 26.5625 
Q 40.71875 36.078125 36.5 40.90625 
Q 32.28125 45.75 26.3125 45.75 
Q 20.453125 45.75 16.34375 40.984375 
Q 12.25 36.234375 12.25 26.859375 
z
" id="ArialMT-103"/>
     </defs>
     <g style="fill:#262626;" transform="translate(360.969702 39.562969)scale(0.11 -0.11)">
      <use xlink:href="#ArialMT-66"/>
      <use x="66.699219" xlink:href="#ArialMT-101"/>
      <use x="122.314453" xlink:href="#ArialMT-110"/>
      <use x="177.929688" xlink:href="#ArialMT-105"/>
      <use x="200.146484" xlink:href="#ArialMT-103"/>
      <use x="255.761719" xlink:href="#ArialMT-110"/>
     </g>
    </g>
    <g id="patch_34">
     <path d="M 330.169702 55.251719 
L 352.169702 55.251719 
L 352.169702 47.551719 
L 330.169702 47.551719 
z
" style="fill:#ff7c00;opacity:0.4;stroke:#ffffff;stroke-linejoin:miter;"/>
    </g>
    <g id="text_15">
     <!-- Malignant -->
     <g style="fill:#262626;" transform="translate(360.969702 55.251719)scale(0.11 -0.11)">
      <use xlink:href="#ArialMT-77"/>
      <use x="83.300781" xlink:href="#ArialMT-97"/>
      <use x="138.916016" xlink:href="#ArialMT-108"/>
      <use x="161.132812" xlink:href="#ArialMT-105"/>
      <use x="183.349609" xlink:href="#ArialMT-103"/>
      <use x="238.964844" xlink:href="#ArialMT-110"/>
      <use x="294.580078" xlink:href="#ArialMT-97"/>
      <use x="350.195312" xlink:href="#ArialMT-110"/>
      <use x="405.810547" xlink:href="#ArialMT-116"/>
     </g>
    </g>
   </g>
  </g>
  <g id="axes_2">
   <g id="patch_35">
    <path d="M 494.652486 293.589375 
L 875.107031 293.589375 
L 875.107031 21.789375 
L 494.652486 21.789375 
z
" style="fill:#ffffff;"/>
   </g>
   <g id="matplotlib.axis_3">
    <g id="xtick_7">
     <g id="line2d_14">
      <path clip-path="url(#p86aee06197)" d="M 502.111172 293.589375 
L 502.111172 21.789375 
" style="fill:none;stroke:#cccccc;stroke-linecap:round;"/>
     </g>
     <g id="text_16">
      <!-- 5 -->
      <g style="fill:#262626;" transform="translate(499.052656 310.962969)scale(0.11 -0.11)">
       <use xlink:href="#ArialMT-53"/>
      </g>
     </g>
    </g>
    <g id="xtick_8">
     <g id="line2d_15">
      <path clip-path="url(#p86aee06197)" d="M 551.9269 293.589375 
L 551.9269 21.789375 
" style="fill:none;stroke:#cccccc;stroke-linecap:round;"/>
     </g>
     <g id="text_17">
      <!-- 10 -->
      <g style="fill:#262626;" transform="translate(545.809869 310.962969)scale(0.11 -0.11)">
       <use xlink:href="#ArialMT-49"/>
       <use x="55.615234" xlink:href="#ArialMT-48"/>
      </g>
     </g>
    </g>
    <g id="xtick_9">
     <g id="line2d_16">
      <path clip-path="url(#p86aee06197)" d="M 601.742628 293.589375 
L 601.742628 21.789375 
" style="fill:none;stroke:#cccccc;stroke-linecap:round;"/>
     </g>
     <g id="text_18">
      <!-- 15 -->
      <g style="fill:#262626;" transform="translate(595.625597 310.962969)scale(0.11 -0.11)">
       <use xlink:href="#ArialMT-49"/>
       <use x="55.615234" xlink:href="#ArialMT-53"/>
      </g>
     </g>
    </g>
    <g id="xtick_10">
     <g id="line2d_17">
      <path clip-path="url(#p86aee06197)" d="M 651.558357 293.589375 
L 651.558357 21.789375 
" style="fill:none;stroke:#cccccc;stroke-linecap:round;"/>
     </g>
     <g id="text_19">
      <!-- 20 -->
      <g style="fill:#262626;" transform="translate(645.441325 310.962969)scale(0.11 -0.11)">
       <use xlink:href="#ArialMT-50"/>
       <use x="55.615234" xlink:href="#ArialMT-48"/>
      </g>
     </g>
    </g>
    <g id="xtick_11">
     <g id="line2d_18">
      <path clip-path="url(#p86aee06197)" d="M 701.374085 293.589375 
L 701.374085 21.789375 
" style="fill:none;stroke:#cccccc;stroke-linecap:round;"/>
     </g>
     <g id="text_20">
      <!-- 25 -->
      <g style="fill:#262626;" transform="translate(695.257054 310.962969)scale(0.11 -0.11)">
       <use xlink:href="#ArialMT-50"/>
       <use x="55.615234" xlink:href="#ArialMT-53"/>
      </g>
     </g>
    </g>
    <g id="xtick_12">
     <g id="line2d_19">
      <path clip-path="url(#p86aee06197)" d="M 751.189813 293.589375 
L 751.189813 21.789375 
" style="fill:none;stroke:#cccccc;stroke-linecap:round;"/>
     </g>
     <g id="text_21">
      <!-- 30 -->
      <g style="fill:#262626;" transform="translate(745.072782 310.962969)scale(0.11 -0.11)">
       <use xlink:href="#ArialMT-51"/>
       <use x="55.615234" xlink:href="#ArialMT-48"/>
      </g>
     </g>
    </g>
    <g id="xtick_13">
     <g id="line2d_20">
      <path clip-path="url(#p86aee06197)" d="M 801.005542 293.589375 
L 801.005542 21.789375 
" style="fill:none;stroke:#cccccc;stroke-linecap:round;"/>
     </g>
     <g id="text_22">
      <!-- 35 -->
      <g style="fill:#262626;" transform="translate(794.88851 310.962969)scale(0.11 -0.11)">
       <use xlink:href="#ArialMT-51"/>
       <use x="55.615234" xlink:href="#ArialMT-53"/>
      </g>
     </g>
    </g>
    <g id="xtick_14">
     <g id="line2d_21">
      <path clip-path="url(#p86aee06197)" d="M 850.82127 293.589375 
L 850.82127 21.789375 
" style="fill:none;stroke:#cccccc;stroke-linecap:round;"/>
     </g>
     <g id="text_23">
      <!-- 40 -->
      <defs>
       <path d="M 32.328125 0 
L 32.328125 17.140625 
L 1.265625 17.140625 
L 1.265625 25.203125 
L 33.9375 71.578125 
L 41.109375 71.578125 
L 41.109375 25.203125 
L 50.78125 25.203125 
L 50.78125 17.140625 
L 41.109375 17.140625 
L 41.109375 0 
z
M 32.328125 25.203125 
L 32.328125 57.46875 
L 9.90625 25.203125 
z
" id="ArialMT-52"/>
      </defs>
      <g style="fill:#262626;" transform="translate(844.704239 310.962969)scale(0.11 -0.11)">
       <use xlink:href="#ArialMT-52"/>
       <use x="55.615234" xlink:href="#ArialMT-48"/>
      </g>
     </g>
    </g>
    <g id="text_24">
     <!-- worst radius -->
     <defs>
      <path d="M 16.15625 0 
L 0.296875 51.859375 
L 9.375 51.859375 
L 17.625 21.921875 
L 20.703125 10.796875 
Q 20.90625 11.625 23.390625 21.484375 
L 31.640625 51.859375 
L 40.671875 51.859375 
L 48.4375 21.78125 
L 51.03125 11.859375 
L 54 21.875 
L 62.890625 51.859375 
L 71.4375 51.859375 
L 55.21875 0 
L 46.09375 0 
L 37.84375 31.0625 
L 35.84375 39.890625 
L 25.34375 0 
z
" id="ArialMT-119"/>
     </defs>
     <g style="fill:#262626;" transform="translate(652.537884 325.738594)scale(0.12 -0.12)">
      <use xlink:href="#ArialMT-119"/>
      <use x="72.216797" xlink:href="#ArialMT-111"/>
      <use x="127.832031" xlink:href="#ArialMT-114"/>
      <use x="161.132812" xlink:href="#ArialMT-115"/>
      <use x="211.132812" xlink:href="#ArialMT-116"/>
      <use x="238.916016" xlink:href="#ArialMT-32"/>
      <use x="266.699219" xlink:href="#ArialMT-114"/>
      <use x="300" xlink:href="#ArialMT-97"/>
      <use x="355.615234" xlink:href="#ArialMT-100"/>
      <use x="411.230469" xlink:href="#ArialMT-105"/>
      <use x="433.447266" xlink:href="#ArialMT-117"/>
      <use x="489.0625" xlink:href="#ArialMT-115"/>
     </g>
    </g>
   </g>
   <g id="matplotlib.axis_4">
    <g id="ytick_6">
     <g id="line2d_22">
      <path clip-path="url(#p86aee06197)" d="M 494.652486 293.589375 
L 875.107031 293.589375 
" style="fill:none;stroke:#cccccc;stroke-linecap:round;"/>
     </g>
     <g id="text_25">
      <!-- 0.000 -->
      <g style="fill:#262626;" transform="translate(457.628423 297.526172)scale(0.11 -0.11)">
       <use xlink:href="#ArialMT-48"/>
       <use x="55.615234" xlink:href="#ArialMT-46"/>
       <use x="83.398438" xlink:href="#ArialMT-48"/>
       <use x="139.013672" xlink:href="#ArialMT-48"/>
       <use x="194.628906" xlink:href="#ArialMT-48"/>
      </g>
     </g>
    </g>
    <g id="ytick_7">
     <g id="line2d_23">
      <path clip-path="url(#p86aee06197)" d="M 494.652486 261.665691 
L 875.107031 261.665691 
" style="fill:none;stroke:#cccccc;stroke-linecap:round;"/>
     </g>
     <g id="text_26">
      <!-- 0.025 -->
      <g style="fill:#262626;" transform="translate(457.628423 265.602488)scale(0.11 -0.11)">
       <use xlink:href="#ArialMT-48"/>
       <use x="55.615234" xlink:href="#ArialMT-46"/>
       <use x="83.398438" xlink:href="#ArialMT-48"/>
       <use x="139.013672" xlink:href="#ArialMT-50"/>
       <use x="194.628906" xlink:href="#ArialMT-53"/>
      </g>
     </g>
    </g>
    <g id="ytick_8">
     <g id="line2d_24">
      <path clip-path="url(#p86aee06197)" d="M 494.652486 229.742007 
L 875.107031 229.742007 
" style="fill:none;stroke:#cccccc;stroke-linecap:round;"/>
     </g>
     <g id="text_27">
      <!-- 0.050 -->
      <g style="fill:#262626;" transform="translate(457.628423 233.678804)scale(0.11 -0.11)">
       <use xlink:href="#ArialMT-48"/>
       <use x="55.615234" xlink:href="#ArialMT-46"/>
       <use x="83.398438" xlink:href="#ArialMT-48"/>
       <use x="139.013672" xlink:href="#ArialMT-53"/>
       <use x="194.628906" xlink:href="#ArialMT-48"/>
      </g>
     </g>
    </g>
    <g id="ytick_9">
     <g id="line2d_25">
      <path clip-path="url(#p86aee06197)" d="M 494.652486 197.818323 
L 875.107031 197.818323 
" style="fill:none;stroke:#cccccc;stroke-linecap:round;"/>
     </g>
     <g id="text_28">
      <!-- 0.075 -->
      <defs>
       <path d="M 4.734375 62.203125 
L 4.734375 70.65625 
L 51.078125 70.65625 
L 51.078125 63.8125 
Q 44.234375 56.546875 37.515625 44.484375 
Q 30.8125 32.421875 27.15625 19.671875 
Q 24.515625 10.6875 23.78125 0 
L 14.75 0 
Q 14.890625 8.453125 18.0625 20.40625 
Q 21.234375 32.375 27.171875 43.484375 
Q 33.109375 54.59375 39.796875 62.203125 
z
" id="ArialMT-55"/>
      </defs>
      <g style="fill:#262626;" transform="translate(457.628423 201.75512)scale(0.11 -0.11)">
       <use xlink:href="#ArialMT-48"/>
       <use x="55.615234" xlink:href="#ArialMT-46"/>
       <use x="83.398438" xlink:href="#ArialMT-48"/>
       <use x="139.013672" xlink:href="#ArialMT-55"/>
       <use x="194.628906" xlink:href="#ArialMT-53"/>
      </g>
     </g>
    </g>
    <g id="ytick_10">
     <g id="line2d_26">
      <path clip-path="url(#p86aee06197)" d="M 494.652486 165.894639 
L 875.107031 165.894639 
" style="fill:none;stroke:#cccccc;stroke-linecap:round;"/>
     </g>
     <g id="text_29">
      <!-- 0.100 -->
      <g style="fill:#262626;" transform="translate(457.628423 169.831436)scale(0.11 -0.11)">
       <use xlink:href="#ArialMT-48"/>
       <use x="55.615234" xlink:href="#ArialMT-46"/>
       <use x="83.398438" xlink:href="#ArialMT-49"/>
       <use x="139.013672" xlink:href="#ArialMT-48"/>
       <use x="194.628906" xlink:href="#ArialMT-48"/>
      </g>
     </g>
    </g>
    <g id="ytick_11">
     <g id="line2d_27">
      <path clip-path="url(#p86aee06197)" d="M 494.652486 133.970955 
L 875.107031 133.970955 
" style="fill:none;stroke:#cccccc;stroke-linecap:round;"/>
     </g>
     <g id="text_30">
      <!-- 0.125 -->
      <g style="fill:#262626;" transform="translate(457.628423 137.907752)scale(0.11 -0.11)">
       <use xlink:href="#ArialMT-48"/>
       <use x="55.615234" xlink:href="#ArialMT-46"/>
       <use x="83.398438" xlink:href="#ArialMT-49"/>
       <use x="139.013672" xlink:href="#ArialMT-50"/>
       <use x="194.628906" xlink:href="#ArialMT-53"/>
      </g>
     </g>
    </g>
    <g id="ytick_12">
     <g id="line2d_28">
      <path clip-path="url(#p86aee06197)" d="M 494.652486 102.047271 
L 875.107031 102.047271 
" style="fill:none;stroke:#cccccc;stroke-linecap:round;"/>
     </g>
     <g id="text_31">
      <!-- 0.150 -->
      <g style="fill:#262626;" transform="translate(457.628423 105.984068)scale(0.11 -0.11)">
       <use xlink:href="#ArialMT-48"/>
       <use x="55.615234" xlink:href="#ArialMT-46"/>
       <use x="83.398438" xlink:href="#ArialMT-49"/>
       <use x="139.013672" xlink:href="#ArialMT-53"/>
       <use x="194.628906" xlink:href="#ArialMT-48"/>
      </g>
     </g>
    </g>
    <g id="ytick_13">
     <g id="line2d_29">
      <path clip-path="url(#p86aee06197)" d="M 494.652486 70.123587 
L 875.107031 70.123587 
" style="fill:none;stroke:#cccccc;stroke-linecap:round;"/>
     </g>
     <g id="text_32">
      <!-- 0.175 -->
      <g style="fill:#262626;" transform="translate(457.628423 74.060384)scale(0.11 -0.11)">
       <use xlink:href="#ArialMT-48"/>
       <use x="55.615234" xlink:href="#ArialMT-46"/>
       <use x="83.398438" xlink:href="#ArialMT-49"/>
       <use x="139.013672" xlink:href="#ArialMT-55"/>
       <use x="194.628906" xlink:href="#ArialMT-53"/>
      </g>
     </g>
    </g>
    <g id="ytick_14">
     <g id="line2d_30">
      <path clip-path="url(#p86aee06197)" d="M 494.652486 38.199903 
L 875.107031 38.199903 
" style="fill:none;stroke:#cccccc;stroke-linecap:round;"/>
     </g>
     <g id="text_33">
      <!-- 0.200 -->
      <g style="fill:#262626;" transform="translate(457.628423 42.1367)scale(0.11 -0.11)">
       <use xlink:href="#ArialMT-48"/>
       <use x="55.615234" xlink:href="#ArialMT-46"/>
       <use x="83.398438" xlink:href="#ArialMT-50"/>
       <use x="139.013672" xlink:href="#ArialMT-48"/>
       <use x="194.628906" xlink:href="#ArialMT-48"/>
      </g>
     </g>
    </g>
   </g>
   <g id="patch_36">
    <path clip-path="url(#p86aee06197)" d="M 531.303189 293.589375 
L 554.995549 293.589375 
L 554.995549 257.489627 
L 531.303189 257.489627 
z
" style="fill:#023eff;opacity:0.4;stroke:#ffffff;stroke-linejoin:miter;"/>
   </g>
   <g id="patch_37">
    <path clip-path="url(#p86aee06197)" d="M 554.995549 293.589375 
L 578.687909 293.589375 
L 578.687909 144.677914 
L 554.995549 144.677914 
z
" style="fill:#023eff;opacity:0.4;stroke:#ffffff;stroke-linejoin:miter;"/>
   </g>
   <g id="patch_38">
    <path clip-path="url(#p86aee06197)" d="M 578.687909 293.589375 
L 602.38027 293.589375 
L 602.38027 48.41192 
L 578.687909 48.41192 
z
" style="fill:#023eff;opacity:0.4;stroke:#ffffff;stroke-linejoin:miter;"/>
   </g>
   <g id="patch_39">
    <path clip-path="url(#p86aee06197)" d="M 602.38027 293.589375 
L 626.07263 293.589375 
L 626.07263 194.315068 
L 602.38027 194.315068 
z
" style="fill:#023eff;opacity:0.4;stroke:#ffffff;stroke-linejoin:miter;"/>
   </g>
   <g id="patch_40">
    <path clip-path="url(#p86aee06197)" d="M 626.07263 293.589375 
L 649.76499 293.589375 
L 649.76499 286.068594 
L 626.07263 286.068594 
z
" style="fill:#023eff;opacity:0.4;stroke:#ffffff;stroke-linejoin:miter;"/>
   </g>
   <g id="patch_41">
    <path clip-path="url(#p86aee06197)" d="M 580.222234 293.589375 
L 591.779483 293.589375 
L 591.779483 272.819249 
L 580.222234 272.819249 
z
" style="fill:#ff7c00;opacity:0.4;stroke:#ffffff;stroke-linejoin:miter;"/>
   </g>
   <g id="patch_42">
    <path clip-path="url(#p86aee06197)" d="M 591.779483 293.589375 
L 603.336732 293.589375 
L 603.336732 267.626717 
L 591.779483 267.626717 
z
" style="fill:#ff7c00;opacity:0.4;stroke:#ffffff;stroke-linejoin:miter;"/>
   </g>
   <g id="patch_43">
    <path clip-path="url(#p86aee06197)" d="M 603.336732 293.589375 
L 614.893981 293.589375 
L 614.893981 205.316338 
L 603.336732 205.316338 
z
" style="fill:#ff7c00;opacity:0.4;stroke:#ffffff;stroke-linejoin:miter;"/>
   </g>
   <g id="patch_44">
    <path clip-path="url(#p86aee06197)" d="M 614.893981 293.589375 
L 626.45123 293.589375 
L 626.45123 179.353681 
L 614.893981 179.353681 
z
" style="fill:#ff7c00;opacity:0.4;stroke:#ffffff;stroke-linejoin:miter;"/>
   </g>
   <g id="patch_45">
    <path clip-path="url(#p86aee06197)" d="M 626.45123 293.589375 
L 638.008479 293.589375 
L 638.008479 184.546212 
L 626.45123 184.546212 
z
" style="fill:#ff7c00;opacity:0.4;stroke:#ffffff;stroke-linejoin:miter;"/>
   </g>
   <g id="patch_46">
    <path clip-path="url(#p86aee06197)" d="M 638.008479 293.589375 
L 649.565728 293.589375 
L 649.565728 210.50887 
L 638.008479 210.50887 
z
" style="fill:#ff7c00;opacity:0.4;stroke:#ffffff;stroke-linejoin:miter;"/>
   </g>
   <g id="patch_47">
    <path clip-path="url(#p86aee06197)" d="M 649.565728 293.589375 
L 661.122977 293.589375 
L 661.122977 158.583554 
L 649.565728 158.583554 
z
" style="fill:#ff7c00;opacity:0.4;stroke:#ffffff;stroke-linejoin:miter;"/>
   </g>
   <g id="patch_48">
    <path clip-path="url(#p86aee06197)" d="M 661.122977 293.589375 
L 672.680226 293.589375 
L 672.680226 205.316338 
L 661.122977 205.316338 
z
" style="fill:#ff7c00;opacity:0.4;stroke:#ffffff;stroke-linejoin:miter;"/>
   </g>
   <g id="patch_49">
    <path clip-path="url(#p86aee06197)" d="M 672.680226 293.589375 
L 684.237474 293.589375 
L 684.237474 179.353681 
L 672.680226 179.353681 
z
" style="fill:#ff7c00;opacity:0.4;stroke:#ffffff;stroke-linejoin:miter;"/>
   </g>
   <g id="patch_50">
    <path clip-path="url(#p86aee06197)" d="M 684.237474 293.589375 
L 695.794723 293.589375 
L 695.794723 189.738744 
L 684.237474 189.738744 
z
" style="fill:#ff7c00;opacity:0.4;stroke:#ffffff;stroke-linejoin:miter;"/>
   </g>
   <g id="patch_51">
    <path clip-path="url(#p86aee06197)" d="M 695.794723 293.589375 
L 707.351972 293.589375 
L 707.351972 226.086465 
L 695.794723 226.086465 
z
" style="fill:#ff7c00;opacity:0.4;stroke:#ffffff;stroke-linejoin:miter;"/>
   </g>
   <g id="patch_52">
    <path clip-path="url(#p86aee06197)" d="M 707.351972 293.589375 
L 718.909221 293.589375 
L 718.909221 236.471528 
L 707.351972 236.471528 
z
" style="fill:#ff7c00;opacity:0.4;stroke:#ffffff;stroke-linejoin:miter;"/>
   </g>
   <g id="patch_53">
    <path clip-path="url(#p86aee06197)" d="M 718.909221 293.589375 
L 730.46647 293.589375 
L 730.46647 278.01178 
L 718.909221 278.01178 
z
" style="fill:#ff7c00;opacity:0.4;stroke:#ffffff;stroke-linejoin:miter;"/>
   </g>
   <g id="patch_54">
    <path clip-path="url(#p86aee06197)" d="M 730.46647 293.589375 
L 742.023719 293.589375 
L 742.023719 272.819249 
L 730.46647 272.819249 
z
" style="fill:#ff7c00;opacity:0.4;stroke:#ffffff;stroke-linejoin:miter;"/>
   </g>
   <g id="patch_55">
    <path clip-path="url(#p86aee06197)" d="M 742.023719 293.589375 
L 753.580968 293.589375 
L 753.580968 278.01178 
L 742.023719 278.01178 
z
" style="fill:#ff7c00;opacity:0.4;stroke:#ffffff;stroke-linejoin:miter;"/>
   </g>
   <g id="patch_56">
    <path clip-path="url(#p86aee06197)" d="M 753.580968 293.589375 
L 765.138217 293.589375 
L 765.138217 272.819249 
L 753.580968 272.819249 
z
" style="fill:#ff7c00;opacity:0.4;stroke:#ffffff;stroke-linejoin:miter;"/>
   </g>
   <g id="patch_57">
    <path clip-path="url(#p86aee06197)" d="M 765.138217 293.589375 
L 776.695466 293.589375 
L 776.695466 288.396843 
L 765.138217 288.396843 
z
" style="fill:#ff7c00;opacity:0.4;stroke:#ffffff;stroke-linejoin:miter;"/>
   </g>
   <g id="patch_58">
    <path clip-path="url(#p86aee06197)" d="M 776.695466 293.589375 
L 788.252715 293.589375 
L 788.252715 283.204312 
L 776.695466 283.204312 
z
" style="fill:#ff7c00;opacity:0.4;stroke:#ffffff;stroke-linejoin:miter;"/>
   </g>
   <g id="patch_59">
    <path clip-path="url(#p86aee06197)" d="M 788.252715 293.589375 
L 799.809964 293.589375 
L 799.809964 293.589375 
L 788.252715 293.589375 
z
" style="fill:#ff7c00;opacity:0.4;stroke:#ffffff;stroke-linejoin:miter;"/>
   </g>
   <g id="patch_60">
    <path clip-path="url(#p86aee06197)" d="M 799.809964 293.589375 
L 811.367213 293.589375 
L 811.367213 288.396843 
L 799.809964 288.396843 
z
" style="fill:#ff7c00;opacity:0.4;stroke:#ffffff;stroke-linejoin:miter;"/>
   </g>
   <g id="line2d_31">
    <path clip-path="url(#p86aee06197)" d="M 511.945874 293.547704 
L 516.896313 293.386357 
L 519.371532 293.133394 
L 521.846752 292.672198 
L 524.321971 291.913346 
L 525.559581 291.387985 
L 526.79719 290.74044 
L 528.0348 289.944987 
L 529.27241 288.968689 
L 530.51002 287.77144 
L 531.747629 286.307864 
L 532.985239 284.531314 
L 534.222849 282.399632 
L 535.460458 279.881734 
L 536.698068 276.963618 
L 537.935678 273.65226 
L 540.410897 265.981561 
L 542.886116 257.265487 
L 546.598946 243.027283 
L 549.074165 232.782507 
L 551.549384 221.576085 
L 554.024604 209.223131 
L 560.212652 177.049931 
L 562.687871 165.813832 
L 566.400701 150.01734 
L 567.63831 144.29425 
L 568.87592 138.000916 
L 570.11353 130.986788 
L 571.351139 123.169381 
L 573.826359 105.19868 
L 580.014407 55.943282 
L 581.252017 48.071704 
L 582.489627 41.770864 
L 583.727236 37.343354 
L 584.964846 34.979456 
L 586.202456 34.732232 
L 587.440065 36.510918 
L 588.677675 40.095204 
L 589.915285 45.168374 
L 591.152894 51.363191 
L 593.628114 65.690868 
L 603.528991 126.84318 
L 609.71704 166.343536 
L 613.429869 187.951083 
L 624.568356 250.40231 
L 625.805966 256.130595 
L 627.043575 261.326063 
L 628.281185 265.976601 
L 629.518795 270.096392 
L 630.756404 273.717738 
L 631.994014 276.882388 
L 633.231624 279.633922 
L 634.469233 282.012221 
L 635.706843 284.050461 
L 636.944453 285.774665 
L 638.182063 287.205401 
L 639.419672 288.360944 
L 640.657282 289.260975 
L 641.894892 289.929846 
L 643.132501 290.398558 
L 644.370111 290.704921 
L 646.84533 291.003633 
L 651.795769 291.421531 
L 655.508598 292.095301 
L 660.459037 293.021809 
L 664.171866 293.39948 
L 667.884695 293.53587 
L 669.122305 293.548076 
L 669.122305 293.548076 
" style="fill:none;stroke:#023eff;stroke-linecap:round;stroke-width:1.5;"/>
   </g>
   <g id="line2d_32">
    <path clip-path="url(#p86aee06197)" d="M 533.775804 293.541226 
L 541.430241 293.429096 
L 546.533199 293.219033 
L 551.636157 292.799088 
L 556.739115 292.03631 
L 559.290595 291.474216 
L 561.842074 290.759455 
L 564.393553 289.865199 
L 566.945032 288.762251 
L 569.496511 287.418687 
L 572.04799 285.799508 
L 574.599469 283.866587 
L 577.150948 281.579269 
L 579.702427 278.895997 
L 582.253906 275.777237 
L 584.805385 272.189751 
L 587.356864 268.111969 
L 589.908343 263.539869 
L 592.459822 258.492499 
L 595.011301 253.01614 
L 600.114259 241.10573 
L 607.768696 222.696789 
L 610.320175 216.987058 
L 612.871654 211.712498 
L 615.423134 206.972389 
L 617.974613 202.832161 
L 620.526092 199.319625 
L 623.077571 196.425191 
L 625.62905 194.106076 
L 628.180529 192.294009 
L 630.732008 190.90544 
L 633.283487 189.852864 
L 635.834966 189.05564 
L 638.386445 188.448686 
L 640.937924 187.987739 
L 643.489403 187.650446 
L 646.040882 187.433323 
L 648.592361 187.345459 
L 651.14384 187.400491 
L 653.695319 187.608756 
L 656.246798 187.97144 
L 658.798277 188.478062 
L 663.901235 189.83431 
L 669.004193 191.486844 
L 674.107152 193.378049 
L 676.658631 194.469072 
L 679.21011 195.720342 
L 681.761589 197.191712 
L 684.313068 198.94386 
L 686.864547 201.030378 
L 689.416026 203.490995 
L 691.967505 206.346778 
L 694.518984 209.597684 
L 697.070463 213.22235 
L 699.621942 217.179742 
L 704.7249 225.848912 
L 714.930816 244.018615 
L 717.482295 248.270284 
L 720.033774 252.272912 
L 722.585253 255.98159 
L 725.136732 259.36624 
L 727.688212 262.411489 
L 730.239691 265.115522 
L 732.79117 267.488208 
L 735.342649 269.54889 
L 737.894128 271.324165 
L 740.445607 272.845863 
L 742.997086 274.149285 
L 745.548565 275.271594 
L 750.651523 277.12138 
L 758.30596 279.396499 
L 788.923709 287.954475 
L 794.026667 289.067693 
L 799.129625 289.967167 
L 804.232583 290.656154 
L 811.88702 291.413408 
L 827.195894 292.61508 
L 837.40181 293.201048 
L 847.607727 293.483472 
L 857.813643 293.549328 
L 857.813643 293.549328 
" style="fill:none;stroke:#ff7c00;stroke-linecap:round;stroke-width:1.5;"/>
   </g>
   <g id="patch_61">
    <path d="M 494.652486 293.589375 
L 494.652486 21.789375 
" style="fill:none;stroke:#cccccc;stroke-linecap:square;stroke-linejoin:miter;stroke-width:1.25;"/>
   </g>
   <g id="patch_62">
    <path d="M 875.107031 293.589375 
L 875.107031 21.789375 
" style="fill:none;stroke:#cccccc;stroke-linecap:square;stroke-linejoin:miter;stroke-width:1.25;"/>
   </g>
   <g id="patch_63">
    <path d="M 494.652486 293.589375 
L 875.107031 293.589375 
" style="fill:none;stroke:#cccccc;stroke-linecap:square;stroke-linejoin:miter;stroke-width:1.25;"/>
   </g>
   <g id="patch_64">
    <path d="M 494.652486 21.789375 
L 875.107031 21.789375 
" style="fill:none;stroke:#cccccc;stroke-linecap:square;stroke-linejoin:miter;stroke-width:1.25;"/>
   </g>
   <g id="text_34">
    <!-- Worst Cell Radius Distribution -->
    <defs>
     <path d="M 20.21875 0 
L 1.21875 71.578125 
L 10.9375 71.578125 
L 21.828125 24.65625 
Q 23.578125 17.28125 24.859375 10.015625 
Q 27.59375 21.484375 28.078125 23.25 
L 41.703125 71.578125 
L 53.125 71.578125 
L 63.375 35.359375 
Q 67.234375 21.875 68.953125 10.015625 
Q 70.3125 16.796875 72.515625 25.59375 
L 83.734375 71.578125 
L 93.265625 71.578125 
L 73.640625 0 
L 64.5 0 
L 49.421875 54.546875 
Q 47.515625 61.375 47.171875 62.9375 
Q 46.046875 58.015625 45.0625 54.546875 
L 29.890625 0 
z
" id="ArialMT-87"/>
    </defs>
    <g style="fill:#262626;" transform="translate(605.193196 15.789375)scale(0.12 -0.12)">
     <use xlink:href="#ArialMT-87"/>
     <use x="94.369141" xlink:href="#ArialMT-111"/>
     <use x="149.984375" xlink:href="#ArialMT-114"/>
     <use x="183.285156" xlink:href="#ArialMT-115"/>
     <use x="233.285156" xlink:href="#ArialMT-116"/>
     <use x="261.068359" xlink:href="#ArialMT-32"/>
     <use x="288.851562" xlink:href="#ArialMT-67"/>
     <use x="361.068359" xlink:href="#ArialMT-101"/>
     <use x="416.683594" xlink:href="#ArialMT-108"/>
     <use x="438.900391" xlink:href="#ArialMT-108"/>
     <use x="461.117188" xlink:href="#ArialMT-32"/>
     <use x="488.900391" xlink:href="#ArialMT-82"/>
     <use x="561.117188" xlink:href="#ArialMT-97"/>
     <use x="616.732422" xlink:href="#ArialMT-100"/>
     <use x="672.347656" xlink:href="#ArialMT-105"/>
     <use x="694.564453" xlink:href="#ArialMT-117"/>
     <use x="750.179688" xlink:href="#ArialMT-115"/>
     <use x="800.179688" xlink:href="#ArialMT-32"/>
     <use x="827.962891" xlink:href="#ArialMT-68"/>
     <use x="900.179688" xlink:href="#ArialMT-105"/>
     <use x="922.396484" xlink:href="#ArialMT-115"/>
     <use x="972.396484" xlink:href="#ArialMT-116"/>
     <use x="1000.179688" xlink:href="#ArialMT-114"/>
     <use x="1033.480469" xlink:href="#ArialMT-105"/>
     <use x="1055.697266" xlink:href="#ArialMT-98"/>
     <use x="1111.3125" xlink:href="#ArialMT-117"/>
     <use x="1166.927734" xlink:href="#ArialMT-116"/>
     <use x="1194.710938" xlink:href="#ArialMT-105"/>
     <use x="1216.927734" xlink:href="#ArialMT-111"/>
     <use x="1272.542969" xlink:href="#ArialMT-110"/>
    </g>
   </g>
   <g id="legend_2">
    <g id="patch_65">
     <path d="M 784.515156 61.966875 
L 867.407031 61.966875 
Q 869.607031 61.966875 869.607031 59.766875 
L 869.607031 29.489375 
Q 869.607031 27.289375 867.407031 27.289375 
L 784.515156 27.289375 
Q 782.315156 27.289375 782.315156 29.489375 
L 782.315156 59.766875 
Q 782.315156 61.966875 784.515156 61.966875 
z
" style="fill:#ffffff;opacity:0.8;stroke:#cccccc;stroke-linejoin:miter;"/>
    </g>
    <g id="patch_66">
     <path d="M 786.715156 39.562969 
L 808.715156 39.562969 
L 808.715156 31.862969 
L 786.715156 31.862969 
z
" style="fill:#023eff;opacity:0.4;stroke:#ffffff;stroke-linejoin:miter;"/>
    </g>
    <g id="text_35">
     <!-- Benign -->
     <g style="fill:#262626;" transform="translate(817.515156 39.562969)scale(0.11 -0.11)">
      <use xlink:href="#ArialMT-66"/>
      <use x="66.699219" xlink:href="#ArialMT-101"/>
      <use x="122.314453" xlink:href="#ArialMT-110"/>
      <use x="177.929688" xlink:href="#ArialMT-105"/>
      <use x="200.146484" xlink:href="#ArialMT-103"/>
      <use x="255.761719" xlink:href="#ArialMT-110"/>
     </g>
    </g>
    <g id="patch_67">
     <path d="M 786.715156 55.251719 
L 808.715156 55.251719 
L 808.715156 47.551719 
L 786.715156 47.551719 
z
" style="fill:#ff7c00;opacity:0.4;stroke:#ffffff;stroke-linejoin:miter;"/>
    </g>
    <g id="text_36">
     <!-- Malignant -->
     <g style="fill:#262626;" transform="translate(817.515156 55.251719)scale(0.11 -0.11)">
      <use xlink:href="#ArialMT-77"/>
      <use x="83.300781" xlink:href="#ArialMT-97"/>
      <use x="138.916016" xlink:href="#ArialMT-108"/>
      <use x="161.132812" xlink:href="#ArialMT-105"/>
      <use x="183.349609" xlink:href="#ArialMT-103"/>
      <use x="238.964844" xlink:href="#ArialMT-110"/>
      <use x="294.580078" xlink:href="#ArialMT-97"/>
      <use x="350.195312" xlink:href="#ArialMT-110"/>
      <use x="405.810547" xlink:href="#ArialMT-116"/>
     </g>
    </g>
   </g>
  </g>
 </g>
 <defs>
  <clipPath id="pda41b1df49">
   <rect height="271.8" width="380.454545" x="38.107031" y="21.789375"/>
  </clipPath>
  <clipPath id="p86aee06197">
   <rect height="271.8" width="380.454545" x="494.652486" y="21.789375"/>
  </clipPath>
 </defs>
</svg>
