<?xml version="1.0" encoding="UTF-8" standalone="no"?>
<!DOCTYPE svg PUBLIC "-//W3C//DTD SVG 1.1//EN"
 "http://www.w3.org/Graphics/SVG/1.1/DTD/svg11.dtd">
<!-- Generated by graphviz version 2.40.1 (20161225.0304)
 -->
<!-- Title: Tree Pages: 1 -->
<svg width="1094pt" height="373pt"
 viewBox="0.00 0.00 1094.00 373.00" xmlns="http://www.w3.org/2000/svg" xmlns:xlink="http://www.w3.org/1999/xlink">
<g id="graph0" class="graph" transform="scale(1 1) rotate(0) translate(4 369)">
<title>Tree</title>
<polygon fill="#ffffff" stroke="transparent" points="-4,4 -4,-369 1090,-369 1090,4 -4,4"/>
<!-- 0 -->
<g id="node1" class="node">
<title>0</title>
<path fill="none" stroke="#000000" d="M605,-365C605,-365 497,-365 497,-365 491,-365 485,-359 485,-353 485,-353 485,-309 485,-309 485,-303 491,-297 497,-297 497,-297 605,-297 605,-297 611,-297 617,-303 617,-309 617,-309 617,-353 617,-353 617,-359 611,-365 605,-365"/>
<text text-anchor="start" x="521" y="-349.8" font-family="Helvetica,sans-Serif" font-size="14.00" fill="#000000">BMI ≤ 0.0</text>
<text text-anchor="start" x="508" y="-334.8" font-family="Helvetica,sans-Serif" font-size="14.00" fill="#000000">mse = 6076.4</text>
<text text-anchor="start" x="493" y="-319.8" font-family="Helvetica,sans-Serif" font-size="14.00" fill="#000000">samples = 100.0%</text>
<text text-anchor="start" x="508.5" y="-304.8" font-family="Helvetica,sans-Serif" font-size="14.00" fill="#000000">value = 153.7</text>
</g>
<!-- 1 -->
<g id="node2" class="node">
<title>1</title>
<path fill="none" stroke="#000000" d="M463,-261C463,-261 363,-261 363,-261 357,-261 351,-255 351,-249 351,-249 351,-205 351,-205 351,-199 357,-193 363,-193 363,-193 463,-193 463,-193 469,-193 475,-199 475,-205 475,-205 475,-249 475,-249 475,-255 469,-261 463,-261"/>
<text text-anchor="start" x="363.5" y="-245.8" font-family="Helvetica,sans-Serif" font-size="14.00" fill="#000000">Glaucoma ≤ 0.0</text>
<text text-anchor="start" x="370" y="-230.8" font-family="Helvetica,sans-Serif" font-size="14.00" fill="#000000">mse = 3612.7</text>
<text text-anchor="start" x="359" y="-215.8" font-family="Helvetica,sans-Serif" font-size="14.00" fill="#000000">samples = 59.2%</text>
<text text-anchor="start" x="370.5" y="-200.8" font-family="Helvetica,sans-Serif" font-size="14.00" fill="#000000">value = 118.0</text>
</g>
<!-- 0&#45;&gt;1 -->
<g id="edge1" class="edge">
<title>0&#45;&gt;1</title>
<path fill="none" stroke="#000000" d="M505.8136,-296.9465C493.185,-287.4293 479.3433,-276.9978 466.2932,-267.163"/>
<polygon fill="#000000" stroke="#000000" points="468.3805,-264.3534 458.2879,-261.13 464.1675,-269.9437 468.3805,-264.3534"/>
<text text-anchor="middle" x="461.7661" y="-282.1869" font-family="Helvetica,sans-Serif" font-size="14.00" fill="#000000">True</text>
</g>
<!-- 8 -->
<g id="node9" class="node">
<title>8</title>
<path fill="none" stroke="#000000" d="M739,-261C739,-261 639,-261 639,-261 633,-261 627,-255 627,-249 627,-249 627,-205 627,-205 627,-199 633,-193 639,-193 639,-193 739,-193 739,-193 745,-193 751,-199 751,-205 751,-205 751,-249 751,-249 751,-255 745,-261 739,-261"/>
<text text-anchor="start" x="659" y="-245.8" font-family="Helvetica,sans-Serif" font-size="14.00" fill="#000000">BMI ≤ 0.1</text>
<text text-anchor="start" x="646" y="-230.8" font-family="Helvetica,sans-Serif" font-size="14.00" fill="#000000">mse = 5119.3</text>
<text text-anchor="start" x="635" y="-215.8" font-family="Helvetica,sans-Serif" font-size="14.00" fill="#000000">samples = 40.8%</text>
<text text-anchor="start" x="646.5" y="-200.8" font-family="Helvetica,sans-Serif" font-size="14.00" fill="#000000">value = 205.5</text>
</g>
<!-- 0&#45;&gt;8 -->
<g id="edge8" class="edge">
<title>0&#45;&gt;8</title>
<path fill="none" stroke="#000000" d="M596.1864,-296.9465C608.815,-287.4293 622.6567,-276.9978 635.7068,-267.163"/>
<polygon fill="#000000" stroke="#000000" points="637.8325,-269.9437 643.7121,-261.13 633.6195,-264.3534 637.8325,-269.9437"/>
<text text-anchor="middle" x="640.2339" y="-282.1869" font-family="Helvetica,sans-Serif" font-size="14.00" fill="#000000">False</text>
</g>
<!-- 2 -->
<g id="node3" class="node">
<title>2</title>
<path fill="none" stroke="#000000" d="M254,-157C254,-157 154,-157 154,-157 148,-157 142,-151 142,-145 142,-145 142,-101 142,-101 142,-95 148,-89 154,-89 154,-89 254,-89 254,-89 260,-89 266,-95 266,-101 266,-101 266,-145 266,-145 266,-151 260,-157 254,-157"/>
<text text-anchor="start" x="152" y="-141.8" font-family="Helvetica,sans-Serif" font-size="14.00" fill="#000000">Glaucoma ≤ &#45;0.0</text>
<text text-anchor="start" x="161" y="-126.8" font-family="Helvetica,sans-Serif" font-size="14.00" fill="#000000">mse = 2378.3</text>
<text text-anchor="start" x="150" y="-111.8" font-family="Helvetica,sans-Serif" font-size="14.00" fill="#000000">samples = 43.1%</text>
<text text-anchor="start" x="161.5" y="-96.8" font-family="Helvetica,sans-Serif" font-size="14.00" fill="#000000">value = 100.6</text>
</g>
<!-- 1&#45;&gt;2 -->
<g id="edge2" class="edge">
<title>1&#45;&gt;2</title>
<path fill="none" stroke="#000000" d="M350.859,-196.0782C327.1724,-184.2915 299.9907,-170.7657 275.5029,-158.5804"/>
<polygon fill="#000000" stroke="#000000" points="276.7746,-155.3038 266.2625,-153.9823 273.6561,-161.5708 276.7746,-155.3038"/>
</g>
<!-- 5 -->
<g id="node6" class="node">
<title>5</title>
<path fill="none" stroke="#000000" d="M463,-157C463,-157 363,-157 363,-157 357,-157 351,-151 351,-145 351,-145 351,-101 351,-101 351,-95 357,-89 363,-89 363,-89 463,-89 463,-89 469,-89 475,-95 475,-101 475,-101 475,-145 475,-145 475,-151 469,-157 463,-157"/>
<text text-anchor="start" x="372" y="-141.8" font-family="Helvetica,sans-Serif" font-size="14.00" fill="#000000">Thyroid ≤ 0.1</text>
<text text-anchor="start" x="370" y="-126.8" font-family="Helvetica,sans-Serif" font-size="14.00" fill="#000000">mse = 3915.5</text>
<text text-anchor="start" x="359" y="-111.8" font-family="Helvetica,sans-Serif" font-size="14.00" fill="#000000">samples = 16.1%</text>
<text text-anchor="start" x="370.5" y="-96.8" font-family="Helvetica,sans-Serif" font-size="14.00" fill="#000000">value = 164.7</text>
</g>
<!-- 1&#45;&gt;5 -->
<g id="edge5" class="edge">
<title>1&#45;&gt;5</title>
<path fill="none" stroke="#000000" d="M413,-192.9465C413,-184.776 413,-175.9318 413,-167.3697"/>
<polygon fill="#000000" stroke="#000000" points="416.5001,-167.13 413,-157.13 409.5001,-167.13 416.5001,-167.13"/>
</g>
<!-- 3 -->
<g id="node4" class="node">
<title>3</title>
<path fill="none" stroke="#000000" d="M112,-53C112,-53 12,-53 12,-53 6,-53 0,-47 0,-41 0,-41 0,-12 0,-12 0,-6 6,0 12,0 12,0 112,0 112,0 118,0 124,-6 124,-12 124,-12 124,-41 124,-41 124,-47 118,-53 112,-53"/>
<text text-anchor="start" x="19" y="-37.8" font-family="Helvetica,sans-Serif" font-size="14.00" fill="#000000">mse = 1425.4</text>
<text text-anchor="start" x="8" y="-22.8" font-family="Helvetica,sans-Serif" font-size="14.00" fill="#000000">samples = 13.9%</text>
<text text-anchor="start" x="23.5" y="-7.8" font-family="Helvetica,sans-Serif" font-size="14.00" fill="#000000">value = 80.9</text>
</g>
<!-- 2&#45;&gt;3 -->
<g id="edge3" class="edge">
<title>2&#45;&gt;3</title>
<path fill="none" stroke="#000000" d="M153.9361,-88.9777C139.6531,-79.2713 124.1287,-68.7213 109.9737,-59.1018"/>
<polygon fill="#000000" stroke="#000000" points="111.5986,-55.9744 101.3605,-53.2485 107.6641,-61.764 111.5986,-55.9744"/>
</g>
<!-- 4 -->
<g id="node5" class="node">
<title>4</title>
<path fill="none" stroke="#000000" d="M254,-53C254,-53 154,-53 154,-53 148,-53 142,-47 142,-41 142,-41 142,-12 142,-12 142,-6 148,0 154,0 154,0 254,0 254,0 260,0 266,-6 266,-12 266,-12 266,-41 266,-41 266,-47 260,-53 254,-53"/>
<text text-anchor="start" x="161" y="-37.8" font-family="Helvetica,sans-Serif" font-size="14.00" fill="#000000">mse = 2559.7</text>
<text text-anchor="start" x="150" y="-22.8" font-family="Helvetica,sans-Serif" font-size="14.00" fill="#000000">samples = 29.2%</text>
<text text-anchor="start" x="161.5" y="-7.8" font-family="Helvetica,sans-Serif" font-size="14.00" fill="#000000">value = 109.9</text>
</g>
<!-- 2&#45;&gt;4 -->
<g id="edge4" class="edge">
<title>2&#45;&gt;4</title>
<path fill="none" stroke="#000000" d="M204,-88.9777C204,-80.7364 204,-71.887 204,-63.5153"/>
<polygon fill="#000000" stroke="#000000" points="207.5001,-63.2484 204,-53.2485 200.5001,-63.2485 207.5001,-63.2484"/>
</g>
<!-- 6 -->
<g id="node7" class="node">
<title>6</title>
<path fill="none" stroke="#000000" d="M396,-53C396,-53 296,-53 296,-53 290,-53 284,-47 284,-41 284,-41 284,-12 284,-12 284,-6 290,0 296,0 296,0 396,0 396,0 402,0 408,-6 408,-12 408,-12 408,-41 408,-41 408,-47 402,-53 396,-53"/>
<text text-anchor="start" x="303" y="-37.8" font-family="Helvetica,sans-Serif" font-size="14.00" fill="#000000">mse = 3601.6</text>
<text text-anchor="start" x="292" y="-22.8" font-family="Helvetica,sans-Serif" font-size="14.00" fill="#000000">samples = 15.3%</text>
<text text-anchor="start" x="303.5" y="-7.8" font-family="Helvetica,sans-Serif" font-size="14.00" fill="#000000">value = 159.6</text>
</g>
<!-- 5&#45;&gt;6 -->
<g id="edge6" class="edge">
<title>5&#45;&gt;6</title>
<path fill="none" stroke="#000000" d="M389.3783,-88.9777C383.2113,-80.0954 376.5539,-70.5067 370.3499,-61.5711"/>
<polygon fill="#000000" stroke="#000000" points="373.1497,-59.4666 364.5715,-53.2485 367.3997,-63.4589 373.1497,-59.4666"/>
</g>
<!-- 7 -->
<g id="node8" class="node">
<title>7</title>
<path fill="none" stroke="#000000" d="M530,-53C530,-53 438,-53 438,-53 432,-53 426,-47 426,-41 426,-41 426,-12 426,-12 426,-6 432,0 438,0 438,0 530,0 530,0 536,0 542,-6 542,-12 542,-12 542,-41 542,-41 542,-47 536,-53 530,-53"/>
<text text-anchor="start" x="445" y="-37.8" font-family="Helvetica,sans-Serif" font-size="14.00" fill="#000000">mse = 696.2</text>
<text text-anchor="start" x="434" y="-22.8" font-family="Helvetica,sans-Serif" font-size="14.00" fill="#000000">samples = 0.8%</text>
<text text-anchor="start" x="441.5" y="-7.8" font-family="Helvetica,sans-Serif" font-size="14.00" fill="#000000">value = 256.3</text>
</g>
<!-- 5&#45;&gt;7 -->
<g id="edge7" class="edge">
<title>5&#45;&gt;7</title>
<path fill="none" stroke="#000000" d="M438.0319,-88.9777C444.5671,-80.0954 451.622,-70.5067 458.1964,-61.5711"/>
<polygon fill="#000000" stroke="#000000" points="461.2126,-63.3775 464.3198,-53.2485 455.5743,-59.229 461.2126,-63.3775"/>
</g>
<!-- 9 -->
<g id="node10" class="node">
<title>9</title>
<path fill="none" stroke="#000000" d="M739,-157C739,-157 639,-157 639,-157 633,-157 627,-151 627,-145 627,-145 627,-101 627,-101 627,-95 633,-89 639,-89 639,-89 739,-89 739,-89 745,-89 751,-95 751,-101 751,-101 751,-145 751,-145 751,-151 745,-157 739,-157"/>
<text text-anchor="start" x="645.5" y="-141.8" font-family="Helvetica,sans-Serif" font-size="14.00" fill="#000000">Glucose ≤ 0.0</text>
<text text-anchor="start" x="646" y="-126.8" font-family="Helvetica,sans-Serif" font-size="14.00" fill="#000000">mse = 4557.3</text>
<text text-anchor="start" x="635" y="-111.8" font-family="Helvetica,sans-Serif" font-size="14.00" fill="#000000">samples = 33.4%</text>
<text text-anchor="start" x="646.5" y="-96.8" font-family="Helvetica,sans-Serif" font-size="14.00" fill="#000000">value = 191.1</text>
</g>
<!-- 8&#45;&gt;9 -->
<g id="edge9" class="edge">
<title>8&#45;&gt;9</title>
<path fill="none" stroke="#000000" d="M689,-192.9465C689,-184.776 689,-175.9318 689,-167.3697"/>
<polygon fill="#000000" stroke="#000000" points="692.5001,-167.13 689,-157.13 685.5001,-167.13 692.5001,-167.13"/>
</g>
<!-- 12 -->
<g id="node13" class="node">
<title>12</title>
<path fill="none" stroke="#000000" d="M940,-157C940,-157 848,-157 848,-157 842,-157 836,-151 836,-145 836,-145 836,-101 836,-101 836,-95 842,-89 848,-89 848,-89 940,-89 940,-89 946,-89 952,-95 952,-101 952,-101 952,-145 952,-145 952,-151 946,-157 940,-157"/>
<text text-anchor="start" x="863.5" y="-141.8" font-family="Helvetica,sans-Serif" font-size="14.00" fill="#000000">LDL ≤ 0.0</text>
<text text-anchor="start" x="851" y="-126.8" font-family="Helvetica,sans-Serif" font-size="14.00" fill="#000000">mse = 2428.3</text>
<text text-anchor="start" x="844" y="-111.8" font-family="Helvetica,sans-Serif" font-size="14.00" fill="#000000">samples = 7.4%</text>
<text text-anchor="start" x="851.5" y="-96.8" font-family="Helvetica,sans-Serif" font-size="14.00" fill="#000000">value = 271.1</text>
</g>
<!-- 8&#45;&gt;12 -->
<g id="edge12" class="edge">
<title>8&#45;&gt;12</title>
<path fill="none" stroke="#000000" d="M751.0631,-195.5143C774.8881,-183.4275 802.1844,-169.5796 826.4958,-157.246"/>
<polygon fill="#000000" stroke="#000000" points="828.3193,-160.2457 835.6538,-152.6 825.1522,-154.003 828.3193,-160.2457"/>
</g>
<!-- 10 -->
<g id="node11" class="node">
<title>10</title>
<path fill="none" stroke="#000000" d="M672,-53C672,-53 572,-53 572,-53 566,-53 560,-47 560,-41 560,-41 560,-12 560,-12 560,-6 566,0 572,0 572,0 672,0 672,0 678,0 684,-6 684,-12 684,-12 684,-41 684,-41 684,-47 678,-53 672,-53"/>
<text text-anchor="start" x="579" y="-37.8" font-family="Helvetica,sans-Serif" font-size="14.00" fill="#000000">mse = 4005.6</text>
<text text-anchor="start" x="568" y="-22.8" font-family="Helvetica,sans-Serif" font-size="14.00" fill="#000000">samples = 24.1%</text>
<text text-anchor="start" x="579.5" y="-7.8" font-family="Helvetica,sans-Serif" font-size="14.00" fill="#000000">value = 175.8</text>
</g>
<!-- 9&#45;&gt;10 -->
<g id="edge10" class="edge">
<title>9&#45;&gt;10</title>
<path fill="none" stroke="#000000" d="M665.3783,-88.9777C659.2113,-80.0954 652.5539,-70.5067 646.3499,-61.5711"/>
<polygon fill="#000000" stroke="#000000" points="649.1497,-59.4666 640.5715,-53.2485 643.3997,-63.4589 649.1497,-59.4666"/>
</g>
<!-- 11 -->
<g id="node12" class="node">
<title>11</title>
<path fill="none" stroke="#000000" d="M806,-53C806,-53 714,-53 714,-53 708,-53 702,-47 702,-41 702,-41 702,-12 702,-12 702,-6 708,0 714,0 714,0 806,0 806,0 812,0 818,-6 818,-12 818,-12 818,-41 818,-41 818,-47 812,-53 806,-53"/>
<text text-anchor="start" x="717" y="-37.8" font-family="Helvetica,sans-Serif" font-size="14.00" fill="#000000">mse = 3821.9</text>
<text text-anchor="start" x="710" y="-22.8" font-family="Helvetica,sans-Serif" font-size="14.00" fill="#000000">samples = 9.3%</text>
<text text-anchor="start" x="717.5" y="-7.8" font-family="Helvetica,sans-Serif" font-size="14.00" fill="#000000">value = 230.5</text>
</g>
<!-- 9&#45;&gt;11 -->
<g id="edge11" class="edge">
<title>9&#45;&gt;11</title>
<path fill="none" stroke="#000000" d="M714.0319,-88.9777C720.5671,-80.0954 727.622,-70.5067 734.1964,-61.5711"/>
<polygon fill="#000000" stroke="#000000" points="737.2126,-63.3775 740.3198,-53.2485 731.5743,-59.229 737.2126,-63.3775"/>
</g>
<!-- 13 -->
<g id="node14" class="node">
<title>13</title>
<path fill="none" stroke="#000000" d="M940,-53C940,-53 848,-53 848,-53 842,-53 836,-47 836,-41 836,-41 836,-12 836,-12 836,-6 842,0 848,0 848,0 940,0 940,0 946,0 952,-6 952,-12 952,-12 952,-41 952,-41 952,-47 946,-53 940,-53"/>
<text text-anchor="start" x="855" y="-37.8" font-family="Helvetica,sans-Serif" font-size="14.00" fill="#000000">mse = 962.8</text>
<text text-anchor="start" x="844" y="-22.8" font-family="Helvetica,sans-Serif" font-size="14.00" fill="#000000">samples = 5.1%</text>
<text text-anchor="start" x="851.5" y="-7.8" font-family="Helvetica,sans-Serif" font-size="14.00" fill="#000000">value = 291.2</text>
</g>
<!-- 12&#45;&gt;13 -->
<g id="edge13" class="edge">
<title>12&#45;&gt;13</title>
<path fill="none" stroke="#000000" d="M894,-88.9777C894,-80.7364 894,-71.887 894,-63.5153"/>
<polygon fill="#000000" stroke="#000000" points="897.5001,-63.2484 894,-53.2485 890.5001,-63.2485 897.5001,-63.2484"/>
</g>
<!-- 14 -->
<g id="node15" class="node">
<title>14</title>
<path fill="none" stroke="#000000" d="M1074,-53C1074,-53 982,-53 982,-53 976,-53 970,-47 970,-41 970,-41 970,-12 970,-12 970,-6 976,0 982,0 982,0 1074,0 1074,0 1080,0 1086,-6 1086,-12 1086,-12 1086,-41 1086,-41 1086,-47 1080,-53 1074,-53"/>
<text text-anchor="start" x="985" y="-37.8" font-family="Helvetica,sans-Serif" font-size="14.00" fill="#000000">mse = 2757.9</text>
<text text-anchor="start" x="978" y="-22.8" font-family="Helvetica,sans-Serif" font-size="14.00" fill="#000000">samples = 2.3%</text>
<text text-anchor="start" x="985.5" y="-7.8" font-family="Helvetica,sans-Serif" font-size="14.00" fill="#000000">value = 225.8</text>
</g>
<!-- 12&#45;&gt;14 -->
<g id="edge14" class="edge">
<title>12&#45;&gt;14</title>
<path fill="none" stroke="#000000" d="M941.2434,-88.9777C954.7217,-79.2713 969.3715,-68.7213 982.7291,-59.1018"/>
<polygon fill="#000000" stroke="#000000" points="984.7876,-61.9325 990.857,-53.2485 980.6969,-56.2522 984.7876,-61.9325"/>
</g>
</g>
</svg>
