<?xml version="1.0" encoding="utf-8" standalone="no"?>
<!DOCTYPE svg PUBLIC "-//W3C//DTD SVG 1.1//EN"
  "http://www.w3.org/Graphics/SVG/1.1/DTD/svg11.dtd">
<!-- Created with matplotlib (https://matplotlib.org/) -->
<svg height="483.814219pt" version="1.1" viewBox="0 0 622.318507 483.814219" width="622.318507pt" xmlns="http://www.w3.org/2000/svg" xmlns:xlink="http://www.w3.org/1999/xlink">
 <defs>
  <style type="text/css">
*{stroke-linecap:butt;stroke-linejoin:round;}
  </style>
 </defs>
 <g id="figure_1">
  <g id="patch_1">
   <path d="M 0 483.814219 
L 622.318507 483.814219 
L 622.318507 0 
L 0 0 
z
" style="fill:#ffffff;"/>
  </g>
  <g id="axes_1">
   <g id="patch_2">
    <path d="M 50.62 204.872727 
L 304.256364 204.872727 
L 304.256364 7.2 
L 50.62 7.2 
z
" style="fill:#ffffff;"/>
   </g>
   <g id="matplotlib.axis_1">
    <g id="xtick_1">
     <g id="line2d_1">
      <path clip-path="url(#p5336f2a2f4)" d="M 69.793146 204.872727 
L 69.793146 7.2 
" style="fill:none;stroke:#cccccc;stroke-linecap:round;"/>
     </g>
     <g id="text_1">
      <!-- −0.10 -->
      <defs>
       <path d="M 52.828125 31.203125 
L 5.5625 31.203125 
L 5.5625 39.40625 
L 52.828125 39.40625 
z
" id="ArialMT-8722"/>
       <path d="M 4.15625 35.296875 
Q 4.15625 48 6.765625 55.734375 
Q 9.375 63.484375 14.515625 67.671875 
Q 19.671875 71.875 27.484375 71.875 
Q 33.25 71.875 37.59375 69.546875 
Q 41.9375 67.234375 44.765625 62.859375 
Q 47.609375 58.5 49.21875 52.21875 
Q 50.828125 45.953125 50.828125 35.296875 
Q 50.828125 22.703125 48.234375 14.96875 
Q 45.65625 7.234375 40.5 3 
Q 35.359375 -1.21875 27.484375 -1.21875 
Q 17.140625 -1.21875 11.234375 6.203125 
Q 4.15625 15.140625 4.15625 35.296875 
z
M 13.1875 35.296875 
Q 13.1875 17.671875 17.3125 11.828125 
Q 21.4375 6 27.484375 6 
Q 33.546875 6 37.671875 11.859375 
Q 41.796875 17.71875 41.796875 35.296875 
Q 41.796875 52.984375 37.671875 58.78125 
Q 33.546875 64.59375 27.390625 64.59375 
Q 21.34375 64.59375 17.71875 59.46875 
Q 13.1875 52.9375 13.1875 35.296875 
z
" id="ArialMT-48"/>
       <path d="M 9.078125 0 
L 9.078125 10.015625 
L 19.09375 10.015625 
L 19.09375 0 
z
" id="ArialMT-46"/>
       <path d="M 37.25 0 
L 28.46875 0 
L 28.46875 56 
Q 25.296875 52.984375 20.140625 49.953125 
Q 14.984375 46.921875 10.890625 45.40625 
L 10.890625 53.90625 
Q 18.265625 57.375 23.78125 62.296875 
Q 29.296875 67.234375 31.59375 71.875 
L 37.25 71.875 
z
" id="ArialMT-49"/>
      </defs>
      <g style="fill:#262626;" transform="translate(55.877286 222.246321)scale(0.11 -0.11)">
       <use xlink:href="#ArialMT-8722"/>
       <use x="58.398438" xlink:href="#ArialMT-48"/>
       <use x="114.013672" xlink:href="#ArialMT-46"/>
       <use x="141.796875" xlink:href="#ArialMT-49"/>
       <use x="197.412109" xlink:href="#ArialMT-48"/>
      </g>
     </g>
    </g>
    <g id="xtick_2">
     <g id="line2d_2">
      <path clip-path="url(#p5336f2a2f4)" d="M 122.689698 204.872727 
L 122.689698 7.2 
" style="fill:none;stroke:#cccccc;stroke-linecap:round;"/>
     </g>
     <g id="text_2">
      <!-- −0.05 -->
      <defs>
       <path d="M 4.15625 18.75 
L 13.375 19.53125 
Q 14.40625 12.796875 18.140625 9.390625 
Q 21.875 6 27.15625 6 
Q 33.5 6 37.890625 10.78125 
Q 42.28125 15.578125 42.28125 23.484375 
Q 42.28125 31 38.0625 35.34375 
Q 33.84375 39.703125 27 39.703125 
Q 22.75 39.703125 19.328125 37.765625 
Q 15.921875 35.84375 13.96875 32.765625 
L 5.71875 33.84375 
L 12.640625 70.609375 
L 48.25 70.609375 
L 48.25 62.203125 
L 19.671875 62.203125 
L 15.828125 42.96875 
Q 22.265625 47.46875 29.34375 47.46875 
Q 38.71875 47.46875 45.15625 40.96875 
Q 51.609375 34.46875 51.609375 24.265625 
Q 51.609375 14.546875 45.953125 7.46875 
Q 39.0625 -1.21875 27.15625 -1.21875 
Q 17.390625 -1.21875 11.203125 4.25 
Q 5.03125 9.71875 4.15625 18.75 
z
" id="ArialMT-53"/>
      </defs>
      <g style="fill:#262626;" transform="translate(108.773839 222.246321)scale(0.11 -0.11)">
       <use xlink:href="#ArialMT-8722"/>
       <use x="58.398438" xlink:href="#ArialMT-48"/>
       <use x="114.013672" xlink:href="#ArialMT-46"/>
       <use x="141.796875" xlink:href="#ArialMT-48"/>
       <use x="197.412109" xlink:href="#ArialMT-53"/>
      </g>
     </g>
    </g>
    <g id="xtick_3">
     <g id="line2d_3">
      <path clip-path="url(#p5336f2a2f4)" d="M 175.58625 204.872727 
L 175.58625 7.2 
" style="fill:none;stroke:#cccccc;stroke-linecap:round;"/>
     </g>
     <g id="text_3">
      <!-- 0.00 -->
      <g style="fill:#262626;" transform="translate(164.882735 222.246321)scale(0.11 -0.11)">
       <use xlink:href="#ArialMT-48"/>
       <use x="55.615234" xlink:href="#ArialMT-46"/>
       <use x="83.398438" xlink:href="#ArialMT-48"/>
       <use x="139.013672" xlink:href="#ArialMT-48"/>
      </g>
     </g>
    </g>
    <g id="xtick_4">
     <g id="line2d_4">
      <path clip-path="url(#p5336f2a2f4)" d="M 228.482803 204.872727 
L 228.482803 7.2 
" style="fill:none;stroke:#cccccc;stroke-linecap:round;"/>
     </g>
     <g id="text_4">
      <!-- 0.05 -->
      <g style="fill:#262626;" transform="translate(217.779287 222.246321)scale(0.11 -0.11)">
       <use xlink:href="#ArialMT-48"/>
       <use x="55.615234" xlink:href="#ArialMT-46"/>
       <use x="83.398438" xlink:href="#ArialMT-48"/>
       <use x="139.013672" xlink:href="#ArialMT-53"/>
      </g>
     </g>
    </g>
    <g id="xtick_5">
     <g id="line2d_5">
      <path clip-path="url(#p5336f2a2f4)" d="M 281.379355 204.872727 
L 281.379355 7.2 
" style="fill:none;stroke:#cccccc;stroke-linecap:round;"/>
     </g>
     <g id="text_5">
      <!-- 0.10 -->
      <g style="fill:#262626;" transform="translate(270.675839 222.246321)scale(0.11 -0.11)">
       <use xlink:href="#ArialMT-48"/>
       <use x="55.615234" xlink:href="#ArialMT-46"/>
       <use x="83.398438" xlink:href="#ArialMT-49"/>
       <use x="139.013672" xlink:href="#ArialMT-48"/>
      </g>
     </g>
    </g>
    <g id="text_6">
     <!-- Age -->
     <defs>
      <path d="M -0.140625 0 
L 27.34375 71.578125 
L 37.546875 71.578125 
L 66.84375 0 
L 56.0625 0 
L 47.703125 21.6875 
L 17.78125 21.6875 
L 9.90625 0 
z
M 20.515625 29.390625 
L 44.78125 29.390625 
L 37.3125 49.21875 
Q 33.890625 58.25 32.234375 64.0625 
Q 30.859375 57.171875 28.375 50.390625 
z
" id="ArialMT-65"/>
      <path d="M 4.984375 -4.296875 
L 13.53125 -5.5625 
Q 14.0625 -9.515625 16.5 -11.328125 
Q 19.78125 -13.765625 25.4375 -13.765625 
Q 31.546875 -13.765625 34.859375 -11.328125 
Q 38.1875 -8.890625 39.359375 -4.5 
Q 40.046875 -1.8125 39.984375 6.78125 
Q 34.234375 0 25.640625 0 
Q 14.9375 0 9.078125 7.71875 
Q 3.21875 15.4375 3.21875 26.21875 
Q 3.21875 33.640625 5.90625 39.90625 
Q 8.59375 46.1875 13.6875 49.609375 
Q 18.796875 53.03125 25.6875 53.03125 
Q 34.859375 53.03125 40.828125 45.609375 
L 40.828125 51.859375 
L 48.921875 51.859375 
L 48.921875 7.03125 
Q 48.921875 -5.078125 46.453125 -10.125 
Q 44 -15.1875 38.640625 -18.109375 
Q 33.296875 -21.046875 25.484375 -21.046875 
Q 16.21875 -21.046875 10.5 -16.875 
Q 4.78125 -12.703125 4.984375 -4.296875 
z
M 12.25 26.859375 
Q 12.25 16.65625 16.296875 11.96875 
Q 20.359375 7.28125 26.46875 7.28125 
Q 32.515625 7.28125 36.609375 11.9375 
Q 40.71875 16.609375 40.71875 26.5625 
Q 40.71875 36.078125 36.5 40.90625 
Q 32.28125 45.75 26.3125 45.75 
Q 20.453125 45.75 16.34375 40.984375 
Q 12.25 36.234375 12.25 26.859375 
z
" id="ArialMT-103"/>
      <path d="M 42.09375 16.703125 
L 51.171875 15.578125 
Q 49.03125 7.625 43.21875 3.21875 
Q 37.40625 -1.171875 28.375 -1.171875 
Q 17 -1.171875 10.328125 5.828125 
Q 3.65625 12.84375 3.65625 25.484375 
Q 3.65625 38.578125 10.390625 45.796875 
Q 17.140625 53.03125 27.875 53.03125 
Q 38.28125 53.03125 44.875 45.953125 
Q 51.46875 38.875 51.46875 26.03125 
Q 51.46875 25.25 51.421875 23.6875 
L 12.75 23.6875 
Q 13.234375 15.140625 17.578125 10.59375 
Q 21.921875 6.0625 28.421875 6.0625 
Q 33.25 6.0625 36.671875 8.59375 
Q 40.09375 11.140625 42.09375 16.703125 
z
M 13.234375 30.90625 
L 42.1875 30.90625 
Q 41.609375 37.453125 38.875 40.71875 
Q 34.671875 45.796875 27.984375 45.796875 
Q 21.921875 45.796875 17.796875 41.75 
Q 13.671875 37.703125 13.234375 30.90625 
z
" id="ArialMT-101"/>
     </defs>
     <g style="fill:#262626;" transform="translate(166.762869 237.021946)scale(0.12 -0.12)">
      <use xlink:href="#ArialMT-65"/>
      <use x="66.699219" xlink:href="#ArialMT-103"/>
      <use x="122.314453" xlink:href="#ArialMT-101"/>
     </g>
    </g>
   </g>
   <g id="matplotlib.axis_2">
    <g id="ytick_1">
     <g id="line2d_6">
      <path clip-path="url(#p5336f2a2f4)" d="M 50.62 203.33301 
L 304.256364 203.33301 
" style="fill:none;stroke:#cccccc;stroke-linecap:round;"/>
     </g>
     <g id="text_7">
      <!-- −20 -->
      <defs>
       <path d="M 50.34375 8.453125 
L 50.34375 0 
L 3.03125 0 
Q 2.9375 3.171875 4.046875 6.109375 
Q 5.859375 10.9375 9.828125 15.625 
Q 13.8125 20.3125 21.34375 26.46875 
Q 33.015625 36.03125 37.109375 41.625 
Q 41.21875 47.21875 41.21875 52.203125 
Q 41.21875 57.421875 37.46875 61 
Q 33.734375 64.59375 27.734375 64.59375 
Q 21.390625 64.59375 17.578125 60.78125 
Q 13.765625 56.984375 13.71875 50.25 
L 4.6875 51.171875 
Q 5.609375 61.28125 11.65625 66.578125 
Q 17.71875 71.875 27.9375 71.875 
Q 38.234375 71.875 44.234375 66.15625 
Q 50.25 60.453125 50.25 52 
Q 50.25 47.703125 48.484375 43.546875 
Q 46.734375 39.40625 42.65625 34.8125 
Q 38.578125 30.21875 29.109375 22.21875 
Q 21.1875 15.578125 18.9375 13.203125 
Q 16.703125 10.84375 15.234375 8.453125 
z
" id="ArialMT-50"/>
      </defs>
      <g style="fill:#262626;" transform="translate(22.46125 207.269807)scale(0.11 -0.11)">
       <use xlink:href="#ArialMT-8722"/>
       <use x="58.398438" xlink:href="#ArialMT-50"/>
       <use x="114.013672" xlink:href="#ArialMT-48"/>
      </g>
     </g>
    </g>
    <g id="ytick_2">
     <g id="line2d_7">
      <path clip-path="url(#p5336f2a2f4)" d="M 50.62 174.525375 
L 304.256364 174.525375 
" style="fill:none;stroke:#cccccc;stroke-linecap:round;"/>
     </g>
     <g id="text_8">
      <!-- −10 -->
      <g style="fill:#262626;" transform="translate(22.46125 178.462172)scale(0.11 -0.11)">
       <use xlink:href="#ArialMT-8722"/>
       <use x="58.398438" xlink:href="#ArialMT-49"/>
       <use x="114.013672" xlink:href="#ArialMT-48"/>
      </g>
     </g>
    </g>
    <g id="ytick_3">
     <g id="line2d_8">
      <path clip-path="url(#p5336f2a2f4)" d="M 50.62 145.71774 
L 304.256364 145.71774 
" style="fill:none;stroke:#cccccc;stroke-linecap:round;"/>
     </g>
     <g id="text_9">
      <!-- 0 -->
      <g style="fill:#262626;" transform="translate(35.002969 149.654537)scale(0.11 -0.11)">
       <use xlink:href="#ArialMT-48"/>
      </g>
     </g>
    </g>
    <g id="ytick_4">
     <g id="line2d_9">
      <path clip-path="url(#p5336f2a2f4)" d="M 50.62 116.910106 
L 304.256364 116.910106 
" style="fill:none;stroke:#cccccc;stroke-linecap:round;"/>
     </g>
     <g id="text_10">
      <!-- 10 -->
      <g style="fill:#262626;" transform="translate(28.885937 120.846903)scale(0.11 -0.11)">
       <use xlink:href="#ArialMT-49"/>
       <use x="55.615234" xlink:href="#ArialMT-48"/>
      </g>
     </g>
    </g>
    <g id="ytick_5">
     <g id="line2d_10">
      <path clip-path="url(#p5336f2a2f4)" d="M 50.62 88.102471 
L 304.256364 88.102471 
" style="fill:none;stroke:#cccccc;stroke-linecap:round;"/>
     </g>
     <g id="text_11">
      <!-- 20 -->
      <g style="fill:#262626;" transform="translate(28.885937 92.039268)scale(0.11 -0.11)">
       <use xlink:href="#ArialMT-50"/>
       <use x="55.615234" xlink:href="#ArialMT-48"/>
      </g>
     </g>
    </g>
    <g id="ytick_6">
     <g id="line2d_11">
      <path clip-path="url(#p5336f2a2f4)" d="M 50.62 59.294836 
L 304.256364 59.294836 
" style="fill:none;stroke:#cccccc;stroke-linecap:round;"/>
     </g>
     <g id="text_12">
      <!-- 30 -->
      <defs>
       <path d="M 4.203125 18.890625 
L 12.984375 20.0625 
Q 14.5 12.59375 18.140625 9.296875 
Q 21.78125 6 27 6 
Q 33.203125 6 37.46875 10.296875 
Q 41.75 14.59375 41.75 20.953125 
Q 41.75 27 37.796875 30.921875 
Q 33.84375 34.859375 27.734375 34.859375 
Q 25.25 34.859375 21.53125 33.890625 
L 22.515625 41.609375 
Q 23.390625 41.5 23.921875 41.5 
Q 29.546875 41.5 34.03125 44.421875 
Q 38.53125 47.359375 38.53125 53.46875 
Q 38.53125 58.296875 35.25 61.46875 
Q 31.984375 64.65625 26.8125 64.65625 
Q 21.6875 64.65625 18.265625 61.421875 
Q 14.84375 58.203125 13.875 51.765625 
L 5.078125 53.328125 
Q 6.6875 62.15625 12.390625 67.015625 
Q 18.109375 71.875 26.609375 71.875 
Q 32.46875 71.875 37.390625 69.359375 
Q 42.328125 66.84375 44.9375 62.5 
Q 47.5625 58.15625 47.5625 53.265625 
Q 47.5625 48.640625 45.0625 44.828125 
Q 42.578125 41.015625 37.703125 38.765625 
Q 44.046875 37.3125 47.5625 32.6875 
Q 51.078125 28.078125 51.078125 21.140625 
Q 51.078125 11.765625 44.234375 5.25 
Q 37.40625 -1.265625 26.953125 -1.265625 
Q 17.53125 -1.265625 11.296875 4.34375 
Q 5.078125 9.96875 4.203125 18.890625 
z
" id="ArialMT-51"/>
      </defs>
      <g style="fill:#262626;" transform="translate(28.885937 63.231633)scale(0.11 -0.11)">
       <use xlink:href="#ArialMT-51"/>
       <use x="55.615234" xlink:href="#ArialMT-48"/>
      </g>
     </g>
    </g>
    <g id="ytick_7">
     <g id="line2d_12">
      <path clip-path="url(#p5336f2a2f4)" d="M 50.62 30.487201 
L 304.256364 30.487201 
" style="fill:none;stroke:#cccccc;stroke-linecap:round;"/>
     </g>
     <g id="text_13">
      <!-- 40 -->
      <defs>
       <path d="M 32.328125 0 
L 32.328125 17.140625 
L 1.265625 17.140625 
L 1.265625 25.203125 
L 33.9375 71.578125 
L 41.109375 71.578125 
L 41.109375 25.203125 
L 50.78125 25.203125 
L 50.78125 17.140625 
L 41.109375 17.140625 
L 41.109375 0 
z
M 32.328125 25.203125 
L 32.328125 57.46875 
L 9.90625 25.203125 
z
" id="ArialMT-52"/>
      </defs>
      <g style="fill:#262626;" transform="translate(28.885937 34.423998)scale(0.11 -0.11)">
       <use xlink:href="#ArialMT-52"/>
       <use x="55.615234" xlink:href="#ArialMT-48"/>
      </g>
     </g>
    </g>
    <g id="text_14">
     <!-- f ( Age ) -->
     <defs>
      <path d="M 8.6875 0 
L 8.6875 45.015625 
L 0.921875 45.015625 
L 0.921875 51.859375 
L 8.6875 51.859375 
L 8.6875 57.375 
Q 8.6875 62.59375 9.625 65.140625 
Q 10.890625 68.5625 14.078125 70.671875 
Q 17.28125 72.796875 23.046875 72.796875 
Q 26.765625 72.796875 31.25 71.921875 
L 29.9375 64.265625 
Q 27.203125 64.75 24.75 64.75 
Q 20.75 64.75 19.09375 63.03125 
Q 17.4375 61.328125 17.4375 56.640625 
L 17.4375 51.859375 
L 27.546875 51.859375 
L 27.546875 45.015625 
L 17.4375 45.015625 
L 17.4375 0 
z
" id="ArialMT-102"/>
      <path id="ArialMT-32"/>
      <path d="M 23.390625 -21.046875 
Q 16.109375 -11.859375 11.078125 0.4375 
Q 6.0625 12.75 6.0625 25.921875 
Q 6.0625 37.546875 9.8125 48.1875 
Q 14.203125 60.546875 23.390625 72.796875 
L 29.6875 72.796875 
Q 23.78125 62.640625 21.875 58.296875 
Q 18.890625 51.5625 17.1875 44.234375 
Q 15.09375 35.109375 15.09375 25.875 
Q 15.09375 2.390625 29.6875 -21.046875 
z
" id="ArialMT-40"/>
      <path d="M 12.359375 -21.046875 
L 6.0625 -21.046875 
Q 20.65625 2.390625 20.65625 25.875 
Q 20.65625 35.0625 18.5625 44.09375 
Q 16.890625 51.421875 13.921875 58.15625 
Q 12.015625 62.546875 6.0625 72.796875 
L 12.359375 72.796875 
Q 21.53125 60.546875 25.921875 48.1875 
Q 29.6875 37.546875 29.6875 25.921875 
Q 29.6875 12.75 24.625 0.4375 
Q 19.578125 -11.859375 12.359375 -21.046875 
z
" id="ArialMT-41"/>
     </defs>
     <g style="fill:#262626;" transform="translate(15.935625 127.370114)rotate(-90)scale(0.12 -0.12)">
      <use xlink:href="#ArialMT-102"/>
      <use x="27.783203" xlink:href="#ArialMT-32"/>
      <use x="55.566406" xlink:href="#ArialMT-40"/>
      <use x="88.867188" xlink:href="#ArialMT-32"/>
      <use x="116.572266" xlink:href="#ArialMT-65"/>
      <use x="183.271484" xlink:href="#ArialMT-103"/>
      <use x="238.886719" xlink:href="#ArialMT-101"/>
      <use x="294.501953" xlink:href="#ArialMT-32"/>
      <use x="322.285156" xlink:href="#ArialMT-41"/>
     </g>
    </g>
   </g>
   <g id="line2d_13">
    <path clip-path="url(#p5336f2a2f4)" d="M 62.148926 86.450573 
L 64.478002 90.18472 
L 66.807077 93.913084 
L 69.136153 97.63328 
L 71.465229 101.343004 
L 73.794305 105.040395 
L 76.123381 108.723735 
L 78.452457 112.390211 
L 80.781533 116.029234 
L 83.110609 119.626847 
L 85.439684 123.168884 
L 87.76876 126.639278 
L 90.097836 130.020894 
L 92.426912 133.296914 
L 94.755988 136.455 
L 97.085064 139.486041 
L 99.41414 142.381126 
L 101.743216 145.133967 
L 104.072292 147.740692 
L 106.401367 150.197459 
L 108.730443 152.498595 
L 111.059519 154.636267 
L 113.388595 156.602541 
L 115.717671 158.390858 
L 118.046747 159.996724 
L 120.375823 161.415845 
L 122.704899 162.647507 
L 125.033974 163.697942 
L 127.36305 164.574177 
L 129.692126 165.282428 
L 132.021202 165.826857 
L 134.350278 166.211308 
L 136.679354 166.439943 
L 139.00843 166.517985 
L 141.337506 166.450875 
L 143.666582 166.24465 
L 145.995657 165.907959 
L 148.324733 165.450171 
L 150.653809 164.880356 
L 152.982885 164.205844 
L 155.311961 163.433334 
L 157.641037 162.569208 
L 159.970113 161.617347 
L 162.299189 160.580454 
L 164.628264 159.460743 
L 166.95734 158.255232 
L 169.286416 156.95777 
L 171.615492 155.562832 
L 173.944568 154.075225 
L 176.273644 152.507834 
L 178.60272 150.874207 
L 180.931796 149.198107 
L 183.260872 147.51352 
L 185.589947 145.854673 
L 187.919023 144.248285 
L 190.248099 142.71148 
L 192.577175 141.260649 
L 194.906251 139.904754 
L 197.235327 138.640579 
L 199.564403 137.463775 
L 201.893479 136.369231 
L 204.222554 135.35023 
L 206.55163 134.39985 
L 208.880706 133.513847 
L 211.209782 132.695364 
L 213.538858 131.948809 
L 215.867934 131.276007 
L 218.19701 130.669367 
L 220.526086 130.119159 
L 222.855162 129.614584 
L 225.184237 129.139705 
L 227.513313 128.677038 
L 229.842389 128.210264 
L 232.171465 127.730589 
L 234.500541 127.232193 
L 236.829617 126.709123 
L 239.158693 126.154178 
L 241.487769 125.559514 
L 243.816844 124.917437 
L 246.14592 124.222101 
L 248.474996 123.46889 
L 250.804072 122.653344 
L 253.133148 121.773387 
L 255.462224 120.828963 
L 257.7913 119.820027 
L 260.120376 118.745104 
L 262.449452 117.601164 
L 264.778527 116.385146 
L 267.107603 115.096073 
L 269.436679 113.73586 
L 271.765755 112.30665 
L 274.094831 110.812219 
L 276.423907 109.259245 
L 278.752983 107.654707 
L 281.082059 106.005705 
L 283.411134 104.319617 
L 285.74021 102.60386 
L 288.069286 100.865582 
L 290.398362 99.111117 
L 292.727438 97.346647 
" style="fill:none;stroke:#023eff;stroke-linecap:round;stroke-width:1.5;"/>
   </g>
   <g id="line2d_14">
    <path clip-path="url(#p5336f2a2f4)" d="M 62.148926 155.488911 
L 64.478002 156.10171 
L 66.807077 156.766961 
L 69.136153 157.491783 
L 71.465229 158.284179 
L 73.794305 159.154226 
L 76.123381 160.112599 
L 78.452457 161.168901 
L 80.781533 162.325321 
L 83.110609 163.580266 
L 85.439684 164.93098 
L 87.76876 166.372013 
L 90.097836 167.895288 
L 92.426912 169.490654 
L 94.755988 171.150235 
L 97.085064 172.866669 
L 99.41414 174.629241 
L 101.743216 176.4272 
L 104.072292 178.249542 
L 106.401367 180.08165 
L 108.730443 181.904336 
L 111.059519 183.694182 
L 113.388595 185.425452 
L 115.717671 187.073095 
L 118.046747 188.614763 
L 120.375823 190.028601 
L 122.704899 191.29838 
L 125.033974 192.418361 
L 127.36305 193.384943 
L 129.692126 194.195573 
L 132.021202 194.848623 
L 134.350278 195.342999 
L 136.679354 195.678793 
L 139.00843 195.859115 
L 141.337506 195.887603 
L 143.666582 195.768697 
L 145.995657 195.510932 
L 148.324733 195.123711 
L 150.653809 194.616087 
L 152.982885 193.996786 
L 155.311961 193.273921 
L 157.641037 192.45464 
L 159.970113 191.543954 
L 162.299189 190.545236 
L 164.628264 189.460404 
L 166.95734 188.286341 
L 169.286416 187.016503 
L 171.615492 185.644201 
L 173.944568 184.173701 
L 176.273644 182.617512 
L 178.60272 180.987848 
L 180.931796 179.307295 
L 183.260872 177.608709 
L 185.589947 175.924112 
L 187.919023 174.278053 
L 190.248099 172.685863 
L 192.577175 171.161215 
L 194.906251 169.710543 
L 197.235327 168.32914 
L 199.564403 167.010563 
L 201.893479 165.747733 
L 204.222554 164.533166 
L 206.55163 163.35879 
L 208.880706 162.219505 
L 211.209782 161.119627 
L 213.538858 160.065203 
L 215.867934 159.060884 
L 218.19701 158.105779 
L 220.526086 157.19898 
L 222.855162 156.341117 
L 225.184237 155.533615 
L 227.513313 154.780017 
L 229.842389 154.087776 
L 232.171465 153.476147 
L 234.500541 152.968908 
L 236.829617 152.588774 
L 239.158693 152.355706 
L 241.487769 152.284748 
L 243.816844 152.384532 
L 246.14592 152.659174 
L 248.474996 153.107105 
L 250.804072 153.719958 
L 253.133148 154.487015 
L 255.462224 155.396197 
L 257.7913 156.432561 
L 260.120376 157.578656 
L 262.449452 158.815604 
L 264.778527 160.124608 
L 267.107603 161.490043 
L 269.436679 162.900965 
L 271.765755 164.347713 
L 274.094831 165.823374 
L 276.423907 167.325219 
L 278.752983 168.85159 
L 281.082059 170.401542 
L 283.411134 171.97492 
L 285.74021 173.571982 
L 288.069286 175.19311 
L 290.398362 176.838413 
L 292.727438 178.50817 
" style="fill:none;stroke:#c44e52;stroke-dasharray:5.55,2.4;stroke-dashoffset:0;stroke-width:1.5;"/>
   </g>
   <g id="line2d_15">
    <path clip-path="url(#p5336f2a2f4)" d="M 62.148926 17.412235 
L 64.478002 24.267731 
L 66.807077 31.059208 
L 69.136153 37.774777 
L 71.465229 44.401829 
L 73.794305 50.926564 
L 76.123381 57.334871 
L 78.452457 63.611521 
L 80.781533 69.733147 
L 83.110609 75.673427 
L 85.439684 81.406788 
L 87.76876 86.906543 
L 90.097836 92.146499 
L 92.426912 97.103174 
L 94.755988 101.759766 
L 97.085064 106.105413 
L 99.41414 110.133011 
L 101.743216 113.840734 
L 104.072292 117.231841 
L 106.401367 120.313268 
L 108.730443 123.092855 
L 111.059519 125.578351 
L 113.388595 127.779631 
L 115.717671 129.708622 
L 118.046747 131.378684 
L 120.375823 132.80309 
L 122.704899 133.996635 
L 125.033974 134.977523 
L 127.36305 135.763411 
L 129.692126 136.369283 
L 132.021202 136.805091 
L 134.350278 137.079617 
L 136.679354 137.201094 
L 139.00843 137.176855 
L 141.337506 137.014147 
L 143.666582 136.720603 
L 145.995657 136.304986 
L 148.324733 135.77663 
L 150.653809 135.144625 
L 152.982885 134.414901 
L 155.311961 133.592747 
L 157.641037 132.683775 
L 159.970113 131.69074 
L 162.299189 130.615672 
L 164.628264 129.461083 
L 166.95734 128.224123 
L 169.286416 126.899036 
L 171.615492 125.481464 
L 173.944568 123.976749 
L 176.273644 122.398157 
L 178.60272 120.760565 
L 180.931796 119.08892 
L 183.260872 117.418332 
L 185.589947 115.785235 
L 187.919023 114.218518 
L 190.248099 112.737097 
L 192.577175 111.360082 
L 194.906251 110.098965 
L 197.235327 108.952018 
L 199.564403 107.916987 
L 201.893479 106.990729 
L 204.222554 106.167293 
L 206.55163 105.440909 
L 208.880706 104.808189 
L 211.209782 104.2711 
L 213.538858 103.832415 
L 215.867934 103.491129 
L 218.19701 103.232956 
L 220.526086 103.039337 
L 222.855162 102.88805 
L 225.184237 102.745796 
L 227.513313 102.574058 
L 229.842389 102.332753 
L 232.171465 101.98503 
L 234.500541 101.495477 
L 236.829617 100.829472 
L 239.158693 99.95265 
L 241.487769 98.83428 
L 243.816844 97.450342 
L 246.14592 95.785029 
L 248.474996 93.830674 
L 250.804072 91.586731 
L 253.133148 89.059759 
L 255.462224 86.261728 
L 257.7913 83.207492 
L 260.120376 79.911551 
L 262.449452 76.386724 
L 264.778527 72.645684 
L 267.107603 68.702103 
L 269.436679 64.570754 
L 271.765755 60.265588 
L 274.094831 55.801065 
L 276.423907 51.193271 
L 278.752983 46.457825 
L 281.082059 41.609868 
L 283.411134 36.664314 
L 285.74021 31.635737 
L 288.069286 26.538053 
L 290.398362 21.383821 
L 292.727438 16.185124 
" style="fill:none;stroke:#c44e52;stroke-dasharray:5.55,2.4;stroke-dashoffset:0;stroke-width:1.5;"/>
   </g>
   <g id="patch_3">
    <path d="M 50.62 204.872727 
L 50.62 7.2 
" style="fill:none;stroke:#cccccc;stroke-linecap:square;stroke-linejoin:miter;stroke-width:1.25;"/>
   </g>
   <g id="patch_4">
    <path d="M 304.256364 204.872727 
L 304.256364 7.2 
" style="fill:none;stroke:#cccccc;stroke-linecap:square;stroke-linejoin:miter;stroke-width:1.25;"/>
   </g>
   <g id="patch_5">
    <path d="M 50.62 204.872727 
L 304.256364 204.872727 
" style="fill:none;stroke:#cccccc;stroke-linecap:square;stroke-linejoin:miter;stroke-width:1.25;"/>
   </g>
   <g id="patch_6">
    <path d="M 50.62 7.2 
L 304.256364 7.2 
" style="fill:none;stroke:#cccccc;stroke-linecap:square;stroke-linejoin:miter;stroke-width:1.25;"/>
   </g>
  </g>
  <g id="axes_2">
   <g id="patch_7">
    <path d="M 354.983636 204.872727 
L 608.62 204.872727 
L 608.62 7.2 
L 354.983636 7.2 
z
" style="fill:#ffffff;"/>
   </g>
   <g id="matplotlib.axis_3">
    <g id="xtick_6">
     <g id="line2d_16">
      <path clip-path="url(#p1b19870869)" d="M 396.961381 204.872727 
L 396.961381 7.2 
" style="fill:none;stroke:#cccccc;stroke-linecap:round;"/>
     </g>
     <g id="text_15">
      <!-- −0.4 -->
      <g style="fill:#262626;" transform="translate(386.104037 222.246321)scale(0.11 -0.11)">
       <use xlink:href="#ArialMT-8722"/>
       <use x="58.398438" xlink:href="#ArialMT-48"/>
       <use x="114.013672" xlink:href="#ArialMT-46"/>
       <use x="141.796875" xlink:href="#ArialMT-52"/>
      </g>
     </g>
    </g>
    <g id="xtick_7">
     <g id="line2d_17">
      <path clip-path="url(#p1b19870869)" d="M 439.063806 204.872727 
L 439.063806 7.2 
" style="fill:none;stroke:#cccccc;stroke-linecap:round;"/>
     </g>
     <g id="text_16">
      <!-- −0.2 -->
      <g style="fill:#262626;" transform="translate(428.206462 222.246321)scale(0.11 -0.11)">
       <use xlink:href="#ArialMT-8722"/>
       <use x="58.398438" xlink:href="#ArialMT-48"/>
       <use x="114.013672" xlink:href="#ArialMT-46"/>
       <use x="141.796875" xlink:href="#ArialMT-50"/>
      </g>
     </g>
    </g>
    <g id="xtick_8">
     <g id="line2d_18">
      <path clip-path="url(#p1b19870869)" d="M 481.166231 204.872727 
L 481.166231 7.2 
" style="fill:none;stroke:#cccccc;stroke-linecap:round;"/>
     </g>
     <g id="text_17">
      <!-- 0.0 -->
      <g style="fill:#262626;" transform="translate(473.521231 222.246321)scale(0.11 -0.11)">
       <use xlink:href="#ArialMT-48"/>
       <use x="55.615234" xlink:href="#ArialMT-46"/>
       <use x="83.398438" xlink:href="#ArialMT-48"/>
      </g>
     </g>
    </g>
    <g id="xtick_9">
     <g id="line2d_19">
      <path clip-path="url(#p1b19870869)" d="M 523.268657 204.872727 
L 523.268657 7.2 
" style="fill:none;stroke:#cccccc;stroke-linecap:round;"/>
     </g>
     <g id="text_18">
      <!-- 0.2 -->
      <g style="fill:#262626;" transform="translate(515.623657 222.246321)scale(0.11 -0.11)">
       <use xlink:href="#ArialMT-48"/>
       <use x="55.615234" xlink:href="#ArialMT-46"/>
       <use x="83.398438" xlink:href="#ArialMT-50"/>
      </g>
     </g>
    </g>
    <g id="xtick_10">
     <g id="line2d_20">
      <path clip-path="url(#p1b19870869)" d="M 565.371082 204.872727 
L 565.371082 7.2 
" style="fill:none;stroke:#cccccc;stroke-linecap:round;"/>
     </g>
     <g id="text_19">
      <!-- 0.4 -->
      <g style="fill:#262626;" transform="translate(557.726082 222.246321)scale(0.11 -0.11)">
       <use xlink:href="#ArialMT-48"/>
       <use x="55.615234" xlink:href="#ArialMT-46"/>
       <use x="83.398438" xlink:href="#ArialMT-52"/>
      </g>
     </g>
    </g>
    <g id="xtick_11">
     <g id="line2d_21">
      <path clip-path="url(#p1b19870869)" d="M 607.473507 204.872727 
L 607.473507 7.2 
" style="fill:none;stroke:#cccccc;stroke-linecap:round;"/>
     </g>
     <g id="text_20">
      <!-- 0.6 -->
      <defs>
       <path d="M 49.75 54.046875 
L 41.015625 53.375 
Q 39.84375 58.546875 37.703125 60.890625 
Q 34.125 64.65625 28.90625 64.65625 
Q 24.703125 64.65625 21.53125 62.3125 
Q 17.390625 59.28125 14.984375 53.46875 
Q 12.59375 47.65625 12.5 36.921875 
Q 15.671875 41.75 20.265625 44.09375 
Q 24.859375 46.4375 29.890625 46.4375 
Q 38.671875 46.4375 44.84375 39.96875 
Q 51.03125 33.5 51.03125 23.25 
Q 51.03125 16.5 48.125 10.71875 
Q 45.21875 4.9375 40.140625 1.859375 
Q 35.0625 -1.21875 28.609375 -1.21875 
Q 17.625 -1.21875 10.6875 6.859375 
Q 3.765625 14.9375 3.765625 33.5 
Q 3.765625 54.25 11.421875 63.671875 
Q 18.109375 71.875 29.4375 71.875 
Q 37.890625 71.875 43.28125 67.140625 
Q 48.6875 62.40625 49.75 54.046875 
z
M 13.875 23.1875 
Q 13.875 18.65625 15.796875 14.5 
Q 17.71875 10.359375 21.1875 8.171875 
Q 24.65625 6 28.46875 6 
Q 34.03125 6 38.03125 10.484375 
Q 42.046875 14.984375 42.046875 22.703125 
Q 42.046875 30.125 38.078125 34.390625 
Q 34.125 38.671875 28.125 38.671875 
Q 22.171875 38.671875 18.015625 34.390625 
Q 13.875 30.125 13.875 23.1875 
z
" id="ArialMT-54"/>
      </defs>
      <g style="fill:#262626;" transform="translate(599.828507 222.246321)scale(0.11 -0.11)">
       <use xlink:href="#ArialMT-48"/>
       <use x="55.615234" xlink:href="#ArialMT-46"/>
       <use x="83.398438" xlink:href="#ArialMT-54"/>
      </g>
     </g>
    </g>
    <g id="text_21">
     <!-- Sex -->
     <defs>
      <path d="M 4.5 23 
L 13.421875 23.78125 
Q 14.0625 18.40625 16.375 14.96875 
Q 18.703125 11.53125 23.578125 9.40625 
Q 28.46875 7.28125 34.578125 7.28125 
Q 39.984375 7.28125 44.140625 8.890625 
Q 48.296875 10.5 50.3125 13.296875 
Q 52.34375 16.109375 52.34375 19.4375 
Q 52.34375 22.796875 50.390625 25.3125 
Q 48.4375 27.828125 43.953125 29.546875 
Q 41.0625 30.671875 31.203125 33.03125 
Q 21.34375 35.40625 17.390625 37.5 
Q 12.25 40.1875 9.734375 44.15625 
Q 7.234375 48.140625 7.234375 53.078125 
Q 7.234375 58.5 10.296875 63.203125 
Q 13.375 67.921875 19.28125 70.359375 
Q 25.203125 72.796875 32.421875 72.796875 
Q 40.375 72.796875 46.453125 70.234375 
Q 52.546875 67.671875 55.8125 62.6875 
Q 59.078125 57.71875 59.328125 51.421875 
L 50.25 50.734375 
Q 49.515625 57.515625 45.28125 60.984375 
Q 41.0625 64.453125 32.8125 64.453125 
Q 24.21875 64.453125 20.28125 61.296875 
Q 16.359375 58.15625 16.359375 53.71875 
Q 16.359375 49.859375 19.140625 47.359375 
Q 21.875 44.875 33.421875 42.265625 
Q 44.96875 39.65625 49.265625 37.703125 
Q 55.515625 34.8125 58.484375 30.390625 
Q 61.46875 25.984375 61.46875 20.21875 
Q 61.46875 14.5 58.203125 9.4375 
Q 54.9375 4.390625 48.796875 1.578125 
Q 42.671875 -1.21875 35.015625 -1.21875 
Q 25.296875 -1.21875 18.71875 1.609375 
Q 12.15625 4.4375 8.421875 10.125 
Q 4.6875 15.828125 4.5 23 
z
" id="ArialMT-83"/>
      <path d="M 0.734375 0 
L 19.671875 26.953125 
L 2.15625 51.859375 
L 13.140625 51.859375 
L 21.09375 39.703125 
Q 23.34375 36.234375 24.703125 33.890625 
Q 26.859375 37.109375 28.65625 39.59375 
L 37.40625 51.859375 
L 47.90625 51.859375 
L 29.984375 27.4375 
L 49.265625 0 
L 38.484375 0 
L 27.828125 16.109375 
L 25 20.453125 
L 11.375 0 
z
" id="ArialMT-120"/>
     </defs>
     <g style="fill:#262626;" transform="translate(471.463068 237.021946)scale(0.12 -0.12)">
      <use xlink:href="#ArialMT-83"/>
      <use x="66.699219" xlink:href="#ArialMT-101"/>
      <use x="122.314453" xlink:href="#ArialMT-120"/>
     </g>
    </g>
   </g>
   <g id="matplotlib.axis_4">
    <g id="ytick_8">
     <g id="line2d_22">
      <path clip-path="url(#p1b19870869)" d="M 354.983636 188.784931 
L 608.62 188.784931 
" style="fill:none;stroke:#cccccc;stroke-linecap:round;"/>
     </g>
     <g id="text_22">
      <!-- −2 -->
      <g style="fill:#262626;" transform="translate(332.941918 192.721727)scale(0.11 -0.11)">
       <use xlink:href="#ArialMT-8722"/>
       <use x="58.398438" xlink:href="#ArialMT-50"/>
      </g>
     </g>
    </g>
    <g id="ytick_9">
     <g id="line2d_23">
      <path clip-path="url(#p1b19870869)" d="M 354.983636 147.410647 
L 608.62 147.410647 
" style="fill:none;stroke:#cccccc;stroke-linecap:round;"/>
     </g>
     <g id="text_23">
      <!-- −1 -->
      <g style="fill:#262626;" transform="translate(332.941918 151.347444)scale(0.11 -0.11)">
       <use xlink:href="#ArialMT-8722"/>
       <use x="58.398438" xlink:href="#ArialMT-49"/>
      </g>
     </g>
    </g>
    <g id="ytick_10">
     <g id="line2d_24">
      <path clip-path="url(#p1b19870869)" d="M 354.983636 106.036364 
L 608.62 106.036364 
" style="fill:none;stroke:#cccccc;stroke-linecap:round;"/>
     </g>
     <g id="text_24">
      <!-- 0 -->
      <g style="fill:#262626;" transform="translate(339.366605 109.973161)scale(0.11 -0.11)">
       <use xlink:href="#ArialMT-48"/>
      </g>
     </g>
    </g>
    <g id="ytick_11">
     <g id="line2d_25">
      <path clip-path="url(#p1b19870869)" d="M 354.983636 64.66208 
L 608.62 64.66208 
" style="fill:none;stroke:#cccccc;stroke-linecap:round;"/>
     </g>
     <g id="text_25">
      <!-- 1 -->
      <g style="fill:#262626;" transform="translate(339.366605 68.598877)scale(0.11 -0.11)">
       <use xlink:href="#ArialMT-49"/>
      </g>
     </g>
    </g>
    <g id="ytick_12">
     <g id="line2d_26">
      <path clip-path="url(#p1b19870869)" d="M 354.983636 23.287797 
L 608.62 23.287797 
" style="fill:none;stroke:#cccccc;stroke-linecap:round;"/>
     </g>
     <g id="text_26">
      <!-- 2 -->
      <g style="fill:#262626;" transform="translate(339.366605 27.224594)scale(0.11 -0.11)">
       <use xlink:href="#ArialMT-50"/>
      </g>
     </g>
    </g>
    <g id="text_27">
     <!-- f ( Sex ) -->
     <g style="fill:#262626;" transform="translate(326.416293 127.038239)rotate(-90)scale(0.12 -0.12)">
      <use xlink:href="#ArialMT-102"/>
      <use x="27.783203" xlink:href="#ArialMT-32"/>
      <use x="55.566406" xlink:href="#ArialMT-40"/>
      <use x="88.867188" xlink:href="#ArialMT-32"/>
      <use x="116.650391" xlink:href="#ArialMT-83"/>
      <use x="183.349609" xlink:href="#ArialMT-101"/>
      <use x="238.964844" xlink:href="#ArialMT-120"/>
      <use x="288.964844" xlink:href="#ArialMT-32"/>
      <use x="316.748047" xlink:href="#ArialMT-41"/>
     </g>
    </g>
   </g>
   <g id="line2d_27">
    <path clip-path="url(#p1b19870869)" d="M 366.512562 46.911518 
L 368.841638 46.911518 
L 371.170714 46.911518 
L 373.49979 46.911518 
L 375.828866 46.911518 
L 378.157941 46.911518 
L 380.487017 46.911518 
L 382.816093 46.911518 
L 385.145169 46.911518 
L 387.474245 46.911518 
L 389.803321 46.911518 
L 392.132397 46.911518 
L 394.461473 46.911518 
L 396.790548 46.911518 
L 399.119624 46.911518 
L 401.4487 46.911518 
L 403.777776 46.911518 
L 406.106852 46.911518 
L 408.435928 46.911518 
L 410.765004 46.911518 
L 413.09408 46.911518 
L 415.423156 46.911518 
L 417.752231 46.911518 
L 420.081307 46.911518 
L 422.410383 46.911518 
L 424.739459 46.911518 
L 427.068535 46.911518 
L 429.397611 46.911518 
L 431.726687 46.911518 
L 434.055763 46.911518 
L 436.384838 46.911518 
L 438.713914 46.911518 
L 441.04299 46.911518 
L 443.372066 46.911518 
L 445.701142 46.911518 
L 448.030218 46.911518 
L 450.359294 46.911518 
L 452.68837 46.911518 
L 455.017446 46.911518 
L 457.346521 46.911518 
L 459.675597 46.911518 
L 462.004673 46.911518 
L 464.333749 46.911518 
L 466.662825 46.911518 
L 468.991901 46.911518 
L 471.320977 46.911518 
L 473.650053 46.911518 
L 475.979128 46.911518 
L 478.308204 46.911518 
L 480.63728 46.911518 
L 482.966356 165.161209 
L 485.295432 165.161209 
L 487.624508 165.161209 
L 489.953584 165.161209 
L 492.28266 165.161209 
L 494.611736 165.161209 
L 496.940811 165.161209 
L 499.269887 165.161209 
L 501.598963 165.161209 
L 503.928039 165.161209 
L 506.257115 165.161209 
L 508.586191 165.161209 
L 510.915267 165.161209 
L 513.244343 165.161209 
L 515.573418 165.161209 
L 517.902494 165.161209 
L 520.23157 165.161209 
L 522.560646 165.161209 
L 524.889722 165.161209 
L 527.218798 165.161209 
L 529.547874 165.161209 
L 531.87695 165.161209 
L 534.206026 165.161209 
L 536.535101 165.161209 
L 538.864177 165.161209 
L 541.193253 165.161209 
L 543.522329 165.161209 
L 545.851405 165.161209 
L 548.180481 165.161209 
L 550.509557 165.161209 
L 552.838633 165.161209 
L 555.167708 165.161209 
L 557.496784 165.161209 
L 559.82586 165.161209 
L 562.154936 165.161209 
L 564.484012 165.161209 
L 566.813088 165.161209 
L 569.142164 165.161209 
L 571.47124 165.161209 
L 573.800316 165.161209 
L 576.129391 165.161209 
L 578.458467 165.161209 
L 580.787543 165.161209 
L 583.116619 165.161209 
L 585.445695 165.161209 
L 587.774771 165.161209 
L 590.103847 165.161209 
L 592.432923 165.161209 
L 594.761998 165.161209 
L 597.091074 165.161209 
" style="fill:none;stroke:#023eff;stroke-linecap:round;stroke-width:1.5;"/>
   </g>
   <g id="line2d_28">
    <path clip-path="url(#p1b19870869)" d="M 366.512562 77.637912 
L 368.841638 77.637912 
L 371.170714 77.637912 
L 373.49979 77.637912 
L 375.828866 77.637912 
L 378.157941 77.637912 
L 380.487017 77.637912 
L 382.816093 77.637912 
L 385.145169 77.637912 
L 387.474245 77.637912 
L 389.803321 77.637912 
L 392.132397 77.637912 
L 394.461473 77.637912 
L 396.790548 77.637912 
L 399.119624 77.637912 
L 401.4487 77.637912 
L 403.777776 77.637912 
L 406.106852 77.637912 
L 408.435928 77.637912 
L 410.765004 77.637912 
L 413.09408 77.637912 
L 415.423156 77.637912 
L 417.752231 77.637912 
L 420.081307 77.637912 
L 422.410383 77.637912 
L 424.739459 77.637912 
L 427.068535 77.637912 
L 429.397611 77.637912 
L 431.726687 77.637912 
L 434.055763 77.637912 
L 436.384838 77.637912 
L 438.713914 77.637912 
L 441.04299 77.637912 
L 443.372066 77.637912 
L 445.701142 77.637912 
L 448.030218 77.637912 
L 450.359294 77.637912 
L 452.68837 77.637912 
L 455.017446 77.637912 
L 457.346521 77.637912 
L 459.675597 77.637912 
L 462.004673 77.637912 
L 464.333749 77.637912 
L 466.662825 77.637912 
L 468.991901 77.637912 
L 471.320977 77.637912 
L 473.650053 77.637912 
L 475.979128 77.637912 
L 478.308204 77.637912 
L 480.63728 77.637912 
L 482.966356 195.887603 
L 485.295432 195.887603 
L 487.624508 195.887603 
L 489.953584 195.887603 
L 492.28266 195.887603 
L 494.611736 195.887603 
L 496.940811 195.887603 
L 499.269887 195.887603 
L 501.598963 195.887603 
L 503.928039 195.887603 
L 506.257115 195.887603 
L 508.586191 195.887603 
L 510.915267 195.887603 
L 513.244343 195.887603 
L 515.573418 195.887603 
L 517.902494 195.887603 
L 520.23157 195.887603 
L 522.560646 195.887603 
L 524.889722 195.887603 
L 527.218798 195.887603 
L 529.547874 195.887603 
L 531.87695 195.887603 
L 534.206026 195.887603 
L 536.535101 195.887603 
L 538.864177 195.887603 
L 541.193253 195.887603 
L 543.522329 195.887603 
L 545.851405 195.887603 
L 548.180481 195.887603 
L 550.509557 195.887603 
L 552.838633 195.887603 
L 555.167708 195.887603 
L 557.496784 195.887603 
L 559.82586 195.887603 
L 562.154936 195.887603 
L 564.484012 195.887603 
L 566.813088 195.887603 
L 569.142164 195.887603 
L 571.47124 195.887603 
L 573.800316 195.887603 
L 576.129391 195.887603 
L 578.458467 195.887603 
L 580.787543 195.887603 
L 583.116619 195.887603 
L 585.445695 195.887603 
L 587.774771 195.887603 
L 590.103847 195.887603 
L 592.432923 195.887603 
L 594.761998 195.887603 
L 597.091074 195.887603 
" style="fill:none;stroke:#c44e52;stroke-dasharray:5.55,2.4;stroke-dashoffset:0;stroke-width:1.5;"/>
   </g>
   <g id="line2d_29">
    <path clip-path="url(#p1b19870869)" d="M 366.512562 16.185124 
L 368.841638 16.185124 
L 371.170714 16.185124 
L 373.49979 16.185124 
L 375.828866 16.185124 
L 378.157941 16.185124 
L 380.487017 16.185124 
L 382.816093 16.185124 
L 385.145169 16.185124 
L 387.474245 16.185124 
L 389.803321 16.185124 
L 392.132397 16.185124 
L 394.461473 16.185124 
L 396.790548 16.185124 
L 399.119624 16.185124 
L 401.4487 16.185124 
L 403.777776 16.185124 
L 406.106852 16.185124 
L 408.435928 16.185124 
L 410.765004 16.185124 
L 413.09408 16.185124 
L 415.423156 16.185124 
L 417.752231 16.185124 
L 420.081307 16.185124 
L 422.410383 16.185124 
L 424.739459 16.185124 
L 427.068535 16.185124 
L 429.397611 16.185124 
L 431.726687 16.185124 
L 434.055763 16.185124 
L 436.384838 16.185124 
L 438.713914 16.185124 
L 441.04299 16.185124 
L 443.372066 16.185124 
L 445.701142 16.185124 
L 448.030218 16.185124 
L 450.359294 16.185124 
L 452.68837 16.185124 
L 455.017446 16.185124 
L 457.346521 16.185124 
L 459.675597 16.185124 
L 462.004673 16.185124 
L 464.333749 16.185124 
L 466.662825 16.185124 
L 468.991901 16.185124 
L 471.320977 16.185124 
L 473.650053 16.185124 
L 475.979128 16.185124 
L 478.308204 16.185124 
L 480.63728 16.185124 
L 482.966356 134.434816 
L 485.295432 134.434816 
L 487.624508 134.434816 
L 489.953584 134.434816 
L 492.28266 134.434816 
L 494.611736 134.434816 
L 496.940811 134.434816 
L 499.269887 134.434816 
L 501.598963 134.434816 
L 503.928039 134.434816 
L 506.257115 134.434816 
L 508.586191 134.434816 
L 510.915267 134.434816 
L 513.244343 134.434816 
L 515.573418 134.434816 
L 517.902494 134.434816 
L 520.23157 134.434816 
L 522.560646 134.434816 
L 524.889722 134.434816 
L 527.218798 134.434816 
L 529.547874 134.434816 
L 531.87695 134.434816 
L 534.206026 134.434816 
L 536.535101 134.434816 
L 538.864177 134.434816 
L 541.193253 134.434816 
L 543.522329 134.434816 
L 545.851405 134.434816 
L 548.180481 134.434816 
L 550.509557 134.434816 
L 552.838633 134.434816 
L 555.167708 134.434816 
L 557.496784 134.434816 
L 559.82586 134.434816 
L 562.154936 134.434816 
L 564.484012 134.434816 
L 566.813088 134.434816 
L 569.142164 134.434816 
L 571.47124 134.434816 
L 573.800316 134.434816 
L 576.129391 134.434816 
L 578.458467 134.434816 
L 580.787543 134.434816 
L 583.116619 134.434816 
L 585.445695 134.434816 
L 587.774771 134.434816 
L 590.103847 134.434816 
L 592.432923 134.434816 
L 594.761998 134.434816 
L 597.091074 134.434816 
" style="fill:none;stroke:#c44e52;stroke-dasharray:5.55,2.4;stroke-dashoffset:0;stroke-width:1.5;"/>
   </g>
   <g id="patch_8">
    <path d="M 354.983636 204.872727 
L 354.983636 7.2 
" style="fill:none;stroke:#cccccc;stroke-linecap:square;stroke-linejoin:miter;stroke-width:1.25;"/>
   </g>
   <g id="patch_9">
    <path d="M 608.62 204.872727 
L 608.62 7.2 
" style="fill:none;stroke:#cccccc;stroke-linecap:square;stroke-linejoin:miter;stroke-width:1.25;"/>
   </g>
   <g id="patch_10">
    <path d="M 354.983636 204.872727 
L 608.62 204.872727 
" style="fill:none;stroke:#cccccc;stroke-linecap:square;stroke-linejoin:miter;stroke-width:1.25;"/>
   </g>
   <g id="patch_11">
    <path d="M 354.983636 7.2 
L 608.62 7.2 
" style="fill:none;stroke:#cccccc;stroke-linecap:square;stroke-linejoin:miter;stroke-width:1.25;"/>
   </g>
  </g>
  <g id="axes_3">
   <g id="patch_12">
    <path d="M 50.62 442.08 
L 304.256364 442.08 
L 304.256364 244.407273 
L 50.62 244.407273 
z
" style="fill:#ffffff;"/>
   </g>
   <g id="matplotlib.axis_5">
    <g id="xtick_12">
     <g id="line2d_30">
      <path clip-path="url(#p44d0fdac56)" d="M 52.187701 442.08 
L 52.187701 244.407273 
" style="fill:none;stroke:#cccccc;stroke-linecap:round;"/>
     </g>
     <g id="text_28">
      <!-- −0.10 -->
      <g style="fill:#262626;" transform="translate(38.271842 459.453594)scale(0.11 -0.11)">
       <use xlink:href="#ArialMT-8722"/>
       <use x="58.398438" xlink:href="#ArialMT-48"/>
       <use x="114.013672" xlink:href="#ArialMT-46"/>
       <use x="141.796875" xlink:href="#ArialMT-49"/>
       <use x="197.412109" xlink:href="#ArialMT-48"/>
      </g>
     </g>
    </g>
    <g id="xtick_13">
     <g id="line2d_31">
      <path clip-path="url(#p44d0fdac56)" d="M 98.29374 442.08 
L 98.29374 244.407273 
" style="fill:none;stroke:#cccccc;stroke-linecap:round;"/>
     </g>
     <g id="text_29">
      <!-- −0.05 -->
      <g style="fill:#262626;" transform="translate(84.37788 459.453594)scale(0.11 -0.11)">
       <use xlink:href="#ArialMT-8722"/>
       <use x="58.398438" xlink:href="#ArialMT-48"/>
       <use x="114.013672" xlink:href="#ArialMT-46"/>
       <use x="141.796875" xlink:href="#ArialMT-48"/>
       <use x="197.412109" xlink:href="#ArialMT-53"/>
      </g>
     </g>
    </g>
    <g id="xtick_14">
     <g id="line2d_32">
      <path clip-path="url(#p44d0fdac56)" d="M 144.399778 442.08 
L 144.399778 244.407273 
" style="fill:none;stroke:#cccccc;stroke-linecap:round;"/>
     </g>
     <g id="text_30">
      <!-- 0.00 -->
      <g style="fill:#262626;" transform="translate(133.696262 459.453594)scale(0.11 -0.11)">
       <use xlink:href="#ArialMT-48"/>
       <use x="55.615234" xlink:href="#ArialMT-46"/>
       <use x="83.398438" xlink:href="#ArialMT-48"/>
       <use x="139.013672" xlink:href="#ArialMT-48"/>
      </g>
     </g>
    </g>
    <g id="xtick_15">
     <g id="line2d_33">
      <path clip-path="url(#p44d0fdac56)" d="M 190.505816 442.08 
L 190.505816 244.407273 
" style="fill:none;stroke:#cccccc;stroke-linecap:round;"/>
     </g>
     <g id="text_31">
      <!-- 0.05 -->
      <g style="fill:#262626;" transform="translate(179.802301 459.453594)scale(0.11 -0.11)">
       <use xlink:href="#ArialMT-48"/>
       <use x="55.615234" xlink:href="#ArialMT-46"/>
       <use x="83.398438" xlink:href="#ArialMT-48"/>
       <use x="139.013672" xlink:href="#ArialMT-53"/>
      </g>
     </g>
    </g>
    <g id="xtick_16">
     <g id="line2d_34">
      <path clip-path="url(#p44d0fdac56)" d="M 236.611855 442.08 
L 236.611855 244.407273 
" style="fill:none;stroke:#cccccc;stroke-linecap:round;"/>
     </g>
     <g id="text_32">
      <!-- 0.10 -->
      <g style="fill:#262626;" transform="translate(225.908339 459.453594)scale(0.11 -0.11)">
       <use xlink:href="#ArialMT-48"/>
       <use x="55.615234" xlink:href="#ArialMT-46"/>
       <use x="83.398438" xlink:href="#ArialMT-49"/>
       <use x="139.013672" xlink:href="#ArialMT-48"/>
      </g>
     </g>
    </g>
    <g id="xtick_17">
     <g id="line2d_35">
      <path clip-path="url(#p44d0fdac56)" d="M 282.717893 442.08 
L 282.717893 244.407273 
" style="fill:none;stroke:#cccccc;stroke-linecap:round;"/>
     </g>
     <g id="text_33">
      <!-- 0.15 -->
      <g style="fill:#262626;" transform="translate(272.014378 459.453594)scale(0.11 -0.11)">
       <use xlink:href="#ArialMT-48"/>
       <use x="55.615234" xlink:href="#ArialMT-46"/>
       <use x="83.398438" xlink:href="#ArialMT-49"/>
       <use x="139.013672" xlink:href="#ArialMT-53"/>
      </g>
     </g>
    </g>
    <g id="text_34">
     <!-- BMI -->
     <defs>
      <path d="M 7.328125 0 
L 7.328125 71.578125 
L 34.1875 71.578125 
Q 42.390625 71.578125 47.34375 69.40625 
Q 52.296875 67.234375 55.09375 62.71875 
Q 57.90625 58.203125 57.90625 53.265625 
Q 57.90625 48.6875 55.421875 44.625 
Q 52.9375 40.578125 47.90625 38.09375 
Q 54.390625 36.1875 57.875 31.59375 
Q 61.375 27 61.375 20.75 
Q 61.375 15.71875 59.25 11.390625 
Q 57.125 7.078125 54 4.734375 
Q 50.875 2.390625 46.15625 1.1875 
Q 41.453125 0 34.625 0 
z
M 16.796875 41.5 
L 32.28125 41.5 
Q 38.578125 41.5 41.3125 42.328125 
Q 44.921875 43.40625 46.75 45.890625 
Q 48.578125 48.390625 48.578125 52.15625 
Q 48.578125 55.71875 46.875 58.421875 
Q 45.171875 61.140625 41.984375 62.140625 
Q 38.8125 63.140625 31.109375 63.140625 
L 16.796875 63.140625 
z
M 16.796875 8.453125 
L 34.625 8.453125 
Q 39.203125 8.453125 41.0625 8.796875 
Q 44.34375 9.375 46.53125 10.734375 
Q 48.734375 12.109375 50.140625 14.71875 
Q 51.5625 17.328125 51.5625 20.75 
Q 51.5625 24.75 49.515625 27.703125 
Q 47.46875 30.671875 43.828125 31.859375 
Q 40.1875 33.0625 33.34375 33.0625 
L 16.796875 33.0625 
z
" id="ArialMT-66"/>
      <path d="M 7.421875 0 
L 7.421875 71.578125 
L 21.6875 71.578125 
L 38.625 20.90625 
Q 40.96875 13.8125 42.046875 10.296875 
Q 43.265625 14.203125 45.84375 21.78125 
L 62.984375 71.578125 
L 75.734375 71.578125 
L 75.734375 0 
L 66.609375 0 
L 66.609375 59.90625 
L 45.796875 0 
L 37.25 0 
L 16.546875 60.9375 
L 16.546875 0 
z
" id="ArialMT-77"/>
      <path d="M 9.328125 0 
L 9.328125 71.578125 
L 18.796875 71.578125 
L 18.796875 0 
z
" id="ArialMT-73"/>
     </defs>
     <g style="fill:#262626;" transform="translate(166.771307 474.229219)scale(0.12 -0.12)">
      <use xlink:href="#ArialMT-66"/>
      <use x="66.699219" xlink:href="#ArialMT-77"/>
      <use x="150" xlink:href="#ArialMT-73"/>
     </g>
    </g>
   </g>
   <g id="matplotlib.axis_6">
    <g id="ytick_13">
     <g id="line2d_36">
      <path clip-path="url(#p44d0fdac56)" d="M 50.62 405.028849 
L 304.256364 405.028849 
" style="fill:none;stroke:#cccccc;stroke-linecap:round;"/>
     </g>
     <g id="text_35">
      <!-- −50 -->
      <g style="fill:#262626;" transform="translate(22.46125 408.965646)scale(0.11 -0.11)">
       <use xlink:href="#ArialMT-8722"/>
       <use x="58.398438" xlink:href="#ArialMT-53"/>
       <use x="114.013672" xlink:href="#ArialMT-48"/>
      </g>
     </g>
    </g>
    <g id="ytick_14">
     <g id="line2d_37">
      <path clip-path="url(#p44d0fdac56)" d="M 50.62 365.788312 
L 304.256364 365.788312 
" style="fill:none;stroke:#cccccc;stroke-linecap:round;"/>
     </g>
     <g id="text_36">
      <!-- 0 -->
      <g style="fill:#262626;" transform="translate(35.002969 369.725108)scale(0.11 -0.11)">
       <use xlink:href="#ArialMT-48"/>
      </g>
     </g>
    </g>
    <g id="ytick_15">
     <g id="line2d_38">
      <path clip-path="url(#p44d0fdac56)" d="M 50.62 326.547774 
L 304.256364 326.547774 
" style="fill:none;stroke:#cccccc;stroke-linecap:round;"/>
     </g>
     <g id="text_37">
      <!-- 50 -->
      <g style="fill:#262626;" transform="translate(28.885937 330.484571)scale(0.11 -0.11)">
       <use xlink:href="#ArialMT-53"/>
       <use x="55.615234" xlink:href="#ArialMT-48"/>
      </g>
     </g>
    </g>
    <g id="ytick_16">
     <g id="line2d_39">
      <path clip-path="url(#p44d0fdac56)" d="M 50.62 287.307237 
L 304.256364 287.307237 
" style="fill:none;stroke:#cccccc;stroke-linecap:round;"/>
     </g>
     <g id="text_38">
      <!-- 100 -->
      <g style="fill:#262626;" transform="translate(22.768906 291.244034)scale(0.11 -0.11)">
       <use xlink:href="#ArialMT-49"/>
       <use x="55.615234" xlink:href="#ArialMT-48"/>
       <use x="111.230469" xlink:href="#ArialMT-48"/>
      </g>
     </g>
    </g>
    <g id="ytick_17">
     <g id="line2d_40">
      <path clip-path="url(#p44d0fdac56)" d="M 50.62 248.0667 
L 304.256364 248.0667 
" style="fill:none;stroke:#cccccc;stroke-linecap:round;"/>
     </g>
     <g id="text_39">
      <!-- 150 -->
      <g style="fill:#262626;" transform="translate(22.768906 252.003496)scale(0.11 -0.11)">
       <use xlink:href="#ArialMT-49"/>
       <use x="55.615234" xlink:href="#ArialMT-53"/>
       <use x="111.230469" xlink:href="#ArialMT-48"/>
      </g>
     </g>
    </g>
    <g id="text_40">
     <!-- f ( BMI ) -->
     <g style="fill:#262626;" transform="translate(15.935625 364.573636)rotate(-90)scale(0.12 -0.12)">
      <use xlink:href="#ArialMT-102"/>
      <use x="27.783203" xlink:href="#ArialMT-32"/>
      <use x="55.566406" xlink:href="#ArialMT-40"/>
      <use x="88.867188" xlink:href="#ArialMT-32"/>
      <use x="116.650391" xlink:href="#ArialMT-66"/>
      <use x="183.349609" xlink:href="#ArialMT-77"/>
      <use x="266.650391" xlink:href="#ArialMT-73"/>
      <use x="294.433594" xlink:href="#ArialMT-32"/>
      <use x="322.216797" xlink:href="#ArialMT-41"/>
     </g>
    </g>
   </g>
   <g id="line2d_41">
    <path clip-path="url(#p44d0fdac56)" d="M 62.148926 413.63097 
L 64.478002 413.057583 
L 66.807077 412.48426 
L 69.136153 411.911143 
L 71.465229 411.338348 
L 73.794305 410.765862 
L 76.123381 410.193632 
L 78.452457 409.621532 
L 80.781533 409.048943 
L 83.110609 408.475028 
L 85.439684 407.89899 
L 87.76876 407.320385 
L 90.097836 406.738972 
L 92.426912 406.154464 
L 94.755988 405.565941 
L 97.085064 404.97203 
L 99.41414 404.371252 
L 101.743216 403.760274 
L 104.072292 403.134048 
L 106.401367 402.48745 
L 108.730443 401.814976 
L 111.059519 401.110673 
L 113.388595 400.368583 
L 115.717671 399.583893 
L 118.046747 398.753523 
L 120.375823 397.874546 
L 122.704899 396.945286 
L 125.033974 395.966503 
L 127.36305 394.939236 
L 129.692126 393.864749 
L 132.021202 392.744883 
L 134.350278 391.581564 
L 136.679354 390.377191 
L 139.00843 389.135721 
L 141.337506 387.861436 
L 143.666582 386.559118 
L 145.995657 385.23575 
L 148.324733 383.898919 
L 150.653809 382.556881 
L 152.982885 381.221801 
L 155.311961 379.907257 
L 157.641037 378.626387 
L 159.970113 377.388847 
L 162.299189 376.20265 
L 164.628264 375.0751 
L 166.95734 374.00597 
L 169.286416 372.990436 
L 171.615492 372.023313 
L 173.944568 371.094879 
L 176.273644 370.191858 
L 178.60272 369.300924 
L 180.931796 368.409745 
L 183.260872 367.506984 
L 185.589947 366.581399 
L 187.919023 365.623739 
L 190.248099 364.627299 
L 192.577175 363.585544 
L 194.906251 362.492138 
L 197.235327 361.341079 
L 199.564403 360.126407 
L 201.893479 358.844068 
L 204.222554 357.494043 
L 206.55163 356.076831 
L 208.880706 354.594173 
L 211.209782 353.051246 
L 213.538858 351.453816 
L 215.867934 349.807351 
L 218.19701 348.116238 
L 220.526086 346.384619 
L 222.855162 344.616294 
L 225.184237 342.813424 
L 227.513313 340.977675 
L 229.842389 339.110649 
L 232.171465 337.213511 
L 234.500541 335.287261 
L 236.829617 333.332955 
L 239.158693 331.352187 
L 241.487769 329.346823 
L 243.816844 327.318702 
L 246.14592 325.269293 
L 248.474996 323.199819 
L 250.804072 321.111485 
L 253.133148 319.005299 
L 255.462224 316.882097 
L 257.7913 314.742707 
L 260.120376 312.587884 
L 262.449452 310.418295 
L 264.778527 308.234605 
L 267.107603 306.037338 
L 269.436679 303.826826 
L 271.765755 301.603389 
L 274.094831 299.367653 
L 276.423907 297.120784 
L 278.752983 294.864006 
L 281.082059 292.598602 
L 283.411134 290.325993 
L 285.74021 288.04762 
L 288.069286 285.764871 
L 290.398362 283.478979 
L 292.727438 281.191142 
" style="fill:none;stroke:#023eff;stroke-linecap:round;stroke-width:1.5;"/>
   </g>
   <g id="line2d_42">
    <path clip-path="url(#p44d0fdac56)" d="M 62.148926 433.094876 
L 64.478002 431.733711 
L 66.807077 430.390404 
L 69.136153 429.067569 
L 71.465229 427.768068 
L 73.794305 426.49513 
L 76.123381 425.25207 
L 78.452457 424.042118 
L 80.781533 422.868101 
L 83.110609 421.732381 
L 85.439684 420.636905 
L 87.76876 419.583546 
L 90.097836 418.573701 
L 92.426912 417.607833 
L 94.755988 416.684995 
L 97.085064 415.802891 
L 99.41414 414.958081 
L 101.743216 414.144511 
L 104.072292 413.353781 
L 106.401367 412.576763 
L 108.730443 411.803798 
L 111.059519 411.024919 
L 113.388595 410.230099 
L 115.717671 409.41083 
L 118.046747 408.560942 
L 120.375823 407.674609 
L 122.704899 406.747684 
L 125.033974 405.779081 
L 127.36305 404.768111 
L 129.692126 403.714495 
L 132.021202 402.618902 
L 134.350278 401.482049 
L 136.679354 400.305152 
L 139.00843 399.091372 
L 141.337506 397.844202 
L 143.666582 396.567622 
L 145.995657 395.268129 
L 148.324733 393.952806 
L 150.653809 392.629302 
L 152.982885 391.309393 
L 155.311961 390.006252 
L 157.641037 388.732472 
L 159.970113 387.49732 
L 162.299189 386.308415 
L 164.628264 385.172524 
L 166.95734 384.089046 
L 169.286416 383.052818 
L 171.615492 382.058161 
L 173.944568 381.094971 
L 176.273644 380.149646 
L 178.60272 379.208367 
L 180.931796 378.258408 
L 183.260872 377.288154 
L 185.589947 376.285941 
L 187.919023 375.242247 
L 190.248099 374.150368 
L 192.577175 373.0037 
L 194.906251 371.79606 
L 197.235327 370.522057 
L 199.564403 369.176405 
L 201.893479 367.75606 
L 204.222554 366.262737 
L 206.55163 364.698953 
L 208.880706 363.068971 
L 211.209782 361.381518 
L 213.538858 359.646478 
L 215.867934 357.874076 
L 218.19701 356.074509 
L 220.526086 354.258252 
L 222.855162 352.435717 
L 225.184237 350.615996 
L 227.513313 348.807458 
L 229.842389 347.01777 
L 232.171465 345.25351 
L 234.500541 343.519883 
L 236.829617 341.820612 
L 239.158693 340.15861 
L 241.487769 338.535633 
L 243.816844 336.952045 
L 246.14592 335.406915 
L 248.474996 333.898385 
L 250.804072 332.424075 
L 253.133148 330.981234 
L 255.462224 329.56692 
L 257.7913 328.178185 
L 260.120376 326.812181 
L 262.449452 325.466231 
L 264.778527 324.137822 
L 267.107603 322.824595 
L 269.436679 321.524331 
L 271.765755 320.234976 
L 274.094831 318.954972 
L 276.423907 317.683533 
L 278.752983 316.420049 
L 281.082059 315.164059 
L 283.411134 313.915332 
L 285.74021 312.673712 
L 288.069286 311.439056 
L 290.398362 310.21117 
L 292.727438 308.989887 
" style="fill:none;stroke:#c44e52;stroke-dasharray:5.55,2.4;stroke-dashoffset:0;stroke-width:1.5;"/>
   </g>
   <g id="line2d_43">
    <path clip-path="url(#p44d0fdac56)" d="M 62.148926 394.167064 
L 64.478002 394.381456 
L 66.807077 394.578117 
L 69.136153 394.754717 
L 71.465229 394.908628 
L 73.794305 395.036595 
L 76.123381 395.135194 
L 78.452457 395.200946 
L 80.781533 395.229785 
L 83.110609 395.217675 
L 85.439684 395.161075 
L 87.76876 395.057224 
L 90.097836 394.904243 
L 92.426912 394.701094 
L 94.755988 394.446887 
L 97.085064 394.141168 
L 99.41414 393.784424 
L 101.743216 393.376038 
L 104.072292 392.914314 
L 106.401367 392.398137 
L 108.730443 391.826154 
L 111.059519 391.196428 
L 113.388595 390.507067 
L 115.717671 389.756957 
L 118.046747 388.946105 
L 120.375823 388.074483 
L 122.704899 387.142888 
L 125.033974 386.153925 
L 127.36305 385.11036 
L 129.692126 384.015004 
L 132.021202 382.870864 
L 134.350278 381.681079 
L 136.679354 380.44923 
L 139.00843 379.180071 
L 141.337506 377.878671 
L 143.666582 376.550615 
L 145.995657 375.203371 
L 148.324733 373.845032 
L 150.653809 372.48446 
L 152.982885 371.134209 
L 155.311961 369.808262 
L 157.641037 368.520302 
L 159.970113 367.280374 
L 162.299189 366.096885 
L 164.628264 364.977675 
L 166.95734 363.922894 
L 169.286416 362.928054 
L 171.615492 361.988465 
L 173.944568 361.094786 
L 176.273644 360.234069 
L 178.60272 359.393481 
L 180.931796 358.561082 
L 183.260872 357.725814 
L 185.589947 356.876856 
L 187.919023 356.00523 
L 190.248099 355.104231 
L 192.577175 354.167388 
L 194.906251 353.188216 
L 197.235327 352.160102 
L 199.564403 351.07641 
L 201.893479 349.932076 
L 204.222554 348.72535 
L 206.55163 347.45471 
L 208.880706 346.119375 
L 211.209782 344.720975 
L 213.538858 343.261153 
L 215.867934 341.740626 
L 218.19701 340.157968 
L 220.526086 338.510986 
L 222.855162 336.79687 
L 225.184237 335.010852 
L 227.513313 333.147893 
L 229.842389 331.203527 
L 232.171465 329.173513 
L 234.500541 327.054639 
L 236.829617 324.845298 
L 239.158693 322.545763 
L 241.487769 320.158013 
L 243.816844 317.68536 
L 246.14592 315.131672 
L 248.474996 312.501253 
L 250.804072 309.798895 
L 253.133148 307.029363 
L 255.462224 304.197273 
L 257.7913 301.30723 
L 260.120376 298.363586 
L 262.449452 295.37036 
L 264.778527 292.331388 
L 267.107603 289.250082 
L 269.436679 286.12932 
L 271.765755 282.971801 
L 274.094831 279.780334 
L 276.423907 276.558035 
L 278.752983 273.307963 
L 281.082059 270.033145 
L 283.411134 266.736654 
L 285.74021 263.421527 
L 288.069286 260.090687 
L 290.398362 256.746787 
L 292.727438 253.392397 
" style="fill:none;stroke:#c44e52;stroke-dasharray:5.55,2.4;stroke-dashoffset:0;stroke-width:1.5;"/>
   </g>
   <g id="patch_13">
    <path d="M 50.62 442.08 
L 50.62 244.407273 
" style="fill:none;stroke:#cccccc;stroke-linecap:square;stroke-linejoin:miter;stroke-width:1.25;"/>
   </g>
   <g id="patch_14">
    <path d="M 304.256364 442.08 
L 304.256364 244.407273 
" style="fill:none;stroke:#cccccc;stroke-linecap:square;stroke-linejoin:miter;stroke-width:1.25;"/>
   </g>
   <g id="patch_15">
    <path d="M 50.62 442.08 
L 304.256364 442.08 
" style="fill:none;stroke:#cccccc;stroke-linecap:square;stroke-linejoin:miter;stroke-width:1.25;"/>
   </g>
   <g id="patch_16">
    <path d="M 50.62 244.407273 
L 304.256364 244.407273 
" style="fill:none;stroke:#cccccc;stroke-linecap:square;stroke-linejoin:miter;stroke-width:1.25;"/>
   </g>
  </g>
  <g id="axes_4">
   <g id="patch_17">
    <path d="M 354.983636 442.08 
L 608.62 442.08 
L 608.62 244.407273 
L 354.983636 244.407273 
z
" style="fill:#ffffff;"/>
   </g>
   <g id="matplotlib.axis_7">
    <g id="xtick_18">
     <g id="line2d_44">
      <path clip-path="url(#pa0619dd353)" d="M 378.208836 442.08 
L 378.208836 244.407273 
" style="fill:none;stroke:#cccccc;stroke-linecap:round;"/>
     </g>
     <g id="text_41">
      <!-- −0.10 -->
      <g style="fill:#262626;" transform="translate(364.292976 459.453594)scale(0.11 -0.11)">
       <use xlink:href="#ArialMT-8722"/>
       <use x="58.398438" xlink:href="#ArialMT-48"/>
       <use x="114.013672" xlink:href="#ArialMT-46"/>
       <use x="141.796875" xlink:href="#ArialMT-49"/>
       <use x="197.412109" xlink:href="#ArialMT-48"/>
      </g>
     </g>
    </g>
    <g id="xtick_19">
     <g id="line2d_45">
      <path clip-path="url(#pa0619dd353)" d="M 425.372743 442.08 
L 425.372743 244.407273 
" style="fill:none;stroke:#cccccc;stroke-linecap:round;"/>
     </g>
     <g id="text_42">
      <!-- −0.05 -->
      <g style="fill:#262626;" transform="translate(411.456883 459.453594)scale(0.11 -0.11)">
       <use xlink:href="#ArialMT-8722"/>
       <use x="58.398438" xlink:href="#ArialMT-48"/>
       <use x="114.013672" xlink:href="#ArialMT-46"/>
       <use x="141.796875" xlink:href="#ArialMT-48"/>
       <use x="197.412109" xlink:href="#ArialMT-53"/>
      </g>
     </g>
    </g>
    <g id="xtick_20">
     <g id="line2d_46">
      <path clip-path="url(#pa0619dd353)" d="M 472.53665 442.08 
L 472.53665 244.407273 
" style="fill:none;stroke:#cccccc;stroke-linecap:round;"/>
     </g>
     <g id="text_43">
      <!-- 0.00 -->
      <g style="fill:#262626;" transform="translate(461.833134 459.453594)scale(0.11 -0.11)">
       <use xlink:href="#ArialMT-48"/>
       <use x="55.615234" xlink:href="#ArialMT-46"/>
       <use x="83.398438" xlink:href="#ArialMT-48"/>
       <use x="139.013672" xlink:href="#ArialMT-48"/>
      </g>
     </g>
    </g>
    <g id="xtick_21">
     <g id="line2d_47">
      <path clip-path="url(#pa0619dd353)" d="M 519.700557 442.08 
L 519.700557 244.407273 
" style="fill:none;stroke:#cccccc;stroke-linecap:round;"/>
     </g>
     <g id="text_44">
      <!-- 0.05 -->
      <g style="fill:#262626;" transform="translate(508.997042 459.453594)scale(0.11 -0.11)">
       <use xlink:href="#ArialMT-48"/>
       <use x="55.615234" xlink:href="#ArialMT-46"/>
       <use x="83.398438" xlink:href="#ArialMT-48"/>
       <use x="139.013672" xlink:href="#ArialMT-53"/>
      </g>
     </g>
    </g>
    <g id="xtick_22">
     <g id="line2d_48">
      <path clip-path="url(#pa0619dd353)" d="M 566.864465 442.08 
L 566.864465 244.407273 
" style="fill:none;stroke:#cccccc;stroke-linecap:round;"/>
     </g>
     <g id="text_45">
      <!-- 0.10 -->
      <g style="fill:#262626;" transform="translate(556.160949 459.453594)scale(0.11 -0.11)">
       <use xlink:href="#ArialMT-48"/>
       <use x="55.615234" xlink:href="#ArialMT-46"/>
       <use x="83.398438" xlink:href="#ArialMT-49"/>
       <use x="139.013672" xlink:href="#ArialMT-48"/>
      </g>
     </g>
    </g>
    <g id="text_46">
     <!-- BP -->
     <defs>
      <path d="M 7.71875 0 
L 7.71875 71.578125 
L 34.71875 71.578125 
Q 41.84375 71.578125 45.609375 70.90625 
Q 50.875 70.015625 54.4375 67.546875 
Q 58.015625 65.09375 60.1875 60.640625 
Q 62.359375 56.203125 62.359375 50.875 
Q 62.359375 41.75 56.546875 35.421875 
Q 50.734375 29.109375 35.546875 29.109375 
L 17.1875 29.109375 
L 17.1875 0 
z
M 17.1875 37.546875 
L 35.6875 37.546875 
Q 44.875 37.546875 48.734375 40.96875 
Q 52.59375 44.390625 52.59375 50.59375 
Q 52.59375 55.078125 50.3125 58.265625 
Q 48.046875 61.46875 44.34375 62.5 
Q 41.9375 63.140625 35.5 63.140625 
L 17.1875 63.140625 
z
" id="ArialMT-80"/>
     </defs>
     <g style="fill:#262626;" transform="translate(473.797443 474.229219)scale(0.12 -0.12)">
      <use xlink:href="#ArialMT-66"/>
      <use x="66.699219" xlink:href="#ArialMT-80"/>
     </g>
    </g>
   </g>
   <g id="matplotlib.axis_8">
    <g id="ytick_18">
     <g id="line2d_49">
      <path clip-path="url(#pa0619dd353)" d="M 354.983636 419.510742 
L 608.62 419.510742 
" style="fill:none;stroke:#cccccc;stroke-linecap:round;"/>
     </g>
     <g id="text_47">
      <!-- −50 -->
      <g style="fill:#262626;" transform="translate(326.824886 423.447539)scale(0.11 -0.11)">
       <use xlink:href="#ArialMT-8722"/>
       <use x="58.398438" xlink:href="#ArialMT-53"/>
       <use x="114.013672" xlink:href="#ArialMT-48"/>
      </g>
     </g>
    </g>
    <g id="ytick_19">
     <g id="line2d_50">
      <path clip-path="url(#pa0619dd353)" d="M 354.983636 389.035941 
L 608.62 389.035941 
" style="fill:none;stroke:#cccccc;stroke-linecap:round;"/>
     </g>
     <g id="text_48">
      <!-- −25 -->
      <g style="fill:#262626;" transform="translate(326.824886 392.972738)scale(0.11 -0.11)">
       <use xlink:href="#ArialMT-8722"/>
       <use x="58.398438" xlink:href="#ArialMT-50"/>
       <use x="114.013672" xlink:href="#ArialMT-53"/>
      </g>
     </g>
    </g>
    <g id="ytick_20">
     <g id="line2d_51">
      <path clip-path="url(#pa0619dd353)" d="M 354.983636 358.56114 
L 608.62 358.56114 
" style="fill:none;stroke:#cccccc;stroke-linecap:round;"/>
     </g>
     <g id="text_49">
      <!-- 0 -->
      <g style="fill:#262626;" transform="translate(339.366605 362.497937)scale(0.11 -0.11)">
       <use xlink:href="#ArialMT-48"/>
      </g>
     </g>
    </g>
    <g id="ytick_21">
     <g id="line2d_52">
      <path clip-path="url(#pa0619dd353)" d="M 354.983636 328.08634 
L 608.62 328.08634 
" style="fill:none;stroke:#cccccc;stroke-linecap:round;"/>
     </g>
     <g id="text_50">
      <!-- 25 -->
      <g style="fill:#262626;" transform="translate(333.249574 332.023136)scale(0.11 -0.11)">
       <use xlink:href="#ArialMT-50"/>
       <use x="55.615234" xlink:href="#ArialMT-53"/>
      </g>
     </g>
    </g>
    <g id="ytick_22">
     <g id="line2d_53">
      <path clip-path="url(#pa0619dd353)" d="M 354.983636 297.611539 
L 608.62 297.611539 
" style="fill:none;stroke:#cccccc;stroke-linecap:round;"/>
     </g>
     <g id="text_51">
      <!-- 50 -->
      <g style="fill:#262626;" transform="translate(333.249574 301.548336)scale(0.11 -0.11)">
       <use xlink:href="#ArialMT-53"/>
       <use x="55.615234" xlink:href="#ArialMT-48"/>
      </g>
     </g>
    </g>
    <g id="ytick_23">
     <g id="line2d_54">
      <path clip-path="url(#pa0619dd353)" d="M 354.983636 267.136738 
L 608.62 267.136738 
" style="fill:none;stroke:#cccccc;stroke-linecap:round;"/>
     </g>
     <g id="text_52">
      <!-- 75 -->
      <defs>
       <path d="M 4.734375 62.203125 
L 4.734375 70.65625 
L 51.078125 70.65625 
L 51.078125 63.8125 
Q 44.234375 56.546875 37.515625 44.484375 
Q 30.8125 32.421875 27.15625 19.671875 
Q 24.515625 10.6875 23.78125 0 
L 14.75 0 
Q 14.890625 8.453125 18.0625 20.40625 
Q 21.234375 32.375 27.171875 43.484375 
Q 33.109375 54.59375 39.796875 62.203125 
z
" id="ArialMT-55"/>
      </defs>
      <g style="fill:#262626;" transform="translate(333.249574 271.073535)scale(0.11 -0.11)">
       <use xlink:href="#ArialMT-55"/>
       <use x="55.615234" xlink:href="#ArialMT-53"/>
      </g>
     </g>
    </g>
    <g id="text_53">
     <!-- f ( BP ) -->
     <g style="fill:#262626;" transform="translate(320.299261 361.910199)rotate(-90)scale(0.12 -0.12)">
      <use xlink:href="#ArialMT-102"/>
      <use x="27.783203" xlink:href="#ArialMT-32"/>
      <use x="55.566406" xlink:href="#ArialMT-40"/>
      <use x="88.867188" xlink:href="#ArialMT-32"/>
      <use x="116.650391" xlink:href="#ArialMT-66"/>
      <use x="183.349609" xlink:href="#ArialMT-80"/>
      <use x="250.033203" xlink:href="#ArialMT-32"/>
      <use x="277.816406" xlink:href="#ArialMT-41"/>
     </g>
    </g>
   </g>
   <g id="line2d_55">
    <path clip-path="url(#pa0619dd353)" d="M 366.512562 399.77006 
L 368.841638 398.79762 
L 371.170714 397.825128 
L 373.49979 396.852712 
L 375.828866 395.880565 
L 378.157941 394.909216 
L 380.487017 393.939307 
L 382.816093 392.971502 
L 385.145169 392.006605 
L 387.474245 391.045485 
L 389.803321 390.089059 
L 392.132397 389.138707 
L 394.461473 388.19607 
L 396.790548 387.262749 
L 399.119624 386.339771 
L 401.4487 385.427746 
L 403.777776 384.527234 
L 406.106852 383.637898 
L 408.435928 382.758581 
L 410.765004 381.888124 
L 413.09408 381.026306 
L 415.423156 380.174008 
L 417.752231 379.332173 
L 420.081307 378.501462 
L 422.410383 377.682117 
L 424.739459 376.874339 
L 427.068535 376.077355 
L 429.397611 375.288507 
L 431.726687 374.504922 
L 434.055763 373.72487 
L 436.384838 372.949512 
L 438.713914 372.180453 
L 441.04299 371.419217 
L 443.372066 370.667042 
L 445.701142 369.925111 
L 448.030218 369.19391 
L 450.359294 368.470876 
L 452.68837 367.752611 
L 455.017446 367.036273 
L 457.346521 366.322283 
L 459.675597 365.612243 
L 462.004673 364.907371 
L 464.333749 364.205865 
L 466.662825 363.504493 
L 468.991901 362.799794 
L 471.320977 362.085899 
L 473.650053 361.355467 
L 475.979128 360.601353 
L 478.308204 359.819685 
L 480.63728 359.009149 
L 482.966356 358.168559 
L 485.295432 357.298013 
L 487.624508 356.398893 
L 489.953584 355.472684 
L 492.28266 354.522498 
L 494.611736 353.553532 
L 496.940811 352.571087 
L 499.269887 351.57807 
L 501.598963 350.573473 
L 503.928039 349.555924 
L 506.257115 348.524128 
L 508.586191 347.47695 
L 510.915267 346.413277 
L 513.244343 345.332425 
L 515.573418 344.234899 
L 517.902494 343.121409 
L 520.23157 341.992165 
L 522.560646 340.845569 
L 524.889722 339.679609 
L 527.218798 338.492487 
L 529.547874 337.28343 
L 531.87695 336.051978 
L 534.206026 334.797561 
L 536.535101 333.518918 
L 538.864177 332.214513 
L 541.193253 330.882654 
L 543.522329 329.520313 
L 545.851405 328.123769 
L 548.180481 326.68938 
L 550.509557 325.214506 
L 552.838633 323.697173 
L 555.167708 322.135507 
L 557.496784 320.529223 
L 559.82586 318.879383 
L 562.154936 317.187115 
L 564.484012 315.454189 
L 566.813088 313.683071 
L 569.142164 311.87626 
L 571.47124 310.03619 
L 573.800316 308.165205 
L 576.129391 306.265642 
L 578.458467 304.340116 
L 580.787543 302.391725 
L 583.116619 300.42362 
L 585.445695 298.438948 
L 587.774771 296.440839 
L 590.103847 294.432425 
L 592.432923 292.416602 
L 594.761998 290.395555 
L 597.091074 288.371335 
" style="fill:none;stroke:#023eff;stroke-linecap:round;stroke-width:1.5;"/>
   </g>
   <g id="line2d_56">
    <path clip-path="url(#pa0619dd353)" d="M 366.512562 433.094876 
L 368.841638 430.683274 
L 371.170714 428.290547 
L 373.49979 425.919983 
L 375.828866 423.575212 
L 378.157941 421.260784 
L 380.487017 418.981627 
L 382.816093 416.74286 
L 385.145169 414.550076 
L 387.474245 412.409081 
L 389.803321 410.325777 
L 392.132397 408.306685 
L 394.461473 406.358603 
L 396.790548 404.488166 
L 399.119624 402.701436 
L 401.4487 401.003699 
L 403.777776 399.399328 
L 406.106852 397.890912 
L 408.435928 396.478927 
L 410.765004 395.161954 
L 413.09408 393.937691 
L 415.423156 392.803102 
L 417.752231 391.753144 
L 420.081307 390.781091 
L 422.410383 389.879036 
L 424.739459 389.038149 
L 427.068535 388.248541 
L 429.397611 387.499096 
L 431.726687 386.778775 
L 434.055763 386.078592 
L 436.384838 385.394182 
L 438.713914 384.722382 
L 441.04299 384.060828 
L 443.372066 383.408424 
L 445.701142 382.764462 
L 448.030218 382.127849 
L 450.359294 381.49539 
L 452.68837 380.863195 
L 455.017446 380.227875 
L 457.346521 379.589821 
L 459.675597 378.950578 
L 462.004673 378.311055 
L 464.333749 377.669443 
L 466.662825 377.022479 
L 468.991901 376.366426 
L 471.320977 375.695564 
L 473.650053 375.002819 
L 475.979128 374.28097 
L 478.308204 373.526143 
L 480.63728 372.736975 
L 482.966356 371.911796 
L 485.295432 371.050292 
L 487.624508 370.153549 
L 489.953584 369.222393 
L 492.28266 368.259335 
L 494.611736 367.269175 
L 496.940811 366.256555 
L 499.269887 365.223857 
L 501.598963 364.169982 
L 503.928039 363.093314 
L 506.257115 361.992452 
L 508.586191 360.866714 
L 510.915267 359.715354 
L 513.244343 358.538163 
L 515.573418 357.336772 
L 517.902494 356.113101 
L 520.23157 354.868861 
L 522.560646 353.605048 
L 524.889722 352.322756 
L 527.218798 351.023926 
L 529.547874 349.713201 
L 531.87695 348.396521 
L 534.206026 347.080508 
L 536.535101 345.772691 
L 538.864177 344.481094 
L 541.193253 343.213669 
L 543.522329 341.977323 
L 545.851405 340.777649 
L 548.180481 339.618765 
L 550.509557 338.504112 
L 552.838633 337.435671 
L 555.167708 336.413105 
L 557.496784 335.435622 
L 559.82586 334.501984 
L 562.154936 333.60943 
L 564.484012 332.754917 
L 566.813088 331.935598 
L 569.142164 331.148223 
L 571.47124 330.389506 
L 573.800316 329.656407 
L 576.129391 328.946021 
L 578.458467 328.256017 
L 580.787543 327.58503 
L 583.116619 326.931979 
L 585.445695 326.295979 
L 587.774771 325.676361 
L 590.103847 325.072604 
L 592.432923 324.484174 
L 594.761998 323.910291 
L 597.091074 323.350273 
" style="fill:none;stroke:#c44e52;stroke-dasharray:5.55,2.4;stroke-dashoffset:0;stroke-width:1.5;"/>
   </g>
   <g id="line2d_57">
    <path clip-path="url(#pa0619dd353)" d="M 366.512562 366.445244 
L 368.841638 366.911967 
L 371.170714 367.35971 
L 373.49979 367.785442 
L 375.828866 368.185918 
L 378.157941 368.557648 
L 380.487017 368.896988 
L 382.816093 369.200144 
L 385.145169 369.463134 
L 387.474245 369.68189 
L 389.803321 369.852341 
L 392.132397 369.970729 
L 394.461473 370.033536 
L 396.790548 370.037332 
L 399.119624 369.978105 
L 401.4487 369.851793 
L 403.777776 369.65514 
L 406.106852 369.384884 
L 408.435928 369.038236 
L 410.765004 368.614295 
L 413.09408 368.114921 
L 415.423156 367.544915 
L 417.752231 366.911202 
L 420.081307 366.221832 
L 422.410383 365.485199 
L 424.739459 364.710529 
L 427.068535 363.906169 
L 429.397611 363.077918 
L 431.726687 362.231068 
L 434.055763 361.371149 
L 436.384838 360.504842 
L 438.713914 359.638525 
L 441.04299 358.777606 
L 443.372066 357.925661 
L 445.701142 357.08576 
L 448.030218 356.25997 
L 450.359294 355.446362 
L 452.68837 354.642027 
L 455.017446 353.844671 
L 457.346521 353.054744 
L 459.675597 352.273907 
L 462.004673 351.503687 
L 464.333749 350.742287 
L 466.662825 349.986508 
L 468.991901 349.233163 
L 471.320977 348.476233 
L 473.650053 347.708115 
L 475.979128 346.921737 
L 478.308204 346.113226 
L 480.63728 345.281323 
L 482.966356 344.425322 
L 485.295432 343.545733 
L 487.624508 342.644238 
L 489.953584 341.722974 
L 492.28266 340.785661 
L 494.611736 339.83789 
L 496.940811 338.885619 
L 499.269887 337.932283 
L 501.598963 336.976964 
L 503.928039 336.018535 
L 506.257115 335.055805 
L 508.586191 334.087187 
L 510.915267 333.1112 
L 513.244343 332.126686 
L 515.573418 331.133026 
L 517.902494 330.129716 
L 520.23157 329.11547 
L 522.560646 328.086091 
L 524.889722 327.036463 
L 527.218798 325.961047 
L 529.547874 324.853659 
L 531.87695 323.707435 
L 534.206026 322.514615 
L 536.535101 321.265145 
L 538.864177 319.947931 
L 541.193253 318.55164 
L 543.522329 317.063302 
L 545.851405 315.469889 
L 548.180481 313.759995 
L 550.509557 311.9249 
L 552.838633 309.958674 
L 555.167708 307.857908 
L 557.496784 305.622824 
L 559.82586 303.256782 
L 562.154936 300.7648 
L 564.484012 298.15346 
L 566.813088 295.430544 
L 569.142164 292.604297 
L 571.47124 289.682875 
L 573.800316 286.674003 
L 576.129391 283.585264 
L 578.458467 280.424214 
L 580.787543 277.198419 
L 583.116619 273.915262 
L 585.445695 270.581916 
L 587.774771 267.205317 
L 590.103847 263.792247 
L 592.432923 260.34903 
L 594.761998 256.880818 
L 597.091074 253.392397 
" style="fill:none;stroke:#c44e52;stroke-dasharray:5.55,2.4;stroke-dashoffset:0;stroke-width:1.5;"/>
   </g>
   <g id="patch_18">
    <path d="M 354.983636 442.08 
L 354.983636 244.407273 
" style="fill:none;stroke:#cccccc;stroke-linecap:square;stroke-linejoin:miter;stroke-width:1.25;"/>
   </g>
   <g id="patch_19">
    <path d="M 608.62 442.08 
L 608.62 244.407273 
" style="fill:none;stroke:#cccccc;stroke-linecap:square;stroke-linejoin:miter;stroke-width:1.25;"/>
   </g>
   <g id="patch_20">
    <path d="M 354.983636 442.08 
L 608.62 442.08 
" style="fill:none;stroke:#cccccc;stroke-linecap:square;stroke-linejoin:miter;stroke-width:1.25;"/>
   </g>
   <g id="patch_21">
    <path d="M 354.983636 244.407273 
L 608.62 244.407273 
" style="fill:none;stroke:#cccccc;stroke-linecap:square;stroke-linejoin:miter;stroke-width:1.25;"/>
   </g>
  </g>
 </g>
 <defs>
  <clipPath id="p5336f2a2f4">
   <rect height="197.672727" width="253.636364" x="50.62" y="7.2"/>
  </clipPath>
  <clipPath id="p1b19870869">
   <rect height="197.672727" width="253.636364" x="354.983636" y="7.2"/>
  </clipPath>
  <clipPath id="p44d0fdac56">
   <rect height="197.672727" width="253.636364" x="50.62" y="244.407273"/>
  </clipPath>
  <clipPath id="pa0619dd353">
   <rect height="197.672727" width="253.636364" x="354.983636" y="244.407273"/>
  </clipPath>
 </defs>
</svg>
