<?xml version="1.0" encoding="utf-8" standalone="no"?>
<!DOCTYPE svg PUBLIC "-//W3C//DTD SVG 1.1//EN"
  "http://www.w3.org/Graphics/SVG/1.1/DTD/svg11.dtd">
<!-- Created with matplotlib (https://matplotlib.org/) -->
<svg height="335.323594pt" version="1.1" viewBox="0 0 888.395312 335.323594" width="888.395312pt" xmlns="http://www.w3.org/2000/svg" xmlns:xlink="http://www.w3.org/1999/xlink">
 <defs>
  <style type="text/css">
*{stroke-linecap:butt;stroke-linejoin:round;}
  </style>
 </defs>
 <g id="figure_1">
  <g id="patch_1">
   <path d="M 0 335.323594 
L 888.395312 335.323594 
L 888.395312 0 
L 0 0 
z
" style="fill:#ffffff;"/>
  </g>
  <g id="axes_1">
   <g id="patch_2">
    <path d="M 44.195312 293.589375 
L 424.649858 293.589375 
L 424.649858 21.789375 
L 44.195312 21.789375 
z
" style="fill:#ffffff;"/>
   </g>
   <g id="matplotlib.axis_1">
    <g id="xtick_1">
     <g id="line2d_1">
      <path clip-path="url(#p478b372fa5)" d="M 61.488701 293.589375 
L 61.488701 21.789375 
" style="fill:none;stroke:#cccccc;stroke-linecap:round;"/>
     </g>
     <g id="text_1">
      <!-- 0 -->
      <defs>
       <path d="M 4.15625 35.296875 
Q 4.15625 48 6.765625 55.734375 
Q 9.375 63.484375 14.515625 67.671875 
Q 19.671875 71.875 27.484375 71.875 
Q 33.25 71.875 37.59375 69.546875 
Q 41.9375 67.234375 44.765625 62.859375 
Q 47.609375 58.5 49.21875 52.21875 
Q 50.828125 45.953125 50.828125 35.296875 
Q 50.828125 22.703125 48.234375 14.96875 
Q 45.65625 7.234375 40.5 3 
Q 35.359375 -1.21875 27.484375 -1.21875 
Q 17.140625 -1.21875 11.234375 6.203125 
Q 4.15625 15.140625 4.15625 35.296875 
z
M 13.1875 35.296875 
Q 13.1875 17.671875 17.3125 11.828125 
Q 21.4375 6 27.484375 6 
Q 33.546875 6 37.671875 11.859375 
Q 41.796875 17.71875 41.796875 35.296875 
Q 41.796875 52.984375 37.671875 58.78125 
Q 33.546875 64.59375 27.390625 64.59375 
Q 21.34375 64.59375 17.71875 59.46875 
Q 13.1875 52.9375 13.1875 35.296875 
z
" id="ArialMT-48"/>
      </defs>
      <g style="fill:#262626;" transform="translate(58.430185 310.962969)scale(0.11 -0.11)">
       <use xlink:href="#ArialMT-48"/>
      </g>
     </g>
    </g>
    <g id="xtick_2">
     <g id="line2d_2">
      <path clip-path="url(#p478b372fa5)" d="M 130.800879 293.589375 
L 130.800879 21.789375 
" style="fill:none;stroke:#cccccc;stroke-linecap:round;"/>
     </g>
     <g id="text_2">
      <!-- 100 -->
      <defs>
       <path d="M 37.25 0 
L 28.46875 0 
L 28.46875 56 
Q 25.296875 52.984375 20.140625 49.953125 
Q 14.984375 46.921875 10.890625 45.40625 
L 10.890625 53.90625 
Q 18.265625 57.375 23.78125 62.296875 
Q 29.296875 67.234375 31.59375 71.875 
L 37.25 71.875 
z
" id="ArialMT-49"/>
      </defs>
      <g style="fill:#262626;" transform="translate(121.625332 310.962969)scale(0.11 -0.11)">
       <use xlink:href="#ArialMT-49"/>
       <use x="55.615234" xlink:href="#ArialMT-48"/>
       <use x="111.230469" xlink:href="#ArialMT-48"/>
      </g>
     </g>
    </g>
    <g id="xtick_3">
     <g id="line2d_3">
      <path clip-path="url(#p478b372fa5)" d="M 200.113057 293.589375 
L 200.113057 21.789375 
" style="fill:none;stroke:#cccccc;stroke-linecap:round;"/>
     </g>
     <g id="text_3">
      <!-- 200 -->
      <defs>
       <path d="M 50.34375 8.453125 
L 50.34375 0 
L 3.03125 0 
Q 2.9375 3.171875 4.046875 6.109375 
Q 5.859375 10.9375 9.828125 15.625 
Q 13.8125 20.3125 21.34375 26.46875 
Q 33.015625 36.03125 37.109375 41.625 
Q 41.21875 47.21875 41.21875 52.203125 
Q 41.21875 57.421875 37.46875 61 
Q 33.734375 64.59375 27.734375 64.59375 
Q 21.390625 64.59375 17.578125 60.78125 
Q 13.765625 56.984375 13.71875 50.25 
L 4.6875 51.171875 
Q 5.609375 61.28125 11.65625 66.578125 
Q 17.71875 71.875 27.9375 71.875 
Q 38.234375 71.875 44.234375 66.15625 
Q 50.25 60.453125 50.25 52 
Q 50.25 47.703125 48.484375 43.546875 
Q 46.734375 39.40625 42.65625 34.8125 
Q 38.578125 30.21875 29.109375 22.21875 
Q 21.1875 15.578125 18.9375 13.203125 
Q 16.703125 10.84375 15.234375 8.453125 
z
" id="ArialMT-50"/>
      </defs>
      <g style="fill:#262626;" transform="translate(190.93751 310.962969)scale(0.11 -0.11)">
       <use xlink:href="#ArialMT-50"/>
       <use x="55.615234" xlink:href="#ArialMT-48"/>
       <use x="111.230469" xlink:href="#ArialMT-48"/>
      </g>
     </g>
    </g>
    <g id="xtick_4">
     <g id="line2d_4">
      <path clip-path="url(#p478b372fa5)" d="M 269.425235 293.589375 
L 269.425235 21.789375 
" style="fill:none;stroke:#cccccc;stroke-linecap:round;"/>
     </g>
     <g id="text_4">
      <!-- 300 -->
      <defs>
       <path d="M 4.203125 18.890625 
L 12.984375 20.0625 
Q 14.5 12.59375 18.140625 9.296875 
Q 21.78125 6 27 6 
Q 33.203125 6 37.46875 10.296875 
Q 41.75 14.59375 41.75 20.953125 
Q 41.75 27 37.796875 30.921875 
Q 33.84375 34.859375 27.734375 34.859375 
Q 25.25 34.859375 21.53125 33.890625 
L 22.515625 41.609375 
Q 23.390625 41.5 23.921875 41.5 
Q 29.546875 41.5 34.03125 44.421875 
Q 38.53125 47.359375 38.53125 53.46875 
Q 38.53125 58.296875 35.25 61.46875 
Q 31.984375 64.65625 26.8125 64.65625 
Q 21.6875 64.65625 18.265625 61.421875 
Q 14.84375 58.203125 13.875 51.765625 
L 5.078125 53.328125 
Q 6.6875 62.15625 12.390625 67.015625 
Q 18.109375 71.875 26.609375 71.875 
Q 32.46875 71.875 37.390625 69.359375 
Q 42.328125 66.84375 44.9375 62.5 
Q 47.5625 58.15625 47.5625 53.265625 
Q 47.5625 48.640625 45.0625 44.828125 
Q 42.578125 41.015625 37.703125 38.765625 
Q 44.046875 37.3125 47.5625 32.6875 
Q 51.078125 28.078125 51.078125 21.140625 
Q 51.078125 11.765625 44.234375 5.25 
Q 37.40625 -1.265625 26.953125 -1.265625 
Q 17.53125 -1.265625 11.296875 4.34375 
Q 5.078125 9.96875 4.203125 18.890625 
z
" id="ArialMT-51"/>
      </defs>
      <g style="fill:#262626;" transform="translate(260.249688 310.962969)scale(0.11 -0.11)">
       <use xlink:href="#ArialMT-51"/>
       <use x="55.615234" xlink:href="#ArialMT-48"/>
       <use x="111.230469" xlink:href="#ArialMT-48"/>
      </g>
     </g>
    </g>
    <g id="xtick_5">
     <g id="line2d_5">
      <path clip-path="url(#p478b372fa5)" d="M 338.737413 293.589375 
L 338.737413 21.789375 
" style="fill:none;stroke:#cccccc;stroke-linecap:round;"/>
     </g>
     <g id="text_5">
      <!-- 400 -->
      <defs>
       <path d="M 32.328125 0 
L 32.328125 17.140625 
L 1.265625 17.140625 
L 1.265625 25.203125 
L 33.9375 71.578125 
L 41.109375 71.578125 
L 41.109375 25.203125 
L 50.78125 25.203125 
L 50.78125 17.140625 
L 41.109375 17.140625 
L 41.109375 0 
z
M 32.328125 25.203125 
L 32.328125 57.46875 
L 9.90625 25.203125 
z
" id="ArialMT-52"/>
      </defs>
      <g style="fill:#262626;" transform="translate(329.561866 310.962969)scale(0.11 -0.11)">
       <use xlink:href="#ArialMT-52"/>
       <use x="55.615234" xlink:href="#ArialMT-48"/>
       <use x="111.230469" xlink:href="#ArialMT-48"/>
      </g>
     </g>
    </g>
    <g id="xtick_6">
     <g id="line2d_6">
      <path clip-path="url(#p478b372fa5)" d="M 408.049591 293.589375 
L 408.049591 21.789375 
" style="fill:none;stroke:#cccccc;stroke-linecap:round;"/>
     </g>
     <g id="text_6">
      <!-- 500 -->
      <defs>
       <path d="M 4.15625 18.75 
L 13.375 19.53125 
Q 14.40625 12.796875 18.140625 9.390625 
Q 21.875 6 27.15625 6 
Q 33.5 6 37.890625 10.78125 
Q 42.28125 15.578125 42.28125 23.484375 
Q 42.28125 31 38.0625 35.34375 
Q 33.84375 39.703125 27 39.703125 
Q 22.75 39.703125 19.328125 37.765625 
Q 15.921875 35.84375 13.96875 32.765625 
L 5.71875 33.84375 
L 12.640625 70.609375 
L 48.25 70.609375 
L 48.25 62.203125 
L 19.671875 62.203125 
L 15.828125 42.96875 
Q 22.265625 47.46875 29.34375 47.46875 
Q 38.71875 47.46875 45.15625 40.96875 
Q 51.609375 34.46875 51.609375 24.265625 
Q 51.609375 14.546875 45.953125 7.46875 
Q 39.0625 -1.21875 27.15625 -1.21875 
Q 17.390625 -1.21875 11.203125 4.25 
Q 5.03125 9.71875 4.15625 18.75 
z
" id="ArialMT-53"/>
      </defs>
      <g style="fill:#262626;" transform="translate(398.874044 310.962969)scale(0.11 -0.11)">
       <use xlink:href="#ArialMT-53"/>
       <use x="55.615234" xlink:href="#ArialMT-48"/>
       <use x="111.230469" xlink:href="#ArialMT-48"/>
      </g>
     </g>
    </g>
    <g id="text_7">
     <!-- Epoch -->
     <defs>
      <path d="M 7.90625 0 
L 7.90625 71.578125 
L 59.671875 71.578125 
L 59.671875 63.140625 
L 17.390625 63.140625 
L 17.390625 41.21875 
L 56.984375 41.21875 
L 56.984375 32.8125 
L 17.390625 32.8125 
L 17.390625 8.453125 
L 61.328125 8.453125 
L 61.328125 0 
z
" id="ArialMT-69"/>
      <path d="M 6.59375 -19.875 
L 6.59375 51.859375 
L 14.59375 51.859375 
L 14.59375 45.125 
Q 17.4375 49.078125 21 51.046875 
Q 24.5625 53.03125 29.640625 53.03125 
Q 36.28125 53.03125 41.359375 49.609375 
Q 46.4375 46.1875 49.015625 39.953125 
Q 51.609375 33.734375 51.609375 26.3125 
Q 51.609375 18.359375 48.75 11.984375 
Q 45.90625 5.609375 40.453125 2.21875 
Q 35.015625 -1.171875 29 -1.171875 
Q 24.609375 -1.171875 21.109375 0.6875 
Q 17.625 2.546875 15.375 5.375 
L 15.375 -19.875 
z
M 14.546875 25.640625 
Q 14.546875 15.625 18.59375 10.84375 
Q 22.65625 6.0625 28.421875 6.0625 
Q 34.28125 6.0625 38.453125 11.015625 
Q 42.625 15.96875 42.625 26.375 
Q 42.625 36.28125 38.546875 41.203125 
Q 34.46875 46.140625 28.8125 46.140625 
Q 23.1875 46.140625 18.859375 40.890625 
Q 14.546875 35.640625 14.546875 25.640625 
z
" id="ArialMT-112"/>
      <path d="M 3.328125 25.921875 
Q 3.328125 40.328125 11.328125 47.265625 
Q 18.015625 53.03125 27.640625 53.03125 
Q 38.328125 53.03125 45.109375 46.015625 
Q 51.90625 39.015625 51.90625 26.65625 
Q 51.90625 16.65625 48.90625 10.90625 
Q 45.90625 5.171875 40.15625 2 
Q 34.421875 -1.171875 27.640625 -1.171875 
Q 16.75 -1.171875 10.03125 5.8125 
Q 3.328125 12.796875 3.328125 25.921875 
z
M 12.359375 25.921875 
Q 12.359375 15.96875 16.703125 11.015625 
Q 21.046875 6.0625 27.640625 6.0625 
Q 34.1875 6.0625 38.53125 11.03125 
Q 42.875 16.015625 42.875 26.21875 
Q 42.875 35.84375 38.5 40.796875 
Q 34.125 45.75 27.640625 45.75 
Q 21.046875 45.75 16.703125 40.8125 
Q 12.359375 35.890625 12.359375 25.921875 
z
" id="ArialMT-111"/>
      <path d="M 40.4375 19 
L 49.078125 17.875 
Q 47.65625 8.9375 41.8125 3.875 
Q 35.984375 -1.171875 27.484375 -1.171875 
Q 16.84375 -1.171875 10.375 5.78125 
Q 3.90625 12.75 3.90625 25.734375 
Q 3.90625 34.125 6.6875 40.421875 
Q 9.46875 46.734375 15.15625 49.875 
Q 20.84375 53.03125 27.546875 53.03125 
Q 35.984375 53.03125 41.359375 48.75 
Q 46.734375 44.484375 48.25 36.625 
L 39.703125 35.296875 
Q 38.484375 40.53125 35.375 43.15625 
Q 32.28125 45.796875 27.875 45.796875 
Q 21.234375 45.796875 17.078125 41.03125 
Q 12.9375 36.28125 12.9375 25.984375 
Q 12.9375 15.53125 16.9375 10.796875 
Q 20.953125 6.0625 27.390625 6.0625 
Q 32.5625 6.0625 36.03125 9.234375 
Q 39.5 12.40625 40.4375 19 
z
" id="ArialMT-99"/>
      <path d="M 6.59375 0 
L 6.59375 71.578125 
L 15.375 71.578125 
L 15.375 45.90625 
Q 21.53125 53.03125 30.90625 53.03125 
Q 36.671875 53.03125 40.921875 50.75 
Q 45.171875 48.484375 47 44.484375 
Q 48.828125 40.484375 48.828125 32.859375 
L 48.828125 0 
L 40.046875 0 
L 40.046875 32.859375 
Q 40.046875 39.453125 37.1875 42.453125 
Q 34.328125 45.453125 29.109375 45.453125 
Q 25.203125 45.453125 21.75 43.421875 
Q 18.3125 41.40625 16.84375 37.9375 
Q 15.375 34.46875 15.375 28.375 
L 15.375 0 
z
" id="ArialMT-104"/>
     </defs>
     <g style="fill:#262626;" transform="translate(217.41071 325.738594)scale(0.12 -0.12)">
      <use xlink:href="#ArialMT-69"/>
      <use x="66.699219" xlink:href="#ArialMT-112"/>
      <use x="122.314453" xlink:href="#ArialMT-111"/>
      <use x="177.929688" xlink:href="#ArialMT-99"/>
      <use x="227.929688" xlink:href="#ArialMT-104"/>
     </g>
    </g>
   </g>
   <g id="matplotlib.axis_2">
    <g id="ytick_1">
     <g id="line2d_7">
      <path clip-path="url(#p478b372fa5)" d="M 44.195312 251.309375 
L 424.649858 251.309375 
" style="fill:none;stroke:#cccccc;stroke-linecap:round;"/>
     </g>
     <g id="text_8">
      <!-- 91 -->
      <defs>
       <path d="M 5.46875 16.546875 
L 13.921875 17.328125 
Q 14.984375 11.375 18.015625 8.6875 
Q 21.046875 6 25.78125 6 
Q 29.828125 6 32.875 7.859375 
Q 35.9375 9.71875 37.890625 12.8125 
Q 39.84375 15.921875 41.15625 21.1875 
Q 42.484375 26.46875 42.484375 31.9375 
Q 42.484375 32.515625 42.4375 33.6875 
Q 39.796875 29.5 35.234375 26.875 
Q 30.671875 24.265625 25.34375 24.265625 
Q 16.453125 24.265625 10.296875 30.703125 
Q 4.15625 37.15625 4.15625 47.703125 
Q 4.15625 58.59375 10.578125 65.234375 
Q 17 71.875 26.65625 71.875 
Q 33.640625 71.875 39.421875 68.109375 
Q 45.21875 64.359375 48.21875 57.390625 
Q 51.21875 50.4375 51.21875 37.25 
Q 51.21875 23.53125 48.234375 15.40625 
Q 45.265625 7.28125 39.375 3.03125 
Q 33.5 -1.21875 25.59375 -1.21875 
Q 17.1875 -1.21875 11.859375 3.4375 
Q 6.546875 8.109375 5.46875 16.546875 
z
M 41.453125 48.140625 
Q 41.453125 55.71875 37.421875 60.15625 
Q 33.40625 64.59375 27.734375 64.59375 
Q 21.875 64.59375 17.53125 59.8125 
Q 13.1875 55.03125 13.1875 47.40625 
Q 13.1875 40.578125 17.3125 36.296875 
Q 21.4375 32.03125 27.484375 32.03125 
Q 33.59375 32.03125 37.515625 36.296875 
Q 41.453125 40.578125 41.453125 48.140625 
z
" id="ArialMT-57"/>
      </defs>
      <g style="fill:#262626;" transform="translate(22.46125 255.246172)scale(0.11 -0.11)">
       <use xlink:href="#ArialMT-57"/>
       <use x="55.615234" xlink:href="#ArialMT-49"/>
      </g>
     </g>
    </g>
    <g id="ytick_2">
     <g id="line2d_8">
      <path clip-path="url(#p478b372fa5)" d="M 44.195312 196.67483 
L 424.649858 196.67483 
" style="fill:none;stroke:#cccccc;stroke-linecap:round;"/>
     </g>
     <g id="text_9">
      <!-- 92 -->
      <g style="fill:#262626;" transform="translate(22.46125 200.611626)scale(0.11 -0.11)">
       <use xlink:href="#ArialMT-57"/>
       <use x="55.615234" xlink:href="#ArialMT-50"/>
      </g>
     </g>
    </g>
    <g id="ytick_3">
     <g id="line2d_9">
      <path clip-path="url(#p478b372fa5)" d="M 44.195312 142.040284 
L 424.649858 142.040284 
" style="fill:none;stroke:#cccccc;stroke-linecap:round;"/>
     </g>
     <g id="text_10">
      <!-- 93 -->
      <g style="fill:#262626;" transform="translate(22.46125 145.977081)scale(0.11 -0.11)">
       <use xlink:href="#ArialMT-57"/>
       <use x="55.615234" xlink:href="#ArialMT-51"/>
      </g>
     </g>
    </g>
    <g id="ytick_4">
     <g id="line2d_10">
      <path clip-path="url(#p478b372fa5)" d="M 44.195312 87.405739 
L 424.649858 87.405739 
" style="fill:none;stroke:#cccccc;stroke-linecap:round;"/>
     </g>
     <g id="text_11">
      <!-- 94 -->
      <g style="fill:#262626;" transform="translate(22.46125 91.342536)scale(0.11 -0.11)">
       <use xlink:href="#ArialMT-57"/>
       <use x="55.615234" xlink:href="#ArialMT-52"/>
      </g>
     </g>
    </g>
    <g id="ytick_5">
     <g id="line2d_11">
      <path clip-path="url(#p478b372fa5)" d="M 44.195312 32.771193 
L 424.649858 32.771193 
" style="fill:none;stroke:#cccccc;stroke-linecap:round;"/>
     </g>
     <g id="text_12">
      <!-- 95 -->
      <g style="fill:#262626;" transform="translate(22.46125 36.70799)scale(0.11 -0.11)">
       <use xlink:href="#ArialMT-57"/>
       <use x="55.615234" xlink:href="#ArialMT-53"/>
      </g>
     </g>
    </g>
    <g id="text_13">
     <!-- Accuracy (%) -->
     <defs>
      <path d="M -0.140625 0 
L 27.34375 71.578125 
L 37.546875 71.578125 
L 66.84375 0 
L 56.0625 0 
L 47.703125 21.6875 
L 17.78125 21.6875 
L 9.90625 0 
z
M 20.515625 29.390625 
L 44.78125 29.390625 
L 37.3125 49.21875 
Q 33.890625 58.25 32.234375 64.0625 
Q 30.859375 57.171875 28.375 50.390625 
z
" id="ArialMT-65"/>
      <path d="M 40.578125 0 
L 40.578125 7.625 
Q 34.515625 -1.171875 24.125 -1.171875 
Q 19.53125 -1.171875 15.546875 0.578125 
Q 11.578125 2.34375 9.640625 5 
Q 7.71875 7.671875 6.9375 11.53125 
Q 6.390625 14.109375 6.390625 19.734375 
L 6.390625 51.859375 
L 15.1875 51.859375 
L 15.1875 23.09375 
Q 15.1875 16.21875 15.71875 13.8125 
Q 16.546875 10.359375 19.234375 8.375 
Q 21.921875 6.390625 25.875 6.390625 
Q 29.828125 6.390625 33.296875 8.421875 
Q 36.765625 10.453125 38.203125 13.9375 
Q 39.65625 17.4375 39.65625 24.078125 
L 39.65625 51.859375 
L 48.4375 51.859375 
L 48.4375 0 
z
" id="ArialMT-117"/>
      <path d="M 6.5 0 
L 6.5 51.859375 
L 14.40625 51.859375 
L 14.40625 44 
Q 17.4375 49.515625 20 51.265625 
Q 22.5625 53.03125 25.640625 53.03125 
Q 30.078125 53.03125 34.671875 50.203125 
L 31.640625 42.046875 
Q 28.421875 43.953125 25.203125 43.953125 
Q 22.3125 43.953125 20.015625 42.21875 
Q 17.71875 40.484375 16.75 37.40625 
Q 15.28125 32.71875 15.28125 27.15625 
L 15.28125 0 
z
" id="ArialMT-114"/>
      <path d="M 40.4375 6.390625 
Q 35.546875 2.25 31.03125 0.53125 
Q 26.515625 -1.171875 21.34375 -1.171875 
Q 12.796875 -1.171875 8.203125 3 
Q 3.609375 7.171875 3.609375 13.671875 
Q 3.609375 17.484375 5.34375 20.625 
Q 7.078125 23.78125 9.890625 25.6875 
Q 12.703125 27.59375 16.21875 28.5625 
Q 18.796875 29.25 24.03125 29.890625 
Q 34.671875 31.15625 39.703125 32.90625 
Q 39.75 34.71875 39.75 35.203125 
Q 39.75 40.578125 37.25 42.78125 
Q 33.890625 45.75 27.25 45.75 
Q 21.046875 45.75 18.09375 43.578125 
Q 15.140625 41.40625 13.71875 35.890625 
L 5.125 37.0625 
Q 6.296875 42.578125 8.984375 45.96875 
Q 11.671875 49.359375 16.75 51.1875 
Q 21.828125 53.03125 28.515625 53.03125 
Q 35.15625 53.03125 39.296875 51.46875 
Q 43.453125 49.90625 45.40625 47.53125 
Q 47.359375 45.171875 48.140625 41.546875 
Q 48.578125 39.3125 48.578125 33.453125 
L 48.578125 21.734375 
Q 48.578125 9.46875 49.140625 6.21875 
Q 49.703125 2.984375 51.375 0 
L 42.1875 0 
Q 40.828125 2.734375 40.4375 6.390625 
z
M 39.703125 26.03125 
Q 34.90625 24.078125 25.34375 22.703125 
Q 19.921875 21.921875 17.671875 20.9375 
Q 15.4375 19.96875 14.203125 18.09375 
Q 12.984375 16.21875 12.984375 13.921875 
Q 12.984375 10.40625 15.640625 8.0625 
Q 18.3125 5.71875 23.4375 5.71875 
Q 28.515625 5.71875 32.46875 7.9375 
Q 36.421875 10.15625 38.28125 14.015625 
Q 39.703125 17 39.703125 22.796875 
z
" id="ArialMT-97"/>
      <path d="M 6.203125 -19.96875 
L 5.21875 -11.71875 
Q 8.109375 -12.5 10.25 -12.5 
Q 13.1875 -12.5 14.9375 -11.515625 
Q 16.703125 -10.546875 17.828125 -8.796875 
Q 18.65625 -7.46875 20.515625 -2.25 
Q 20.75 -1.515625 21.296875 -0.09375 
L 1.609375 51.859375 
L 11.078125 51.859375 
L 21.875 21.828125 
Q 23.96875 16.109375 25.640625 9.8125 
Q 27.15625 15.875 29.25 21.625 
L 40.328125 51.859375 
L 49.125 51.859375 
L 29.390625 -0.875 
Q 26.21875 -9.421875 24.46875 -12.640625 
Q 22.125 -17 19.09375 -19.015625 
Q 16.0625 -21.046875 11.859375 -21.046875 
Q 9.328125 -21.046875 6.203125 -19.96875 
z
" id="ArialMT-121"/>
      <path id="ArialMT-32"/>
      <path d="M 23.390625 -21.046875 
Q 16.109375 -11.859375 11.078125 0.4375 
Q 6.0625 12.75 6.0625 25.921875 
Q 6.0625 37.546875 9.8125 48.1875 
Q 14.203125 60.546875 23.390625 72.796875 
L 29.6875 72.796875 
Q 23.78125 62.640625 21.875 58.296875 
Q 18.890625 51.5625 17.1875 44.234375 
Q 15.09375 35.109375 15.09375 25.875 
Q 15.09375 2.390625 29.6875 -21.046875 
z
" id="ArialMT-40"/>
      <path d="M 5.8125 54.390625 
Q 5.8125 62.0625 9.671875 67.421875 
Q 13.53125 72.796875 20.84375 72.796875 
Q 27.59375 72.796875 32 67.984375 
Q 36.421875 63.1875 36.421875 53.859375 
Q 36.421875 44.78125 31.953125 39.875 
Q 27.484375 34.96875 20.953125 34.96875 
Q 14.453125 34.96875 10.125 39.796875 
Q 5.8125 44.625 5.8125 54.390625 
z
M 21.09375 66.75 
Q 17.828125 66.75 15.65625 63.90625 
Q 13.484375 61.078125 13.484375 53.515625 
Q 13.484375 46.625 15.671875 43.8125 
Q 17.875 41.015625 21.09375 41.015625 
Q 24.421875 41.015625 26.59375 43.84375 
Q 28.765625 46.6875 28.765625 54.203125 
Q 28.765625 61.140625 26.5625 63.9375 
Q 24.359375 66.75 21.09375 66.75 
z
M 21.140625 -2.640625 
L 60.296875 72.796875 
L 67.4375 72.796875 
L 28.421875 -2.640625 
z
M 52.09375 16.796875 
Q 52.09375 24.515625 55.953125 29.859375 
Q 59.8125 35.203125 67.1875 35.203125 
Q 73.921875 35.203125 78.34375 30.390625 
Q 82.765625 25.59375 82.765625 16.265625 
Q 82.765625 7.171875 78.296875 2.265625 
Q 73.828125 -2.640625 67.234375 -2.640625 
Q 60.75 -2.640625 56.421875 2.21875 
Q 52.09375 7.078125 52.09375 16.796875 
z
M 67.4375 29.15625 
Q 64.109375 29.15625 61.9375 26.3125 
Q 59.765625 23.484375 59.765625 15.921875 
Q 59.765625 9.078125 61.953125 6.25 
Q 64.15625 3.421875 67.390625 3.421875 
Q 70.75 3.421875 72.921875 6.25 
Q 75.09375 9.078125 75.09375 16.609375 
Q 75.09375 23.53125 72.890625 26.34375 
Q 70.703125 29.15625 67.4375 29.15625 
z
" id="ArialMT-37"/>
      <path d="M 12.359375 -21.046875 
L 6.0625 -21.046875 
Q 20.65625 2.390625 20.65625 25.875 
Q 20.65625 35.0625 18.5625 44.09375 
Q 16.890625 51.421875 13.921875 58.15625 
Q 12.015625 62.546875 6.0625 72.796875 
L 12.359375 72.796875 
Q 21.53125 60.546875 25.921875 48.1875 
Q 29.6875 37.546875 29.6875 25.921875 
Q 29.6875 12.75 24.625 0.4375 
Q 19.578125 -11.859375 12.359375 -21.046875 
z
" id="ArialMT-41"/>
     </defs>
     <g style="fill:#262626;" transform="translate(15.935625 193.360312)rotate(-90)scale(0.12 -0.12)">
      <use xlink:href="#ArialMT-65"/>
      <use x="66.699219" xlink:href="#ArialMT-99"/>
      <use x="116.699219" xlink:href="#ArialMT-99"/>
      <use x="166.699219" xlink:href="#ArialMT-117"/>
      <use x="222.314453" xlink:href="#ArialMT-114"/>
      <use x="255.615234" xlink:href="#ArialMT-97"/>
      <use x="311.230469" xlink:href="#ArialMT-99"/>
      <use x="361.230469" xlink:href="#ArialMT-121"/>
      <use x="411.230469" xlink:href="#ArialMT-32"/>
      <use x="439.013672" xlink:href="#ArialMT-40"/>
      <use x="472.314453" xlink:href="#ArialMT-37"/>
      <use x="561.230469" xlink:href="#ArialMT-41"/>
     </g>
    </g>
   </g>
   <g id="line2d_12">
    <path clip-path="url(#p478b372fa5)" d="M 61.488701 198.871193 
L 62.181823 281.23483 
L 62.874944 240.053011 
L 63.568066 240.053011 
L 64.261188 198.871193 
L 64.95431 240.053011 
L 65.647432 253.780284 
L 66.340553 212.598466 
L 67.033675 198.871193 
L 67.726797 226.325739 
L 68.419919 226.325739 
L 69.113041 198.871193 
L 69.806162 212.598466 
L 70.499284 240.053011 
L 71.192406 212.598466 
L 71.885528 198.871193 
L 74.658015 198.871193 
L 75.351137 212.598466 
L 76.73738 212.598466 
L 77.430502 198.871193 
L 80.202989 198.871193 
L 80.896111 212.598466 
L 81.589233 212.598466 
L 82.282354 198.871193 
L 90.599816 198.871193 
L 91.292938 185.14392 
L 91.986059 185.14392 
L 92.679181 198.871193 
L 94.065425 198.871193 
L 94.758546 185.14392 
L 107.234738 185.14392 
L 107.92786 198.871193 
L 147.435802 198.871193 
L 148.128924 185.14392 
L 156.446385 185.14392 
L 157.139507 198.871193 
L 157.832628 198.871193 
L 158.52575 185.14392 
L 161.298237 185.14392 
L 161.991359 198.871193 
L 165.456968 198.871193 
L 166.15009 185.14392 
L 183.478134 185.14392 
L 184.171256 171.416648 
L 191.795596 171.416648 
L 192.488717 157.689375 
L 207.044275 157.689375 
L 207.737397 143.962102 
L 213.975493 143.962102 
L 214.668614 116.507557 
L 219.520467 116.507557 
L 220.213589 102.780284 
L 225.758563 102.780284 
L 226.451685 89.053011 
L 229.917294 89.053011 
L 230.610415 75.325739 
L 233.382903 75.325739 
L 234.076024 61.598466 
L 236.15539 61.598466 
L 236.848511 75.325739 
L 252.790312 75.325739 
L 253.483434 130.23483 
L 254.176556 116.507557 
L 254.869678 143.962102 
L 255.5628 75.325739 
L 256.255921 75.325739 
L 256.949043 143.962102 
L 257.642165 89.053011 
L 258.335287 75.325739 
L 259.028408 130.23483 
L 259.72153 75.325739 
L 261.107774 102.780284 
L 261.800896 75.325739 
L 262.494017 89.053011 
L 263.187139 75.325739 
L 263.880261 75.325739 
L 264.573383 89.053011 
L 265.266504 89.053011 
L 265.959626 75.325739 
L 266.652748 89.053011 
L 267.34587 75.325739 
L 269.425235 75.325739 
L 270.118357 61.598466 
L 270.811479 75.325739 
L 271.5046 75.325739 
L 272.197722 61.598466 
L 272.890844 75.325739 
L 273.583966 61.598466 
L 274.277088 75.325739 
L 306.16069 75.325739 
L 306.853811 61.598466 
L 307.546933 75.325739 
L 308.240055 75.325739 
L 308.933177 61.598466 
L 331.806195 61.598466 
L 332.499317 75.325739 
L 335.964926 75.325739 
L 336.658048 61.598466 
L 344.975509 61.598466 
L 345.668631 75.325739 
L 353.986092 75.325739 
L 354.679214 61.598466 
L 355.372336 75.325739 
L 356.065458 47.871193 
L 356.75858 47.871193 
L 357.451701 61.598466 
L 358.144823 89.053011 
L 358.837945 75.325739 
L 359.531067 102.780284 
L 360.224188 61.598466 
L 360.91731 47.871193 
L 361.610432 61.598466 
L 362.303554 47.871193 
L 362.996676 61.598466 
L 363.689797 61.598466 
L 364.382919 47.871193 
L 365.076041 61.598466 
L 365.769163 61.598466 
L 366.462284 47.871193 
L 367.155406 61.598466 
L 367.848528 61.598466 
L 368.54165 47.871193 
L 369.234772 61.598466 
L 369.927893 61.598466 
L 370.621015 47.871193 
L 371.314137 61.598466 
L 372.007259 47.871193 
L 372.70038 47.871193 
L 373.393502 61.598466 
L 374.086624 61.598466 
L 374.779746 47.871193 
L 375.472868 61.598466 
L 376.165989 47.871193 
L 378.245355 47.871193 
L 378.938477 61.598466 
L 379.631598 47.871193 
L 383.097207 47.871193 
L 383.790329 34.14392 
L 384.483451 47.871193 
L 385.176573 34.14392 
L 386.562816 61.598466 
L 387.255938 34.14392 
L 388.642181 61.598466 
L 389.335303 34.14392 
L 390.028425 47.871193 
L 390.721547 47.871193 
L 391.414669 34.14392 
L 392.10779 47.871193 
L 392.800912 47.871193 
L 393.494034 34.14392 
L 394.187156 47.871193 
L 394.880277 34.14392 
L 395.573399 47.871193 
L 396.266521 47.871193 
L 396.959643 34.14392 
L 397.652765 47.871193 
L 398.345886 47.871193 
L 399.039008 34.14392 
L 399.73213 47.871193 
L 400.425252 34.14392 
L 401.118373 34.14392 
L 401.811495 47.871193 
L 402.504617 34.14392 
L 403.197739 47.871193 
L 403.890861 34.14392 
L 404.583982 34.14392 
L 405.277104 47.871193 
L 405.970226 34.14392 
L 407.35647 34.14392 
L 407.35647 34.14392 
" style="fill:none;stroke:#023eff;stroke-linecap:round;stroke-width:1.5;"/>
   </g>
   <g id="line2d_13">
    <path clip-path="url(#p478b372fa5)" d="M 61.488701 273.805953 
L 62.181823 273.805953 
L 62.874944 209.530017 
L 63.568066 209.530017 
L 64.261188 273.805953 
L 66.340553 273.805953 
L 67.033675 145.254081 
L 67.726797 209.530017 
L 68.419919 145.254081 
L 69.113041 273.805953 
L 71.885528 273.805953 
L 73.271771 145.254081 
L 74.658015 273.805953 
L 106.541617 273.805953 
L 107.234738 209.530017 
L 154.36702 209.530017 
L 155.060141 145.254081 
L 155.753263 145.254081 
L 156.446385 80.978145 
L 188.329987 80.978145 
L 189.023109 145.254081 
L 230.610415 145.254081 
L 231.303537 209.530017 
L 251.404069 209.530017 
L 252.097191 145.254081 
L 252.790312 273.805953 
L 253.483434 145.254081 
L 254.176556 273.805953 
L 254.869678 80.978145 
L 255.5628 273.805953 
L 256.255921 273.805953 
L 256.949043 145.254081 
L 257.642165 273.805953 
L 258.335287 273.805953 
L 259.028408 145.254081 
L 259.72153 273.805953 
L 260.414652 273.805953 
L 261.107774 145.254081 
L 262.494017 273.805953 
L 263.187139 145.254081 
L 264.573383 273.805953 
L 265.959626 145.254081 
L 266.652748 273.805953 
L 268.038992 145.254081 
L 268.732113 273.805953 
L 270.118357 145.254081 
L 271.5046 273.805953 
L 272.197722 209.530017 
L 272.890844 209.530017 
L 273.583966 273.805953 
L 274.277088 209.530017 
L 354.679214 209.530017 
L 355.372336 145.254081 
L 356.065458 209.530017 
L 356.75858 145.254081 
L 357.451701 209.530017 
L 358.144823 145.254081 
L 358.837945 273.805953 
L 359.531067 145.254081 
L 360.224188 209.530017 
L 360.91731 209.530017 
L 361.610432 145.254081 
L 362.303554 209.530017 
L 362.996676 209.530017 
L 363.689797 145.254081 
L 364.382919 209.530017 
L 365.076041 145.254081 
L 365.769163 145.254081 
L 366.462284 209.530017 
L 367.155406 145.254081 
L 367.848528 145.254081 
L 368.54165 209.530017 
L 369.234772 145.254081 
L 369.927893 209.530017 
L 370.621015 209.530017 
L 371.314137 145.254081 
L 372.007259 209.530017 
L 372.70038 209.530017 
L 373.393502 145.254081 
L 374.086624 209.530017 
L 374.779746 209.530017 
L 375.472868 145.254081 
L 376.165989 209.530017 
L 376.859111 209.530017 
L 377.552233 145.254081 
L 378.245355 209.530017 
L 378.938477 209.530017 
L 379.631598 145.254081 
L 380.32472 209.530017 
L 381.017842 209.530017 
L 381.710964 145.254081 
L 382.404085 209.530017 
L 383.097207 145.254081 
L 383.790329 145.254081 
L 384.483451 209.530017 
L 385.176573 145.254081 
L 385.869694 145.254081 
L 386.562816 209.530017 
L 387.255938 145.254081 
L 387.94906 209.530017 
L 388.642181 209.530017 
L 389.335303 145.254081 
L 390.028425 209.530017 
L 390.721547 209.530017 
L 391.414669 145.254081 
L 392.10779 209.530017 
L 392.800912 145.254081 
L 393.494034 145.254081 
L 394.187156 209.530017 
L 394.880277 145.254081 
L 395.573399 145.254081 
L 396.266521 209.530017 
L 396.959643 145.254081 
L 397.652765 209.530017 
L 398.345886 145.254081 
L 399.039008 145.254081 
L 399.73213 209.530017 
L 400.425252 145.254081 
L 407.35647 145.254081 
L 407.35647 145.254081 
" style="fill:none;stroke:#ff7c00;stroke-linecap:round;stroke-width:1.5;"/>
   </g>
   <g id="patch_3">
    <path d="M 44.195312 293.589375 
L 44.195312 21.789375 
" style="fill:none;stroke:#cccccc;stroke-linecap:square;stroke-linejoin:miter;stroke-width:1.25;"/>
   </g>
   <g id="patch_4">
    <path d="M 424.649858 293.589375 
L 424.649858 21.789375 
" style="fill:none;stroke:#cccccc;stroke-linecap:square;stroke-linejoin:miter;stroke-width:1.25;"/>
   </g>
   <g id="patch_5">
    <path d="M 44.195312 293.589375 
L 424.649858 293.589375 
" style="fill:none;stroke:#cccccc;stroke-linecap:square;stroke-linejoin:miter;stroke-width:1.25;"/>
   </g>
   <g id="patch_6">
    <path d="M 44.195312 21.789375 
L 424.649858 21.789375 
" style="fill:none;stroke:#cccccc;stroke-linecap:square;stroke-linejoin:miter;stroke-width:1.25;"/>
   </g>
   <g id="text_14">
    <!-- Model Accuracy -->
    <defs>
     <path d="M 7.421875 0 
L 7.421875 71.578125 
L 21.6875 71.578125 
L 38.625 20.90625 
Q 40.96875 13.8125 42.046875 10.296875 
Q 43.265625 14.203125 45.84375 21.78125 
L 62.984375 71.578125 
L 75.734375 71.578125 
L 75.734375 0 
L 66.609375 0 
L 66.609375 59.90625 
L 45.796875 0 
L 37.25 0 
L 16.546875 60.9375 
L 16.546875 0 
z
" id="ArialMT-77"/>
     <path d="M 40.234375 0 
L 40.234375 6.546875 
Q 35.296875 -1.171875 25.734375 -1.171875 
Q 19.53125 -1.171875 14.328125 2.25 
Q 9.125 5.671875 6.265625 11.796875 
Q 3.421875 17.921875 3.421875 25.875 
Q 3.421875 33.640625 6 39.96875 
Q 8.59375 46.296875 13.765625 49.65625 
Q 18.953125 53.03125 25.34375 53.03125 
Q 30.03125 53.03125 33.6875 51.046875 
Q 37.359375 49.078125 39.65625 45.90625 
L 39.65625 71.578125 
L 48.390625 71.578125 
L 48.390625 0 
z
M 12.453125 25.875 
Q 12.453125 15.921875 16.640625 10.984375 
Q 20.84375 6.0625 26.5625 6.0625 
Q 32.328125 6.0625 36.34375 10.765625 
Q 40.375 15.484375 40.375 25.140625 
Q 40.375 35.796875 36.265625 40.765625 
Q 32.171875 45.75 26.171875 45.75 
Q 20.3125 45.75 16.375 40.96875 
Q 12.453125 36.1875 12.453125 25.875 
z
" id="ArialMT-100"/>
     <path d="M 42.09375 16.703125 
L 51.171875 15.578125 
Q 49.03125 7.625 43.21875 3.21875 
Q 37.40625 -1.171875 28.375 -1.171875 
Q 17 -1.171875 10.328125 5.828125 
Q 3.65625 12.84375 3.65625 25.484375 
Q 3.65625 38.578125 10.390625 45.796875 
Q 17.140625 53.03125 27.875 53.03125 
Q 38.28125 53.03125 44.875 45.953125 
Q 51.46875 38.875 51.46875 26.03125 
Q 51.46875 25.25 51.421875 23.6875 
L 12.75 23.6875 
Q 13.234375 15.140625 17.578125 10.59375 
Q 21.921875 6.0625 28.421875 6.0625 
Q 33.25 6.0625 36.671875 8.59375 
Q 40.09375 11.140625 42.09375 16.703125 
z
M 13.234375 30.90625 
L 42.1875 30.90625 
Q 41.609375 37.453125 38.875 40.71875 
Q 34.671875 45.796875 27.984375 45.796875 
Q 21.921875 45.796875 17.796875 41.75 
Q 13.671875 37.703125 13.234375 30.90625 
z
" id="ArialMT-101"/>
     <path d="M 6.390625 0 
L 6.390625 71.578125 
L 15.1875 71.578125 
L 15.1875 0 
z
" id="ArialMT-108"/>
    </defs>
    <g style="fill:#262626;" transform="translate(191.746648 15.789375)scale(0.12 -0.12)">
     <use xlink:href="#ArialMT-77"/>
     <use x="83.300781" xlink:href="#ArialMT-111"/>
     <use x="138.916016" xlink:href="#ArialMT-100"/>
     <use x="194.53125" xlink:href="#ArialMT-101"/>
     <use x="250.146484" xlink:href="#ArialMT-108"/>
     <use x="272.363281" xlink:href="#ArialMT-32"/>
     <use x="300.068359" xlink:href="#ArialMT-65"/>
     <use x="366.767578" xlink:href="#ArialMT-99"/>
     <use x="416.767578" xlink:href="#ArialMT-99"/>
     <use x="466.767578" xlink:href="#ArialMT-117"/>
     <use x="522.382812" xlink:href="#ArialMT-114"/>
     <use x="555.683594" xlink:href="#ArialMT-97"/>
     <use x="611.298828" xlink:href="#ArialMT-99"/>
     <use x="661.298828" xlink:href="#ArialMT-121"/>
    </g>
   </g>
   <g id="legend_1">
    <g id="patch_7">
     <path d="M 360.353139 288.089375 
L 416.949858 288.089375 
Q 419.149858 288.089375 419.149858 285.889375 
L 419.149858 255.869687 
Q 419.149858 253.669687 416.949858 253.669687 
L 360.353139 253.669687 
Q 358.153139 253.669687 358.153139 255.869687 
L 358.153139 285.889375 
Q 358.153139 288.089375 360.353139 288.089375 
z
" style="fill:#ffffff;opacity:0.8;stroke:#cccccc;stroke-linejoin:miter;"/>
    </g>
    <g id="line2d_14">
     <path d="M 362.553139 262.093281 
L 384.553139 262.093281 
" style="fill:none;stroke:#023eff;stroke-linecap:round;stroke-width:1.5;"/>
    </g>
    <g id="line2d_15"/>
    <g id="text_15">
     <!-- train -->
     <defs>
      <path d="M 25.78125 7.859375 
L 27.046875 0.09375 
Q 23.34375 -0.6875 20.40625 -0.6875 
Q 15.625 -0.6875 12.984375 0.828125 
Q 10.359375 2.34375 9.28125 4.8125 
Q 8.203125 7.28125 8.203125 15.1875 
L 8.203125 45.015625 
L 1.765625 45.015625 
L 1.765625 51.859375 
L 8.203125 51.859375 
L 8.203125 64.703125 
L 16.9375 69.96875 
L 16.9375 51.859375 
L 25.78125 51.859375 
L 25.78125 45.015625 
L 16.9375 45.015625 
L 16.9375 14.703125 
Q 16.9375 10.9375 17.40625 9.859375 
Q 17.875 8.796875 18.921875 8.15625 
Q 19.96875 7.515625 21.921875 7.515625 
Q 23.390625 7.515625 25.78125 7.859375 
z
" id="ArialMT-116"/>
      <path d="M 6.640625 61.46875 
L 6.640625 71.578125 
L 15.4375 71.578125 
L 15.4375 61.46875 
z
M 6.640625 0 
L 6.640625 51.859375 
L 15.4375 51.859375 
L 15.4375 0 
z
" id="ArialMT-105"/>
      <path d="M 6.59375 0 
L 6.59375 51.859375 
L 14.5 51.859375 
L 14.5 44.484375 
Q 20.21875 53.03125 31 53.03125 
Q 35.6875 53.03125 39.625 51.34375 
Q 43.5625 49.65625 45.515625 46.921875 
Q 47.46875 44.1875 48.25 40.4375 
Q 48.734375 37.984375 48.734375 31.890625 
L 48.734375 0 
L 39.9375 0 
L 39.9375 31.546875 
Q 39.9375 36.921875 38.90625 39.578125 
Q 37.890625 42.234375 35.28125 43.8125 
Q 32.671875 45.40625 29.15625 45.40625 
Q 23.53125 45.40625 19.453125 41.84375 
Q 15.375 38.28125 15.375 28.328125 
L 15.375 0 
z
" id="ArialMT-110"/>
     </defs>
     <g style="fill:#262626;" transform="translate(393.353139 265.943281)scale(0.11 -0.11)">
      <use xlink:href="#ArialMT-116"/>
      <use x="27.783203" xlink:href="#ArialMT-114"/>
      <use x="61.083984" xlink:href="#ArialMT-97"/>
      <use x="116.699219" xlink:href="#ArialMT-105"/>
      <use x="138.916016" xlink:href="#ArialMT-110"/>
     </g>
    </g>
    <g id="line2d_16">
     <path d="M 362.553139 277.653125 
L 384.553139 277.653125 
" style="fill:none;stroke:#ff7c00;stroke-linecap:round;stroke-width:1.5;"/>
    </g>
    <g id="line2d_17"/>
    <g id="text_16">
     <!-- val -->
     <defs>
      <path d="M 21 0 
L 1.265625 51.859375 
L 10.546875 51.859375 
L 21.6875 20.796875 
Q 23.484375 15.765625 25 10.359375 
Q 26.171875 14.453125 28.265625 20.21875 
L 39.796875 51.859375 
L 48.828125 51.859375 
L 29.203125 0 
z
" id="ArialMT-118"/>
     </defs>
     <g style="fill:#262626;" transform="translate(393.353139 281.503125)scale(0.11 -0.11)">
      <use xlink:href="#ArialMT-118"/>
      <use x="50" xlink:href="#ArialMT-97"/>
      <use x="105.615234" xlink:href="#ArialMT-108"/>
     </g>
    </g>
   </g>
  </g>
  <g id="axes_2">
   <g id="patch_8">
    <path d="M 500.740767 293.589375 
L 881.195312 293.589375 
L 881.195312 21.789375 
L 500.740767 21.789375 
z
" style="fill:#ffffff;"/>
   </g>
   <g id="matplotlib.axis_3">
    <g id="xtick_7">
     <g id="line2d_18">
      <path clip-path="url(#p5c33d9447e)" d="M 518.034155 293.589375 
L 518.034155 21.789375 
" style="fill:none;stroke:#cccccc;stroke-linecap:round;"/>
     </g>
     <g id="text_17">
      <!-- 0 -->
      <g style="fill:#262626;" transform="translate(514.97564 310.962969)scale(0.11 -0.11)">
       <use xlink:href="#ArialMT-48"/>
      </g>
     </g>
    </g>
    <g id="xtick_8">
     <g id="line2d_19">
      <path clip-path="url(#p5c33d9447e)" d="M 587.346334 293.589375 
L 587.346334 21.789375 
" style="fill:none;stroke:#cccccc;stroke-linecap:round;"/>
     </g>
     <g id="text_18">
      <!-- 100 -->
      <g style="fill:#262626;" transform="translate(578.170787 310.962969)scale(0.11 -0.11)">
       <use xlink:href="#ArialMT-49"/>
       <use x="55.615234" xlink:href="#ArialMT-48"/>
       <use x="111.230469" xlink:href="#ArialMT-48"/>
      </g>
     </g>
    </g>
    <g id="xtick_9">
     <g id="line2d_20">
      <path clip-path="url(#p5c33d9447e)" d="M 656.658512 293.589375 
L 656.658512 21.789375 
" style="fill:none;stroke:#cccccc;stroke-linecap:round;"/>
     </g>
     <g id="text_19">
      <!-- 200 -->
      <g style="fill:#262626;" transform="translate(647.482965 310.962969)scale(0.11 -0.11)">
       <use xlink:href="#ArialMT-50"/>
       <use x="55.615234" xlink:href="#ArialMT-48"/>
       <use x="111.230469" xlink:href="#ArialMT-48"/>
      </g>
     </g>
    </g>
    <g id="xtick_10">
     <g id="line2d_21">
      <path clip-path="url(#p5c33d9447e)" d="M 725.97069 293.589375 
L 725.97069 21.789375 
" style="fill:none;stroke:#cccccc;stroke-linecap:round;"/>
     </g>
     <g id="text_20">
      <!-- 300 -->
      <g style="fill:#262626;" transform="translate(716.795143 310.962969)scale(0.11 -0.11)">
       <use xlink:href="#ArialMT-51"/>
       <use x="55.615234" xlink:href="#ArialMT-48"/>
       <use x="111.230469" xlink:href="#ArialMT-48"/>
      </g>
     </g>
    </g>
    <g id="xtick_11">
     <g id="line2d_22">
      <path clip-path="url(#p5c33d9447e)" d="M 795.282868 293.589375 
L 795.282868 21.789375 
" style="fill:none;stroke:#cccccc;stroke-linecap:round;"/>
     </g>
     <g id="text_21">
      <!-- 400 -->
      <g style="fill:#262626;" transform="translate(786.107321 310.962969)scale(0.11 -0.11)">
       <use xlink:href="#ArialMT-52"/>
       <use x="55.615234" xlink:href="#ArialMT-48"/>
       <use x="111.230469" xlink:href="#ArialMT-48"/>
      </g>
     </g>
    </g>
    <g id="xtick_12">
     <g id="line2d_23">
      <path clip-path="url(#p5c33d9447e)" d="M 864.595046 293.589375 
L 864.595046 21.789375 
" style="fill:none;stroke:#cccccc;stroke-linecap:round;"/>
     </g>
     <g id="text_22">
      <!-- 500 -->
      <g style="fill:#262626;" transform="translate(855.419499 310.962969)scale(0.11 -0.11)">
       <use xlink:href="#ArialMT-53"/>
       <use x="55.615234" xlink:href="#ArialMT-48"/>
       <use x="111.230469" xlink:href="#ArialMT-48"/>
      </g>
     </g>
    </g>
    <g id="text_23">
     <!-- Epoch -->
     <g style="fill:#262626;" transform="translate(673.956165 325.738594)scale(0.12 -0.12)">
      <use xlink:href="#ArialMT-69"/>
      <use x="66.699219" xlink:href="#ArialMT-112"/>
      <use x="122.314453" xlink:href="#ArialMT-111"/>
      <use x="177.929688" xlink:href="#ArialMT-99"/>
      <use x="227.929688" xlink:href="#ArialMT-104"/>
     </g>
    </g>
   </g>
   <g id="matplotlib.axis_4">
    <g id="ytick_6">
     <g id="line2d_24">
      <path clip-path="url(#p5c33d9447e)" d="M 500.740767 265.254371 
L 881.195312 265.254371 
" style="fill:none;stroke:#cccccc;stroke-linecap:round;"/>
     </g>
     <g id="text_24">
      <!-- 20 -->
      <g style="fill:#262626;" transform="translate(479.006705 269.191168)scale(0.11 -0.11)">
       <use xlink:href="#ArialMT-50"/>
       <use x="55.615234" xlink:href="#ArialMT-48"/>
      </g>
     </g>
    </g>
    <g id="ytick_7">
     <g id="line2d_25">
      <path clip-path="url(#p5c33d9447e)" d="M 500.740767 232.098435 
L 881.195312 232.098435 
" style="fill:none;stroke:#cccccc;stroke-linecap:round;"/>
     </g>
     <g id="text_25">
      <!-- 30 -->
      <g style="fill:#262626;" transform="translate(479.006705 236.035232)scale(0.11 -0.11)">
       <use xlink:href="#ArialMT-51"/>
       <use x="55.615234" xlink:href="#ArialMT-48"/>
      </g>
     </g>
    </g>
    <g id="ytick_8">
     <g id="line2d_26">
      <path clip-path="url(#p5c33d9447e)" d="M 500.740767 198.942498 
L 881.195312 198.942498 
" style="fill:none;stroke:#cccccc;stroke-linecap:round;"/>
     </g>
     <g id="text_26">
      <!-- 40 -->
      <g style="fill:#262626;" transform="translate(479.006705 202.879295)scale(0.11 -0.11)">
       <use xlink:href="#ArialMT-52"/>
       <use x="55.615234" xlink:href="#ArialMT-48"/>
      </g>
     </g>
    </g>
    <g id="ytick_9">
     <g id="line2d_27">
      <path clip-path="url(#p5c33d9447e)" d="M 500.740767 165.786562 
L 881.195312 165.786562 
" style="fill:none;stroke:#cccccc;stroke-linecap:round;"/>
     </g>
     <g id="text_27">
      <!-- 50 -->
      <g style="fill:#262626;" transform="translate(479.006705 169.723359)scale(0.11 -0.11)">
       <use xlink:href="#ArialMT-53"/>
       <use x="55.615234" xlink:href="#ArialMT-48"/>
      </g>
     </g>
    </g>
    <g id="ytick_10">
     <g id="line2d_28">
      <path clip-path="url(#p5c33d9447e)" d="M 500.740767 132.630625 
L 881.195312 132.630625 
" style="fill:none;stroke:#cccccc;stroke-linecap:round;"/>
     </g>
     <g id="text_28">
      <!-- 60 -->
      <defs>
       <path d="M 49.75 54.046875 
L 41.015625 53.375 
Q 39.84375 58.546875 37.703125 60.890625 
Q 34.125 64.65625 28.90625 64.65625 
Q 24.703125 64.65625 21.53125 62.3125 
Q 17.390625 59.28125 14.984375 53.46875 
Q 12.59375 47.65625 12.5 36.921875 
Q 15.671875 41.75 20.265625 44.09375 
Q 24.859375 46.4375 29.890625 46.4375 
Q 38.671875 46.4375 44.84375 39.96875 
Q 51.03125 33.5 51.03125 23.25 
Q 51.03125 16.5 48.125 10.71875 
Q 45.21875 4.9375 40.140625 1.859375 
Q 35.0625 -1.21875 28.609375 -1.21875 
Q 17.625 -1.21875 10.6875 6.859375 
Q 3.765625 14.9375 3.765625 33.5 
Q 3.765625 54.25 11.421875 63.671875 
Q 18.109375 71.875 29.4375 71.875 
Q 37.890625 71.875 43.28125 67.140625 
Q 48.6875 62.40625 49.75 54.046875 
z
M 13.875 23.1875 
Q 13.875 18.65625 15.796875 14.5 
Q 17.71875 10.359375 21.1875 8.171875 
Q 24.65625 6 28.46875 6 
Q 34.03125 6 38.03125 10.484375 
Q 42.046875 14.984375 42.046875 22.703125 
Q 42.046875 30.125 38.078125 34.390625 
Q 34.125 38.671875 28.125 38.671875 
Q 22.171875 38.671875 18.015625 34.390625 
Q 13.875 30.125 13.875 23.1875 
z
" id="ArialMT-54"/>
      </defs>
      <g style="fill:#262626;" transform="translate(479.006705 136.567422)scale(0.11 -0.11)">
       <use xlink:href="#ArialMT-54"/>
       <use x="55.615234" xlink:href="#ArialMT-48"/>
      </g>
     </g>
    </g>
    <g id="ytick_11">
     <g id="line2d_29">
      <path clip-path="url(#p5c33d9447e)" d="M 500.740767 99.474689 
L 881.195312 99.474689 
" style="fill:none;stroke:#cccccc;stroke-linecap:round;"/>
     </g>
     <g id="text_29">
      <!-- 70 -->
      <defs>
       <path d="M 4.734375 62.203125 
L 4.734375 70.65625 
L 51.078125 70.65625 
L 51.078125 63.8125 
Q 44.234375 56.546875 37.515625 44.484375 
Q 30.8125 32.421875 27.15625 19.671875 
Q 24.515625 10.6875 23.78125 0 
L 14.75 0 
Q 14.890625 8.453125 18.0625 20.40625 
Q 21.234375 32.375 27.171875 43.484375 
Q 33.109375 54.59375 39.796875 62.203125 
z
" id="ArialMT-55"/>
      </defs>
      <g style="fill:#262626;" transform="translate(479.006705 103.411486)scale(0.11 -0.11)">
       <use xlink:href="#ArialMT-55"/>
       <use x="55.615234" xlink:href="#ArialMT-48"/>
      </g>
     </g>
    </g>
    <g id="ytick_12">
     <g id="line2d_30">
      <path clip-path="url(#p5c33d9447e)" d="M 500.740767 66.318753 
L 881.195312 66.318753 
" style="fill:none;stroke:#cccccc;stroke-linecap:round;"/>
     </g>
     <g id="text_30">
      <!-- 80 -->
      <defs>
       <path d="M 17.671875 38.8125 
Q 12.203125 40.828125 9.5625 44.53125 
Q 6.9375 48.25 6.9375 53.421875 
Q 6.9375 61.234375 12.546875 66.546875 
Q 18.171875 71.875 27.484375 71.875 
Q 36.859375 71.875 42.578125 66.421875 
Q 48.296875 60.984375 48.296875 53.171875 
Q 48.296875 48.1875 45.671875 44.5 
Q 43.0625 40.828125 37.75 38.8125 
Q 44.34375 36.671875 47.78125 31.875 
Q 51.21875 27.09375 51.21875 20.453125 
Q 51.21875 11.28125 44.71875 5.03125 
Q 38.234375 -1.21875 27.640625 -1.21875 
Q 17.046875 -1.21875 10.546875 5.046875 
Q 4.046875 11.328125 4.046875 20.703125 
Q 4.046875 27.6875 7.59375 32.390625 
Q 11.140625 37.109375 17.671875 38.8125 
z
M 15.921875 53.71875 
Q 15.921875 48.640625 19.1875 45.40625 
Q 22.46875 42.1875 27.6875 42.1875 
Q 32.765625 42.1875 36.015625 45.375 
Q 39.265625 48.578125 39.265625 53.21875 
Q 39.265625 58.0625 35.90625 61.359375 
Q 32.5625 64.65625 27.59375 64.65625 
Q 22.5625 64.65625 19.234375 61.421875 
Q 15.921875 58.203125 15.921875 53.71875 
z
M 13.09375 20.65625 
Q 13.09375 16.890625 14.875 13.375 
Q 16.65625 9.859375 20.171875 7.921875 
Q 23.6875 6 27.734375 6 
Q 34.03125 6 38.125 10.046875 
Q 42.234375 14.109375 42.234375 20.359375 
Q 42.234375 26.703125 38.015625 30.859375 
Q 33.796875 35.015625 27.4375 35.015625 
Q 21.234375 35.015625 17.15625 30.90625 
Q 13.09375 26.8125 13.09375 20.65625 
z
" id="ArialMT-56"/>
      </defs>
      <g style="fill:#262626;" transform="translate(479.006705 70.255549)scale(0.11 -0.11)">
       <use xlink:href="#ArialMT-56"/>
       <use x="55.615234" xlink:href="#ArialMT-48"/>
      </g>
     </g>
    </g>
    <g id="ytick_13">
     <g id="line2d_31">
      <path clip-path="url(#p5c33d9447e)" d="M 500.740767 33.162816 
L 881.195312 33.162816 
" style="fill:none;stroke:#cccccc;stroke-linecap:round;"/>
     </g>
     <g id="text_31">
      <!-- 90 -->
      <g style="fill:#262626;" transform="translate(479.006705 37.099613)scale(0.11 -0.11)">
       <use xlink:href="#ArialMT-57"/>
       <use x="55.615234" xlink:href="#ArialMT-48"/>
      </g>
     </g>
    </g>
    <g id="text_32">
     <!-- Loss -->
     <defs>
      <path d="M 7.328125 0 
L 7.328125 71.578125 
L 16.796875 71.578125 
L 16.796875 8.453125 
L 52.046875 8.453125 
L 52.046875 0 
z
" id="ArialMT-76"/>
      <path d="M 3.078125 15.484375 
L 11.765625 16.84375 
Q 12.5 11.625 15.84375 8.84375 
Q 19.1875 6.0625 25.203125 6.0625 
Q 31.25 6.0625 34.171875 8.515625 
Q 37.109375 10.984375 37.109375 14.3125 
Q 37.109375 17.28125 34.515625 19 
Q 32.71875 20.171875 25.53125 21.96875 
Q 15.875 24.421875 12.140625 26.203125 
Q 8.40625 27.984375 6.46875 31.125 
Q 4.546875 34.28125 4.546875 38.09375 
Q 4.546875 41.546875 6.125 44.5 
Q 7.71875 47.46875 10.453125 49.421875 
Q 12.5 50.921875 16.03125 51.96875 
Q 19.578125 53.03125 23.640625 53.03125 
Q 29.734375 53.03125 34.34375 51.265625 
Q 38.96875 49.515625 41.15625 46.5 
Q 43.359375 43.5 44.1875 38.484375 
L 35.59375 37.3125 
Q 35.015625 41.3125 32.203125 43.546875 
Q 29.390625 45.796875 24.265625 45.796875 
Q 18.21875 45.796875 15.625 43.796875 
Q 13.03125 41.796875 13.03125 39.109375 
Q 13.03125 37.40625 14.109375 36.03125 
Q 15.1875 34.625 17.484375 33.6875 
Q 18.796875 33.203125 25.25 31.453125 
Q 34.578125 28.953125 38.25 27.359375 
Q 41.9375 25.78125 44.03125 22.75 
Q 46.140625 19.734375 46.140625 15.234375 
Q 46.140625 10.84375 43.578125 6.953125 
Q 41.015625 3.078125 36.171875 0.953125 
Q 31.34375 -1.171875 25.25 -1.171875 
Q 15.140625 -1.171875 9.84375 3.03125 
Q 4.546875 7.234375 3.078125 15.484375 
z
" id="ArialMT-115"/>
     </defs>
     <g style="fill:#262626;" transform="translate(472.621705 170.3625)rotate(-90)scale(0.12 -0.12)">
      <use xlink:href="#ArialMT-76"/>
      <use x="55.615234" xlink:href="#ArialMT-111"/>
      <use x="111.230469" xlink:href="#ArialMT-115"/>
      <use x="161.230469" xlink:href="#ArialMT-115"/>
     </g>
    </g>
   </g>
   <g id="line2d_32">
    <path clip-path="url(#p5c33d9447e)" d="M 518.034155 38.459894 
L 518.727277 34.14392 
L 519.420399 35.66689 
L 520.113521 36.132234 
L 520.806643 41.74966 
L 521.499764 39.232357 
L 522.192886 38.995157 
L 522.886008 42.645543 
L 523.57913 43.158115 
L 524.272252 41.657305 
L 524.965373 42.90685 
L 525.658495 45.124775 
L 526.351617 45.157888 
L 527.044739 44.543297 
L 527.73786 45.704534 
L 528.430982 47.251686 
L 529.124104 47.362584 
L 529.817226 47.179517 
L 530.510348 48.159584 
L 531.203469 49.33658 
L 531.896591 49.539378 
L 532.589713 49.604717 
L 533.975956 51.398885 
L 535.3622 51.891018 
L 536.748444 53.418262 
L 537.441565 53.673726 
L 538.134687 54.070089 
L 538.827809 54.821202 
L 539.520931 55.377081 
L 540.214052 55.669907 
L 540.907174 56.181012 
L 541.600296 56.846524 
L 543.679661 58.213999 
L 544.372783 58.762972 
L 545.759027 59.593641 
L 547.14527 60.591593 
L 548.531514 61.504474 
L 551.304001 63.33269 
L 554.76961 65.47923 
L 557.542097 67.204415 
L 564.473315 71.302818 
L 575.563263 77.465246 
L 585.266968 82.530106 
L 597.050038 88.398139 
L 611.605596 95.392273 
L 625.468031 101.812821 
L 637.251102 107.024955 
L 648.34105 111.6804 
L 658.044755 115.516509 
L 667.74846 119.110561 
L 677.452165 122.46339 
L 687.848992 125.811439 
L 699.632062 129.365864 
L 707.949523 131.696989 
L 708.642645 131.732581 
L 709.335767 131.446129 
L 710.028889 130.25909 
L 710.722011 128.266084 
L 711.415132 127.5666 
L 712.108254 131.897333 
L 712.801376 132.294556 
L 713.494498 129.772573 
L 714.187619 132.421238 
L 714.880741 132.980368 
L 715.573863 131.301929 
L 716.266985 133.50192 
L 716.960107 133.133459 
L 717.653228 132.526988 
L 718.34635 134.275344 
L 719.039472 133.25598 
L 719.732594 133.742459 
L 720.425715 134.613918 
L 721.118837 133.724676 
L 721.811959 134.796998 
L 722.505081 134.759889 
L 723.198203 134.579908 
L 723.891324 135.46275 
L 724.584446 135.044443 
L 725.277568 135.489753 
L 725.97069 135.796024 
L 726.663811 135.5771 
L 727.356933 136.166673 
L 728.050055 136.075848 
L 728.743177 136.229749 
L 729.436299 136.61469 
L 730.12942 136.482317 
L 730.822542 136.841633 
L 731.515664 136.981874 
L 732.208786 137.000833 
L 732.901908 137.351954 
L 733.595029 137.375315 
L 740.526247 138.970568 
L 741.912491 139.229535 
L 744.684978 139.855497 
L 747.457465 140.429854 
L 753.002439 141.657253 
L 760.626779 143.335337 
L 785.579163 149.108649 
L 801.520964 153.054808 
L 811.917791 155.601746 
L 812.610912 155.570417 
L 813.304034 155.20551 
L 813.997156 154.227163 
L 814.690278 152.025907 
L 815.383399 150.71254 
L 816.076521 151.896038 
L 816.769643 156.328234 
L 817.462765 156.276857 
L 818.155887 153.518155 
L 818.849008 155.306807 
L 819.54213 157.592754 
L 820.235252 156.182023 
L 820.928374 155.891903 
L 821.621495 157.794793 
L 822.314617 157.67685 
L 823.007739 156.838618 
L 823.700861 158.001208 
L 824.393983 158.518586 
L 825.087104 157.738142 
L 826.473348 159.091717 
L 827.16647 158.53618 
L 827.859591 158.790581 
L 828.552713 159.561944 
L 829.245835 159.248223 
L 829.938957 159.296893 
L 830.632079 159.995049 
L 832.018322 159.837746 
L 832.711444 160.415392 
L 833.404566 160.490243 
L 834.097687 160.399064 
L 834.790809 160.835988 
L 835.483931 161.038584 
L 836.177053 160.969956 
L 837.563296 161.54339 
L 838.256418 161.539773 
L 838.94954 161.715985 
L 839.642662 162.009608 
L 841.028905 162.193737 
L 842.415149 162.619443 
L 843.801392 162.890515 
L 845.187636 163.220855 
L 847.960123 163.850901 
L 863.901924 167.631068 
L 863.901924 167.631068 
" style="fill:none;stroke:#023eff;stroke-linecap:round;stroke-width:1.5;"/>
   </g>
   <g id="line2d_33">
    <path clip-path="url(#p5c33d9447e)" d="M 518.034155 265.587886 
L 518.727277 262.055727 
L 519.420399 267.018202 
L 520.113521 267.096601 
L 520.806643 266.180191 
L 521.499764 263.759291 
L 522.192886 263.483527 
L 523.57913 266.916405 
L 524.272252 267.424076 
L 524.965373 267.406407 
L 525.658495 266.832732 
L 526.351617 265.714258 
L 527.044739 265.016899 
L 527.73786 265.496397 
L 528.430982 266.612373 
L 529.124104 267.47549 
L 529.817226 267.815778 
L 530.510348 267.742356 
L 531.203469 267.258963 
L 531.896591 266.555779 
L 532.589713 266.222404 
L 533.282835 266.61107 
L 534.669078 267.975383 
L 535.3622 268.208821 
L 536.055322 268.084718 
L 537.441565 267.224605 
L 538.134687 267.176296 
L 538.827809 267.602546 
L 539.520931 268.16466 
L 540.214052 268.524173 
L 540.907174 268.572918 
L 542.98654 267.863537 
L 543.679661 268.104582 
L 545.065905 268.875603 
L 545.759027 268.959548 
L 547.838392 268.479772 
L 548.531514 268.690121 
L 549.917757 269.283495 
L 550.610879 269.315393 
L 551.997123 269.017691 
L 552.690245 269.055869 
L 554.76961 269.690115 
L 556.848975 269.482043 
L 559.621462 270.011481 
L 561.007706 269.897769 
L 563.780193 270.345451 
L 565.166437 270.284463 
L 567.938924 270.653487 
L 569.325167 270.654113 
L 571.404533 270.953623 
L 573.483898 271.010191 
L 574.870141 271.211522 
L 577.642629 271.355703 
L 579.028872 271.483447 
L 581.108238 271.580489 
L 582.494481 271.710883 
L 584.573846 271.800918 
L 586.653212 271.933115 
L 590.811942 272.151394 
L 595.663795 272.42724 
L 628.240519 273.436271 
L 649.034172 273.558855 
L 664.282851 273.400952 
L 705.870158 272.761741 
L 706.56328 272.443891 
L 707.256402 272.964786 
L 707.949523 272.048003 
L 708.642645 273.580812 
L 709.335767 270.722968 
L 710.028889 275.089388 
L 710.722011 267.376482 
L 711.415132 276.023973 
L 712.108254 270.370665 
L 712.801376 270.690324 
L 713.494498 275.632265 
L 714.187619 270.445218 
L 714.880741 271.035715 
L 715.573863 275.290807 
L 716.266985 271.443707 
L 716.960107 270.610894 
L 717.653228 274.957451 
L 719.039472 270.22737 
L 719.732594 274.463199 
L 720.425715 273.463009 
L 721.118837 270.293038 
L 721.811959 273.747424 
L 722.505081 274.059286 
L 723.198203 270.879165 
L 723.891324 272.914908 
L 724.584446 274.300008 
L 725.277568 271.752046 
L 725.97069 272.205723 
L 726.663811 274.236731 
L 727.356933 272.599651 
L 728.050055 271.824058 
L 728.743177 273.964483 
L 729.436299 273.239494 
L 730.12942 271.807501 
L 730.822542 273.596262 
L 731.515664 273.634105 
L 732.208786 272.051386 
L 732.901908 273.242498 
L 733.595029 273.824615 
L 734.288151 272.407566 
L 734.981273 272.981962 
L 735.674395 273.876206 
L 736.367516 272.763499 
L 737.060638 272.844244 
L 737.75376 273.851283 
L 738.446882 273.062416 
L 739.140004 272.817386 
L 739.833125 273.799028 
L 741.219369 272.868958 
L 741.912491 273.75254 
L 742.605612 273.454876 
L 743.298734 272.966032 
L 743.991856 273.728478 
L 744.684978 273.572907 
L 745.3781 273.08386 
L 746.071221 273.733157 
L 746.764343 273.659002 
L 747.457465 273.20745 
L 748.150587 273.764581 
L 748.843708 273.726081 
L 749.53683 273.330388 
L 750.229952 273.818443 
L 750.923074 273.781656 
L 751.616196 273.452043 
L 752.309317 273.888475 
L 753.002439 273.831521 
L 753.695561 273.572971 
L 754.388683 273.969295 
L 755.774926 273.696959 
L 756.468048 274.055131 
L 757.854292 273.82705 
L 758.547413 274.13998 
L 759.240535 273.975859 
L 759.933657 273.96502 
L 760.626779 274.218442 
L 761.319901 274.035128 
L 762.706144 274.286393 
L 763.399266 274.110162 
L 764.785509 274.342936 
L 765.478631 274.208064 
L 766.171753 274.396241 
L 767.557997 274.332495 
L 768.251118 274.518243 
L 769.637362 274.479749 
L 770.330484 274.614197 
L 771.023605 274.522385 
L 772.409849 274.685652 
L 773.102971 274.633801 
L 773.796093 274.777457 
L 775.182336 274.780177 
L 775.875458 274.887273 
L 776.56858 274.835619 
L 777.954823 274.967803 
L 778.647945 274.962782 
L 779.341067 275.075488 
L 780.72731 275.121495 
L 786.272285 275.476859 
L 787.658528 275.546512 
L 799.441598 276.333115 
L 807.065938 276.837549 
L 807.75906 277.031233 
L 808.452182 276.889519 
L 809.145303 277.219809 
L 809.838425 276.870844 
L 810.531547 277.516448 
L 811.224669 276.666712 
L 811.917791 278.074161 
L 812.610912 275.94923 
L 813.304034 279.198694 
L 813.997156 273.865809 
L 814.690278 280.872035 
L 815.383399 270.913599 
L 816.076521 281.084644 
L 816.769643 275.786229 
L 817.462765 275.527249 
L 818.155887 280.937526 
L 818.849008 274.170929 
L 819.54213 277.949363 
L 820.235252 280.172718 
L 820.928374 274.444512 
L 821.621495 279.014855 
L 822.314617 279.461791 
L 823.007739 275.108683 
L 823.700861 279.532711 
L 824.393983 278.952387 
L 825.087104 275.785318 
L 825.780226 279.808924 
L 826.473348 278.624228 
L 827.16647 276.407087 
L 827.859591 279.965199 
L 829.245835 276.976866 
L 829.938957 280.055765 
L 830.632079 278.313056 
L 831.3252 277.510415 
L 832.018322 280.102443 
L 832.711444 278.259884 
L 833.404566 278.021539 
L 834.097687 280.112024 
L 834.790809 278.255375 
L 835.483931 278.515127 
L 836.177053 280.084596 
L 836.870175 278.301793 
L 837.563296 278.988386 
L 838.256418 280.017382 
L 838.94954 278.412583 
L 839.642662 279.427262 
L 840.335784 279.911211 
L 841.028905 278.603195 
L 841.722027 279.811185 
L 842.415149 279.775925 
L 843.108271 278.887199 
L 843.801392 280.111521 
L 845.187636 279.260795 
L 845.880758 280.30106 
L 846.57388 279.54835 
L 847.267001 279.693467 
L 847.960123 280.365774 
L 848.653245 279.56251 
L 849.346367 280.124106 
L 850.039488 280.319621 
L 850.73261 279.730127 
L 851.425732 280.472902 
L 852.811976 280.051791 
L 853.505097 280.672845 
L 854.198219 280.174745 
L 855.584463 280.707731 
L 856.277584 280.28501 
L 856.970706 280.810354 
L 858.35695 280.580243 
L 859.050072 281.002979 
L 859.743193 280.646439 
L 860.436315 280.957089 
L 861.129437 281.019665 
L 861.822559 280.833269 
L 862.515681 281.23483 
L 863.208802 280.998543 
L 863.901924 281.177436 
L 863.901924 281.177436 
" style="fill:none;stroke:#ff7c00;stroke-linecap:round;stroke-width:1.5;"/>
   </g>
   <g id="patch_9">
    <path d="M 500.740767 293.589375 
L 500.740767 21.789375 
" style="fill:none;stroke:#cccccc;stroke-linecap:square;stroke-linejoin:miter;stroke-width:1.25;"/>
   </g>
   <g id="patch_10">
    <path d="M 881.195312 293.589375 
L 881.195312 21.789375 
" style="fill:none;stroke:#cccccc;stroke-linecap:square;stroke-linejoin:miter;stroke-width:1.25;"/>
   </g>
   <g id="patch_11">
    <path d="M 500.740767 293.589375 
L 881.195312 293.589375 
" style="fill:none;stroke:#cccccc;stroke-linecap:square;stroke-linejoin:miter;stroke-width:1.25;"/>
   </g>
   <g id="patch_12">
    <path d="M 500.740767 21.789375 
L 881.195312 21.789375 
" style="fill:none;stroke:#cccccc;stroke-linecap:square;stroke-linejoin:miter;stroke-width:1.25;"/>
   </g>
   <g id="text_33">
    <!-- Model Loss -->
    <g style="fill:#262626;" transform="translate(660.287415 15.789375)scale(0.12 -0.12)">
     <use xlink:href="#ArialMT-77"/>
     <use x="83.300781" xlink:href="#ArialMT-111"/>
     <use x="138.916016" xlink:href="#ArialMT-100"/>
     <use x="194.53125" xlink:href="#ArialMT-101"/>
     <use x="250.146484" xlink:href="#ArialMT-108"/>
     <use x="272.363281" xlink:href="#ArialMT-32"/>
     <use x="300.146484" xlink:href="#ArialMT-76"/>
     <use x="355.761719" xlink:href="#ArialMT-111"/>
     <use x="411.376953" xlink:href="#ArialMT-115"/>
     <use x="461.376953" xlink:href="#ArialMT-115"/>
    </g>
   </g>
   <g id="legend_2">
    <g id="patch_13">
     <path d="M 816.898594 61.709062 
L 873.495312 61.709062 
Q 875.695312 61.709062 875.695312 59.509062 
L 875.695312 29.489375 
Q 875.695312 27.289375 873.495312 27.289375 
L 816.898594 27.289375 
Q 814.698594 27.289375 814.698594 29.489375 
L 814.698594 59.509062 
Q 814.698594 61.709062 816.898594 61.709062 
z
" style="fill:#ffffff;opacity:0.8;stroke:#cccccc;stroke-linejoin:miter;"/>
    </g>
    <g id="line2d_34">
     <path d="M 819.098594 35.712969 
L 841.098594 35.712969 
" style="fill:none;stroke:#023eff;stroke-linecap:round;stroke-width:1.5;"/>
    </g>
    <g id="line2d_35"/>
    <g id="text_34">
     <!-- train -->
     <g style="fill:#262626;" transform="translate(849.898594 39.562969)scale(0.11 -0.11)">
      <use xlink:href="#ArialMT-116"/>
      <use x="27.783203" xlink:href="#ArialMT-114"/>
      <use x="61.083984" xlink:href="#ArialMT-97"/>
      <use x="116.699219" xlink:href="#ArialMT-105"/>
      <use x="138.916016" xlink:href="#ArialMT-110"/>
     </g>
    </g>
    <g id="line2d_36">
     <path d="M 819.098594 51.272813 
L 841.098594 51.272813 
" style="fill:none;stroke:#ff7c00;stroke-linecap:round;stroke-width:1.5;"/>
    </g>
    <g id="line2d_37"/>
    <g id="text_35">
     <!-- val -->
     <g style="fill:#262626;" transform="translate(849.898594 55.122813)scale(0.11 -0.11)">
      <use xlink:href="#ArialMT-118"/>
      <use x="50" xlink:href="#ArialMT-97"/>
      <use x="105.615234" xlink:href="#ArialMT-108"/>
     </g>
    </g>
   </g>
  </g>
 </g>
 <defs>
  <clipPath id="p478b372fa5">
   <rect height="271.8" width="380.454545" x="44.195312" y="21.789375"/>
  </clipPath>
  <clipPath id="p5c33d9447e">
   <rect height="271.8" width="380.454545" x="500.740767" y="21.789375"/>
  </clipPath>
 </defs>
</svg>
