<?xml version="1.0" encoding="utf-8" standalone="no"?>
<!DOCTYPE svg PUBLIC "-//W3C//DTD SVG 1.1//EN"
  "http://www.w3.org/Graphics/SVG/1.1/DTD/svg11.dtd">
<!-- Created with matplotlib (https://matplotlib.org/) -->
<svg height="862.755937pt" version="1.1" viewBox="0 0 875.302648 862.755937" width="875.302648pt" xmlns="http://www.w3.org/2000/svg" xmlns:xlink="http://www.w3.org/1999/xlink">
 <defs>
  <style type="text/css">
*{stroke-linecap:butt;stroke-linejoin:round;}
  </style>
 </defs>
 <g id="figure_1">
  <g id="patch_1">
   <path d="M 0 862.755937 
L 875.302648 862.755937 
L 875.302648 0 
L 0 0 
z
" style="fill:#ffffff;"/>
  </g>
  <g id="axes_1">
   <g id="text_1">
    <!-- PDP for Ethnicity - Math Grade -->
    <defs>
     <path d="M 7.71875 0 
L 7.71875 71.578125 
L 34.71875 71.578125 
Q 41.84375 71.578125 45.609375 70.90625 
Q 50.875 70.015625 54.4375 67.546875 
Q 58.015625 65.09375 60.1875 60.640625 
Q 62.359375 56.203125 62.359375 50.875 
Q 62.359375 41.75 56.546875 35.421875 
Q 50.734375 29.109375 35.546875 29.109375 
L 17.1875 29.109375 
L 17.1875 0 
z
M 17.1875 37.546875 
L 35.6875 37.546875 
Q 44.875 37.546875 48.734375 40.96875 
Q 52.59375 44.390625 52.59375 50.59375 
Q 52.59375 55.078125 50.3125 58.265625 
Q 48.046875 61.46875 44.34375 62.5 
Q 41.9375 63.140625 35.5 63.140625 
L 17.1875 63.140625 
z
" id="ArialMT-80"/>
     <path d="M 7.71875 0 
L 7.71875 71.578125 
L 32.375 71.578125 
Q 40.71875 71.578125 45.125 70.5625 
Q 51.265625 69.140625 55.609375 65.4375 
Q 61.28125 60.640625 64.078125 53.1875 
Q 66.890625 45.75 66.890625 36.1875 
Q 66.890625 28.03125 64.984375 21.734375 
Q 63.09375 15.4375 60.109375 11.296875 
Q 57.125 7.171875 53.578125 4.796875 
Q 50.046875 2.4375 45.046875 1.21875 
Q 40.046875 0 33.546875 0 
z
M 17.1875 8.453125 
L 32.46875 8.453125 
Q 39.546875 8.453125 43.578125 9.765625 
Q 47.609375 11.078125 50 13.484375 
Q 53.375 16.84375 55.25 22.53125 
Q 57.125 28.21875 57.125 36.328125 
Q 57.125 47.5625 53.4375 53.59375 
Q 49.75 59.625 44.484375 61.671875 
Q 40.671875 63.140625 32.234375 63.140625 
L 17.1875 63.140625 
z
" id="ArialMT-68"/>
     <path id="ArialMT-32"/>
     <path d="M 8.6875 0 
L 8.6875 45.015625 
L 0.921875 45.015625 
L 0.921875 51.859375 
L 8.6875 51.859375 
L 8.6875 57.375 
Q 8.6875 62.59375 9.625 65.140625 
Q 10.890625 68.5625 14.078125 70.671875 
Q 17.28125 72.796875 23.046875 72.796875 
Q 26.765625 72.796875 31.25 71.921875 
L 29.9375 64.265625 
Q 27.203125 64.75 24.75 64.75 
Q 20.75 64.75 19.09375 63.03125 
Q 17.4375 61.328125 17.4375 56.640625 
L 17.4375 51.859375 
L 27.546875 51.859375 
L 27.546875 45.015625 
L 17.4375 45.015625 
L 17.4375 0 
z
" id="ArialMT-102"/>
     <path d="M 3.328125 25.921875 
Q 3.328125 40.328125 11.328125 47.265625 
Q 18.015625 53.03125 27.640625 53.03125 
Q 38.328125 53.03125 45.109375 46.015625 
Q 51.90625 39.015625 51.90625 26.65625 
Q 51.90625 16.65625 48.90625 10.90625 
Q 45.90625 5.171875 40.15625 2 
Q 34.421875 -1.171875 27.640625 -1.171875 
Q 16.75 -1.171875 10.03125 5.8125 
Q 3.328125 12.796875 3.328125 25.921875 
z
M 12.359375 25.921875 
Q 12.359375 15.96875 16.703125 11.015625 
Q 21.046875 6.0625 27.640625 6.0625 
Q 34.1875 6.0625 38.53125 11.03125 
Q 42.875 16.015625 42.875 26.21875 
Q 42.875 35.84375 38.5 40.796875 
Q 34.125 45.75 27.640625 45.75 
Q 21.046875 45.75 16.703125 40.8125 
Q 12.359375 35.890625 12.359375 25.921875 
z
" id="ArialMT-111"/>
     <path d="M 6.5 0 
L 6.5 51.859375 
L 14.40625 51.859375 
L 14.40625 44 
Q 17.4375 49.515625 20 51.265625 
Q 22.5625 53.03125 25.640625 53.03125 
Q 30.078125 53.03125 34.671875 50.203125 
L 31.640625 42.046875 
Q 28.421875 43.953125 25.203125 43.953125 
Q 22.3125 43.953125 20.015625 42.21875 
Q 17.71875 40.484375 16.75 37.40625 
Q 15.28125 32.71875 15.28125 27.15625 
L 15.28125 0 
z
" id="ArialMT-114"/>
     <path d="M 7.90625 0 
L 7.90625 71.578125 
L 59.671875 71.578125 
L 59.671875 63.140625 
L 17.390625 63.140625 
L 17.390625 41.21875 
L 56.984375 41.21875 
L 56.984375 32.8125 
L 17.390625 32.8125 
L 17.390625 8.453125 
L 61.328125 8.453125 
L 61.328125 0 
z
" id="ArialMT-69"/>
     <path d="M 25.78125 7.859375 
L 27.046875 0.09375 
Q 23.34375 -0.6875 20.40625 -0.6875 
Q 15.625 -0.6875 12.984375 0.828125 
Q 10.359375 2.34375 9.28125 4.8125 
Q 8.203125 7.28125 8.203125 15.1875 
L 8.203125 45.015625 
L 1.765625 45.015625 
L 1.765625 51.859375 
L 8.203125 51.859375 
L 8.203125 64.703125 
L 16.9375 69.96875 
L 16.9375 51.859375 
L 25.78125 51.859375 
L 25.78125 45.015625 
L 16.9375 45.015625 
L 16.9375 14.703125 
Q 16.9375 10.9375 17.40625 9.859375 
Q 17.875 8.796875 18.921875 8.15625 
Q 19.96875 7.515625 21.921875 7.515625 
Q 23.390625 7.515625 25.78125 7.859375 
z
" id="ArialMT-116"/>
     <path d="M 6.59375 0 
L 6.59375 71.578125 
L 15.375 71.578125 
L 15.375 45.90625 
Q 21.53125 53.03125 30.90625 53.03125 
Q 36.671875 53.03125 40.921875 50.75 
Q 45.171875 48.484375 47 44.484375 
Q 48.828125 40.484375 48.828125 32.859375 
L 48.828125 0 
L 40.046875 0 
L 40.046875 32.859375 
Q 40.046875 39.453125 37.1875 42.453125 
Q 34.328125 45.453125 29.109375 45.453125 
Q 25.203125 45.453125 21.75 43.421875 
Q 18.3125 41.40625 16.84375 37.9375 
Q 15.375 34.46875 15.375 28.375 
L 15.375 0 
z
" id="ArialMT-104"/>
     <path d="M 6.59375 0 
L 6.59375 51.859375 
L 14.5 51.859375 
L 14.5 44.484375 
Q 20.21875 53.03125 31 53.03125 
Q 35.6875 53.03125 39.625 51.34375 
Q 43.5625 49.65625 45.515625 46.921875 
Q 47.46875 44.1875 48.25 40.4375 
Q 48.734375 37.984375 48.734375 31.890625 
L 48.734375 0 
L 39.9375 0 
L 39.9375 31.546875 
Q 39.9375 36.921875 38.90625 39.578125 
Q 37.890625 42.234375 35.28125 43.8125 
Q 32.671875 45.40625 29.15625 45.40625 
Q 23.53125 45.40625 19.453125 41.84375 
Q 15.375 38.28125 15.375 28.328125 
L 15.375 0 
z
" id="ArialMT-110"/>
     <path d="M 6.640625 61.46875 
L 6.640625 71.578125 
L 15.4375 71.578125 
L 15.4375 61.46875 
z
M 6.640625 0 
L 6.640625 51.859375 
L 15.4375 51.859375 
L 15.4375 0 
z
" id="ArialMT-105"/>
     <path d="M 40.4375 19 
L 49.078125 17.875 
Q 47.65625 8.9375 41.8125 3.875 
Q 35.984375 -1.171875 27.484375 -1.171875 
Q 16.84375 -1.171875 10.375 5.78125 
Q 3.90625 12.75 3.90625 25.734375 
Q 3.90625 34.125 6.6875 40.421875 
Q 9.46875 46.734375 15.15625 49.875 
Q 20.84375 53.03125 27.546875 53.03125 
Q 35.984375 53.03125 41.359375 48.75 
Q 46.734375 44.484375 48.25 36.625 
L 39.703125 35.296875 
Q 38.484375 40.53125 35.375 43.15625 
Q 32.28125 45.796875 27.875 45.796875 
Q 21.234375 45.796875 17.078125 41.03125 
Q 12.9375 36.28125 12.9375 25.984375 
Q 12.9375 15.53125 16.9375 10.796875 
Q 20.953125 6.0625 27.390625 6.0625 
Q 32.5625 6.0625 36.03125 9.234375 
Q 39.5 12.40625 40.4375 19 
z
" id="ArialMT-99"/>
     <path d="M 6.203125 -19.96875 
L 5.21875 -11.71875 
Q 8.109375 -12.5 10.25 -12.5 
Q 13.1875 -12.5 14.9375 -11.515625 
Q 16.703125 -10.546875 17.828125 -8.796875 
Q 18.65625 -7.46875 20.515625 -2.25 
Q 20.75 -1.515625 21.296875 -0.09375 
L 1.609375 51.859375 
L 11.078125 51.859375 
L 21.875 21.828125 
Q 23.96875 16.109375 25.640625 9.8125 
Q 27.15625 15.875 29.25 21.625 
L 40.328125 51.859375 
L 49.125 51.859375 
L 29.390625 -0.875 
Q 26.21875 -9.421875 24.46875 -12.640625 
Q 22.125 -17 19.09375 -19.015625 
Q 16.0625 -21.046875 11.859375 -21.046875 
Q 9.328125 -21.046875 6.203125 -19.96875 
z
" id="ArialMT-121"/>
     <path d="M 3.171875 21.484375 
L 3.171875 30.328125 
L 30.171875 30.328125 
L 30.171875 21.484375 
z
" id="ArialMT-45"/>
     <path d="M 7.421875 0 
L 7.421875 71.578125 
L 21.6875 71.578125 
L 38.625 20.90625 
Q 40.96875 13.8125 42.046875 10.296875 
Q 43.265625 14.203125 45.84375 21.78125 
L 62.984375 71.578125 
L 75.734375 71.578125 
L 75.734375 0 
L 66.609375 0 
L 66.609375 59.90625 
L 45.796875 0 
L 37.25 0 
L 16.546875 60.9375 
L 16.546875 0 
z
" id="ArialMT-77"/>
     <path d="M 40.4375 6.390625 
Q 35.546875 2.25 31.03125 0.53125 
Q 26.515625 -1.171875 21.34375 -1.171875 
Q 12.796875 -1.171875 8.203125 3 
Q 3.609375 7.171875 3.609375 13.671875 
Q 3.609375 17.484375 5.34375 20.625 
Q 7.078125 23.78125 9.890625 25.6875 
Q 12.703125 27.59375 16.21875 28.5625 
Q 18.796875 29.25 24.03125 29.890625 
Q 34.671875 31.15625 39.703125 32.90625 
Q 39.75 34.71875 39.75 35.203125 
Q 39.75 40.578125 37.25 42.78125 
Q 33.890625 45.75 27.25 45.75 
Q 21.046875 45.75 18.09375 43.578125 
Q 15.140625 41.40625 13.71875 35.890625 
L 5.125 37.0625 
Q 6.296875 42.578125 8.984375 45.96875 
Q 11.671875 49.359375 16.75 51.1875 
Q 21.828125 53.03125 28.515625 53.03125 
Q 35.15625 53.03125 39.296875 51.46875 
Q 43.453125 49.90625 45.40625 47.53125 
Q 47.359375 45.171875 48.140625 41.546875 
Q 48.578125 39.3125 48.578125 33.453125 
L 48.578125 21.734375 
Q 48.578125 9.46875 49.140625 6.21875 
Q 49.703125 2.984375 51.375 0 
L 42.1875 0 
Q 40.828125 2.734375 40.4375 6.390625 
z
M 39.703125 26.03125 
Q 34.90625 24.078125 25.34375 22.703125 
Q 19.921875 21.921875 17.671875 20.9375 
Q 15.4375 19.96875 14.203125 18.09375 
Q 12.984375 16.21875 12.984375 13.921875 
Q 12.984375 10.40625 15.640625 8.0625 
Q 18.3125 5.71875 23.4375 5.71875 
Q 28.515625 5.71875 32.46875 7.9375 
Q 36.421875 10.15625 38.28125 14.015625 
Q 39.703125 17 39.703125 22.796875 
z
" id="ArialMT-97"/>
     <path d="M 41.21875 28.078125 
L 41.21875 36.46875 
L 71.53125 36.53125 
L 71.53125 9.96875 
Q 64.546875 4.390625 57.125 1.578125 
Q 49.703125 -1.21875 41.890625 -1.21875 
Q 31.34375 -1.21875 22.71875 3.296875 
Q 14.109375 7.8125 9.71875 16.359375 
Q 5.328125 24.90625 5.328125 35.453125 
Q 5.328125 45.90625 9.6875 54.953125 
Q 14.0625 64.015625 22.265625 68.40625 
Q 30.46875 72.796875 41.15625 72.796875 
Q 48.921875 72.796875 55.1875 70.28125 
Q 61.46875 67.78125 65.03125 63.28125 
Q 68.609375 58.796875 70.453125 51.5625 
L 61.921875 49.21875 
Q 60.296875 54.6875 57.90625 57.8125 
Q 55.515625 60.9375 51.0625 62.8125 
Q 46.625 64.703125 41.21875 64.703125 
Q 34.71875 64.703125 29.984375 62.71875 
Q 25.25 60.75 22.34375 57.515625 
Q 19.4375 54.296875 17.828125 50.4375 
Q 15.09375 43.796875 15.09375 36.03125 
Q 15.09375 26.46875 18.390625 20.015625 
Q 21.6875 13.578125 27.984375 10.453125 
Q 34.28125 7.328125 41.359375 7.328125 
Q 47.515625 7.328125 53.375 9.6875 
Q 59.234375 12.0625 62.25 14.75 
L 62.25 28.078125 
z
" id="ArialMT-71"/>
     <path d="M 40.234375 0 
L 40.234375 6.546875 
Q 35.296875 -1.171875 25.734375 -1.171875 
Q 19.53125 -1.171875 14.328125 2.25 
Q 9.125 5.671875 6.265625 11.796875 
Q 3.421875 17.921875 3.421875 25.875 
Q 3.421875 33.640625 6 39.96875 
Q 8.59375 46.296875 13.765625 49.65625 
Q 18.953125 53.03125 25.34375 53.03125 
Q 30.03125 53.03125 33.6875 51.046875 
Q 37.359375 49.078125 39.65625 45.90625 
L 39.65625 71.578125 
L 48.390625 71.578125 
L 48.390625 0 
z
M 12.453125 25.875 
Q 12.453125 15.921875 16.640625 10.984375 
Q 20.84375 6.0625 26.5625 6.0625 
Q 32.328125 6.0625 36.34375 10.765625 
Q 40.375 15.484375 40.375 25.140625 
Q 40.375 35.796875 36.265625 40.765625 
Q 32.171875 45.75 26.171875 45.75 
Q 20.3125 45.75 16.375 40.96875 
Q 12.453125 36.1875 12.453125 25.875 
z
" id="ArialMT-100"/>
     <path d="M 42.09375 16.703125 
L 51.171875 15.578125 
Q 49.03125 7.625 43.21875 3.21875 
Q 37.40625 -1.171875 28.375 -1.171875 
Q 17 -1.171875 10.328125 5.828125 
Q 3.65625 12.84375 3.65625 25.484375 
Q 3.65625 38.578125 10.390625 45.796875 
Q 17.140625 53.03125 27.875 53.03125 
Q 38.28125 53.03125 44.875 45.953125 
Q 51.46875 38.875 51.46875 26.03125 
Q 51.46875 25.25 51.421875 23.6875 
L 12.75 23.6875 
Q 13.234375 15.140625 17.578125 10.59375 
Q 21.921875 6.0625 28.421875 6.0625 
Q 33.25 6.0625 36.671875 8.59375 
Q 40.09375 11.140625 42.09375 16.703125 
z
M 13.234375 30.90625 
L 42.1875 30.90625 
Q 41.609375 37.453125 38.875 40.71875 
Q 34.671875 45.796875 27.984375 45.796875 
Q 21.921875 45.796875 17.796875 41.75 
Q 13.671875 37.703125 13.234375 30.90625 
z
" id="ArialMT-101"/>
    </defs>
    <g style="fill:#262626;" transform="translate(30.6 49.182388)scale(0.15 -0.15)">
     <use xlink:href="#ArialMT-80"/>
     <use x="66.699219" xlink:href="#ArialMT-68"/>
     <use x="138.916016" xlink:href="#ArialMT-80"/>
     <use x="205.599609" xlink:href="#ArialMT-32"/>
     <use x="233.382812" xlink:href="#ArialMT-102"/>
     <use x="261.166016" xlink:href="#ArialMT-111"/>
     <use x="316.78125" xlink:href="#ArialMT-114"/>
     <use x="350.082031" xlink:href="#ArialMT-32"/>
     <use x="377.865234" xlink:href="#ArialMT-69"/>
     <use x="444.564453" xlink:href="#ArialMT-116"/>
     <use x="472.347656" xlink:href="#ArialMT-104"/>
     <use x="527.962891" xlink:href="#ArialMT-110"/>
     <use x="583.578125" xlink:href="#ArialMT-105"/>
     <use x="605.794922" xlink:href="#ArialMT-99"/>
     <use x="655.794922" xlink:href="#ArialMT-105"/>
     <use x="678.011719" xlink:href="#ArialMT-116"/>
     <use x="705.794922" xlink:href="#ArialMT-121"/>
     <use x="755.794922" xlink:href="#ArialMT-32"/>
     <use x="783.578125" xlink:href="#ArialMT-45"/>
     <use x="816.878906" xlink:href="#ArialMT-32"/>
     <use x="844.662109" xlink:href="#ArialMT-77"/>
     <use x="927.962891" xlink:href="#ArialMT-97"/>
     <use x="983.578125" xlink:href="#ArialMT-116"/>
     <use x="1011.361328" xlink:href="#ArialMT-104"/>
     <use x="1066.976562" xlink:href="#ArialMT-32"/>
     <use x="1094.759766" xlink:href="#ArialMT-71"/>
     <use x="1172.542969" xlink:href="#ArialMT-114"/>
     <use x="1205.84375" xlink:href="#ArialMT-97"/>
     <use x="1261.458984" xlink:href="#ArialMT-100"/>
     <use x="1317.074219" xlink:href="#ArialMT-101"/>
    </g>
   </g>
   <g id="text_2">
    <!-- Race/Ethnicity (Legend):  -->
    <defs>
     <path d="M 7.859375 0 
L 7.859375 71.578125 
L 39.59375 71.578125 
Q 49.171875 71.578125 54.140625 69.640625 
Q 59.125 67.71875 62.109375 62.828125 
Q 65.09375 57.953125 65.09375 52.046875 
Q 65.09375 44.4375 60.15625 39.203125 
Q 55.21875 33.984375 44.921875 32.5625 
Q 48.6875 30.765625 50.640625 29 
Q 54.78125 25.203125 58.5 19.484375 
L 70.953125 0 
L 59.03125 0 
L 49.5625 14.890625 
Q 45.40625 21.34375 42.71875 24.75 
Q 40.046875 28.171875 37.921875 29.53125 
Q 35.796875 30.90625 33.59375 31.453125 
Q 31.984375 31.78125 28.328125 31.78125 
L 17.328125 31.78125 
L 17.328125 0 
z
M 17.328125 39.984375 
L 37.703125 39.984375 
Q 44.1875 39.984375 47.84375 41.328125 
Q 51.515625 42.671875 53.421875 45.625 
Q 55.328125 48.578125 55.328125 52.046875 
Q 55.328125 57.125 51.640625 60.390625 
Q 47.953125 63.671875 39.984375 63.671875 
L 17.328125 63.671875 
z
" id="ArialMT-82"/>
     <path d="M 0 -1.21875 
L 20.75 72.796875 
L 27.78125 72.796875 
L 7.078125 -1.21875 
z
" id="ArialMT-47"/>
     <path d="M 23.390625 -21.046875 
Q 16.109375 -11.859375 11.078125 0.4375 
Q 6.0625 12.75 6.0625 25.921875 
Q 6.0625 37.546875 9.8125 48.1875 
Q 14.203125 60.546875 23.390625 72.796875 
L 29.6875 72.796875 
Q 23.78125 62.640625 21.875 58.296875 
Q 18.890625 51.5625 17.1875 44.234375 
Q 15.09375 35.109375 15.09375 25.875 
Q 15.09375 2.390625 29.6875 -21.046875 
z
" id="ArialMT-40"/>
     <path d="M 7.328125 0 
L 7.328125 71.578125 
L 16.796875 71.578125 
L 16.796875 8.453125 
L 52.046875 8.453125 
L 52.046875 0 
z
" id="ArialMT-76"/>
     <path d="M 4.984375 -4.296875 
L 13.53125 -5.5625 
Q 14.0625 -9.515625 16.5 -11.328125 
Q 19.78125 -13.765625 25.4375 -13.765625 
Q 31.546875 -13.765625 34.859375 -11.328125 
Q 38.1875 -8.890625 39.359375 -4.5 
Q 40.046875 -1.8125 39.984375 6.78125 
Q 34.234375 0 25.640625 0 
Q 14.9375 0 9.078125 7.71875 
Q 3.21875 15.4375 3.21875 26.21875 
Q 3.21875 33.640625 5.90625 39.90625 
Q 8.59375 46.1875 13.6875 49.609375 
Q 18.796875 53.03125 25.6875 53.03125 
Q 34.859375 53.03125 40.828125 45.609375 
L 40.828125 51.859375 
L 48.921875 51.859375 
L 48.921875 7.03125 
Q 48.921875 -5.078125 46.453125 -10.125 
Q 44 -15.1875 38.640625 -18.109375 
Q 33.296875 -21.046875 25.484375 -21.046875 
Q 16.21875 -21.046875 10.5 -16.875 
Q 4.78125 -12.703125 4.984375 -4.296875 
z
M 12.25 26.859375 
Q 12.25 16.65625 16.296875 11.96875 
Q 20.359375 7.28125 26.46875 7.28125 
Q 32.515625 7.28125 36.609375 11.9375 
Q 40.71875 16.609375 40.71875 26.5625 
Q 40.71875 36.078125 36.5 40.90625 
Q 32.28125 45.75 26.3125 45.75 
Q 20.453125 45.75 16.34375 40.984375 
Q 12.25 36.234375 12.25 26.859375 
z
" id="ArialMT-103"/>
     <path d="M 12.359375 -21.046875 
L 6.0625 -21.046875 
Q 20.65625 2.390625 20.65625 25.875 
Q 20.65625 35.0625 18.5625 44.09375 
Q 16.890625 51.421875 13.921875 58.15625 
Q 12.015625 62.546875 6.0625 72.796875 
L 12.359375 72.796875 
Q 21.53125 60.546875 25.921875 48.1875 
Q 29.6875 37.546875 29.6875 25.921875 
Q 29.6875 12.75 24.625 0.4375 
Q 19.578125 -11.859375 12.359375 -21.046875 
z
" id="ArialMT-41"/>
     <path d="M 9.03125 41.84375 
L 9.03125 51.859375 
L 19.046875 51.859375 
L 19.046875 41.84375 
z
M 9.03125 0 
L 9.03125 10.015625 
L 19.046875 10.015625 
L 19.046875 0 
z
" id="ArialMT-58"/>
    </defs>
    <g style="fill:#808080;" transform="translate(30.6 67.707054)scale(0.12 -0.12)">
     <use xlink:href="#ArialMT-82"/>
     <use x="72.216797" xlink:href="#ArialMT-97"/>
     <use x="127.832031" xlink:href="#ArialMT-99"/>
     <use x="177.832031" xlink:href="#ArialMT-101"/>
     <use x="233.447266" xlink:href="#ArialMT-47"/>
     <use x="261.230469" xlink:href="#ArialMT-69"/>
     <use x="327.929688" xlink:href="#ArialMT-116"/>
     <use x="355.712891" xlink:href="#ArialMT-104"/>
     <use x="411.328125" xlink:href="#ArialMT-110"/>
     <use x="466.943359" xlink:href="#ArialMT-105"/>
     <use x="489.160156" xlink:href="#ArialMT-99"/>
     <use x="539.160156" xlink:href="#ArialMT-105"/>
     <use x="561.376953" xlink:href="#ArialMT-116"/>
     <use x="589.160156" xlink:href="#ArialMT-121"/>
     <use x="639.160156" xlink:href="#ArialMT-32"/>
     <use x="666.943359" xlink:href="#ArialMT-40"/>
     <use x="700.244141" xlink:href="#ArialMT-76"/>
     <use x="755.859375" xlink:href="#ArialMT-101"/>
     <use x="811.474609" xlink:href="#ArialMT-103"/>
     <use x="867.089844" xlink:href="#ArialMT-101"/>
     <use x="922.705078" xlink:href="#ArialMT-110"/>
     <use x="978.320312" xlink:href="#ArialMT-100"/>
     <use x="1033.935547" xlink:href="#ArialMT-41"/>
     <use x="1067.236328" xlink:href="#ArialMT-58"/>
     <use x="1095.019531" xlink:href="#ArialMT-32"/>
    </g>
    <!-- {0: 'Group A', 1: 'Group B', 2: 'Group C', 3: 'Group D', 4: 'Group E'} -->
    <defs>
     <path d="M 2.78125 29.890625 
Q 6.546875 29.984375 8.90625 31.90625 
Q 11.28125 33.84375 12.0625 37.203125 
Q 12.84375 40.578125 12.890625 48.734375 
Q 12.9375 56.890625 13.1875 59.46875 
Q 13.625 63.578125 14.8125 66.0625 
Q 16.015625 68.5625 17.765625 70.046875 
Q 19.53125 71.53125 22.265625 72.3125 
Q 24.125 72.796875 28.328125 72.796875 
L 31.0625 72.796875 
L 31.0625 65.140625 
L 29.546875 65.140625 
Q 24.46875 65.140625 22.796875 63.296875 
Q 21.140625 61.46875 21.140625 55.125 
Q 21.140625 42.328125 20.609375 38.96875 
Q 19.734375 33.734375 17.609375 30.90625 
Q 15.484375 28.078125 10.9375 25.875 
Q 16.3125 23.640625 18.71875 19.015625 
Q 21.140625 14.40625 21.140625 3.90625 
Q 21.140625 -5.609375 21.34375 -7.421875 
Q 21.734375 -10.75 23.3125 -12.0625 
Q 24.90625 -13.375 29.546875 -13.375 
L 31.0625 -13.375 
L 31.0625 -21.046875 
L 28.328125 -21.046875 
Q 23.53125 -21.046875 21.390625 -20.265625 
Q 18.265625 -19.140625 16.203125 -16.625 
Q 14.15625 -14.109375 13.546875 -10.25 
Q 12.9375 -6.390625 12.890625 2.390625 
Q 12.84375 11.1875 12.0625 14.546875 
Q 11.28125 17.921875 8.90625 19.875 
Q 6.546875 21.828125 2.78125 21.921875 
z
" id="ArialMT-123"/>
     <path d="M 4.15625 35.296875 
Q 4.15625 48 6.765625 55.734375 
Q 9.375 63.484375 14.515625 67.671875 
Q 19.671875 71.875 27.484375 71.875 
Q 33.25 71.875 37.59375 69.546875 
Q 41.9375 67.234375 44.765625 62.859375 
Q 47.609375 58.5 49.21875 52.21875 
Q 50.828125 45.953125 50.828125 35.296875 
Q 50.828125 22.703125 48.234375 14.96875 
Q 45.65625 7.234375 40.5 3 
Q 35.359375 -1.21875 27.484375 -1.21875 
Q 17.140625 -1.21875 11.234375 6.203125 
Q 4.15625 15.140625 4.15625 35.296875 
z
M 13.1875 35.296875 
Q 13.1875 17.671875 17.3125 11.828125 
Q 21.4375 6 27.484375 6 
Q 33.546875 6 37.671875 11.859375 
Q 41.796875 17.71875 41.796875 35.296875 
Q 41.796875 52.984375 37.671875 58.78125 
Q 33.546875 64.59375 27.390625 64.59375 
Q 21.34375 64.59375 17.71875 59.46875 
Q 13.1875 52.9375 13.1875 35.296875 
z
" id="ArialMT-48"/>
     <path d="M 6.640625 46.234375 
L 4.390625 59.625 
L 4.390625 71.578125 
L 14.40625 71.578125 
L 14.40625 59.625 
L 12.0625 46.234375 
z
" id="ArialMT-39"/>
     <path d="M 40.578125 0 
L 40.578125 7.625 
Q 34.515625 -1.171875 24.125 -1.171875 
Q 19.53125 -1.171875 15.546875 0.578125 
Q 11.578125 2.34375 9.640625 5 
Q 7.71875 7.671875 6.9375 11.53125 
Q 6.390625 14.109375 6.390625 19.734375 
L 6.390625 51.859375 
L 15.1875 51.859375 
L 15.1875 23.09375 
Q 15.1875 16.21875 15.71875 13.8125 
Q 16.546875 10.359375 19.234375 8.375 
Q 21.921875 6.390625 25.875 6.390625 
Q 29.828125 6.390625 33.296875 8.421875 
Q 36.765625 10.453125 38.203125 13.9375 
Q 39.65625 17.4375 39.65625 24.078125 
L 39.65625 51.859375 
L 48.4375 51.859375 
L 48.4375 0 
z
" id="ArialMT-117"/>
     <path d="M 6.59375 -19.875 
L 6.59375 51.859375 
L 14.59375 51.859375 
L 14.59375 45.125 
Q 17.4375 49.078125 21 51.046875 
Q 24.5625 53.03125 29.640625 53.03125 
Q 36.28125 53.03125 41.359375 49.609375 
Q 46.4375 46.1875 49.015625 39.953125 
Q 51.609375 33.734375 51.609375 26.3125 
Q 51.609375 18.359375 48.75 11.984375 
Q 45.90625 5.609375 40.453125 2.21875 
Q 35.015625 -1.171875 29 -1.171875 
Q 24.609375 -1.171875 21.109375 0.6875 
Q 17.625 2.546875 15.375 5.375 
L 15.375 -19.875 
z
M 14.546875 25.640625 
Q 14.546875 15.625 18.59375 10.84375 
Q 22.65625 6.0625 28.421875 6.0625 
Q 34.28125 6.0625 38.453125 11.015625 
Q 42.625 15.96875 42.625 26.375 
Q 42.625 36.28125 38.546875 41.203125 
Q 34.46875 46.140625 28.8125 46.140625 
Q 23.1875 46.140625 18.859375 40.890625 
Q 14.546875 35.640625 14.546875 25.640625 
z
" id="ArialMT-112"/>
     <path d="M -0.140625 0 
L 27.34375 71.578125 
L 37.546875 71.578125 
L 66.84375 0 
L 56.0625 0 
L 47.703125 21.6875 
L 17.78125 21.6875 
L 9.90625 0 
z
M 20.515625 29.390625 
L 44.78125 29.390625 
L 37.3125 49.21875 
Q 33.890625 58.25 32.234375 64.0625 
Q 30.859375 57.171875 28.375 50.390625 
z
" id="ArialMT-65"/>
     <path d="M 8.890625 0 
L 8.890625 10.015625 
L 18.890625 10.015625 
L 18.890625 0 
Q 18.890625 -5.515625 16.9375 -8.90625 
Q 14.984375 -12.3125 10.75 -14.15625 
L 8.296875 -10.40625 
Q 11.078125 -9.1875 12.390625 -6.8125 
Q 13.71875 -4.4375 13.875 0 
z
" id="ArialMT-44"/>
     <path d="M 37.25 0 
L 28.46875 0 
L 28.46875 56 
Q 25.296875 52.984375 20.140625 49.953125 
Q 14.984375 46.921875 10.890625 45.40625 
L 10.890625 53.90625 
Q 18.265625 57.375 23.78125 62.296875 
Q 29.296875 67.234375 31.59375 71.875 
L 37.25 71.875 
z
" id="ArialMT-49"/>
     <path d="M 7.328125 0 
L 7.328125 71.578125 
L 34.1875 71.578125 
Q 42.390625 71.578125 47.34375 69.40625 
Q 52.296875 67.234375 55.09375 62.71875 
Q 57.90625 58.203125 57.90625 53.265625 
Q 57.90625 48.6875 55.421875 44.625 
Q 52.9375 40.578125 47.90625 38.09375 
Q 54.390625 36.1875 57.875 31.59375 
Q 61.375 27 61.375 20.75 
Q 61.375 15.71875 59.25 11.390625 
Q 57.125 7.078125 54 4.734375 
Q 50.875 2.390625 46.15625 1.1875 
Q 41.453125 0 34.625 0 
z
M 16.796875 41.5 
L 32.28125 41.5 
Q 38.578125 41.5 41.3125 42.328125 
Q 44.921875 43.40625 46.75 45.890625 
Q 48.578125 48.390625 48.578125 52.15625 
Q 48.578125 55.71875 46.875 58.421875 
Q 45.171875 61.140625 41.984375 62.140625 
Q 38.8125 63.140625 31.109375 63.140625 
L 16.796875 63.140625 
z
M 16.796875 8.453125 
L 34.625 8.453125 
Q 39.203125 8.453125 41.0625 8.796875 
Q 44.34375 9.375 46.53125 10.734375 
Q 48.734375 12.109375 50.140625 14.71875 
Q 51.5625 17.328125 51.5625 20.75 
Q 51.5625 24.75 49.515625 27.703125 
Q 47.46875 30.671875 43.828125 31.859375 
Q 40.1875 33.0625 33.34375 33.0625 
L 16.796875 33.0625 
z
" id="ArialMT-66"/>
     <path d="M 50.34375 8.453125 
L 50.34375 0 
L 3.03125 0 
Q 2.9375 3.171875 4.046875 6.109375 
Q 5.859375 10.9375 9.828125 15.625 
Q 13.8125 20.3125 21.34375 26.46875 
Q 33.015625 36.03125 37.109375 41.625 
Q 41.21875 47.21875 41.21875 52.203125 
Q 41.21875 57.421875 37.46875 61 
Q 33.734375 64.59375 27.734375 64.59375 
Q 21.390625 64.59375 17.578125 60.78125 
Q 13.765625 56.984375 13.71875 50.25 
L 4.6875 51.171875 
Q 5.609375 61.28125 11.65625 66.578125 
Q 17.71875 71.875 27.9375 71.875 
Q 38.234375 71.875 44.234375 66.15625 
Q 50.25 60.453125 50.25 52 
Q 50.25 47.703125 48.484375 43.546875 
Q 46.734375 39.40625 42.65625 34.8125 
Q 38.578125 30.21875 29.109375 22.21875 
Q 21.1875 15.578125 18.9375 13.203125 
Q 16.703125 10.84375 15.234375 8.453125 
z
" id="ArialMT-50"/>
     <path d="M 58.796875 25.09375 
L 68.265625 22.703125 
Q 65.28125 11.03125 57.546875 4.90625 
Q 49.8125 -1.21875 38.625 -1.21875 
Q 27.046875 -1.21875 19.796875 3.484375 
Q 12.546875 8.203125 8.765625 17.140625 
Q 4.984375 26.078125 4.984375 36.328125 
Q 4.984375 47.515625 9.25 55.828125 
Q 13.53125 64.15625 21.40625 68.46875 
Q 29.296875 72.796875 38.765625 72.796875 
Q 49.515625 72.796875 56.828125 67.328125 
Q 64.15625 61.859375 67.046875 51.953125 
L 57.71875 49.75 
Q 55.21875 57.5625 50.484375 61.125 
Q 45.75 64.703125 38.578125 64.703125 
Q 30.328125 64.703125 24.78125 60.734375 
Q 19.234375 56.78125 16.984375 50.109375 
Q 14.75 43.453125 14.75 36.375 
Q 14.75 27.25 17.40625 20.4375 
Q 20.0625 13.625 25.671875 10.25 
Q 31.296875 6.890625 37.84375 6.890625 
Q 45.796875 6.890625 51.3125 11.46875 
Q 56.84375 16.0625 58.796875 25.09375 
z
" id="ArialMT-67"/>
     <path d="M 4.203125 18.890625 
L 12.984375 20.0625 
Q 14.5 12.59375 18.140625 9.296875 
Q 21.78125 6 27 6 
Q 33.203125 6 37.46875 10.296875 
Q 41.75 14.59375 41.75 20.953125 
Q 41.75 27 37.796875 30.921875 
Q 33.84375 34.859375 27.734375 34.859375 
Q 25.25 34.859375 21.53125 33.890625 
L 22.515625 41.609375 
Q 23.390625 41.5 23.921875 41.5 
Q 29.546875 41.5 34.03125 44.421875 
Q 38.53125 47.359375 38.53125 53.46875 
Q 38.53125 58.296875 35.25 61.46875 
Q 31.984375 64.65625 26.8125 64.65625 
Q 21.6875 64.65625 18.265625 61.421875 
Q 14.84375 58.203125 13.875 51.765625 
L 5.078125 53.328125 
Q 6.6875 62.15625 12.390625 67.015625 
Q 18.109375 71.875 26.609375 71.875 
Q 32.46875 71.875 37.390625 69.359375 
Q 42.328125 66.84375 44.9375 62.5 
Q 47.5625 58.15625 47.5625 53.265625 
Q 47.5625 48.640625 45.0625 44.828125 
Q 42.578125 41.015625 37.703125 38.765625 
Q 44.046875 37.3125 47.5625 32.6875 
Q 51.078125 28.078125 51.078125 21.140625 
Q 51.078125 11.765625 44.234375 5.25 
Q 37.40625 -1.265625 26.953125 -1.265625 
Q 17.53125 -1.265625 11.296875 4.34375 
Q 5.078125 9.96875 4.203125 18.890625 
z
" id="ArialMT-51"/>
     <path d="M 32.328125 0 
L 32.328125 17.140625 
L 1.265625 17.140625 
L 1.265625 25.203125 
L 33.9375 71.578125 
L 41.109375 71.578125 
L 41.109375 25.203125 
L 50.78125 25.203125 
L 50.78125 17.140625 
L 41.109375 17.140625 
L 41.109375 0 
z
M 32.328125 25.203125 
L 32.328125 57.46875 
L 9.90625 25.203125 
z
" id="ArialMT-52"/>
     <path d="M 30.5625 29.890625 
L 30.5625 21.921875 
Q 26.8125 21.828125 24.4375 19.875 
Q 22.078125 17.921875 21.296875 14.578125 
Q 20.515625 11.234375 20.453125 3.078125 
Q 20.40625 -5.078125 20.171875 -7.671875 
Q 19.734375 -11.8125 18.53125 -14.28125 
Q 17.328125 -16.75 15.5625 -18.234375 
Q 13.8125 -19.734375 11.078125 -20.515625 
Q 9.234375 -21.046875 5.03125 -21.046875 
L 2.296875 -21.046875 
L 2.296875 -13.375 
L 3.8125 -13.375 
Q 8.890625 -13.375 10.546875 -11.546875 
Q 12.203125 -9.71875 12.203125 -3.328125 
Q 12.203125 8.890625 12.640625 12.15625 
Q 13.421875 17.578125 15.765625 20.828125 
Q 18.109375 24.078125 22.40625 25.875 
Q 16.796875 28.5625 14.5 32.984375 
Q 12.203125 37.40625 12.203125 47.90625 
Q 12.203125 57.421875 11.96875 59.28125 
Q 11.625 62.546875 10.03125 63.84375 
Q 8.453125 65.140625 3.8125 65.140625 
L 2.296875 65.140625 
L 2.296875 72.796875 
L 5.03125 72.796875 
Q 9.8125 72.796875 11.96875 72.015625 
Q 15.09375 70.953125 17.140625 68.40625 
Q 19.1875 65.875 19.796875 62.015625 
Q 20.40625 58.15625 20.453125 49.359375 
Q 20.515625 40.578125 21.296875 37.234375 
Q 22.078125 33.890625 24.4375 31.9375 
Q 26.8125 29.984375 30.5625 29.890625 
z
" id="ArialMT-125"/>
    </defs>
    <g style="fill:#808080;" transform="translate(30.6 80.715429)scale(0.12 -0.12)">
     <use xlink:href="#ArialMT-123"/>
     <use x="33.398438" xlink:href="#ArialMT-48"/>
     <use x="89.013672" xlink:href="#ArialMT-58"/>
     <use x="116.796875" xlink:href="#ArialMT-32"/>
     <use x="144.580078" xlink:href="#ArialMT-39"/>
     <use x="163.671875" xlink:href="#ArialMT-71"/>
     <use x="241.455078" xlink:href="#ArialMT-114"/>
     <use x="274.755859" xlink:href="#ArialMT-111"/>
     <use x="330.371094" xlink:href="#ArialMT-117"/>
     <use x="385.986328" xlink:href="#ArialMT-112"/>
     <use x="441.601562" xlink:href="#ArialMT-32"/>
     <use x="469.306641" xlink:href="#ArialMT-65"/>
     <use x="536.005859" xlink:href="#ArialMT-39"/>
     <use x="555.097656" xlink:href="#ArialMT-44"/>
     <use x="582.880859" xlink:href="#ArialMT-32"/>
     <use x="610.664062" xlink:href="#ArialMT-49"/>
     <use x="666.279297" xlink:href="#ArialMT-58"/>
     <use x="694.0625" xlink:href="#ArialMT-32"/>
     <use x="721.845703" xlink:href="#ArialMT-39"/>
     <use x="740.9375" xlink:href="#ArialMT-71"/>
     <use x="818.720703" xlink:href="#ArialMT-114"/>
     <use x="852.021484" xlink:href="#ArialMT-111"/>
     <use x="907.636719" xlink:href="#ArialMT-117"/>
     <use x="963.251953" xlink:href="#ArialMT-112"/>
     <use x="1018.867188" xlink:href="#ArialMT-32"/>
     <use x="1046.650391" xlink:href="#ArialMT-66"/>
     <use x="1113.349609" xlink:href="#ArialMT-39"/>
     <use x="1132.441406" xlink:href="#ArialMT-44"/>
     <use x="1160.224609" xlink:href="#ArialMT-32"/>
     <use x="1188.007812" xlink:href="#ArialMT-50"/>
     <use x="1243.623047" xlink:href="#ArialMT-58"/>
     <use x="1271.40625" xlink:href="#ArialMT-32"/>
     <use x="1299.189453" xlink:href="#ArialMT-39"/>
     <use x="1318.28125" xlink:href="#ArialMT-71"/>
     <use x="1396.064453" xlink:href="#ArialMT-114"/>
     <use x="1429.365234" xlink:href="#ArialMT-111"/>
     <use x="1484.980469" xlink:href="#ArialMT-117"/>
     <use x="1540.595703" xlink:href="#ArialMT-112"/>
     <use x="1596.210938" xlink:href="#ArialMT-32"/>
     <use x="1623.994141" xlink:href="#ArialMT-67"/>
     <use x="1696.210938" xlink:href="#ArialMT-39"/>
     <use x="1715.302734" xlink:href="#ArialMT-44"/>
     <use x="1743.085938" xlink:href="#ArialMT-32"/>
     <use x="1770.869141" xlink:href="#ArialMT-51"/>
     <use x="1826.484375" xlink:href="#ArialMT-58"/>
     <use x="1854.267578" xlink:href="#ArialMT-32"/>
     <use x="1882.050781" xlink:href="#ArialMT-39"/>
     <use x="1901.142578" xlink:href="#ArialMT-71"/>
     <use x="1978.925781" xlink:href="#ArialMT-114"/>
     <use x="2012.226562" xlink:href="#ArialMT-111"/>
     <use x="2067.841797" xlink:href="#ArialMT-117"/>
     <use x="2123.457031" xlink:href="#ArialMT-112"/>
     <use x="2179.072266" xlink:href="#ArialMT-32"/>
     <use x="2206.855469" xlink:href="#ArialMT-68"/>
     <use x="2279.072266" xlink:href="#ArialMT-39"/>
     <use x="2298.164062" xlink:href="#ArialMT-44"/>
     <use x="2325.947266" xlink:href="#ArialMT-32"/>
     <use x="2353.730469" xlink:href="#ArialMT-52"/>
     <use x="2409.345703" xlink:href="#ArialMT-58"/>
     <use x="2437.128906" xlink:href="#ArialMT-32"/>
     <use x="2464.912109" xlink:href="#ArialMT-39"/>
     <use x="2484.003906" xlink:href="#ArialMT-71"/>
     <use x="2561.787109" xlink:href="#ArialMT-114"/>
     <use x="2595.087891" xlink:href="#ArialMT-111"/>
     <use x="2650.703125" xlink:href="#ArialMT-117"/>
     <use x="2706.318359" xlink:href="#ArialMT-112"/>
     <use x="2761.933594" xlink:href="#ArialMT-32"/>
     <use x="2789.716797" xlink:href="#ArialMT-69"/>
     <use x="2856.416016" xlink:href="#ArialMT-39"/>
     <use x="2875.507812" xlink:href="#ArialMT-125"/>
    </g>
   </g>
  </g>
  <g id="axes_2">
   <g id="matplotlib.axis_1">
    <g id="xtick_1">
     <g id="line2d_1">
      <path clip-path="url(#pe3e6c58e95)" d="M 48.716883 455.493506 
L 48.716883 149.571429 
" style="fill:none;stroke:#1a1a1a;stroke-dasharray:1.85,0.8;stroke-dashoffset:0;stroke-opacity:0.3;stroke-width:0.5;"/>
     </g>
     <g id="line2d_2">
      <defs>
       <path d="M 0 0 
L 0 6 
" id="m56b5a4b687" style="stroke:#9e9e9e;stroke-width:1.25;"/>
      </defs>
      <g>
       <use style="fill:#9e9e9e;stroke:#9e9e9e;stroke-width:1.25;" x="48.716883" xlink:href="#m56b5a4b687" y="455.493506"/>
      </g>
     </g>
     <g id="text_3">
      <!-- Group A -->
      <g style="fill:#424242;" transform="translate(30.101258 472.273194)scale(0.1 -0.1)">
       <use xlink:href="#ArialMT-71"/>
       <use x="77.783203" xlink:href="#ArialMT-114"/>
       <use x="111.083984" xlink:href="#ArialMT-111"/>
       <use x="166.699219" xlink:href="#ArialMT-117"/>
       <use x="222.314453" xlink:href="#ArialMT-112"/>
       <use x="277.929688" xlink:href="#ArialMT-32"/>
       <use x="305.634766" xlink:href="#ArialMT-65"/>
      </g>
     </g>
    </g>
    <g id="xtick_2">
     <g id="line2d_3">
      <path clip-path="url(#pe3e6c58e95)" d="M 139.301299 455.493506 
L 139.301299 149.571429 
" style="fill:none;stroke:#1a1a1a;stroke-dasharray:1.85,0.8;stroke-dashoffset:0;stroke-opacity:0.3;stroke-width:0.5;"/>
     </g>
     <g id="line2d_4">
      <g>
       <use style="fill:#9e9e9e;stroke:#9e9e9e;stroke-width:1.25;" x="139.301299" xlink:href="#m56b5a4b687" y="455.493506"/>
      </g>
     </g>
     <g id="text_4">
      <!-- Group B -->
      <g style="fill:#424242;" transform="translate(120.681767 472.273194)scale(0.1 -0.1)">
       <use xlink:href="#ArialMT-71"/>
       <use x="77.783203" xlink:href="#ArialMT-114"/>
       <use x="111.083984" xlink:href="#ArialMT-111"/>
       <use x="166.699219" xlink:href="#ArialMT-117"/>
       <use x="222.314453" xlink:href="#ArialMT-112"/>
       <use x="277.929688" xlink:href="#ArialMT-32"/>
       <use x="305.712891" xlink:href="#ArialMT-66"/>
      </g>
     </g>
    </g>
    <g id="xtick_3">
     <g id="line2d_5">
      <path clip-path="url(#pe3e6c58e95)" d="M 229.885714 455.493506 
L 229.885714 149.571429 
" style="fill:none;stroke:#1a1a1a;stroke-dasharray:1.85,0.8;stroke-dashoffset:0;stroke-opacity:0.3;stroke-width:0.5;"/>
     </g>
     <g id="line2d_6">
      <g>
       <use style="fill:#9e9e9e;stroke:#9e9e9e;stroke-width:1.25;" x="229.885714" xlink:href="#m56b5a4b687" y="455.493506"/>
      </g>
     </g>
     <g id="text_5">
      <!-- Group C -->
      <g style="fill:#424242;" transform="translate(210.990402 472.273194)scale(0.1 -0.1)">
       <use xlink:href="#ArialMT-71"/>
       <use x="77.783203" xlink:href="#ArialMT-114"/>
       <use x="111.083984" xlink:href="#ArialMT-111"/>
       <use x="166.699219" xlink:href="#ArialMT-117"/>
       <use x="222.314453" xlink:href="#ArialMT-112"/>
       <use x="277.929688" xlink:href="#ArialMT-32"/>
       <use x="305.712891" xlink:href="#ArialMT-67"/>
      </g>
     </g>
    </g>
    <g id="xtick_4">
     <g id="line2d_7">
      <path clip-path="url(#pe3e6c58e95)" d="M 320.47013 455.493506 
L 320.47013 149.571429 
" style="fill:none;stroke:#1a1a1a;stroke-dasharray:1.85,0.8;stroke-dashoffset:0;stroke-opacity:0.3;stroke-width:0.5;"/>
     </g>
     <g id="line2d_8">
      <g>
       <use style="fill:#9e9e9e;stroke:#9e9e9e;stroke-width:1.25;" x="320.47013" xlink:href="#m56b5a4b687" y="455.493506"/>
      </g>
     </g>
     <g id="text_6">
      <!-- Group D -->
      <g style="fill:#424242;" transform="translate(301.574817 472.273194)scale(0.1 -0.1)">
       <use xlink:href="#ArialMT-71"/>
       <use x="77.783203" xlink:href="#ArialMT-114"/>
       <use x="111.083984" xlink:href="#ArialMT-111"/>
       <use x="166.699219" xlink:href="#ArialMT-117"/>
       <use x="222.314453" xlink:href="#ArialMT-112"/>
       <use x="277.929688" xlink:href="#ArialMT-32"/>
       <use x="305.712891" xlink:href="#ArialMT-68"/>
      </g>
     </g>
    </g>
    <g id="xtick_5">
     <g id="line2d_9">
      <path clip-path="url(#pe3e6c58e95)" d="M 411.054545 455.493506 
L 411.054545 149.571429 
" style="fill:none;stroke:#1a1a1a;stroke-dasharray:1.85,0.8;stroke-dashoffset:0;stroke-opacity:0.3;stroke-width:0.5;"/>
     </g>
     <g id="line2d_10">
      <g>
       <use style="fill:#9e9e9e;stroke:#9e9e9e;stroke-width:1.25;" x="411.054545" xlink:href="#m56b5a4b687" y="455.493506"/>
      </g>
     </g>
     <g id="text_7">
      <!-- Group E -->
      <g style="fill:#424242;" transform="translate(392.435014 472.273194)scale(0.1 -0.1)">
       <use xlink:href="#ArialMT-71"/>
       <use x="77.783203" xlink:href="#ArialMT-114"/>
       <use x="111.083984" xlink:href="#ArialMT-111"/>
       <use x="166.699219" xlink:href="#ArialMT-117"/>
       <use x="222.314453" xlink:href="#ArialMT-112"/>
       <use x="277.929688" xlink:href="#ArialMT-32"/>
       <use x="305.712891" xlink:href="#ArialMT-69"/>
      </g>
     </g>
    </g>
    <g id="text_8">
     <!-- Ethnicity -->
     <g style="fill:#262626;" transform="translate(209.100011 486.134288)scale(0.11 -0.11)">
      <use xlink:href="#ArialMT-69"/>
      <use x="66.699219" xlink:href="#ArialMT-116"/>
      <use x="94.482422" xlink:href="#ArialMT-104"/>
      <use x="150.097656" xlink:href="#ArialMT-110"/>
      <use x="205.712891" xlink:href="#ArialMT-105"/>
      <use x="227.929688" xlink:href="#ArialMT-99"/>
      <use x="277.929688" xlink:href="#ArialMT-105"/>
      <use x="300.146484" xlink:href="#ArialMT-116"/>
      <use x="327.929688" xlink:href="#ArialMT-121"/>
     </g>
    </g>
   </g>
   <g id="matplotlib.axis_2">
    <g id="ytick_1">
     <g id="line2d_11">
      <path clip-path="url(#pe3e6c58e95)" d="M 30.6 416.713075 
L 429.171429 416.713075 
" style="fill:none;stroke:#1a1a1a;stroke-dasharray:1.85,0.8;stroke-dashoffset:0;stroke-opacity:0.3;stroke-width:0.5;"/>
     </g>
     <g id="line2d_12">
      <defs>
       <path d="M 0 0 
L -6 0 
" id="m1dac3c7d04" style="stroke:#9e9e9e;stroke-width:1.25;"/>
      </defs>
      <g>
       <use style="fill:#9e9e9e;stroke:#9e9e9e;stroke-width:1.25;" x="30.6" xlink:href="#m1dac3c7d04" y="416.713075"/>
      </g>
     </g>
     <g id="text_9">
      <!-- 0.0 -->
      <defs>
       <path d="M 9.078125 0 
L 9.078125 10.015625 
L 19.09375 10.015625 
L 19.09375 0 
z
" id="ArialMT-46"/>
      </defs>
      <g style="fill:#424242;" transform="translate(7.2 420.291982)scale(0.1 -0.1)">
       <use xlink:href="#ArialMT-48"/>
       <use x="55.615234" xlink:href="#ArialMT-46"/>
       <use x="83.398438" xlink:href="#ArialMT-48"/>
      </g>
     </g>
    </g>
    <g id="ytick_2">
     <g id="line2d_13">
      <path clip-path="url(#pe3e6c58e95)" d="M 30.6 376.6145 
L 429.171429 376.6145 
" style="fill:none;stroke:#1a1a1a;stroke-dasharray:1.85,0.8;stroke-dashoffset:0;stroke-opacity:0.3;stroke-width:0.5;"/>
     </g>
     <g id="line2d_14">
      <g>
       <use style="fill:#9e9e9e;stroke:#9e9e9e;stroke-width:1.25;" x="30.6" xlink:href="#m1dac3c7d04" y="376.6145"/>
      </g>
     </g>
     <g id="text_10">
      <!-- 0.2 -->
      <g style="fill:#424242;" transform="translate(7.2 380.193406)scale(0.1 -0.1)">
       <use xlink:href="#ArialMT-48"/>
       <use x="55.615234" xlink:href="#ArialMT-46"/>
       <use x="83.398438" xlink:href="#ArialMT-50"/>
      </g>
     </g>
    </g>
    <g id="ytick_3">
     <g id="line2d_15">
      <path clip-path="url(#pe3e6c58e95)" d="M 30.6 336.515925 
L 429.171429 336.515925 
" style="fill:none;stroke:#1a1a1a;stroke-dasharray:1.85,0.8;stroke-dashoffset:0;stroke-opacity:0.3;stroke-width:0.5;"/>
     </g>
     <g id="line2d_16">
      <g>
       <use style="fill:#9e9e9e;stroke:#9e9e9e;stroke-width:1.25;" x="30.6" xlink:href="#m1dac3c7d04" y="336.515925"/>
      </g>
     </g>
     <g id="text_11">
      <!-- 0.4 -->
      <g style="fill:#424242;" transform="translate(7.2 340.094831)scale(0.1 -0.1)">
       <use xlink:href="#ArialMT-48"/>
       <use x="55.615234" xlink:href="#ArialMT-46"/>
       <use x="83.398438" xlink:href="#ArialMT-52"/>
      </g>
     </g>
    </g>
    <g id="ytick_4">
     <g id="line2d_17">
      <path clip-path="url(#pe3e6c58e95)" d="M 30.6 296.417349 
L 429.171429 296.417349 
" style="fill:none;stroke:#1a1a1a;stroke-dasharray:1.85,0.8;stroke-dashoffset:0;stroke-opacity:0.3;stroke-width:0.5;"/>
     </g>
     <g id="line2d_18">
      <g>
       <use style="fill:#9e9e9e;stroke:#9e9e9e;stroke-width:1.25;" x="30.6" xlink:href="#m1dac3c7d04" y="296.417349"/>
      </g>
     </g>
     <g id="text_12">
      <!-- 0.6 -->
      <defs>
       <path d="M 49.75 54.046875 
L 41.015625 53.375 
Q 39.84375 58.546875 37.703125 60.890625 
Q 34.125 64.65625 28.90625 64.65625 
Q 24.703125 64.65625 21.53125 62.3125 
Q 17.390625 59.28125 14.984375 53.46875 
Q 12.59375 47.65625 12.5 36.921875 
Q 15.671875 41.75 20.265625 44.09375 
Q 24.859375 46.4375 29.890625 46.4375 
Q 38.671875 46.4375 44.84375 39.96875 
Q 51.03125 33.5 51.03125 23.25 
Q 51.03125 16.5 48.125 10.71875 
Q 45.21875 4.9375 40.140625 1.859375 
Q 35.0625 -1.21875 28.609375 -1.21875 
Q 17.625 -1.21875 10.6875 6.859375 
Q 3.765625 14.9375 3.765625 33.5 
Q 3.765625 54.25 11.421875 63.671875 
Q 18.109375 71.875 29.4375 71.875 
Q 37.890625 71.875 43.28125 67.140625 
Q 48.6875 62.40625 49.75 54.046875 
z
M 13.875 23.1875 
Q 13.875 18.65625 15.796875 14.5 
Q 17.71875 10.359375 21.1875 8.171875 
Q 24.65625 6 28.46875 6 
Q 34.03125 6 38.03125 10.484375 
Q 42.046875 14.984375 42.046875 22.703125 
Q 42.046875 30.125 38.078125 34.390625 
Q 34.125 38.671875 28.125 38.671875 
Q 22.171875 38.671875 18.015625 34.390625 
Q 13.875 30.125 13.875 23.1875 
z
" id="ArialMT-54"/>
      </defs>
      <g style="fill:#424242;" transform="translate(7.2 299.996255)scale(0.1 -0.1)">
       <use xlink:href="#ArialMT-48"/>
       <use x="55.615234" xlink:href="#ArialMT-46"/>
       <use x="83.398438" xlink:href="#ArialMT-54"/>
      </g>
     </g>
    </g>
    <g id="ytick_5">
     <g id="line2d_19">
      <path clip-path="url(#pe3e6c58e95)" d="M 30.6 256.318774 
L 429.171429 256.318774 
" style="fill:none;stroke:#1a1a1a;stroke-dasharray:1.85,0.8;stroke-dashoffset:0;stroke-opacity:0.3;stroke-width:0.5;"/>
     </g>
     <g id="line2d_20">
      <g>
       <use style="fill:#9e9e9e;stroke:#9e9e9e;stroke-width:1.25;" x="30.6" xlink:href="#m1dac3c7d04" y="256.318774"/>
      </g>
     </g>
     <g id="text_13">
      <!-- 0.8 -->
      <defs>
       <path d="M 17.671875 38.8125 
Q 12.203125 40.828125 9.5625 44.53125 
Q 6.9375 48.25 6.9375 53.421875 
Q 6.9375 61.234375 12.546875 66.546875 
Q 18.171875 71.875 27.484375 71.875 
Q 36.859375 71.875 42.578125 66.421875 
Q 48.296875 60.984375 48.296875 53.171875 
Q 48.296875 48.1875 45.671875 44.5 
Q 43.0625 40.828125 37.75 38.8125 
Q 44.34375 36.671875 47.78125 31.875 
Q 51.21875 27.09375 51.21875 20.453125 
Q 51.21875 11.28125 44.71875 5.03125 
Q 38.234375 -1.21875 27.640625 -1.21875 
Q 17.046875 -1.21875 10.546875 5.046875 
Q 4.046875 11.328125 4.046875 20.703125 
Q 4.046875 27.6875 7.59375 32.390625 
Q 11.140625 37.109375 17.671875 38.8125 
z
M 15.921875 53.71875 
Q 15.921875 48.640625 19.1875 45.40625 
Q 22.46875 42.1875 27.6875 42.1875 
Q 32.765625 42.1875 36.015625 45.375 
Q 39.265625 48.578125 39.265625 53.21875 
Q 39.265625 58.0625 35.90625 61.359375 
Q 32.5625 64.65625 27.59375 64.65625 
Q 22.5625 64.65625 19.234375 61.421875 
Q 15.921875 58.203125 15.921875 53.71875 
z
M 13.09375 20.65625 
Q 13.09375 16.890625 14.875 13.375 
Q 16.65625 9.859375 20.171875 7.921875 
Q 23.6875 6 27.734375 6 
Q 34.03125 6 38.125 10.046875 
Q 42.234375 14.109375 42.234375 20.359375 
Q 42.234375 26.703125 38.015625 30.859375 
Q 33.796875 35.015625 27.4375 35.015625 
Q 21.234375 35.015625 17.15625 30.90625 
Q 13.09375 26.8125 13.09375 20.65625 
z
" id="ArialMT-56"/>
      </defs>
      <g style="fill:#424242;" transform="translate(7.2 259.89768)scale(0.1 -0.1)">
       <use xlink:href="#ArialMT-48"/>
       <use x="55.615234" xlink:href="#ArialMT-46"/>
       <use x="83.398438" xlink:href="#ArialMT-56"/>
      </g>
     </g>
    </g>
    <g id="ytick_6">
     <g id="line2d_21">
      <path clip-path="url(#pe3e6c58e95)" d="M 30.6 216.220198 
L 429.171429 216.220198 
" style="fill:none;stroke:#1a1a1a;stroke-dasharray:1.85,0.8;stroke-dashoffset:0;stroke-opacity:0.3;stroke-width:0.5;"/>
     </g>
     <g id="line2d_22">
      <g>
       <use style="fill:#9e9e9e;stroke:#9e9e9e;stroke-width:1.25;" x="30.6" xlink:href="#m1dac3c7d04" y="216.220198"/>
      </g>
     </g>
     <g id="text_14">
      <!-- 1.0 -->
      <g style="fill:#424242;" transform="translate(7.2 219.799105)scale(0.1 -0.1)">
       <use xlink:href="#ArialMT-49"/>
       <use x="55.615234" xlink:href="#ArialMT-46"/>
       <use x="83.398438" xlink:href="#ArialMT-48"/>
      </g>
     </g>
    </g>
    <g id="ytick_7">
     <g id="line2d_23">
      <path clip-path="url(#pe3e6c58e95)" d="M 30.6 176.121623 
L 429.171429 176.121623 
" style="fill:none;stroke:#1a1a1a;stroke-dasharray:1.85,0.8;stroke-dashoffset:0;stroke-opacity:0.3;stroke-width:0.5;"/>
     </g>
     <g id="line2d_24">
      <g>
       <use style="fill:#9e9e9e;stroke:#9e9e9e;stroke-width:1.25;" x="30.6" xlink:href="#m1dac3c7d04" y="176.121623"/>
      </g>
     </g>
     <g id="text_15">
      <!-- 1.2 -->
      <g style="fill:#424242;" transform="translate(7.2 179.700529)scale(0.1 -0.1)">
       <use xlink:href="#ArialMT-49"/>
       <use x="55.615234" xlink:href="#ArialMT-46"/>
       <use x="83.398438" xlink:href="#ArialMT-50"/>
      </g>
     </g>
    </g>
   </g>
   <g id="PolyCollection_1">
    <defs>
     <path d="M 48.716883 -426.652647 
L 48.716883 -510.061045 
L 139.301299 -526.119755 
L 229.885714 -517.30172 
L 320.47013 -516.639131 
L 411.054545 -579.613685 
L 411.054545 -470.083116 
L 411.054545 -470.083116 
L 320.47013 -441.35707 
L 229.885714 -439.611325 
L 139.301299 -440.268622 
L 48.716883 -426.652647 
z
" id="m5600d7094e" style="stroke:#66c2d7;stroke-opacity:0.2;"/>
    </defs>
    <g clip-path="url(#pe3e6c58e95)">
     <use style="fill:#66c2d7;fill-opacity:0.2;stroke:#66c2d7;stroke-opacity:0.2;" x="0" xlink:href="#m5600d7094e" y="862.755937"/>
    </g>
   </g>
   <g id="line2d_25">
    <path clip-path="url(#pe3e6c58e95)" d="M 48.716883 394.399092 
L 139.301299 379.561749 
L 229.885714 384.299415 
L 320.47013 383.757837 
L 411.054545 337.907537 
" style="fill:none;stroke:#1a4e5d;stroke-linecap:round;stroke-width:1.5;"/>
    <defs>
     <path d="M 0 1.75 
C 0.464105 1.75 0.909265 1.565609 1.237437 1.237437 
C 1.565609 0.909265 1.75 0.464105 1.75 0 
C 1.75 -0.464105 1.565609 -0.909265 1.237437 -1.237437 
C 0.909265 -1.565609 0.464105 -1.75 0 -1.75 
C -0.464105 -1.75 -0.909265 -1.565609 -1.237437 -1.237437 
C -1.565609 -0.909265 -1.75 -0.464105 -1.75 0 
C -1.75 0.464105 -1.565609 0.909265 -1.237437 1.237437 
C -0.909265 1.565609 -0.464105 1.75 0 1.75 
z
" id="md57664d2d3" style="stroke:#1a4e5d;"/>
    </defs>
    <g clip-path="url(#pe3e6c58e95)">
     <use style="fill:#1a4e5d;stroke:#1a4e5d;" x="48.716883" xlink:href="#md57664d2d3" y="394.399092"/>
     <use style="fill:#1a4e5d;stroke:#1a4e5d;" x="139.301299" xlink:href="#md57664d2d3" y="379.561749"/>
     <use style="fill:#1a4e5d;stroke:#1a4e5d;" x="229.885714" xlink:href="#md57664d2d3" y="384.299415"/>
     <use style="fill:#1a4e5d;stroke:#1a4e5d;" x="320.47013" xlink:href="#md57664d2d3" y="383.757837"/>
     <use style="fill:#1a4e5d;stroke:#1a4e5d;" x="411.054545" xlink:href="#md57664d2d3" y="337.907537"/>
    </g>
   </g>
   <g id="line2d_26">
    <path clip-path="url(#pe3e6c58e95)" d="M 48.716883 416.713075 
L 139.301299 416.713075 
L 229.885714 416.713075 
L 320.47013 416.713075 
L 411.054545 416.713075 
" style="fill:none;stroke:#e75438;stroke-dasharray:3.7,1.6;stroke-dashoffset:0;"/>
   </g>
   <g id="text_16">
    <!-- Grade A -->
    <g style="fill:#262626;" transform="translate(207.546964 143.571429)scale(0.12 -0.12)">
     <use xlink:href="#ArialMT-71"/>
     <use x="77.783203" xlink:href="#ArialMT-114"/>
     <use x="111.083984" xlink:href="#ArialMT-97"/>
     <use x="166.699219" xlink:href="#ArialMT-100"/>
     <use x="222.314453" xlink:href="#ArialMT-101"/>
     <use x="277.929688" xlink:href="#ArialMT-32"/>
     <use x="305.634766" xlink:href="#ArialMT-65"/>
    </g>
   </g>
  </g>
  <g id="axes_3">
   <g id="matplotlib.axis_3">
    <g id="xtick_6">
     <g id="line2d_27">
      <path clip-path="url(#pcb4fbce211)" d="M 487.145455 455.493506 
L 487.145455 149.571429 
" style="fill:none;stroke:#1a1a1a;stroke-dasharray:1.85,0.8;stroke-dashoffset:0;stroke-opacity:0.3;stroke-width:0.5;"/>
     </g>
     <g id="line2d_28">
      <g>
       <use style="fill:#9e9e9e;stroke:#9e9e9e;stroke-width:1.25;" x="487.145455" xlink:href="#m56b5a4b687" y="455.493506"/>
      </g>
     </g>
     <g id="text_17">
      <!-- Group A -->
      <g style="fill:#424242;" transform="translate(468.52983 472.273194)scale(0.1 -0.1)">
       <use xlink:href="#ArialMT-71"/>
       <use x="77.783203" xlink:href="#ArialMT-114"/>
       <use x="111.083984" xlink:href="#ArialMT-111"/>
       <use x="166.699219" xlink:href="#ArialMT-117"/>
       <use x="222.314453" xlink:href="#ArialMT-112"/>
       <use x="277.929688" xlink:href="#ArialMT-32"/>
       <use x="305.634766" xlink:href="#ArialMT-65"/>
      </g>
     </g>
    </g>
    <g id="xtick_7">
     <g id="line2d_29">
      <path clip-path="url(#pcb4fbce211)" d="M 577.72987 455.493506 
L 577.72987 149.571429 
" style="fill:none;stroke:#1a1a1a;stroke-dasharray:1.85,0.8;stroke-dashoffset:0;stroke-opacity:0.3;stroke-width:0.5;"/>
     </g>
     <g id="line2d_30">
      <g>
       <use style="fill:#9e9e9e;stroke:#9e9e9e;stroke-width:1.25;" x="577.72987" xlink:href="#m56b5a4b687" y="455.493506"/>
      </g>
     </g>
     <g id="text_18">
      <!-- Group B -->
      <g style="fill:#424242;" transform="translate(559.110339 472.273194)scale(0.1 -0.1)">
       <use xlink:href="#ArialMT-71"/>
       <use x="77.783203" xlink:href="#ArialMT-114"/>
       <use x="111.083984" xlink:href="#ArialMT-111"/>
       <use x="166.699219" xlink:href="#ArialMT-117"/>
       <use x="222.314453" xlink:href="#ArialMT-112"/>
       <use x="277.929688" xlink:href="#ArialMT-32"/>
       <use x="305.712891" xlink:href="#ArialMT-66"/>
      </g>
     </g>
    </g>
    <g id="xtick_8">
     <g id="line2d_31">
      <path clip-path="url(#pcb4fbce211)" d="M 668.314286 455.493506 
L 668.314286 149.571429 
" style="fill:none;stroke:#1a1a1a;stroke-dasharray:1.85,0.8;stroke-dashoffset:0;stroke-opacity:0.3;stroke-width:0.5;"/>
     </g>
     <g id="line2d_32">
      <g>
       <use style="fill:#9e9e9e;stroke:#9e9e9e;stroke-width:1.25;" x="668.314286" xlink:href="#m56b5a4b687" y="455.493506"/>
      </g>
     </g>
     <g id="text_19">
      <!-- Group C -->
      <g style="fill:#424242;" transform="translate(649.418973 472.273194)scale(0.1 -0.1)">
       <use xlink:href="#ArialMT-71"/>
       <use x="77.783203" xlink:href="#ArialMT-114"/>
       <use x="111.083984" xlink:href="#ArialMT-111"/>
       <use x="166.699219" xlink:href="#ArialMT-117"/>
       <use x="222.314453" xlink:href="#ArialMT-112"/>
       <use x="277.929688" xlink:href="#ArialMT-32"/>
       <use x="305.712891" xlink:href="#ArialMT-67"/>
      </g>
     </g>
    </g>
    <g id="xtick_9">
     <g id="line2d_33">
      <path clip-path="url(#pcb4fbce211)" d="M 758.898701 455.493506 
L 758.898701 149.571429 
" style="fill:none;stroke:#1a1a1a;stroke-dasharray:1.85,0.8;stroke-dashoffset:0;stroke-opacity:0.3;stroke-width:0.5;"/>
     </g>
     <g id="line2d_34">
      <g>
       <use style="fill:#9e9e9e;stroke:#9e9e9e;stroke-width:1.25;" x="758.898701" xlink:href="#m56b5a4b687" y="455.493506"/>
      </g>
     </g>
     <g id="text_20">
      <!-- Group D -->
      <g style="fill:#424242;" transform="translate(740.003389 472.273194)scale(0.1 -0.1)">
       <use xlink:href="#ArialMT-71"/>
       <use x="77.783203" xlink:href="#ArialMT-114"/>
       <use x="111.083984" xlink:href="#ArialMT-111"/>
       <use x="166.699219" xlink:href="#ArialMT-117"/>
       <use x="222.314453" xlink:href="#ArialMT-112"/>
       <use x="277.929688" xlink:href="#ArialMT-32"/>
       <use x="305.712891" xlink:href="#ArialMT-68"/>
      </g>
     </g>
    </g>
    <g id="xtick_10">
     <g id="line2d_35">
      <path clip-path="url(#pcb4fbce211)" d="M 849.483117 455.493506 
L 849.483117 149.571429 
" style="fill:none;stroke:#1a1a1a;stroke-dasharray:1.85,0.8;stroke-dashoffset:0;stroke-opacity:0.3;stroke-width:0.5;"/>
     </g>
     <g id="line2d_36">
      <g>
       <use style="fill:#9e9e9e;stroke:#9e9e9e;stroke-width:1.25;" x="849.483117" xlink:href="#m56b5a4b687" y="455.493506"/>
      </g>
     </g>
     <g id="text_21">
      <!-- Group E -->
      <g style="fill:#424242;" transform="translate(830.863586 472.273194)scale(0.1 -0.1)">
       <use xlink:href="#ArialMT-71"/>
       <use x="77.783203" xlink:href="#ArialMT-114"/>
       <use x="111.083984" xlink:href="#ArialMT-111"/>
       <use x="166.699219" xlink:href="#ArialMT-117"/>
       <use x="222.314453" xlink:href="#ArialMT-112"/>
       <use x="277.929688" xlink:href="#ArialMT-32"/>
       <use x="305.712891" xlink:href="#ArialMT-69"/>
      </g>
     </g>
    </g>
    <g id="text_22">
     <!-- Ethnicity -->
     <g style="fill:#262626;" transform="translate(647.528583 486.134288)scale(0.11 -0.11)">
      <use xlink:href="#ArialMT-69"/>
      <use x="66.699219" xlink:href="#ArialMT-116"/>
      <use x="94.482422" xlink:href="#ArialMT-104"/>
      <use x="150.097656" xlink:href="#ArialMT-110"/>
      <use x="205.712891" xlink:href="#ArialMT-105"/>
      <use x="227.929688" xlink:href="#ArialMT-99"/>
      <use x="277.929688" xlink:href="#ArialMT-105"/>
      <use x="300.146484" xlink:href="#ArialMT-116"/>
      <use x="327.929688" xlink:href="#ArialMT-121"/>
     </g>
    </g>
   </g>
   <g id="matplotlib.axis_4">
    <g id="ytick_8">
     <g id="line2d_37">
      <path clip-path="url(#pcb4fbce211)" d="M 469.028571 455.493506 
L 867.6 455.493506 
" style="fill:none;stroke:#1a1a1a;stroke-dasharray:1.85,0.8;stroke-dashoffset:0;stroke-opacity:0.3;stroke-width:0.5;"/>
     </g>
     <g id="line2d_38">
      <g>
       <use style="fill:#9e9e9e;stroke:#9e9e9e;stroke-width:1.25;" x="469.028571" xlink:href="#m1dac3c7d04" y="455.493506"/>
      </g>
     </g>
     <g id="text_23">
      <!-- 0.0 -->
      <g style="fill:#424242;" transform="translate(445.628571 459.072413)scale(0.1 -0.1)">
       <use xlink:href="#ArialMT-48"/>
       <use x="55.615234" xlink:href="#ArialMT-46"/>
       <use x="83.398438" xlink:href="#ArialMT-48"/>
      </g>
     </g>
    </g>
    <g id="ytick_9">
     <g id="line2d_39">
      <path clip-path="url(#pcb4fbce211)" d="M 469.028571 416.988947 
L 867.6 416.988947 
" style="fill:none;stroke:#1a1a1a;stroke-dasharray:1.85,0.8;stroke-dashoffset:0;stroke-opacity:0.3;stroke-width:0.5;"/>
     </g>
     <g id="line2d_40">
      <g>
       <use style="fill:#9e9e9e;stroke:#9e9e9e;stroke-width:1.25;" x="469.028571" xlink:href="#m1dac3c7d04" y="416.988947"/>
      </g>
     </g>
     <g id="text_24">
      <!-- 0.2 -->
      <g style="fill:#424242;" transform="translate(445.628571 420.567854)scale(0.1 -0.1)">
       <use xlink:href="#ArialMT-48"/>
       <use x="55.615234" xlink:href="#ArialMT-46"/>
       <use x="83.398438" xlink:href="#ArialMT-50"/>
      </g>
     </g>
    </g>
    <g id="ytick_10">
     <g id="line2d_41">
      <path clip-path="url(#pcb4fbce211)" d="M 469.028571 378.484388 
L 867.6 378.484388 
" style="fill:none;stroke:#1a1a1a;stroke-dasharray:1.85,0.8;stroke-dashoffset:0;stroke-opacity:0.3;stroke-width:0.5;"/>
     </g>
     <g id="line2d_42">
      <g>
       <use style="fill:#9e9e9e;stroke:#9e9e9e;stroke-width:1.25;" x="469.028571" xlink:href="#m1dac3c7d04" y="378.484388"/>
      </g>
     </g>
     <g id="text_25">
      <!-- 0.4 -->
      <g style="fill:#424242;" transform="translate(445.628571 382.063295)scale(0.1 -0.1)">
       <use xlink:href="#ArialMT-48"/>
       <use x="55.615234" xlink:href="#ArialMT-46"/>
       <use x="83.398438" xlink:href="#ArialMT-52"/>
      </g>
     </g>
    </g>
    <g id="ytick_11">
     <g id="line2d_43">
      <path clip-path="url(#pcb4fbce211)" d="M 469.028571 339.979829 
L 867.6 339.979829 
" style="fill:none;stroke:#1a1a1a;stroke-dasharray:1.85,0.8;stroke-dashoffset:0;stroke-opacity:0.3;stroke-width:0.5;"/>
     </g>
     <g id="line2d_44">
      <g>
       <use style="fill:#9e9e9e;stroke:#9e9e9e;stroke-width:1.25;" x="469.028571" xlink:href="#m1dac3c7d04" y="339.979829"/>
      </g>
     </g>
     <g id="text_26">
      <!-- 0.6 -->
      <g style="fill:#424242;" transform="translate(445.628571 343.558736)scale(0.1 -0.1)">
       <use xlink:href="#ArialMT-48"/>
       <use x="55.615234" xlink:href="#ArialMT-46"/>
       <use x="83.398438" xlink:href="#ArialMT-54"/>
      </g>
     </g>
    </g>
    <g id="ytick_12">
     <g id="line2d_45">
      <path clip-path="url(#pcb4fbce211)" d="M 469.028571 301.47527 
L 867.6 301.47527 
" style="fill:none;stroke:#1a1a1a;stroke-dasharray:1.85,0.8;stroke-dashoffset:0;stroke-opacity:0.3;stroke-width:0.5;"/>
     </g>
     <g id="line2d_46">
      <g>
       <use style="fill:#9e9e9e;stroke:#9e9e9e;stroke-width:1.25;" x="469.028571" xlink:href="#m1dac3c7d04" y="301.47527"/>
      </g>
     </g>
     <g id="text_27">
      <!-- 0.8 -->
      <g style="fill:#424242;" transform="translate(445.628571 305.054177)scale(0.1 -0.1)">
       <use xlink:href="#ArialMT-48"/>
       <use x="55.615234" xlink:href="#ArialMT-46"/>
       <use x="83.398438" xlink:href="#ArialMT-56"/>
      </g>
     </g>
    </g>
    <g id="ytick_13">
     <g id="line2d_47">
      <path clip-path="url(#pcb4fbce211)" d="M 469.028571 262.970711 
L 867.6 262.970711 
" style="fill:none;stroke:#1a1a1a;stroke-dasharray:1.85,0.8;stroke-dashoffset:0;stroke-opacity:0.3;stroke-width:0.5;"/>
     </g>
     <g id="line2d_48">
      <g>
       <use style="fill:#9e9e9e;stroke:#9e9e9e;stroke-width:1.25;" x="469.028571" xlink:href="#m1dac3c7d04" y="262.970711"/>
      </g>
     </g>
     <g id="text_28">
      <!-- 1.0 -->
      <g style="fill:#424242;" transform="translate(445.628571 266.549618)scale(0.1 -0.1)">
       <use xlink:href="#ArialMT-49"/>
       <use x="55.615234" xlink:href="#ArialMT-46"/>
       <use x="83.398438" xlink:href="#ArialMT-48"/>
      </g>
     </g>
    </g>
    <g id="ytick_14">
     <g id="line2d_49">
      <path clip-path="url(#pcb4fbce211)" d="M 469.028571 224.466152 
L 867.6 224.466152 
" style="fill:none;stroke:#1a1a1a;stroke-dasharray:1.85,0.8;stroke-dashoffset:0;stroke-opacity:0.3;stroke-width:0.5;"/>
     </g>
     <g id="line2d_50">
      <g>
       <use style="fill:#9e9e9e;stroke:#9e9e9e;stroke-width:1.25;" x="469.028571" xlink:href="#m1dac3c7d04" y="224.466152"/>
      </g>
     </g>
     <g id="text_29">
      <!-- 1.2 -->
      <g style="fill:#424242;" transform="translate(445.628571 228.045058)scale(0.1 -0.1)">
       <use xlink:href="#ArialMT-49"/>
       <use x="55.615234" xlink:href="#ArialMT-46"/>
       <use x="83.398438" xlink:href="#ArialMT-50"/>
      </g>
     </g>
    </g>
    <g id="ytick_15">
     <g id="line2d_51">
      <path clip-path="url(#pcb4fbce211)" d="M 469.028571 185.961593 
L 867.6 185.961593 
" style="fill:none;stroke:#1a1a1a;stroke-dasharray:1.85,0.8;stroke-dashoffset:0;stroke-opacity:0.3;stroke-width:0.5;"/>
     </g>
     <g id="line2d_52">
      <g>
       <use style="fill:#9e9e9e;stroke:#9e9e9e;stroke-width:1.25;" x="469.028571" xlink:href="#m1dac3c7d04" y="185.961593"/>
      </g>
     </g>
     <g id="text_30">
      <!-- 1.4 -->
      <g style="fill:#424242;" transform="translate(445.628571 189.540499)scale(0.1 -0.1)">
       <use xlink:href="#ArialMT-49"/>
       <use x="55.615234" xlink:href="#ArialMT-46"/>
       <use x="83.398438" xlink:href="#ArialMT-52"/>
      </g>
     </g>
    </g>
   </g>
   <g id="PolyCollection_2">
    <defs>
     <path d="M 487.145455 -455.268541 
L 487.145455 -547.139382 
L 577.72987 -547.56929 
L 668.314286 -543.913089 
L 758.898701 -560.22347 
L 849.483117 -530.03938 
L 849.483117 -446.109134 
L 849.483117 -446.109134 
L 758.898701 -473.015453 
L 668.314286 -454.811427 
L 577.72987 -447.963942 
L 487.145455 -455.268541 
z
" id="m918c091f98" style="stroke:#66c2d7;stroke-opacity:0.2;"/>
    </defs>
    <g clip-path="url(#pcb4fbce211)">
     <use style="fill:#66c2d7;fill-opacity:0.2;stroke:#66c2d7;stroke-opacity:0.2;" x="0" xlink:href="#m918c091f98" y="862.755937"/>
    </g>
   </g>
   <g id="line2d_53">
    <path clip-path="url(#pcb4fbce211)" d="M 487.145455 361.551976 
L 577.72987 364.989322 
L 668.314286 363.39368 
L 758.898701 346.136476 
L 849.483117 374.681681 
" style="fill:none;stroke:#1a4e5d;stroke-linecap:round;stroke-width:1.5;"/>
    <g clip-path="url(#pcb4fbce211)">
     <use style="fill:#1a4e5d;stroke:#1a4e5d;" x="487.145455" xlink:href="#md57664d2d3" y="361.551976"/>
     <use style="fill:#1a4e5d;stroke:#1a4e5d;" x="577.72987" xlink:href="#md57664d2d3" y="364.989322"/>
     <use style="fill:#1a4e5d;stroke:#1a4e5d;" x="668.314286" xlink:href="#md57664d2d3" y="363.39368"/>
     <use style="fill:#1a4e5d;stroke:#1a4e5d;" x="758.898701" xlink:href="#md57664d2d3" y="346.136476"/>
     <use style="fill:#1a4e5d;stroke:#1a4e5d;" x="849.483117" xlink:href="#md57664d2d3" y="374.681681"/>
    </g>
   </g>
   <g id="line2d_54">
    <path clip-path="url(#pcb4fbce211)" d="M 487.145455 455.493506 
L 577.72987 455.493506 
L 668.314286 455.493506 
L 758.898701 455.493506 
L 849.483117 455.493506 
" style="fill:none;stroke:#e75438;stroke-dasharray:3.7,1.6;stroke-dashoffset:0;"/>
   </g>
   <g id="text_31">
    <!-- Grade B -->
    <g style="fill:#262626;" transform="translate(645.970848 143.571429)scale(0.12 -0.12)">
     <use xlink:href="#ArialMT-71"/>
     <use x="77.783203" xlink:href="#ArialMT-114"/>
     <use x="111.083984" xlink:href="#ArialMT-97"/>
     <use x="166.699219" xlink:href="#ArialMT-100"/>
     <use x="222.314453" xlink:href="#ArialMT-101"/>
     <use x="277.929688" xlink:href="#ArialMT-32"/>
     <use x="305.712891" xlink:href="#ArialMT-66"/>
    </g>
   </g>
  </g>
  <g id="axes_4">
   <g id="matplotlib.axis_5">
    <g id="xtick_11">
     <g id="line2d_55">
      <path clip-path="url(#p502ac39df5)" d="M 48.716883 822.6 
L 48.716883 516.677922 
" style="fill:none;stroke:#1a1a1a;stroke-dasharray:1.85,0.8;stroke-dashoffset:0;stroke-opacity:0.3;stroke-width:0.5;"/>
     </g>
     <g id="line2d_56">
      <g>
       <use style="fill:#9e9e9e;stroke:#9e9e9e;stroke-width:1.25;" x="48.716883" xlink:href="#m56b5a4b687" y="822.6"/>
      </g>
     </g>
     <g id="text_32">
      <!-- Group A -->
      <g style="fill:#424242;" transform="translate(30.101258 839.379687)scale(0.1 -0.1)">
       <use xlink:href="#ArialMT-71"/>
       <use x="77.783203" xlink:href="#ArialMT-114"/>
       <use x="111.083984" xlink:href="#ArialMT-111"/>
       <use x="166.699219" xlink:href="#ArialMT-117"/>
       <use x="222.314453" xlink:href="#ArialMT-112"/>
       <use x="277.929688" xlink:href="#ArialMT-32"/>
       <use x="305.634766" xlink:href="#ArialMT-65"/>
      </g>
     </g>
    </g>
    <g id="xtick_12">
     <g id="line2d_57">
      <path clip-path="url(#p502ac39df5)" d="M 139.301299 822.6 
L 139.301299 516.677922 
" style="fill:none;stroke:#1a1a1a;stroke-dasharray:1.85,0.8;stroke-dashoffset:0;stroke-opacity:0.3;stroke-width:0.5;"/>
     </g>
     <g id="line2d_58">
      <g>
       <use style="fill:#9e9e9e;stroke:#9e9e9e;stroke-width:1.25;" x="139.301299" xlink:href="#m56b5a4b687" y="822.6"/>
      </g>
     </g>
     <g id="text_33">
      <!-- Group B -->
      <g style="fill:#424242;" transform="translate(120.681767 839.379687)scale(0.1 -0.1)">
       <use xlink:href="#ArialMT-71"/>
       <use x="77.783203" xlink:href="#ArialMT-114"/>
       <use x="111.083984" xlink:href="#ArialMT-111"/>
       <use x="166.699219" xlink:href="#ArialMT-117"/>
       <use x="222.314453" xlink:href="#ArialMT-112"/>
       <use x="277.929688" xlink:href="#ArialMT-32"/>
       <use x="305.712891" xlink:href="#ArialMT-66"/>
      </g>
     </g>
    </g>
    <g id="xtick_13">
     <g id="line2d_59">
      <path clip-path="url(#p502ac39df5)" d="M 229.885714 822.6 
L 229.885714 516.677922 
" style="fill:none;stroke:#1a1a1a;stroke-dasharray:1.85,0.8;stroke-dashoffset:0;stroke-opacity:0.3;stroke-width:0.5;"/>
     </g>
     <g id="line2d_60">
      <g>
       <use style="fill:#9e9e9e;stroke:#9e9e9e;stroke-width:1.25;" x="229.885714" xlink:href="#m56b5a4b687" y="822.6"/>
      </g>
     </g>
     <g id="text_34">
      <!-- Group C -->
      <g style="fill:#424242;" transform="translate(210.990402 839.379687)scale(0.1 -0.1)">
       <use xlink:href="#ArialMT-71"/>
       <use x="77.783203" xlink:href="#ArialMT-114"/>
       <use x="111.083984" xlink:href="#ArialMT-111"/>
       <use x="166.699219" xlink:href="#ArialMT-117"/>
       <use x="222.314453" xlink:href="#ArialMT-112"/>
       <use x="277.929688" xlink:href="#ArialMT-32"/>
       <use x="305.712891" xlink:href="#ArialMT-67"/>
      </g>
     </g>
    </g>
    <g id="xtick_14">
     <g id="line2d_61">
      <path clip-path="url(#p502ac39df5)" d="M 320.47013 822.6 
L 320.47013 516.677922 
" style="fill:none;stroke:#1a1a1a;stroke-dasharray:1.85,0.8;stroke-dashoffset:0;stroke-opacity:0.3;stroke-width:0.5;"/>
     </g>
     <g id="line2d_62">
      <g>
       <use style="fill:#9e9e9e;stroke:#9e9e9e;stroke-width:1.25;" x="320.47013" xlink:href="#m56b5a4b687" y="822.6"/>
      </g>
     </g>
     <g id="text_35">
      <!-- Group D -->
      <g style="fill:#424242;" transform="translate(301.574817 839.379687)scale(0.1 -0.1)">
       <use xlink:href="#ArialMT-71"/>
       <use x="77.783203" xlink:href="#ArialMT-114"/>
       <use x="111.083984" xlink:href="#ArialMT-111"/>
       <use x="166.699219" xlink:href="#ArialMT-117"/>
       <use x="222.314453" xlink:href="#ArialMT-112"/>
       <use x="277.929688" xlink:href="#ArialMT-32"/>
       <use x="305.712891" xlink:href="#ArialMT-68"/>
      </g>
     </g>
    </g>
    <g id="xtick_15">
     <g id="line2d_63">
      <path clip-path="url(#p502ac39df5)" d="M 411.054545 822.6 
L 411.054545 516.677922 
" style="fill:none;stroke:#1a1a1a;stroke-dasharray:1.85,0.8;stroke-dashoffset:0;stroke-opacity:0.3;stroke-width:0.5;"/>
     </g>
     <g id="line2d_64">
      <g>
       <use style="fill:#9e9e9e;stroke:#9e9e9e;stroke-width:1.25;" x="411.054545" xlink:href="#m56b5a4b687" y="822.6"/>
      </g>
     </g>
     <g id="text_36">
      <!-- Group E -->
      <g style="fill:#424242;" transform="translate(392.435014 839.379687)scale(0.1 -0.1)">
       <use xlink:href="#ArialMT-71"/>
       <use x="77.783203" xlink:href="#ArialMT-114"/>
       <use x="111.083984" xlink:href="#ArialMT-111"/>
       <use x="166.699219" xlink:href="#ArialMT-117"/>
       <use x="222.314453" xlink:href="#ArialMT-112"/>
       <use x="277.929688" xlink:href="#ArialMT-32"/>
       <use x="305.712891" xlink:href="#ArialMT-69"/>
      </g>
     </g>
    </g>
    <g id="text_37">
     <!-- Ethnicity -->
     <g style="fill:#262626;" transform="translate(209.100011 853.240781)scale(0.11 -0.11)">
      <use xlink:href="#ArialMT-69"/>
      <use x="66.699219" xlink:href="#ArialMT-116"/>
      <use x="94.482422" xlink:href="#ArialMT-104"/>
      <use x="150.097656" xlink:href="#ArialMT-110"/>
      <use x="205.712891" xlink:href="#ArialMT-105"/>
      <use x="227.929688" xlink:href="#ArialMT-99"/>
      <use x="277.929688" xlink:href="#ArialMT-105"/>
      <use x="300.146484" xlink:href="#ArialMT-116"/>
      <use x="327.929688" xlink:href="#ArialMT-121"/>
     </g>
    </g>
   </g>
   <g id="matplotlib.axis_6">
    <g id="ytick_16">
     <g id="line2d_65">
      <path clip-path="url(#p502ac39df5)" d="M 30.6 804.278368 
L 429.171429 804.278368 
" style="fill:none;stroke:#1a1a1a;stroke-dasharray:1.85,0.8;stroke-dashoffset:0;stroke-opacity:0.3;stroke-width:0.5;"/>
     </g>
     <g id="line2d_66">
      <g>
       <use style="fill:#9e9e9e;stroke:#9e9e9e;stroke-width:1.25;" x="30.6" xlink:href="#m1dac3c7d04" y="804.278368"/>
      </g>
     </g>
     <g id="text_38">
      <!-- 0.0 -->
      <g style="fill:#424242;" transform="translate(7.2 807.857274)scale(0.1 -0.1)">
       <use xlink:href="#ArialMT-48"/>
       <use x="55.615234" xlink:href="#ArialMT-46"/>
       <use x="83.398438" xlink:href="#ArialMT-48"/>
      </g>
     </g>
    </g>
    <g id="ytick_17">
     <g id="line2d_67">
      <path clip-path="url(#p502ac39df5)" d="M 30.6 756.450787 
L 429.171429 756.450787 
" style="fill:none;stroke:#1a1a1a;stroke-dasharray:1.85,0.8;stroke-dashoffset:0;stroke-opacity:0.3;stroke-width:0.5;"/>
     </g>
     <g id="line2d_68">
      <g>
       <use style="fill:#9e9e9e;stroke:#9e9e9e;stroke-width:1.25;" x="30.6" xlink:href="#m1dac3c7d04" y="756.450787"/>
      </g>
     </g>
     <g id="text_39">
      <!-- 0.2 -->
      <g style="fill:#424242;" transform="translate(7.2 760.029693)scale(0.1 -0.1)">
       <use xlink:href="#ArialMT-48"/>
       <use x="55.615234" xlink:href="#ArialMT-46"/>
       <use x="83.398438" xlink:href="#ArialMT-50"/>
      </g>
     </g>
    </g>
    <g id="ytick_18">
     <g id="line2d_69">
      <path clip-path="url(#p502ac39df5)" d="M 30.6 708.623206 
L 429.171429 708.623206 
" style="fill:none;stroke:#1a1a1a;stroke-dasharray:1.85,0.8;stroke-dashoffset:0;stroke-opacity:0.3;stroke-width:0.5;"/>
     </g>
     <g id="line2d_70">
      <g>
       <use style="fill:#9e9e9e;stroke:#9e9e9e;stroke-width:1.25;" x="30.6" xlink:href="#m1dac3c7d04" y="708.623206"/>
      </g>
     </g>
     <g id="text_40">
      <!-- 0.4 -->
      <g style="fill:#424242;" transform="translate(7.2 712.202113)scale(0.1 -0.1)">
       <use xlink:href="#ArialMT-48"/>
       <use x="55.615234" xlink:href="#ArialMT-46"/>
       <use x="83.398438" xlink:href="#ArialMT-52"/>
      </g>
     </g>
    </g>
    <g id="ytick_19">
     <g id="line2d_71">
      <path clip-path="url(#p502ac39df5)" d="M 30.6 660.795626 
L 429.171429 660.795626 
" style="fill:none;stroke:#1a1a1a;stroke-dasharray:1.85,0.8;stroke-dashoffset:0;stroke-opacity:0.3;stroke-width:0.5;"/>
     </g>
     <g id="line2d_72">
      <g>
       <use style="fill:#9e9e9e;stroke:#9e9e9e;stroke-width:1.25;" x="30.6" xlink:href="#m1dac3c7d04" y="660.795626"/>
      </g>
     </g>
     <g id="text_41">
      <!-- 0.6 -->
      <g style="fill:#424242;" transform="translate(7.2 664.374532)scale(0.1 -0.1)">
       <use xlink:href="#ArialMT-48"/>
       <use x="55.615234" xlink:href="#ArialMT-46"/>
       <use x="83.398438" xlink:href="#ArialMT-54"/>
      </g>
     </g>
    </g>
    <g id="ytick_20">
     <g id="line2d_73">
      <path clip-path="url(#p502ac39df5)" d="M 30.6 612.968045 
L 429.171429 612.968045 
" style="fill:none;stroke:#1a1a1a;stroke-dasharray:1.85,0.8;stroke-dashoffset:0;stroke-opacity:0.3;stroke-width:0.5;"/>
     </g>
     <g id="line2d_74">
      <g>
       <use style="fill:#9e9e9e;stroke:#9e9e9e;stroke-width:1.25;" x="30.6" xlink:href="#m1dac3c7d04" y="612.968045"/>
      </g>
     </g>
     <g id="text_42">
      <!-- 0.8 -->
      <g style="fill:#424242;" transform="translate(7.2 616.546951)scale(0.1 -0.1)">
       <use xlink:href="#ArialMT-48"/>
       <use x="55.615234" xlink:href="#ArialMT-46"/>
       <use x="83.398438" xlink:href="#ArialMT-56"/>
      </g>
     </g>
    </g>
    <g id="ytick_21">
     <g id="line2d_75">
      <path clip-path="url(#p502ac39df5)" d="M 30.6 565.140464 
L 429.171429 565.140464 
" style="fill:none;stroke:#1a1a1a;stroke-dasharray:1.85,0.8;stroke-dashoffset:0;stroke-opacity:0.3;stroke-width:0.5;"/>
     </g>
     <g id="line2d_76">
      <g>
       <use style="fill:#9e9e9e;stroke:#9e9e9e;stroke-width:1.25;" x="30.6" xlink:href="#m1dac3c7d04" y="565.140464"/>
      </g>
     </g>
     <g id="text_43">
      <!-- 1.0 -->
      <g style="fill:#424242;" transform="translate(7.2 568.71937)scale(0.1 -0.1)">
       <use xlink:href="#ArialMT-49"/>
       <use x="55.615234" xlink:href="#ArialMT-46"/>
       <use x="83.398438" xlink:href="#ArialMT-48"/>
      </g>
     </g>
    </g>
    <g id="ytick_22">
     <g id="line2d_77">
      <path clip-path="url(#p502ac39df5)" d="M 30.6 517.312883 
L 429.171429 517.312883 
" style="fill:none;stroke:#1a1a1a;stroke-dasharray:1.85,0.8;stroke-dashoffset:0;stroke-opacity:0.3;stroke-width:0.5;"/>
     </g>
     <g id="line2d_78">
      <g>
       <use style="fill:#9e9e9e;stroke:#9e9e9e;stroke-width:1.25;" x="30.6" xlink:href="#m1dac3c7d04" y="517.312883"/>
      </g>
     </g>
     <g id="text_44">
      <!-- 1.2 -->
      <g style="fill:#424242;" transform="translate(7.2 520.891789)scale(0.1 -0.1)">
       <use xlink:href="#ArialMT-49"/>
       <use x="55.615234" xlink:href="#ArialMT-46"/>
       <use x="83.398438" xlink:href="#ArialMT-50"/>
      </g>
     </g>
    </g>
   </g>
   <g id="PolyCollection_3">
    <defs>
     <path d="M 48.716883 -98.823636 
L 48.716883 -202.277792 
L 139.301299 -185.70751 
L 229.885714 -185.981073 
L 320.47013 -163.118688 
L 411.054545 -146.3785 
L 411.054545 -49.316754 
L 411.054545 -49.316754 
L 320.47013 -70.016827 
L 229.885714 -82.040783 
L 139.301299 -71.618879 
L 48.716883 -98.823636 
z
" id="m66dbf9e93c" style="stroke:#66c2d7;stroke-opacity:0.2;"/>
    </defs>
    <g clip-path="url(#p502ac39df5)">
     <use style="fill:#66c2d7;fill-opacity:0.2;stroke:#66c2d7;stroke-opacity:0.2;" x="0" xlink:href="#m66dbf9e93c" y="862.755937"/>
    </g>
   </g>
   <g id="line2d_79">
    <path clip-path="url(#p502ac39df5)" d="M 48.716883 712.205223 
L 139.301299 734.092743 
L 229.885714 728.74501 
L 320.47013 746.18818 
L 411.054545 764.908311 
" style="fill:none;stroke:#1a4e5d;stroke-linecap:round;stroke-width:1.5;"/>
    <g clip-path="url(#p502ac39df5)">
     <use style="fill:#1a4e5d;stroke:#1a4e5d;" x="48.716883" xlink:href="#md57664d2d3" y="712.205223"/>
     <use style="fill:#1a4e5d;stroke:#1a4e5d;" x="139.301299" xlink:href="#md57664d2d3" y="734.092743"/>
     <use style="fill:#1a4e5d;stroke:#1a4e5d;" x="229.885714" xlink:href="#md57664d2d3" y="728.74501"/>
     <use style="fill:#1a4e5d;stroke:#1a4e5d;" x="320.47013" xlink:href="#md57664d2d3" y="746.18818"/>
     <use style="fill:#1a4e5d;stroke:#1a4e5d;" x="411.054545" xlink:href="#md57664d2d3" y="764.908311"/>
    </g>
   </g>
   <g id="line2d_80">
    <path clip-path="url(#p502ac39df5)" d="M 48.716883 804.278368 
L 139.301299 804.278368 
L 229.885714 804.278368 
L 320.47013 804.278368 
L 411.054545 804.278368 
" style="fill:none;stroke:#e75438;stroke-dasharray:3.7,1.6;stroke-dashoffset:0;"/>
   </g>
   <g id="text_45">
    <!-- Grade C -->
    <g style="fill:#262626;" transform="translate(207.211339 510.677922)scale(0.12 -0.12)">
     <use xlink:href="#ArialMT-71"/>
     <use x="77.783203" xlink:href="#ArialMT-114"/>
     <use x="111.083984" xlink:href="#ArialMT-97"/>
     <use x="166.699219" xlink:href="#ArialMT-100"/>
     <use x="222.314453" xlink:href="#ArialMT-101"/>
     <use x="277.929688" xlink:href="#ArialMT-32"/>
     <use x="305.712891" xlink:href="#ArialMT-67"/>
    </g>
   </g>
  </g>
  <g id="axes_5">
   <g id="matplotlib.axis_7">
    <g id="xtick_16">
     <g id="line2d_81">
      <path clip-path="url(#p169ccc597c)" d="M 487.145455 822.6 
L 487.145455 516.677922 
" style="fill:none;stroke:#1a1a1a;stroke-dasharray:1.85,0.8;stroke-dashoffset:0;stroke-opacity:0.3;stroke-width:0.5;"/>
     </g>
     <g id="line2d_82">
      <g>
       <use style="fill:#9e9e9e;stroke:#9e9e9e;stroke-width:1.25;" x="487.145455" xlink:href="#m56b5a4b687" y="822.6"/>
      </g>
     </g>
     <g id="text_46">
      <!-- Group A -->
      <g style="fill:#424242;" transform="translate(468.52983 839.379687)scale(0.1 -0.1)">
       <use xlink:href="#ArialMT-71"/>
       <use x="77.783203" xlink:href="#ArialMT-114"/>
       <use x="111.083984" xlink:href="#ArialMT-111"/>
       <use x="166.699219" xlink:href="#ArialMT-117"/>
       <use x="222.314453" xlink:href="#ArialMT-112"/>
       <use x="277.929688" xlink:href="#ArialMT-32"/>
       <use x="305.634766" xlink:href="#ArialMT-65"/>
      </g>
     </g>
    </g>
    <g id="xtick_17">
     <g id="line2d_83">
      <path clip-path="url(#p169ccc597c)" d="M 577.72987 822.6 
L 577.72987 516.677922 
" style="fill:none;stroke:#1a1a1a;stroke-dasharray:1.85,0.8;stroke-dashoffset:0;stroke-opacity:0.3;stroke-width:0.5;"/>
     </g>
     <g id="line2d_84">
      <g>
       <use style="fill:#9e9e9e;stroke:#9e9e9e;stroke-width:1.25;" x="577.72987" xlink:href="#m56b5a4b687" y="822.6"/>
      </g>
     </g>
     <g id="text_47">
      <!-- Group B -->
      <g style="fill:#424242;" transform="translate(559.110339 839.379687)scale(0.1 -0.1)">
       <use xlink:href="#ArialMT-71"/>
       <use x="77.783203" xlink:href="#ArialMT-114"/>
       <use x="111.083984" xlink:href="#ArialMT-111"/>
       <use x="166.699219" xlink:href="#ArialMT-117"/>
       <use x="222.314453" xlink:href="#ArialMT-112"/>
       <use x="277.929688" xlink:href="#ArialMT-32"/>
       <use x="305.712891" xlink:href="#ArialMT-66"/>
      </g>
     </g>
    </g>
    <g id="xtick_18">
     <g id="line2d_85">
      <path clip-path="url(#p169ccc597c)" d="M 668.314286 822.6 
L 668.314286 516.677922 
" style="fill:none;stroke:#1a1a1a;stroke-dasharray:1.85,0.8;stroke-dashoffset:0;stroke-opacity:0.3;stroke-width:0.5;"/>
     </g>
     <g id="line2d_86">
      <g>
       <use style="fill:#9e9e9e;stroke:#9e9e9e;stroke-width:1.25;" x="668.314286" xlink:href="#m56b5a4b687" y="822.6"/>
      </g>
     </g>
     <g id="text_48">
      <!-- Group C -->
      <g style="fill:#424242;" transform="translate(649.418973 839.379687)scale(0.1 -0.1)">
       <use xlink:href="#ArialMT-71"/>
       <use x="77.783203" xlink:href="#ArialMT-114"/>
       <use x="111.083984" xlink:href="#ArialMT-111"/>
       <use x="166.699219" xlink:href="#ArialMT-117"/>
       <use x="222.314453" xlink:href="#ArialMT-112"/>
       <use x="277.929688" xlink:href="#ArialMT-32"/>
       <use x="305.712891" xlink:href="#ArialMT-67"/>
      </g>
     </g>
    </g>
    <g id="xtick_19">
     <g id="line2d_87">
      <path clip-path="url(#p169ccc597c)" d="M 758.898701 822.6 
L 758.898701 516.677922 
" style="fill:none;stroke:#1a1a1a;stroke-dasharray:1.85,0.8;stroke-dashoffset:0;stroke-opacity:0.3;stroke-width:0.5;"/>
     </g>
     <g id="line2d_88">
      <g>
       <use style="fill:#9e9e9e;stroke:#9e9e9e;stroke-width:1.25;" x="758.898701" xlink:href="#m56b5a4b687" y="822.6"/>
      </g>
     </g>
     <g id="text_49">
      <!-- Group D -->
      <g style="fill:#424242;" transform="translate(740.003389 839.379687)scale(0.1 -0.1)">
       <use xlink:href="#ArialMT-71"/>
       <use x="77.783203" xlink:href="#ArialMT-114"/>
       <use x="111.083984" xlink:href="#ArialMT-111"/>
       <use x="166.699219" xlink:href="#ArialMT-117"/>
       <use x="222.314453" xlink:href="#ArialMT-112"/>
       <use x="277.929688" xlink:href="#ArialMT-32"/>
       <use x="305.712891" xlink:href="#ArialMT-68"/>
      </g>
     </g>
    </g>
    <g id="xtick_20">
     <g id="line2d_89">
      <path clip-path="url(#p169ccc597c)" d="M 849.483117 822.6 
L 849.483117 516.677922 
" style="fill:none;stroke:#1a1a1a;stroke-dasharray:1.85,0.8;stroke-dashoffset:0;stroke-opacity:0.3;stroke-width:0.5;"/>
     </g>
     <g id="line2d_90">
      <g>
       <use style="fill:#9e9e9e;stroke:#9e9e9e;stroke-width:1.25;" x="849.483117" xlink:href="#m56b5a4b687" y="822.6"/>
      </g>
     </g>
     <g id="text_50">
      <!-- Group E -->
      <g style="fill:#424242;" transform="translate(830.863586 839.379687)scale(0.1 -0.1)">
       <use xlink:href="#ArialMT-71"/>
       <use x="77.783203" xlink:href="#ArialMT-114"/>
       <use x="111.083984" xlink:href="#ArialMT-111"/>
       <use x="166.699219" xlink:href="#ArialMT-117"/>
       <use x="222.314453" xlink:href="#ArialMT-112"/>
       <use x="277.929688" xlink:href="#ArialMT-32"/>
       <use x="305.712891" xlink:href="#ArialMT-69"/>
      </g>
     </g>
    </g>
    <g id="text_51">
     <!-- Ethnicity -->
     <g style="fill:#262626;" transform="translate(647.528583 853.240781)scale(0.11 -0.11)">
      <use xlink:href="#ArialMT-69"/>
      <use x="66.699219" xlink:href="#ArialMT-116"/>
      <use x="94.482422" xlink:href="#ArialMT-104"/>
      <use x="150.097656" xlink:href="#ArialMT-110"/>
      <use x="205.712891" xlink:href="#ArialMT-105"/>
      <use x="227.929688" xlink:href="#ArialMT-99"/>
      <use x="277.929688" xlink:href="#ArialMT-105"/>
      <use x="300.146484" xlink:href="#ArialMT-116"/>
      <use x="327.929688" xlink:href="#ArialMT-121"/>
     </g>
    </g>
   </g>
   <g id="matplotlib.axis_8">
    <g id="ytick_23">
     <g id="line2d_91">
      <path clip-path="url(#p169ccc597c)" d="M 469.028571 795.20104 
L 867.6 795.20104 
" style="fill:none;stroke:#1a1a1a;stroke-dasharray:1.85,0.8;stroke-dashoffset:0;stroke-opacity:0.3;stroke-width:0.5;"/>
     </g>
     <g id="line2d_92">
      <g>
       <use style="fill:#9e9e9e;stroke:#9e9e9e;stroke-width:1.25;" x="469.028571" xlink:href="#m1dac3c7d04" y="795.20104"/>
      </g>
     </g>
     <g id="text_52">
      <!-- 0.1 -->
      <defs>
       <path d="M 52.828125 31.203125 
L 5.5625 31.203125 
L 5.5625 39.40625 
L 52.828125 39.40625 
z
" id="ArialMT-8722"/>
      </defs>
      <g style="fill:#424242;" transform="translate(439.787946 798.779947)scale(0.1 -0.1)">
       <use xlink:href="#ArialMT-8722"/>
       <use x="58.398438" xlink:href="#ArialMT-48"/>
       <use x="114.013672" xlink:href="#ArialMT-46"/>
       <use x="141.796875" xlink:href="#ArialMT-49"/>
      </g>
     </g>
    </g>
    <g id="ytick_24">
     <g id="line2d_93">
      <path clip-path="url(#p169ccc597c)" d="M 469.028571 733.109048 
L 867.6 733.109048 
" style="fill:none;stroke:#1a1a1a;stroke-dasharray:1.85,0.8;stroke-dashoffset:0;stroke-opacity:0.3;stroke-width:0.5;"/>
     </g>
     <g id="line2d_94">
      <g>
       <use style="fill:#9e9e9e;stroke:#9e9e9e;stroke-width:1.25;" x="469.028571" xlink:href="#m1dac3c7d04" y="733.109048"/>
      </g>
     </g>
     <g id="text_53">
      <!-- 0.0 -->
      <g style="fill:#424242;" transform="translate(445.628571 736.687954)scale(0.1 -0.1)">
       <use xlink:href="#ArialMT-48"/>
       <use x="55.615234" xlink:href="#ArialMT-46"/>
       <use x="83.398438" xlink:href="#ArialMT-48"/>
      </g>
     </g>
    </g>
    <g id="ytick_25">
     <g id="line2d_95">
      <path clip-path="url(#p169ccc597c)" d="M 469.028571 671.017056 
L 867.6 671.017056 
" style="fill:none;stroke:#1a1a1a;stroke-dasharray:1.85,0.8;stroke-dashoffset:0;stroke-opacity:0.3;stroke-width:0.5;"/>
     </g>
     <g id="line2d_96">
      <g>
       <use style="fill:#9e9e9e;stroke:#9e9e9e;stroke-width:1.25;" x="469.028571" xlink:href="#m1dac3c7d04" y="671.017056"/>
      </g>
     </g>
     <g id="text_54">
      <!-- 0.1 -->
      <g style="fill:#424242;" transform="translate(445.628571 674.595962)scale(0.1 -0.1)">
       <use xlink:href="#ArialMT-48"/>
       <use x="55.615234" xlink:href="#ArialMT-46"/>
       <use x="83.398438" xlink:href="#ArialMT-49"/>
      </g>
     </g>
    </g>
    <g id="ytick_26">
     <g id="line2d_97">
      <path clip-path="url(#p169ccc597c)" d="M 469.028571 608.925063 
L 867.6 608.925063 
" style="fill:none;stroke:#1a1a1a;stroke-dasharray:1.85,0.8;stroke-dashoffset:0;stroke-opacity:0.3;stroke-width:0.5;"/>
     </g>
     <g id="line2d_98">
      <g>
       <use style="fill:#9e9e9e;stroke:#9e9e9e;stroke-width:1.25;" x="469.028571" xlink:href="#m1dac3c7d04" y="608.925063"/>
      </g>
     </g>
     <g id="text_55">
      <!-- 0.2 -->
      <g style="fill:#424242;" transform="translate(445.628571 612.503969)scale(0.1 -0.1)">
       <use xlink:href="#ArialMT-48"/>
       <use x="55.615234" xlink:href="#ArialMT-46"/>
       <use x="83.398438" xlink:href="#ArialMT-50"/>
      </g>
     </g>
    </g>
    <g id="ytick_27">
     <g id="line2d_99">
      <path clip-path="url(#p169ccc597c)" d="M 469.028571 546.833071 
L 867.6 546.833071 
" style="fill:none;stroke:#1a1a1a;stroke-dasharray:1.85,0.8;stroke-dashoffset:0;stroke-opacity:0.3;stroke-width:0.5;"/>
     </g>
     <g id="line2d_100">
      <g>
       <use style="fill:#9e9e9e;stroke:#9e9e9e;stroke-width:1.25;" x="469.028571" xlink:href="#m1dac3c7d04" y="546.833071"/>
      </g>
     </g>
     <g id="text_56">
      <!-- 0.3 -->
      <g style="fill:#424242;" transform="translate(445.628571 550.411977)scale(0.1 -0.1)">
       <use xlink:href="#ArialMT-48"/>
       <use x="55.615234" xlink:href="#ArialMT-46"/>
       <use x="83.398438" xlink:href="#ArialMT-51"/>
      </g>
     </g>
    </g>
   </g>
   <g id="PolyCollection_4">
    <defs>
     <path d="M 487.145455 -109.39019 
L 487.145455 -169.441537 
L 577.72987 -237.862452 
L 668.314286 -225.115741 
L 758.898701 -204.310899 
L 849.483117 -193.800375 
L 849.483117 -93.50396 
L 849.483117 -93.50396 
L 758.898701 -85.647208 
L 668.314286 -88.929761 
L 577.72987 -84.901414 
L 487.145455 -109.39019 
z
" id="m2fb917502f" style="stroke:#66c2d7;stroke-opacity:0.2;"/>
    </defs>
    <g clip-path="url(#p169ccc597c)">
     <use style="fill:#66c2d7;fill-opacity:0.2;stroke:#66c2d7;stroke-opacity:0.2;" x="0" xlink:href="#m2fb917502f" y="862.755937"/>
    </g>
   </g>
   <g id="line2d_101">
    <path clip-path="url(#p169ccc597c)" d="M 487.145455 723.340074 
L 577.72987 701.374004 
L 668.314286 705.733186 
L 758.898701 717.776884 
L 849.483117 719.10377 
" style="fill:none;stroke:#1a4e5d;stroke-linecap:round;stroke-width:1.5;"/>
    <g clip-path="url(#p169ccc597c)">
     <use style="fill:#1a4e5d;stroke:#1a4e5d;" x="487.145455" xlink:href="#md57664d2d3" y="723.340074"/>
     <use style="fill:#1a4e5d;stroke:#1a4e5d;" x="577.72987" xlink:href="#md57664d2d3" y="701.374004"/>
     <use style="fill:#1a4e5d;stroke:#1a4e5d;" x="668.314286" xlink:href="#md57664d2d3" y="705.733186"/>
     <use style="fill:#1a4e5d;stroke:#1a4e5d;" x="758.898701" xlink:href="#md57664d2d3" y="717.776884"/>
     <use style="fill:#1a4e5d;stroke:#1a4e5d;" x="849.483117" xlink:href="#md57664d2d3" y="719.10377"/>
    </g>
   </g>
   <g id="line2d_102">
    <path clip-path="url(#p169ccc597c)" d="M 487.145455 733.109048 
L 577.72987 733.109048 
L 668.314286 733.109048 
L 758.898701 733.109048 
L 849.483117 733.109048 
" style="fill:none;stroke:#e75438;stroke-dasharray:3.7,1.6;stroke-dashoffset:0;"/>
   </g>
   <g id="text_57">
    <!-- Grade F -->
    <defs>
     <path d="M 8.203125 0 
L 8.203125 71.578125 
L 56.5 71.578125 
L 56.5 63.140625 
L 17.671875 63.140625 
L 17.671875 40.96875 
L 51.265625 40.96875 
L 51.265625 32.515625 
L 17.671875 32.515625 
L 17.671875 0 
z
" id="ArialMT-70"/>
    </defs>
    <g style="fill:#262626;" transform="translate(646.308348 510.677922)scale(0.12 -0.12)">
     <use xlink:href="#ArialMT-71"/>
     <use x="77.783203" xlink:href="#ArialMT-114"/>
     <use x="111.083984" xlink:href="#ArialMT-97"/>
     <use x="166.699219" xlink:href="#ArialMT-100"/>
     <use x="222.314453" xlink:href="#ArialMT-101"/>
     <use x="277.929688" xlink:href="#ArialMT-32"/>
     <use x="305.712891" xlink:href="#ArialMT-70"/>
    </g>
   </g>
  </g>
 </g>
 <defs>
  <clipPath id="pe3e6c58e95">
   <rect height="305.922078" width="398.571429" x="30.6" y="149.571429"/>
  </clipPath>
  <clipPath id="pcb4fbce211">
   <rect height="305.922078" width="398.571429" x="469.028571" y="149.571429"/>
  </clipPath>
  <clipPath id="p502ac39df5">
   <rect height="305.922078" width="398.571429" x="30.6" y="516.677922"/>
  </clipPath>
  <clipPath id="p169ccc597c">
   <rect height="305.922078" width="398.571429" x="469.028571" y="516.677922"/>
  </clipPath>
 </defs>
</svg>
