<?xml version="1.0" encoding="UTF-8" standalone="no"?>
<!DOCTYPE svg PUBLIC "-//W3C//DTD SVG 1.1//EN"
 "http://www.w3.org/Graphics/SVG/1.1/DTD/svg11.dtd">
<!-- Generated by graphviz version 2.40.1 (20161225.0304)
 -->
<!-- Title: Tree Pages: 1 -->
<svg width="956pt" height="373pt"
 viewBox="0.00 0.00 956.00 373.00" xmlns="http://www.w3.org/2000/svg" xmlns:xlink="http://www.w3.org/1999/xlink">
<g id="graph0" class="graph" transform="scale(1 1) rotate(0) translate(4 369)">
<title>Tree</title>
<polygon fill="#ffffff" stroke="transparent" points="-4,4 -4,-369 952,-369 952,4 -4,4"/>
<!-- 0 -->
<g id="node1" class="node">
<title>0</title>
<path fill="#f6d3ba" stroke="#000000" d="M516,-365C516,-365 432,-365 432,-365 426,-365 420,-359 420,-353 420,-353 420,-309 420,-309 420,-303 426,-297 432,-297 432,-297 516,-297 516,-297 522,-297 528,-303 528,-309 528,-309 528,-353 528,-353 528,-359 522,-365 516,-365"/>
<text text-anchor="start" x="445" y="-349.8" font-family="Helvetica,sans-Serif" font-size="14.00" fill="#000000">bmi ≤ 0.1</text>
<text text-anchor="start" x="431" y="-334.8" font-family="Helvetica,sans-Serif" font-size="14.00" fill="#000000">mse = 6076.4</text>
<text text-anchor="start" x="428" y="-319.8" font-family="Helvetica,sans-Serif" font-size="14.00" fill="#000000">samples = 353</text>
<text text-anchor="start" x="431.5" y="-304.8" font-family="Helvetica,sans-Serif" font-size="14.00" fill="#000000">value = 153.7</text>
</g>
<!-- 1 -->
<g id="node2" class="node">
<title>1</title>
<path fill="#fae9dc" stroke="#000000" d="M396,-261C396,-261 312,-261 312,-261 306,-261 300,-255 300,-249 300,-249 300,-205 300,-205 300,-199 306,-193 312,-193 312,-193 396,-193 396,-193 402,-193 408,-199 408,-205 408,-205 408,-249 408,-249 408,-255 402,-261 396,-261"/>
<text text-anchor="start" x="329" y="-245.8" font-family="Helvetica,sans-Serif" font-size="14.00" fill="#000000">s5 ≤ 0.1</text>
<text text-anchor="start" x="311" y="-230.8" font-family="Helvetica,sans-Serif" font-size="14.00" fill="#000000">mse = 3612.7</text>
<text text-anchor="start" x="308" y="-215.8" font-family="Helvetica,sans-Serif" font-size="14.00" fill="#000000">samples = 209</text>
<text text-anchor="start" x="311.5" y="-200.8" font-family="Helvetica,sans-Serif" font-size="14.00" fill="#000000">value = 118.0</text>
</g>
<!-- 0&#45;&gt;1 -->
<g id="edge1" class="edge">
<title>0&#45;&gt;1</title>
<path fill="none" stroke="#000000" d="M434.7075,-296.9465C423.9333,-287.6088 412.1436,-277.3911 400.985,-267.7203"/>
<polygon fill="#000000" stroke="#000000" points="403.2299,-265.0344 393.3808,-261.13 398.6454,-270.3243 403.2299,-265.0344"/>
<text text-anchor="middle" x="395.1619" y="-282.3665" font-family="Helvetica,sans-Serif" font-size="14.00" fill="#000000">True</text>
</g>
<!-- 8 -->
<g id="node9" class="node">
<title>8</title>
<path fill="#f0b48a" stroke="#000000" d="M637,-261C637,-261 553,-261 553,-261 547,-261 541,-255 541,-249 541,-249 541,-205 541,-205 541,-199 547,-193 553,-193 553,-193 637,-193 637,-193 643,-193 649,-199 649,-205 649,-205 649,-249 649,-249 649,-255 643,-261 637,-261"/>
<text text-anchor="start" x="566" y="-245.8" font-family="Helvetica,sans-Serif" font-size="14.00" fill="#000000">bmi ≤ 1.5</text>
<text text-anchor="start" x="552" y="-230.8" font-family="Helvetica,sans-Serif" font-size="14.00" fill="#000000">mse = 5119.3</text>
<text text-anchor="start" x="549" y="-215.8" font-family="Helvetica,sans-Serif" font-size="14.00" fill="#000000">samples = 144</text>
<text text-anchor="start" x="552.5" y="-200.8" font-family="Helvetica,sans-Serif" font-size="14.00" fill="#000000">value = 205.5</text>
</g>
<!-- 0&#45;&gt;8 -->
<g id="edge8" class="edge">
<title>0&#45;&gt;8</title>
<path fill="none" stroke="#000000" d="M513.6199,-296.9465C524.484,-287.6088 536.3718,-277.3911 547.6235,-267.7203"/>
<polygon fill="#000000" stroke="#000000" points="549.9887,-270.3026 555.2911,-261.13 545.4259,-264.994 549.9887,-270.3026"/>
<text text-anchor="middle" x="553.4075" y="-282.3589" font-family="Helvetica,sans-Serif" font-size="14.00" fill="#000000">False</text>
</g>
<!-- 2 -->
<g id="node3" class="node">
<title>2</title>
<path fill="#fdf3ec" stroke="#000000" d="M216,-157C216,-157 132,-157 132,-157 126,-157 120,-151 120,-145 120,-145 120,-101 120,-101 120,-95 126,-89 132,-89 132,-89 216,-89 216,-89 222,-89 228,-95 228,-101 228,-101 228,-145 228,-145 228,-151 222,-157 216,-157"/>
<text text-anchor="start" x="146.5" y="-141.8" font-family="Helvetica,sans-Serif" font-size="14.00" fill="#000000">s5 ≤ &#45;0.9</text>
<text text-anchor="start" x="131" y="-126.8" font-family="Helvetica,sans-Serif" font-size="14.00" fill="#000000">mse = 2378.3</text>
<text text-anchor="start" x="128" y="-111.8" font-family="Helvetica,sans-Serif" font-size="14.00" fill="#000000">samples = 152</text>
<text text-anchor="start" x="131.5" y="-96.8" font-family="Helvetica,sans-Serif" font-size="14.00" fill="#000000">value = 100.6</text>
</g>
<!-- 1&#45;&gt;2 -->
<g id="edge2" class="edge">
<title>1&#45;&gt;2</title>
<path fill="none" stroke="#000000" d="M299.9941,-195.7966C280.1504,-184.3313 257.5116,-171.2511 236.9496,-159.3709"/>
<polygon fill="#000000" stroke="#000000" points="238.6883,-156.3333 228.2787,-154.361 235.1863,-162.3944 238.6883,-156.3333"/>
</g>
<!-- 5 -->
<g id="node6" class="node">
<title>5</title>
<path fill="#f5cdb0" stroke="#000000" d="M393,-157C393,-157 315,-157 315,-157 309,-157 303,-151 303,-145 303,-145 303,-101 303,-101 303,-95 309,-89 315,-89 315,-89 393,-89 393,-89 399,-89 405,-95 405,-101 405,-101 405,-145 405,-145 405,-151 399,-157 393,-157"/>
<text text-anchor="start" x="329" y="-141.8" font-family="Helvetica,sans-Serif" font-size="14.00" fill="#000000">s4 ≤ 1.9</text>
<text text-anchor="start" x="311" y="-126.8" font-family="Helvetica,sans-Serif" font-size="14.00" fill="#000000">mse = 3915.5</text>
<text text-anchor="start" x="312" y="-111.8" font-family="Helvetica,sans-Serif" font-size="14.00" fill="#000000">samples = 57</text>
<text text-anchor="start" x="311.5" y="-96.8" font-family="Helvetica,sans-Serif" font-size="14.00" fill="#000000">value = 164.7</text>
</g>
<!-- 1&#45;&gt;5 -->
<g id="edge5" class="edge">
<title>1&#45;&gt;5</title>
<path fill="none" stroke="#000000" d="M354,-192.9465C354,-184.776 354,-175.9318 354,-167.3697"/>
<polygon fill="#000000" stroke="#000000" points="357.5001,-167.13 354,-157.13 350.5001,-167.13 357.5001,-167.13"/>
</g>
<!-- 3 -->
<g id="node4" class="node">
<title>3</title>
<path fill="#ffffff" stroke="#000000" d="M90,-53C90,-53 12,-53 12,-53 6,-53 0,-47 0,-41 0,-41 0,-12 0,-12 0,-6 6,0 12,0 12,0 90,0 90,0 96,0 102,-6 102,-12 102,-12 102,-41 102,-41 102,-47 96,-53 90,-53"/>
<text text-anchor="start" x="8" y="-37.8" font-family="Helvetica,sans-Serif" font-size="14.00" fill="#000000">mse = 1425.4</text>
<text text-anchor="start" x="9" y="-22.8" font-family="Helvetica,sans-Serif" font-size="14.00" fill="#000000">samples = 49</text>
<text text-anchor="start" x="12.5" y="-7.8" font-family="Helvetica,sans-Serif" font-size="14.00" fill="#000000">value = 80.9</text>
</g>
<!-- 2&#45;&gt;3 -->
<g id="edge3" class="edge">
<title>2&#45;&gt;3</title>
<path fill="none" stroke="#000000" d="M130.6348,-88.9777C118.4964,-79.4545 105.3228,-69.1191 93.2499,-59.6473"/>
<polygon fill="#000000" stroke="#000000" points="95.122,-56.6674 85.0939,-53.2485 90.8011,-62.1748 95.122,-56.6674"/>
</g>
<!-- 4 -->
<g id="node5" class="node">
<title>4</title>
<path fill="#fbeee4" stroke="#000000" d="M216,-53C216,-53 132,-53 132,-53 126,-53 120,-47 120,-41 120,-41 120,-12 120,-12 120,-6 126,0 132,0 132,0 216,0 216,0 222,0 228,-6 228,-12 228,-12 228,-41 228,-41 228,-47 222,-53 216,-53"/>
<text text-anchor="start" x="131" y="-37.8" font-family="Helvetica,sans-Serif" font-size="14.00" fill="#000000">mse = 2559.7</text>
<text text-anchor="start" x="128" y="-22.8" font-family="Helvetica,sans-Serif" font-size="14.00" fill="#000000">samples = 103</text>
<text text-anchor="start" x="131.5" y="-7.8" font-family="Helvetica,sans-Serif" font-size="14.00" fill="#000000">value = 109.9</text>
</g>
<!-- 2&#45;&gt;4 -->
<g id="edge4" class="edge">
<title>2&#45;&gt;4</title>
<path fill="none" stroke="#000000" d="M174,-88.9777C174,-80.7364 174,-71.887 174,-63.5153"/>
<polygon fill="#000000" stroke="#000000" points="177.5001,-63.2484 174,-53.2485 170.5001,-63.2485 177.5001,-63.2484"/>
</g>
<!-- 6 -->
<g id="node7" class="node">
<title>6</title>
<path fill="#f5d0b5" stroke="#000000" d="M336,-53C336,-53 258,-53 258,-53 252,-53 246,-47 246,-41 246,-41 246,-12 246,-12 246,-6 252,0 258,0 258,0 336,0 336,0 342,0 348,-6 348,-12 348,-12 348,-41 348,-41 348,-47 342,-53 336,-53"/>
<text text-anchor="start" x="254" y="-37.8" font-family="Helvetica,sans-Serif" font-size="14.00" fill="#000000">mse = 3601.6</text>
<text text-anchor="start" x="255" y="-22.8" font-family="Helvetica,sans-Serif" font-size="14.00" fill="#000000">samples = 54</text>
<text text-anchor="start" x="254.5" y="-7.8" font-family="Helvetica,sans-Serif" font-size="14.00" fill="#000000">value = 159.6</text>
</g>
<!-- 5&#45;&gt;6 -->
<g id="edge6" class="edge">
<title>5&#45;&gt;6</title>
<path fill="none" stroke="#000000" d="M333.9039,-88.9777C328.7656,-80.2786 323.227,-70.9018 318.0425,-62.1247"/>
<polygon fill="#000000" stroke="#000000" points="320.899,-60.0786 312.7996,-53.2485 314.8719,-63.6387 320.899,-60.0786"/>
</g>
<!-- 7 -->
<g id="node8" class="node">
<title>7</title>
<path fill="#e9965a" stroke="#000000" d="M455.5,-53C455.5,-53 378.5,-53 378.5,-53 372.5,-53 366.5,-47 366.5,-41 366.5,-41 366.5,-12 366.5,-12 366.5,-6 372.5,0 378.5,0 378.5,0 455.5,0 455.5,0 461.5,0 467.5,-6 467.5,-12 467.5,-12 467.5,-41 467.5,-41 467.5,-47 461.5,-53 455.5,-53"/>
<text text-anchor="start" x="378" y="-37.8" font-family="Helvetica,sans-Serif" font-size="14.00" fill="#000000">mse = 696.2</text>
<text text-anchor="start" x="379" y="-22.8" font-family="Helvetica,sans-Serif" font-size="14.00" fill="#000000">samples = 3</text>
<text text-anchor="start" x="374.5" y="-7.8" font-family="Helvetica,sans-Serif" font-size="14.00" fill="#000000">value = 256.3</text>
</g>
<!-- 5&#45;&gt;7 -->
<g id="edge7" class="edge">
<title>5&#45;&gt;7</title>
<path fill="none" stroke="#000000" d="M376.2114,-88.9777C381.9504,-80.187 388.1412,-70.7044 393.9233,-61.8477"/>
<polygon fill="#000000" stroke="#000000" points="397.0013,-63.5354 399.5373,-53.2485 391.1398,-59.7087 397.0013,-63.5354"/>
</g>
<!-- 9 -->
<g id="node10" class="node">
<title>9</title>
<path fill="#f1bd97" stroke="#000000" d="M637,-157C637,-157 553,-157 553,-157 547,-157 541,-151 541,-145 541,-145 541,-101 541,-101 541,-95 547,-89 553,-89 553,-89 637,-89 637,-89 643,-89 649,-95 649,-101 649,-101 649,-145 649,-145 649,-151 643,-157 637,-157"/>
<text text-anchor="start" x="570" y="-141.8" font-family="Helvetica,sans-Serif" font-size="14.00" fill="#000000">s6 ≤ 0.7</text>
<text text-anchor="start" x="552" y="-126.8" font-family="Helvetica,sans-Serif" font-size="14.00" fill="#000000">mse = 4557.3</text>
<text text-anchor="start" x="549" y="-111.8" font-family="Helvetica,sans-Serif" font-size="14.00" fill="#000000">samples = 118</text>
<text text-anchor="start" x="552.5" y="-96.8" font-family="Helvetica,sans-Serif" font-size="14.00" fill="#000000">value = 191.1</text>
</g>
<!-- 8&#45;&gt;9 -->
<g id="edge9" class="edge">
<title>8&#45;&gt;9</title>
<path fill="none" stroke="#000000" d="M595,-192.9465C595,-184.776 595,-175.9318 595,-167.3697"/>
<polygon fill="#000000" stroke="#000000" points="598.5001,-167.13 595,-157.13 591.5001,-167.13 598.5001,-167.13"/>
</g>
<!-- 12 -->
<g id="node13" class="node">
<title>12</title>
<path fill="#e78d4c" stroke="#000000" d="M816,-157C816,-157 738,-157 738,-157 732,-157 726,-151 726,-145 726,-145 726,-101 726,-101 726,-95 732,-89 738,-89 738,-89 816,-89 816,-89 822,-89 828,-95 828,-101 828,-101 828,-145 828,-145 828,-151 822,-157 816,-157"/>
<text text-anchor="start" x="752" y="-141.8" font-family="Helvetica,sans-Serif" font-size="14.00" fill="#000000">s2 ≤ 0.5</text>
<text text-anchor="start" x="734" y="-126.8" font-family="Helvetica,sans-Serif" font-size="14.00" fill="#000000">mse = 2428.3</text>
<text text-anchor="start" x="735" y="-111.8" font-family="Helvetica,sans-Serif" font-size="14.00" fill="#000000">samples = 26</text>
<text text-anchor="start" x="734.5" y="-96.8" font-family="Helvetica,sans-Serif" font-size="14.00" fill="#000000">value = 271.1</text>
</g>
<!-- 8&#45;&gt;12 -->
<g id="edge12" class="edge">
<title>8&#45;&gt;12</title>
<path fill="none" stroke="#000000" d="M649.1132,-196.0782C670.479,-183.8691 695.1105,-169.794 717.0177,-157.2756"/>
<polygon fill="#000000" stroke="#000000" points="718.9559,-160.1992 725.9019,-152.1989 715.4829,-154.1215 718.9559,-160.1992"/>
</g>
<!-- 10 -->
<g id="node11" class="node">
<title>10</title>
<path fill="#f3c6a6" stroke="#000000" d="M576,-53C576,-53 498,-53 498,-53 492,-53 486,-47 486,-41 486,-41 486,-12 486,-12 486,-6 492,0 498,0 498,0 576,0 576,0 582,0 588,-6 588,-12 588,-12 588,-41 588,-41 588,-47 582,-53 576,-53"/>
<text text-anchor="start" x="494" y="-37.8" font-family="Helvetica,sans-Serif" font-size="14.00" fill="#000000">mse = 4005.6</text>
<text text-anchor="start" x="495" y="-22.8" font-family="Helvetica,sans-Serif" font-size="14.00" fill="#000000">samples = 85</text>
<text text-anchor="start" x="494.5" y="-7.8" font-family="Helvetica,sans-Serif" font-size="14.00" fill="#000000">value = 175.8</text>
</g>
<!-- 9&#45;&gt;10 -->
<g id="edge10" class="edge">
<title>9&#45;&gt;10</title>
<path fill="none" stroke="#000000" d="M574.5514,-88.9777C569.2678,-80.187 563.5684,-70.7044 558.2452,-61.8477"/>
<polygon fill="#000000" stroke="#000000" points="561.2282,-60.0165 553.0768,-53.2485 555.2285,-63.6225 561.2282,-60.0165"/>
</g>
<!-- 11 -->
<g id="node12" class="node">
<title>11</title>
<path fill="#eda572" stroke="#000000" d="M696,-53C696,-53 618,-53 618,-53 612,-53 606,-47 606,-41 606,-41 606,-12 606,-12 606,-6 612,0 618,0 618,0 696,0 696,0 702,0 708,-6 708,-12 708,-12 708,-41 708,-41 708,-47 702,-53 696,-53"/>
<text text-anchor="start" x="614" y="-37.8" font-family="Helvetica,sans-Serif" font-size="14.00" fill="#000000">mse = 3821.9</text>
<text text-anchor="start" x="615" y="-22.8" font-family="Helvetica,sans-Serif" font-size="14.00" fill="#000000">samples = 33</text>
<text text-anchor="start" x="614.5" y="-7.8" font-family="Helvetica,sans-Serif" font-size="14.00" fill="#000000">value = 230.5</text>
</g>
<!-- 9&#45;&gt;11 -->
<g id="edge11" class="edge">
<title>9&#45;&gt;11</title>
<path fill="none" stroke="#000000" d="M616.8589,-88.9777C622.5068,-80.187 628.5993,-70.7044 634.2896,-61.8477"/>
<polygon fill="#000000" stroke="#000000" points="637.3537,-63.5536 639.8144,-53.2485 631.4644,-59.7698 637.3537,-63.5536"/>
</g>
<!-- 13 -->
<g id="node14" class="node">
<title>13</title>
<path fill="#e58139" stroke="#000000" d="M815.5,-53C815.5,-53 738.5,-53 738.5,-53 732.5,-53 726.5,-47 726.5,-41 726.5,-41 726.5,-12 726.5,-12 726.5,-6 732.5,0 738.5,0 738.5,0 815.5,0 815.5,0 821.5,0 827.5,-6 827.5,-12 827.5,-12 827.5,-41 827.5,-41 827.5,-47 821.5,-53 815.5,-53"/>
<text text-anchor="start" x="738" y="-37.8" font-family="Helvetica,sans-Serif" font-size="14.00" fill="#000000">mse = 962.8</text>
<text text-anchor="start" x="735" y="-22.8" font-family="Helvetica,sans-Serif" font-size="14.00" fill="#000000">samples = 18</text>
<text text-anchor="start" x="734.5" y="-7.8" font-family="Helvetica,sans-Serif" font-size="14.00" fill="#000000">value = 291.2</text>
</g>
<!-- 12&#45;&gt;13 -->
<g id="edge13" class="edge">
<title>12&#45;&gt;13</title>
<path fill="none" stroke="#000000" d="M777,-88.9777C777,-80.7364 777,-71.887 777,-63.5153"/>
<polygon fill="#000000" stroke="#000000" points="780.5001,-63.2484 777,-53.2485 773.5001,-63.2485 780.5001,-63.2484"/>
</g>
<!-- 14 -->
<g id="node15" class="node">
<title>14</title>
<path fill="#eda877" stroke="#000000" d="M936,-53C936,-53 858,-53 858,-53 852,-53 846,-47 846,-41 846,-41 846,-12 846,-12 846,-6 852,0 858,0 858,0 936,0 936,0 942,0 948,-6 948,-12 948,-12 948,-41 948,-41 948,-47 942,-53 936,-53"/>
<text text-anchor="start" x="854" y="-37.8" font-family="Helvetica,sans-Serif" font-size="14.00" fill="#000000">mse = 2757.9</text>
<text text-anchor="start" x="859" y="-22.8" font-family="Helvetica,sans-Serif" font-size="14.00" fill="#000000">samples = 8</text>
<text text-anchor="start" x="854.5" y="-7.8" font-family="Helvetica,sans-Serif" font-size="14.00" fill="#000000">value = 225.8</text>
</g>
<!-- 12&#45;&gt;14 -->
<g id="edge14" class="edge">
<title>12&#45;&gt;14</title>
<path fill="none" stroke="#000000" d="M819.3075,-88.9777C831.1499,-79.4545 844.0021,-69.1191 855.7805,-59.6473"/>
<polygon fill="#000000" stroke="#000000" points="858.1382,-62.2427 863.7376,-53.2485 853.7514,-56.7877 858.1382,-62.2427"/>
</g>
</g>
</svg>
